<?xml version="1.0" encoding="utf-8" standalone="no"?>
<!DOCTYPE svg PUBLIC "-//W3C//DTD SVG 1.1//EN"
  "http://www.w3.org/Graphics/SVG/1.1/DTD/svg11.dtd">
<!-- Created with matplotlib (https://matplotlib.org/) -->
<svg height="288pt" version="1.1" viewBox="0 0 576 288" width="576pt" xmlns="http://www.w3.org/2000/svg" xmlns:xlink="http://www.w3.org/1999/xlink">
 <metadata>
  <rdf:RDF xmlns:cc="http://creativecommons.org/ns#" xmlns:dc="http://purl.org/dc/elements/1.1/" xmlns:rdf="http://www.w3.org/1999/02/22-rdf-syntax-ns#">
   <cc:Work>
    <dc:type rdf:resource="http://purl.org/dc/dcmitype/StillImage"/>
    <dc:date>2020-11-18T19:03:00.204318</dc:date>
    <dc:format>image/svg+xml</dc:format>
    <dc:creator>
     <cc:Agent>
      <dc:title>Matplotlib v3.3.1, https://matplotlib.org/</dc:title>
     </cc:Agent>
    </dc:creator>
   </cc:Work>
  </rdf:RDF>
 </metadata>
 <defs>
  <style type="text/css">*{stroke-linecap:butt;stroke-linejoin:round;}</style>
 </defs>
 <g id="figure_1">
  <g id="patch_1">
   <path d="M 0 288 
L 576 288 
L 576 0 
L 0 0 
z
" style="fill:none;"/>
  </g>
  <g id="axes_1">
   <g id="patch_2">
    <path d="M 18.439469 266.376298 
L 573.165354 266.376298 
L 573.165354 2.834646 
L 18.439469 2.834646 
z
" style="fill:none;"/>
   </g>
   <g id="matplotlib.axis_1">
    <g id="xtick_1">
     <g id="line2d_1">
      <path clip-path="url(#p68386c39e7)" d="M 34.139258 266.376298 
L 34.139258 2.834646 
" style="fill:none;stroke:#000000;stroke-linecap:square;stroke-opacity:0.1;stroke-width:0.5;"/>
     </g>
     <g id="line2d_2">
      <defs>
       <path d="M 0 0 
L 0 -2.5 
" id="ma0491d5906" style="stroke:#000000;stroke-width:0.5;"/>
      </defs>
      <g>
       <use style="stroke:#000000;stroke-width:0.5;" x="34.139258" xlink:href="#ma0491d5906" y="258.917572"/>
      </g>
     </g>
     <g id="text_1">
      <!-- $\mathregular{}$ -->
      <g transform="translate(34.139258 268.496322)scale(0.08 -0.08)"/>
     </g>
    </g>
    <g id="xtick_2">
     <g id="line2d_3">
      <path clip-path="url(#p68386c39e7)" d="M 164.970835 266.376298 
L 164.970835 2.834646 
" style="fill:none;stroke:#000000;stroke-linecap:square;stroke-opacity:0.1;stroke-width:0.5;"/>
     </g>
     <g id="line2d_4">
      <g>
       <use style="stroke:#000000;stroke-width:0.5;" x="164.970835" xlink:href="#ma0491d5906" y="258.917572"/>
      </g>
     </g>
     <g id="text_2">
      <!-- $\mathregular{10}$ -->
      <g transform="translate(159.850835 268.496322)scale(0.08 -0.08)">
       <defs>
        <path d="M 12.40625 8.296875 
L 28.515625 8.296875 
L 28.515625 63.921875 
L 10.984375 60.40625 
L 10.984375 69.390625 
L 28.421875 72.90625 
L 38.28125 72.90625 
L 38.28125 8.296875 
L 54.390625 8.296875 
L 54.390625 0 
L 12.40625 0 
z
" id="DejaVuSans-49"/>
        <path d="M 31.78125 66.40625 
Q 24.171875 66.40625 20.328125 58.90625 
Q 16.5 51.421875 16.5 36.375 
Q 16.5 21.390625 20.328125 13.890625 
Q 24.171875 6.390625 31.78125 6.390625 
Q 39.453125 6.390625 43.28125 13.890625 
Q 47.125 21.390625 47.125 36.375 
Q 47.125 51.421875 43.28125 58.90625 
Q 39.453125 66.40625 31.78125 66.40625 
z
M 31.78125 74.21875 
Q 44.046875 74.21875 50.515625 64.515625 
Q 56.984375 54.828125 56.984375 36.375 
Q 56.984375 17.96875 50.515625 8.265625 
Q 44.046875 -1.421875 31.78125 -1.421875 
Q 19.53125 -1.421875 13.0625 8.265625 
Q 6.59375 17.96875 6.59375 36.375 
Q 6.59375 54.828125 13.0625 64.515625 
Q 19.53125 74.21875 31.78125 74.21875 
z
" id="DejaVuSans-48"/>
       </defs>
       <use transform="translate(0 0.78125)" xlink:href="#DejaVuSans-49"/>
       <use transform="translate(63.623047 0.78125)" xlink:href="#DejaVuSans-48"/>
      </g>
     </g>
    </g>
    <g id="xtick_3">
     <g id="line2d_5">
      <path clip-path="url(#p68386c39e7)" d="M 295.802412 266.376298 
L 295.802412 2.834646 
" style="fill:none;stroke:#000000;stroke-linecap:square;stroke-opacity:0.1;stroke-width:0.5;"/>
     </g>
     <g id="line2d_6">
      <g>
       <use style="stroke:#000000;stroke-width:0.5;" x="295.802412" xlink:href="#ma0491d5906" y="258.917572"/>
      </g>
     </g>
     <g id="text_3">
      <!-- $\mathregular{20}$ -->
      <g transform="translate(290.682412 268.496322)scale(0.08 -0.08)">
       <defs>
        <path d="M 19.1875 8.296875 
L 53.609375 8.296875 
L 53.609375 0 
L 7.328125 0 
L 7.328125 8.296875 
Q 12.9375 14.109375 22.625 23.890625 
Q 32.328125 33.6875 34.8125 36.53125 
Q 39.546875 41.84375 41.421875 45.53125 
Q 43.3125 49.21875 43.3125 52.78125 
Q 43.3125 58.59375 39.234375 62.25 
Q 35.15625 65.921875 28.609375 65.921875 
Q 23.96875 65.921875 18.8125 64.3125 
Q 13.671875 62.703125 7.8125 59.421875 
L 7.8125 69.390625 
Q 13.765625 71.78125 18.9375 73 
Q 24.125 74.21875 28.421875 74.21875 
Q 39.75 74.21875 46.484375 68.546875 
Q 53.21875 62.890625 53.21875 53.421875 
Q 53.21875 48.921875 51.53125 44.890625 
Q 49.859375 40.875 45.40625 35.40625 
Q 44.1875 33.984375 37.640625 27.21875 
Q 31.109375 20.453125 19.1875 8.296875 
z
" id="DejaVuSans-50"/>
       </defs>
       <use transform="translate(0 0.78125)" xlink:href="#DejaVuSans-50"/>
       <use transform="translate(63.623047 0.78125)" xlink:href="#DejaVuSans-48"/>
      </g>
     </g>
    </g>
    <g id="xtick_4">
     <g id="line2d_7">
      <path clip-path="url(#p68386c39e7)" d="M 426.633988 266.376298 
L 426.633988 2.834646 
" style="fill:none;stroke:#000000;stroke-linecap:square;stroke-opacity:0.1;stroke-width:0.5;"/>
     </g>
     <g id="line2d_8">
      <g>
       <use style="stroke:#000000;stroke-width:0.5;" x="426.633988" xlink:href="#ma0491d5906" y="258.917572"/>
      </g>
     </g>
     <g id="text_4">
      <!-- $\mathregular{30}$ -->
      <g transform="translate(421.513988 268.496322)scale(0.08 -0.08)">
       <defs>
        <path d="M 40.578125 39.3125 
Q 47.65625 37.796875 51.625 33 
Q 55.609375 28.21875 55.609375 21.1875 
Q 55.609375 10.40625 48.1875 4.484375 
Q 40.765625 -1.421875 27.09375 -1.421875 
Q 22.515625 -1.421875 17.65625 -0.515625 
Q 12.796875 0.390625 7.625 2.203125 
L 7.625 11.71875 
Q 11.71875 9.328125 16.59375 8.109375 
Q 21.484375 6.890625 26.8125 6.890625 
Q 36.078125 6.890625 40.9375 10.546875 
Q 45.796875 14.203125 45.796875 21.1875 
Q 45.796875 27.640625 41.28125 31.265625 
Q 36.765625 34.90625 28.71875 34.90625 
L 20.21875 34.90625 
L 20.21875 43.015625 
L 29.109375 43.015625 
Q 36.375 43.015625 40.234375 45.921875 
Q 44.09375 48.828125 44.09375 54.296875 
Q 44.09375 59.90625 40.109375 62.90625 
Q 36.140625 65.921875 28.71875 65.921875 
Q 24.65625 65.921875 20.015625 65.03125 
Q 15.375 64.15625 9.8125 62.3125 
L 9.8125 71.09375 
Q 15.4375 72.65625 20.34375 73.4375 
Q 25.25 74.21875 29.59375 74.21875 
Q 40.828125 74.21875 47.359375 69.109375 
Q 53.90625 64.015625 53.90625 55.328125 
Q 53.90625 49.265625 50.4375 45.09375 
Q 46.96875 40.921875 40.578125 39.3125 
z
" id="DejaVuSans-51"/>
       </defs>
       <use transform="translate(0 0.78125)" xlink:href="#DejaVuSans-51"/>
       <use transform="translate(63.623047 0.78125)" xlink:href="#DejaVuSans-48"/>
      </g>
     </g>
    </g>
    <g id="xtick_5">
     <g id="line2d_9">
      <path clip-path="url(#p68386c39e7)" d="M 557.465565 266.376298 
L 557.465565 2.834646 
" style="fill:none;stroke:#000000;stroke-linecap:square;stroke-opacity:0.1;stroke-width:0.5;"/>
     </g>
     <g id="line2d_10">
      <g>
       <use style="stroke:#000000;stroke-width:0.5;" x="557.465565" xlink:href="#ma0491d5906" y="258.917572"/>
      </g>
     </g>
     <g id="text_5">
      <!-- $\mathregular{40}$ -->
      <g transform="translate(552.345565 268.496322)scale(0.08 -0.08)">
       <defs>
        <path d="M 37.796875 64.3125 
L 12.890625 25.390625 
L 37.796875 25.390625 
z
M 35.203125 72.90625 
L 47.609375 72.90625 
L 47.609375 25.390625 
L 58.015625 25.390625 
L 58.015625 17.1875 
L 47.609375 17.1875 
L 47.609375 0 
L 37.796875 0 
L 37.796875 17.1875 
L 4.890625 17.1875 
L 4.890625 26.703125 
z
" id="DejaVuSans-52"/>
       </defs>
       <use transform="translate(0 0.78125)" xlink:href="#DejaVuSans-52"/>
       <use transform="translate(63.623047 0.78125)" xlink:href="#DejaVuSans-48"/>
      </g>
     </g>
    </g>
    <g id="xtick_6">
     <g id="line2d_11">
      <path clip-path="url(#p68386c39e7)" d="M 60.305574 266.376298 
L 60.305574 2.834646 
" style="fill:none;stroke:#000000;stroke-linecap:square;stroke-opacity:0.05;stroke-width:0.5;"/>
     </g>
     <g id="line2d_12">
      <defs>
       <path d="M 0 0 
L 0 -2 
" id="mcd9a2b89e1" style="stroke:#000000;stroke-width:0.5;"/>
      </defs>
      <g>
       <use style="stroke:#000000;stroke-width:0.5;" x="60.305574" xlink:href="#mcd9a2b89e1" y="258.917572"/>
      </g>
     </g>
    </g>
    <g id="xtick_7">
     <g id="line2d_13">
      <path clip-path="url(#p68386c39e7)" d="M 86.471889 266.376298 
L 86.471889 2.834646 
" style="fill:none;stroke:#000000;stroke-linecap:square;stroke-opacity:0.05;stroke-width:0.5;"/>
     </g>
     <g id="line2d_14">
      <g>
       <use style="stroke:#000000;stroke-width:0.5;" x="86.471889" xlink:href="#mcd9a2b89e1" y="258.917572"/>
      </g>
     </g>
    </g>
    <g id="xtick_8">
     <g id="line2d_15">
      <path clip-path="url(#p68386c39e7)" d="M 112.638204 266.376298 
L 112.638204 2.834646 
" style="fill:none;stroke:#000000;stroke-linecap:square;stroke-opacity:0.05;stroke-width:0.5;"/>
     </g>
     <g id="line2d_16">
      <g>
       <use style="stroke:#000000;stroke-width:0.5;" x="112.638204" xlink:href="#mcd9a2b89e1" y="258.917572"/>
      </g>
     </g>
    </g>
    <g id="xtick_9">
     <g id="line2d_17">
      <path clip-path="url(#p68386c39e7)" d="M 138.80452 266.376298 
L 138.80452 2.834646 
" style="fill:none;stroke:#000000;stroke-linecap:square;stroke-opacity:0.05;stroke-width:0.5;"/>
     </g>
     <g id="line2d_18">
      <g>
       <use style="stroke:#000000;stroke-width:0.5;" x="138.80452" xlink:href="#mcd9a2b89e1" y="258.917572"/>
      </g>
     </g>
    </g>
    <g id="xtick_10">
     <g id="line2d_19">
      <path clip-path="url(#p68386c39e7)" d="M 191.13715 266.376298 
L 191.13715 2.834646 
" style="fill:none;stroke:#000000;stroke-linecap:square;stroke-opacity:0.05;stroke-width:0.5;"/>
     </g>
     <g id="line2d_20">
      <g>
       <use style="stroke:#000000;stroke-width:0.5;" x="191.13715" xlink:href="#mcd9a2b89e1" y="258.917572"/>
      </g>
     </g>
    </g>
    <g id="xtick_11">
     <g id="line2d_21">
      <path clip-path="url(#p68386c39e7)" d="M 217.303466 266.376298 
L 217.303466 2.834646 
" style="fill:none;stroke:#000000;stroke-linecap:square;stroke-opacity:0.05;stroke-width:0.5;"/>
     </g>
     <g id="line2d_22">
      <g>
       <use style="stroke:#000000;stroke-width:0.5;" x="217.303466" xlink:href="#mcd9a2b89e1" y="258.917572"/>
      </g>
     </g>
    </g>
    <g id="xtick_12">
     <g id="line2d_23">
      <path clip-path="url(#p68386c39e7)" d="M 243.469781 266.376298 
L 243.469781 2.834646 
" style="fill:none;stroke:#000000;stroke-linecap:square;stroke-opacity:0.05;stroke-width:0.5;"/>
     </g>
     <g id="line2d_24">
      <g>
       <use style="stroke:#000000;stroke-width:0.5;" x="243.469781" xlink:href="#mcd9a2b89e1" y="258.917572"/>
      </g>
     </g>
    </g>
    <g id="xtick_13">
     <g id="line2d_25">
      <path clip-path="url(#p68386c39e7)" d="M 269.636096 266.376298 
L 269.636096 2.834646 
" style="fill:none;stroke:#000000;stroke-linecap:square;stroke-opacity:0.05;stroke-width:0.5;"/>
     </g>
     <g id="line2d_26">
      <g>
       <use style="stroke:#000000;stroke-width:0.5;" x="269.636096" xlink:href="#mcd9a2b89e1" y="258.917572"/>
      </g>
     </g>
    </g>
    <g id="xtick_14">
     <g id="line2d_27">
      <path clip-path="url(#p68386c39e7)" d="M 321.968727 266.376298 
L 321.968727 2.834646 
" style="fill:none;stroke:#000000;stroke-linecap:square;stroke-opacity:0.05;stroke-width:0.5;"/>
     </g>
     <g id="line2d_28">
      <g>
       <use style="stroke:#000000;stroke-width:0.5;" x="321.968727" xlink:href="#mcd9a2b89e1" y="258.917572"/>
      </g>
     </g>
    </g>
    <g id="xtick_15">
     <g id="line2d_29">
      <path clip-path="url(#p68386c39e7)" d="M 348.135042 266.376298 
L 348.135042 2.834646 
" style="fill:none;stroke:#000000;stroke-linecap:square;stroke-opacity:0.05;stroke-width:0.5;"/>
     </g>
     <g id="line2d_30">
      <g>
       <use style="stroke:#000000;stroke-width:0.5;" x="348.135042" xlink:href="#mcd9a2b89e1" y="258.917572"/>
      </g>
     </g>
    </g>
    <g id="xtick_16">
     <g id="line2d_31">
      <path clip-path="url(#p68386c39e7)" d="M 374.301358 266.376298 
L 374.301358 2.834646 
" style="fill:none;stroke:#000000;stroke-linecap:square;stroke-opacity:0.05;stroke-width:0.5;"/>
     </g>
     <g id="line2d_32">
      <g>
       <use style="stroke:#000000;stroke-width:0.5;" x="374.301358" xlink:href="#mcd9a2b89e1" y="258.917572"/>
      </g>
     </g>
    </g>
    <g id="xtick_17">
     <g id="line2d_33">
      <path clip-path="url(#p68386c39e7)" d="M 400.467673 266.376298 
L 400.467673 2.834646 
" style="fill:none;stroke:#000000;stroke-linecap:square;stroke-opacity:0.05;stroke-width:0.5;"/>
     </g>
     <g id="line2d_34">
      <g>
       <use style="stroke:#000000;stroke-width:0.5;" x="400.467673" xlink:href="#mcd9a2b89e1" y="258.917572"/>
      </g>
     </g>
    </g>
    <g id="xtick_18">
     <g id="line2d_35">
      <path clip-path="url(#p68386c39e7)" d="M 452.800304 266.376298 
L 452.800304 2.834646 
" style="fill:none;stroke:#000000;stroke-linecap:square;stroke-opacity:0.05;stroke-width:0.5;"/>
     </g>
     <g id="line2d_36">
      <g>
       <use style="stroke:#000000;stroke-width:0.5;" x="452.800304" xlink:href="#mcd9a2b89e1" y="258.917572"/>
      </g>
     </g>
    </g>
    <g id="xtick_19">
     <g id="line2d_37">
      <path clip-path="url(#p68386c39e7)" d="M 478.966619 266.376298 
L 478.966619 2.834646 
" style="fill:none;stroke:#000000;stroke-linecap:square;stroke-opacity:0.05;stroke-width:0.5;"/>
     </g>
     <g id="line2d_38">
      <g>
       <use style="stroke:#000000;stroke-width:0.5;" x="478.966619" xlink:href="#mcd9a2b89e1" y="258.917572"/>
      </g>
     </g>
    </g>
    <g id="xtick_20">
     <g id="line2d_39">
      <path clip-path="url(#p68386c39e7)" d="M 505.132934 266.376298 
L 505.132934 2.834646 
" style="fill:none;stroke:#000000;stroke-linecap:square;stroke-opacity:0.05;stroke-width:0.5;"/>
     </g>
     <g id="line2d_40">
      <g>
       <use style="stroke:#000000;stroke-width:0.5;" x="505.132934" xlink:href="#mcd9a2b89e1" y="258.917572"/>
      </g>
     </g>
    </g>
    <g id="xtick_21">
     <g id="line2d_41">
      <path clip-path="url(#p68386c39e7)" d="M 531.29925 266.376298 
L 531.29925 2.834646 
" style="fill:none;stroke:#000000;stroke-linecap:square;stroke-opacity:0.05;stroke-width:0.5;"/>
     </g>
     <g id="line2d_42">
      <g>
       <use style="stroke:#000000;stroke-width:0.5;" x="531.29925" xlink:href="#mcd9a2b89e1" y="258.917572"/>
      </g>
     </g>
    </g>
    <g id="text_6">
     <!-- Time (s) -->
     <g transform="translate(273.440615 282.518353)scale(0.11 -0.11)">
      <defs>
       <path d="M -0.296875 72.90625 
L 61.375 72.90625 
L 61.375 64.59375 
L 35.5 64.59375 
L 35.5 0 
L 25.59375 0 
L 25.59375 64.59375 
L -0.296875 64.59375 
z
" id="DejaVuSans-84"/>
       <path d="M 9.421875 54.6875 
L 18.40625 54.6875 
L 18.40625 0 
L 9.421875 0 
z
M 9.421875 75.984375 
L 18.40625 75.984375 
L 18.40625 64.59375 
L 9.421875 64.59375 
z
" id="DejaVuSans-105"/>
       <path d="M 52 44.1875 
Q 55.375 50.25 60.0625 53.125 
Q 64.75 56 71.09375 56 
Q 79.640625 56 84.28125 50.015625 
Q 88.921875 44.046875 88.921875 33.015625 
L 88.921875 0 
L 79.890625 0 
L 79.890625 32.71875 
Q 79.890625 40.578125 77.09375 44.375 
Q 74.3125 48.1875 68.609375 48.1875 
Q 61.625 48.1875 57.5625 43.546875 
Q 53.515625 38.921875 53.515625 30.90625 
L 53.515625 0 
L 44.484375 0 
L 44.484375 32.71875 
Q 44.484375 40.625 41.703125 44.40625 
Q 38.921875 48.1875 33.109375 48.1875 
Q 26.21875 48.1875 22.15625 43.53125 
Q 18.109375 38.875 18.109375 30.90625 
L 18.109375 0 
L 9.078125 0 
L 9.078125 54.6875 
L 18.109375 54.6875 
L 18.109375 46.1875 
Q 21.1875 51.21875 25.484375 53.609375 
Q 29.78125 56 35.6875 56 
Q 41.65625 56 45.828125 52.96875 
Q 50 49.953125 52 44.1875 
z
" id="DejaVuSans-109"/>
       <path d="M 56.203125 29.59375 
L 56.203125 25.203125 
L 14.890625 25.203125 
Q 15.484375 15.921875 20.484375 11.0625 
Q 25.484375 6.203125 34.421875 6.203125 
Q 39.59375 6.203125 44.453125 7.46875 
Q 49.3125 8.734375 54.109375 11.28125 
L 54.109375 2.78125 
Q 49.265625 0.734375 44.1875 -0.34375 
Q 39.109375 -1.421875 33.890625 -1.421875 
Q 20.796875 -1.421875 13.15625 6.1875 
Q 5.515625 13.8125 5.515625 26.8125 
Q 5.515625 40.234375 12.765625 48.109375 
Q 20.015625 56 32.328125 56 
Q 43.359375 56 49.78125 48.890625 
Q 56.203125 41.796875 56.203125 29.59375 
z
M 47.21875 32.234375 
Q 47.125 39.59375 43.09375 43.984375 
Q 39.0625 48.390625 32.421875 48.390625 
Q 24.90625 48.390625 20.390625 44.140625 
Q 15.875 39.890625 15.1875 32.171875 
z
" id="DejaVuSans-101"/>
       <path id="DejaVuSans-32"/>
       <path d="M 31 75.875 
Q 24.46875 64.65625 21.28125 53.65625 
Q 18.109375 42.671875 18.109375 31.390625 
Q 18.109375 20.125 21.3125 9.0625 
Q 24.515625 -2 31 -13.1875 
L 23.1875 -13.1875 
Q 15.875 -1.703125 12.234375 9.375 
Q 8.59375 20.453125 8.59375 31.390625 
Q 8.59375 42.28125 12.203125 53.3125 
Q 15.828125 64.359375 23.1875 75.875 
z
" id="DejaVuSans-40"/>
       <path d="M 44.28125 53.078125 
L 44.28125 44.578125 
Q 40.484375 46.53125 36.375 47.5 
Q 32.28125 48.484375 27.875 48.484375 
Q 21.1875 48.484375 17.84375 46.4375 
Q 14.5 44.390625 14.5 40.28125 
Q 14.5 37.15625 16.890625 35.375 
Q 19.28125 33.59375 26.515625 31.984375 
L 29.59375 31.296875 
Q 39.15625 29.25 43.1875 25.515625 
Q 47.21875 21.78125 47.21875 15.09375 
Q 47.21875 7.46875 41.1875 3.015625 
Q 35.15625 -1.421875 24.609375 -1.421875 
Q 20.21875 -1.421875 15.453125 -0.5625 
Q 10.6875 0.296875 5.421875 2 
L 5.421875 11.28125 
Q 10.40625 8.6875 15.234375 7.390625 
Q 20.0625 6.109375 24.8125 6.109375 
Q 31.15625 6.109375 34.5625 8.28125 
Q 37.984375 10.453125 37.984375 14.40625 
Q 37.984375 18.0625 35.515625 20.015625 
Q 33.0625 21.96875 24.703125 23.78125 
L 21.578125 24.515625 
Q 13.234375 26.265625 9.515625 29.90625 
Q 5.8125 33.546875 5.8125 39.890625 
Q 5.8125 47.609375 11.28125 51.796875 
Q 16.75 56 26.8125 56 
Q 31.78125 56 36.171875 55.265625 
Q 40.578125 54.546875 44.28125 53.078125 
z
" id="DejaVuSans-115"/>
       <path d="M 8.015625 75.875 
L 15.828125 75.875 
Q 23.140625 64.359375 26.78125 53.3125 
Q 30.421875 42.28125 30.421875 31.390625 
Q 30.421875 20.453125 26.78125 9.375 
Q 23.140625 -1.703125 15.828125 -13.1875 
L 8.015625 -13.1875 
Q 14.5 -2 17.703125 9.0625 
Q 20.90625 20.125 20.90625 31.390625 
Q 20.90625 42.671875 17.703125 53.65625 
Q 14.5 64.65625 8.015625 75.875 
z
" id="DejaVuSans-41"/>
      </defs>
      <use xlink:href="#DejaVuSans-84"/>
      <use x="57.958984" xlink:href="#DejaVuSans-105"/>
      <use x="85.742188" xlink:href="#DejaVuSans-109"/>
      <use x="183.154297" xlink:href="#DejaVuSans-101"/>
      <use x="244.677734" xlink:href="#DejaVuSans-32"/>
      <use x="276.464844" xlink:href="#DejaVuSans-40"/>
      <use x="315.478516" xlink:href="#DejaVuSans-115"/>
      <use x="367.578125" xlink:href="#DejaVuSans-41"/>
     </g>
    </g>
   </g>
   <g id="matplotlib.axis_2">
    <g id="ytick_1">
     <g id="line2d_43">
      <path clip-path="url(#p68386c39e7)" d="M 18.439469 258.917572 
L 573.165354 258.917572 
" style="fill:none;stroke:#000000;stroke-linecap:square;stroke-opacity:0.1;stroke-width:0.5;"/>
     </g>
     <g id="line2d_44">
      <defs>
       <path d="M 0 0 
L 2.5 0 
" id="mcf57172efa" style="stroke:#000000;stroke-width:0.5;"/>
      </defs>
      <g>
       <use style="stroke:#000000;stroke-width:0.5;" x="34.139258" xlink:href="#mcf57172efa" y="258.917572"/>
      </g>
     </g>
     <g id="text_7">
      <!-- $\mathregular{}$ -->
      <g transform="translate(30.639258 261.956947)scale(0.08 -0.08)"/>
     </g>
    </g>
    <g id="ytick_2">
     <g id="line2d_45">
      <path clip-path="url(#p68386c39e7)" d="M 18.439469 180.375095 
L 573.165354 180.375095 
" style="fill:none;stroke:#000000;stroke-linecap:square;stroke-opacity:0.1;stroke-width:0.5;"/>
     </g>
     <g id="line2d_46">
      <g>
       <use style="stroke:#000000;stroke-width:0.5;" x="34.139258" xlink:href="#mcf57172efa" y="180.375095"/>
      </g>
     </g>
     <g id="text_8">
      <!-- $\mathregular{0.5}$ -->
      <g transform="translate(17.839258 183.41447)scale(0.08 -0.08)">
       <defs>
        <path d="M 10.6875 12.40625 
L 21 12.40625 
L 21 0 
L 10.6875 0 
z
" id="DejaVuSans-46"/>
        <path d="M 10.796875 72.90625 
L 49.515625 72.90625 
L 49.515625 64.59375 
L 19.828125 64.59375 
L 19.828125 46.734375 
Q 21.96875 47.46875 24.109375 47.828125 
Q 26.265625 48.1875 28.421875 48.1875 
Q 40.625 48.1875 47.75 41.5 
Q 54.890625 34.8125 54.890625 23.390625 
Q 54.890625 11.625 47.5625 5.09375 
Q 40.234375 -1.421875 26.90625 -1.421875 
Q 22.3125 -1.421875 17.546875 -0.640625 
Q 12.796875 0.140625 7.71875 1.703125 
L 7.71875 11.625 
Q 12.109375 9.234375 16.796875 8.0625 
Q 21.484375 6.890625 26.703125 6.890625 
Q 35.15625 6.890625 40.078125 11.328125 
Q 45.015625 15.765625 45.015625 23.390625 
Q 45.015625 31 40.078125 35.4375 
Q 35.15625 39.890625 26.703125 39.890625 
Q 22.75 39.890625 18.8125 39.015625 
Q 14.890625 38.140625 10.796875 36.28125 
z
" id="DejaVuSans-53"/>
       </defs>
       <use transform="translate(0 0.78125)" xlink:href="#DejaVuSans-48"/>
       <use transform="translate(63.623047 0.78125)" xlink:href="#DejaVuSans-46"/>
       <use transform="translate(95.410156 0.78125)" xlink:href="#DejaVuSans-53"/>
      </g>
     </g>
    </g>
    <g id="ytick_3">
     <g id="line2d_47">
      <path clip-path="url(#p68386c39e7)" d="M 18.439469 101.832617 
L 573.165354 101.832617 
" style="fill:none;stroke:#000000;stroke-linecap:square;stroke-opacity:0.1;stroke-width:0.5;"/>
     </g>
     <g id="line2d_48">
      <g>
       <use style="stroke:#000000;stroke-width:0.5;" x="34.139258" xlink:href="#mcf57172efa" y="101.832617"/>
      </g>
     </g>
     <g id="text_9">
      <!-- $\mathregular{1.0}$ -->
      <g transform="translate(17.839258 104.871992)scale(0.08 -0.08)">
       <use transform="translate(0 0.78125)" xlink:href="#DejaVuSans-49"/>
       <use transform="translate(63.623047 0.78125)" xlink:href="#DejaVuSans-46"/>
       <use transform="translate(95.410156 0.78125)" xlink:href="#DejaVuSans-48"/>
      </g>
     </g>
    </g>
    <g id="ytick_4">
     <g id="line2d_49">
      <path clip-path="url(#p68386c39e7)" d="M 18.439469 23.29014 
L 573.165354 23.29014 
" style="fill:none;stroke:#000000;stroke-linecap:square;stroke-opacity:0.1;stroke-width:0.5;"/>
     </g>
     <g id="line2d_50">
      <g>
       <use style="stroke:#000000;stroke-width:0.5;" x="34.139258" xlink:href="#mcf57172efa" y="23.29014"/>
      </g>
     </g>
     <g id="text_10">
      <!-- $\mathregular{1.5}$ -->
      <g transform="translate(17.839258 26.329515)scale(0.08 -0.08)">
       <use transform="translate(0 0.09375)" xlink:href="#DejaVuSans-49"/>
       <use transform="translate(63.623047 0.09375)" xlink:href="#DejaVuSans-46"/>
       <use transform="translate(95.410156 0.09375)" xlink:href="#DejaVuSans-53"/>
      </g>
     </g>
    </g>
    <g id="ytick_5">
     <g id="line2d_51">
      <path clip-path="url(#p68386c39e7)" d="M 18.439469 243.209076 
L 573.165354 243.209076 
" style="fill:none;stroke:#000000;stroke-linecap:square;stroke-opacity:0.05;stroke-width:0.5;"/>
     </g>
     <g id="line2d_52">
      <defs>
       <path d="M 0 0 
L 2 0 
" id="m0049d09887" style="stroke:#000000;stroke-width:0.5;"/>
      </defs>
      <g>
       <use style="stroke:#000000;stroke-width:0.5;" x="34.139258" xlink:href="#m0049d09887" y="243.209076"/>
      </g>
     </g>
    </g>
    <g id="ytick_6">
     <g id="line2d_53">
      <path clip-path="url(#p68386c39e7)" d="M 18.439469 227.500581 
L 573.165354 227.500581 
" style="fill:none;stroke:#000000;stroke-linecap:square;stroke-opacity:0.05;stroke-width:0.5;"/>
     </g>
     <g id="line2d_54">
      <g>
       <use style="stroke:#000000;stroke-width:0.5;" x="34.139258" xlink:href="#m0049d09887" y="227.500581"/>
      </g>
     </g>
    </g>
    <g id="ytick_7">
     <g id="line2d_55">
      <path clip-path="url(#p68386c39e7)" d="M 18.439469 211.792085 
L 573.165354 211.792085 
" style="fill:none;stroke:#000000;stroke-linecap:square;stroke-opacity:0.05;stroke-width:0.5;"/>
     </g>
     <g id="line2d_56">
      <g>
       <use style="stroke:#000000;stroke-width:0.5;" x="34.139258" xlink:href="#m0049d09887" y="211.792085"/>
      </g>
     </g>
    </g>
    <g id="ytick_8">
     <g id="line2d_57">
      <path clip-path="url(#p68386c39e7)" d="M 18.439469 196.08359 
L 573.165354 196.08359 
" style="fill:none;stroke:#000000;stroke-linecap:square;stroke-opacity:0.05;stroke-width:0.5;"/>
     </g>
     <g id="line2d_58">
      <g>
       <use style="stroke:#000000;stroke-width:0.5;" x="34.139258" xlink:href="#m0049d09887" y="196.08359"/>
      </g>
     </g>
    </g>
    <g id="ytick_9">
     <g id="line2d_59">
      <path clip-path="url(#p68386c39e7)" d="M 18.439469 164.666599 
L 573.165354 164.666599 
" style="fill:none;stroke:#000000;stroke-linecap:square;stroke-opacity:0.05;stroke-width:0.5;"/>
     </g>
     <g id="line2d_60">
      <g>
       <use style="stroke:#000000;stroke-width:0.5;" x="34.139258" xlink:href="#m0049d09887" y="164.666599"/>
      </g>
     </g>
    </g>
    <g id="ytick_10">
     <g id="line2d_61">
      <path clip-path="url(#p68386c39e7)" d="M 18.439469 148.958104 
L 573.165354 148.958104 
" style="fill:none;stroke:#000000;stroke-linecap:square;stroke-opacity:0.05;stroke-width:0.5;"/>
     </g>
     <g id="line2d_62">
      <g>
       <use style="stroke:#000000;stroke-width:0.5;" x="34.139258" xlink:href="#m0049d09887" y="148.958104"/>
      </g>
     </g>
    </g>
    <g id="ytick_11">
     <g id="line2d_63">
      <path clip-path="url(#p68386c39e7)" d="M 18.439469 133.249608 
L 573.165354 133.249608 
" style="fill:none;stroke:#000000;stroke-linecap:square;stroke-opacity:0.05;stroke-width:0.5;"/>
     </g>
     <g id="line2d_64">
      <g>
       <use style="stroke:#000000;stroke-width:0.5;" x="34.139258" xlink:href="#m0049d09887" y="133.249608"/>
      </g>
     </g>
    </g>
    <g id="ytick_12">
     <g id="line2d_65">
      <path clip-path="url(#p68386c39e7)" d="M 18.439469 117.541113 
L 573.165354 117.541113 
" style="fill:none;stroke:#000000;stroke-linecap:square;stroke-opacity:0.05;stroke-width:0.5;"/>
     </g>
     <g id="line2d_66">
      <g>
       <use style="stroke:#000000;stroke-width:0.5;" x="34.139258" xlink:href="#m0049d09887" y="117.541113"/>
      </g>
     </g>
    </g>
    <g id="ytick_13">
     <g id="line2d_67">
      <path clip-path="url(#p68386c39e7)" d="M 18.439469 86.124122 
L 573.165354 86.124122 
" style="fill:none;stroke:#000000;stroke-linecap:square;stroke-opacity:0.05;stroke-width:0.5;"/>
     </g>
     <g id="line2d_68">
      <g>
       <use style="stroke:#000000;stroke-width:0.5;" x="34.139258" xlink:href="#m0049d09887" y="86.124122"/>
      </g>
     </g>
    </g>
    <g id="ytick_14">
     <g id="line2d_69">
      <path clip-path="url(#p68386c39e7)" d="M 18.439469 70.415627 
L 573.165354 70.415627 
" style="fill:none;stroke:#000000;stroke-linecap:square;stroke-opacity:0.05;stroke-width:0.5;"/>
     </g>
     <g id="line2d_70">
      <g>
       <use style="stroke:#000000;stroke-width:0.5;" x="34.139258" xlink:href="#m0049d09887" y="70.415627"/>
      </g>
     </g>
    </g>
    <g id="ytick_15">
     <g id="line2d_71">
      <path clip-path="url(#p68386c39e7)" d="M 18.439469 54.707131 
L 573.165354 54.707131 
" style="fill:none;stroke:#000000;stroke-linecap:square;stroke-opacity:0.05;stroke-width:0.5;"/>
     </g>
     <g id="line2d_72">
      <g>
       <use style="stroke:#000000;stroke-width:0.5;" x="34.139258" xlink:href="#m0049d09887" y="54.707131"/>
      </g>
     </g>
    </g>
    <g id="ytick_16">
     <g id="line2d_73">
      <path clip-path="url(#p68386c39e7)" d="M 18.439469 38.998636 
L 573.165354 38.998636 
" style="fill:none;stroke:#000000;stroke-linecap:square;stroke-opacity:0.05;stroke-width:0.5;"/>
     </g>
     <g id="line2d_74">
      <g>
       <use style="stroke:#000000;stroke-width:0.5;" x="34.139258" xlink:href="#m0049d09887" y="38.998636"/>
      </g>
     </g>
    </g>
    <g id="ytick_17">
     <g id="line2d_75">
      <path clip-path="url(#p68386c39e7)" d="M 18.439469 7.581645 
L 573.165354 7.581645 
" style="fill:none;stroke:#000000;stroke-linecap:square;stroke-opacity:0.05;stroke-width:0.5;"/>
     </g>
     <g id="line2d_76">
      <g>
       <use style="stroke:#000000;stroke-width:0.5;" x="34.139258" xlink:href="#m0049d09887" y="7.581645"/>
      </g>
     </g>
    </g>
    <g id="text_11">
     <!-- A -->
     <g transform="translate(11.551602 138.367815)rotate(-90)scale(0.11 -0.11)">
      <defs>
       <path d="M 34.1875 63.1875 
L 20.796875 26.90625 
L 47.609375 26.90625 
z
M 28.609375 72.90625 
L 39.796875 72.90625 
L 67.578125 0 
L 57.328125 0 
L 50.6875 18.703125 
L 17.828125 18.703125 
L 11.1875 0 
L 0.78125 0 
z
" id="DejaVuSans-65"/>
      </defs>
      <use xlink:href="#DejaVuSans-65"/>
     </g>
    </g>
   </g>
   <g id="line2d_77">
    <path clip-path="url(#p68386c39e7)" d="M 34.139258 258.917572 
L 34.924248 258.804967 
L 35.709237 258.469235 
L 36.625058 257.799997 
L 37.540879 256.837357 
L 38.587532 255.385958 
L 39.765016 253.317382 
L 41.073332 250.496041 
L 42.512479 246.783293 
L 44.082458 242.042387 
L 45.783269 236.144404 
L 47.614911 228.974952 
L 49.708216 219.843903 
L 52.063184 208.527093 
L 54.810647 194.166127 
L 58.212268 175.091503 
L 63.3147 144.993024 
L 70.117942 105.026737 
L 73.650394 85.581301 
L 76.659521 70.222954 
L 79.276152 57.990476 
L 81.631121 48.003334 
L 83.855257 39.544235 
L 85.817731 32.915742 
L 87.649373 27.467591 
L 89.350184 23.066534 
L 90.920163 19.577388 
L 92.35931 16.867899 
L 93.798457 14.628143 
L 95.106773 12.999234 
L 96.284257 11.863035 
L 97.461741 11.036789 
L 98.508394 10.560145 
L 99.555047 10.323099 
L 100.601699 10.322216 
L 101.648352 10.553554 
L 102.695004 11.012667 
L 103.872489 11.795248 
L 105.049973 12.852013 
L 106.358289 14.337257 
L 107.797436 16.334127 
L 109.367415 18.924609 
L 111.068225 22.187511 
L 112.899867 26.193408 
L 114.993173 31.338236 
L 117.348141 37.762702 
L 119.964773 45.566299 
L 123.10473 55.647053 
L 127.422172 70.320924 
L 136.842046 102.550216 
L 140.374499 113.706188 
L 143.252793 122.098065 
L 145.869425 129.060884 
L 148.224393 134.713284 
L 150.44853 139.470991 
L 152.411004 143.173617 
L 154.242646 146.194563 
L 156.074288 148.785376 
L 157.775098 150.799153 
L 159.345077 152.31974 
L 160.784225 153.427549 
L 162.223372 154.262511 
L 163.662519 154.82675 
L 164.970835 155.107663 
L 166.279151 155.171255 
L 167.587467 155.022011 
L 169.026614 154.61849 
L 170.465761 153.972459 
L 172.03574 153.002011 
L 173.605719 151.765484 
L 175.30653 150.141801 
L 177.138172 148.083995 
L 179.100645 145.551209 
L 181.324782 142.311038 
L 183.810582 138.284905 
L 186.688877 133.185316 
L 190.221329 126.450327 
L 195.847087 115.160967 
L 202.257834 102.413017 
L 205.921119 95.608259 
L 209.061076 90.231249 
L 211.808539 85.958782 
L 214.294339 82.491877 
L 216.649308 79.58902 
L 218.873445 77.208911 
L 220.96675 75.301953 
L 222.929223 73.814018 
L 224.760866 72.68975 
L 226.592508 71.822755 
L 228.42415 71.212577 
L 230.12496 70.873815 
L 231.825771 70.750961 
L 233.526581 70.839194 
L 235.358223 71.163119 
L 237.189865 71.715047 
L 239.152339 72.546356 
L 241.245644 73.688436 
L 243.469781 75.168367 
L 245.824749 77.006473 
L 248.441381 79.33508 
L 251.450507 82.324279 
L 254.98296 86.158235 
L 260.085391 92.065173 
L 268.720275 102.085473 
L 272.645223 106.272677 
L 275.916012 109.450209 
L 278.925138 112.066262 
L 281.672601 114.164256 
L 284.289233 115.879477 
L 286.775033 117.237654 
L 289.130001 118.271761 
L 291.48497 119.056055 
L 293.709106 119.567349 
L 295.933243 119.859007 
L 298.288212 119.935512 
L 300.64318 119.7808 
L 302.998148 119.404339 
L 305.483948 118.780747 
L 308.10058 117.892437 
L 310.978875 116.668259 
L 314.118832 115.078222 
L 317.651285 113.033315 
L 322.099559 110.180758 
L 330.341948 104.555847 
L 336.229369 100.679741 
L 340.415979 98.176693 
L 344.079264 96.239691 
L 347.480885 94.695501 
L 350.620842 93.511733 
L 353.629969 92.608296 
L 356.639095 91.937242 
L 359.648221 91.501073 
L 362.657347 91.298447 
L 365.666474 91.323083 
L 368.806432 91.579295 
L 372.077221 92.077631 
L 375.609673 92.851246 
L 379.403789 93.914647 
L 383.852063 95.403585 
L 389.608652 97.587116 
L 404.261789 103.25662 
L 409.102557 104.823551 
L 413.419999 105.989974 
L 417.475778 106.856548 
L 421.400725 107.465179 
L 425.194841 107.830106 
L 428.988957 107.976296 
L 432.913904 107.90762 
L 437.100515 107.608623 
L 441.548788 107.06411 
L 446.520388 106.227573 
L 452.669472 104.954811 
L 475.172503 100.06464 
L 480.66743 99.227341 
L 485.769861 98.672382 
L 490.741461 98.353606 
L 495.843892 98.252307 
L 501.077156 98.370567 
L 506.702913 98.721468 
L 513.244492 99.362174 
L 522.010208 100.466148 
L 539.018313 102.646359 
L 546.344881 103.330278 
L 553.017292 103.733452 
L 557.465565 103.876353 
L 557.465565 103.876353 
" style="fill:none;stroke:#009afa;stroke-width:3;"/>
   </g>
   <g id="line2d_78">
    <path clip-path="url(#p68386c39e7)" d="M 34.139258 258.917572 
L 34.924248 258.806082 
L 35.709237 258.47803 
L 36.625058 257.834323 
L 37.540879 256.923813 
L 38.587532 255.575448 
L 39.765016 253.691947 
L 41.073332 251.179236 
L 42.643311 247.635302 
L 44.344121 243.218779 
L 46.306595 237.480957 
L 48.661563 229.84806 
L 51.409026 220.153996 
L 55.072311 206.362582 
L 67.632142 158.364753 
L 71.033763 146.562437 
L 74.173721 136.462998 
L 77.052015 127.958087 
L 79.668647 120.893196 
L 82.154447 114.789959 
L 84.509415 109.561285 
L 86.864384 104.869855 
L 89.088521 100.924695 
L 91.312657 97.440161 
L 93.405963 94.568557 
L 95.499268 92.077551 
L 97.461741 90.072738 
L 99.424215 88.372711 
L 101.386689 86.960196 
L 103.349162 85.817502 
L 105.311636 84.926883 
L 107.27411 84.270528 
L 109.367415 83.808493 
L 111.46072 83.570909 
L 113.684857 83.540114 
L 116.039825 83.727986 
L 118.656457 84.166525 
L 121.534752 84.883248 
L 124.805541 85.936383 
L 128.730488 87.447695 
L 134.094583 89.775506 
L 147.96273 95.897348 
L 153.065162 97.848734 
L 157.775098 99.416661 
L 162.354203 100.705873 
L 166.802477 101.7317 
L 171.381582 102.560921 
L 176.091519 103.189368 
L 181.193951 103.640995 
L 186.688877 103.899313 
L 192.837961 103.962239 
L 200.295361 103.807173 
L 210.761887 103.345982 
L 237.713192 102.07268 
L 250.796349 101.735959 
L 265.318654 101.592473 
L 285.990043 101.63582 
L 346.565063 101.861266 
L 557.465565 101.832642 
L 557.465565 101.832642 
" style="fill:none;stroke:#e36f47;stroke-width:3;"/>
   </g>
   <g id="patch_3">
    <path d="M 34.139258 266.376298 
L 34.139258 2.834646 
" style="fill:none;stroke:#000000;stroke-linecap:square;stroke-linejoin:miter;"/>
   </g>
   <g id="patch_4">
    <path d="M 18.439469 258.917572 
L 573.165354 258.917572 
" style="fill:none;stroke:#000000;stroke-linecap:square;stroke-linejoin:miter;"/>
   </g>
   <g id="line2d_79">
    <path clip-path="url(#p68386c39e7)" d="M 34.139258 258.917572 
L 34.924248 258.810678 
L 35.840069 258.446942 
L 36.886721 257.773757 
L 38.195037 256.629673 
L 39.765016 254.92769 
L 41.72749 252.455859 
L 44.474953 248.616414 
L 49.839047 240.646929 
L 57.034784 230.065461 
L 62.398879 222.58241 
L 67.50131 215.842164 
L 72.603742 209.46884 
L 77.706173 203.448535 
L 82.808605 197.763967 
L 88.041868 192.263289 
L 93.405963 186.952242 
L 98.770057 181.952987 
L 104.264983 177.136122 
L 109.890741 172.504456 
L 115.516499 168.157582 
L 121.273088 163.986348 
L 127.160509 159.991606 
L 133.178762 156.173077 
L 139.327846 152.530345 
L 145.738593 148.993205 
L 152.280172 145.63732 
L 159.083414 142.399331 
L 166.017488 139.348033 
L 173.344056 136.370838 
L 180.801456 133.581699 
L 188.520519 130.935907 
L 196.632077 128.387418 
L 205.005297 125.995621 
L 213.771013 123.71857 
L 223.060055 121.541523 
L 232.741592 119.501869 
L 243.077286 117.556341 
L 253.936307 115.743508 
L 265.449486 114.048812 
L 277.747654 112.465656 
L 290.961643 110.992723 
L 305.091454 109.642878 
L 320.398748 108.404 
L 337.14519 107.272508 
L 355.592442 106.250171 
L 376.133 105.336226 
L 399.551852 104.522739 
L 426.372325 103.820176 
L 457.902735 103.225134 
L 495.843892 102.740205 
L 543.72825 102.361332 
L 557.465565 102.285402 
L 557.465565 102.285402 
" style="fill:none;stroke:#3ea44e;stroke-width:3;"/>
   </g>
   <g id="legend_1">
    <g id="patch_5">
     <path d="M 498.125354 50.862146 
L 569.165354 50.862146 
L 569.165354 6.834646 
L 498.125354 6.834646 
z
" style="fill:none;opacity:0;"/>
    </g>
    <g id="line2d_80">
     <path d="M 504.525354 16.513396 
L 520.525354 16.513396 
" style="fill:none;stroke:#009afa;stroke-linejoin:miter;"/>
    </g>
    <g id="line2d_81"/>
    <g id="text_12">
     <!-- $F_v=$1.5 -->
     <g transform="translate(526.925354 19.313396)scale(0.08 -0.08)">
      <defs>
       <path d="M 16.890625 72.90625 
L 58.6875 72.90625 
L 57.078125 64.59375 
L 25.09375 64.59375 
L 20.90625 43.109375 
L 49.8125 43.109375 
L 48.1875 34.8125 
L 19.28125 34.8125 
L 12.5 0 
L 2.6875 0 
z
" id="DejaVuSans-Oblique-70"/>
       <path d="M 7.171875 54.6875 
L 16.703125 54.6875 
L 24.703125 8.203125 
L 50.875 54.6875 
L 60.40625 54.6875 
L 29.296875 0 
L 17.1875 0 
z
" id="DejaVuSans-Oblique-118"/>
       <path d="M 10.59375 45.40625 
L 73.1875 45.40625 
L 73.1875 37.203125 
L 10.59375 37.203125 
z
M 10.59375 25.484375 
L 73.1875 25.484375 
L 73.1875 17.1875 
L 10.59375 17.1875 
z
" id="DejaVuSans-61"/>
      </defs>
      <use transform="translate(0 0.09375)" xlink:href="#DejaVuSans-Oblique-70"/>
      <use transform="translate(57.519531 -16.3125)scale(0.7)" xlink:href="#DejaVuSans-Oblique-118"/>
      <use transform="translate(121.162109 0.09375)" xlink:href="#DejaVuSans-61"/>
      <use transform="translate(224.433594 0.09375)" xlink:href="#DejaVuSans-49"/>
      <use transform="translate(288.056641 0.09375)" xlink:href="#DejaVuSans-46"/>
      <use transform="translate(319.84375 0.09375)" xlink:href="#DejaVuSans-53"/>
     </g>
    </g>
    <g id="line2d_82">
     <path d="M 504.525354 28.255896 
L 520.525354 28.255896 
" style="fill:none;stroke:#e36f47;stroke-linejoin:miter;"/>
    </g>
    <g id="line2d_83"/>
    <g id="text_13">
     <!-- $F_v=$5.0 -->
     <g transform="translate(526.925354 31.055896)scale(0.08 -0.08)">
      <use transform="translate(0 0.78125)" xlink:href="#DejaVuSans-Oblique-70"/>
      <use transform="translate(57.519531 -15.625)scale(0.7)" xlink:href="#DejaVuSans-Oblique-118"/>
      <use transform="translate(121.162109 0.78125)" xlink:href="#DejaVuSans-61"/>
      <use transform="translate(224.433594 0.78125)" xlink:href="#DejaVuSans-53"/>
      <use transform="translate(288.056641 0.78125)" xlink:href="#DejaVuSans-46"/>
      <use transform="translate(319.84375 0.78125)" xlink:href="#DejaVuSans-48"/>
     </g>
    </g>
    <g id="line2d_84">
     <path d="M 504.525354 39.998396 
L 520.525354 39.998396 
" style="fill:none;stroke:#3ea44e;stroke-linejoin:miter;"/>
    </g>
    <g id="line2d_85"/>
    <g id="text_14">
     <!-- $F_v=$20.0 -->
     <g transform="translate(526.925354 42.798396)scale(0.08 -0.08)">
      <use transform="translate(0 0.78125)" xlink:href="#DejaVuSans-Oblique-70"/>
      <use transform="translate(57.519531 -15.625)scale(0.7)" xlink:href="#DejaVuSans-Oblique-118"/>
      <use transform="translate(121.162109 0.78125)" xlink:href="#DejaVuSans-61"/>
      <use transform="translate(224.433594 0.78125)" xlink:href="#DejaVuSans-50"/>
      <use transform="translate(288.056641 0.78125)" xlink:href="#DejaVuSans-48"/>
      <use transform="translate(351.679688 0.78125)" xlink:href="#DejaVuSans-46"/>
      <use transform="translate(383.466797 0.78125)" xlink:href="#DejaVuSans-48"/>
     </g>
    </g>
   </g>
  </g>
 </g>
 <defs>
  <clipPath id="p68386c39e7">
   <rect height="263.541652" width="554.725885" x="18.439469" y="2.834646"/>
  </clipPath>
 </defs>
</svg>
