<?xml version="1.0" encoding="UTF-8" standalone="no"?>
<svg
   xmlns:dc="http://purl.org/dc/elements/1.1/"
   xmlns:cc="http://creativecommons.org/ns#"
   xmlns:rdf="http://www.w3.org/1999/02/22-rdf-syntax-ns#"
   xmlns:svg="http://www.w3.org/2000/svg"
   xmlns="http://www.w3.org/2000/svg"
   xmlns:sodipodi="http://sodipodi.sourceforge.net/DTD/sodipodi-0.dtd"
   xmlns:inkscape="http://www.inkscape.org/namespaces/inkscape"
   sodipodi:docname="pzexample.svg"
   inkscape:version="1.0.1 (3bc2e813f5, 2020-09-07)"
   id="svg34379"
   version="1.1"
   viewBox="0 0 110.99524 56.79199"
   height="214.6469"
   width="419.50958">
  <defs
     id="defs34373">
    <marker
       markerUnits="strokeWidth"
       orient="auto"
       id="Arrow2Lstart">
      <path
         d="M 8.71859,4.03374 -2.20729,0.0160133 8.71859,-4.00171 c -1.7455,2.37206 -1.73544,5.61745 0,8.03545 z"
         id="path1676"
         stroke="#000000"
         stroke-width="0.625"
         stroke-linejoin="round"
         fill-rule="evenodd"
         transform="matrix(1.1,0,0,1.1,1.1,0)" />
    </marker>
    <marker
       markerUnits="strokeWidth"
       orient="auto"
       id="marker2120">
      <path
         d="M 8.71859,4.03374 -2.20729,0.0160133 8.71859,-4.00171 c -1.7455,2.37206 -1.73544,5.61745 0,8.03545 z"
         id="path2118"
         stroke="#000000"
         stroke-width="0.625"
         stroke-linejoin="round"
         fill-rule="evenodd"
         transform="matrix(1.1,0,0,1.1,1.1,0)" />
    </marker>
  </defs>
  <sodipodi:namedview
     inkscape:guide-bbox="true"
     units="px"
     showguides="true"
     inkscape:document-rotation="0"
     inkscape:window-maximized="1"
     inkscape:window-y="172"
     inkscape:window-x="-8"
     inkscape:window-height="1387"
     inkscape:window-width="2560"
     showgrid="true"
     inkscape:current-layer="layer1"
     inkscape:document-units="mm"
     inkscape:cy="134.64688"
     inkscape:cx="230"
     inkscape:zoom="3.17"
     inkscape:pageshadow="2"
     inkscape:pageopacity="0.0"
     borderopacity="1.0"
     bordercolor="#666666"
     pagecolor="#ffffff"
     id="base">
    <inkscape:grid
       empopacity="0.03529412"
       empcolor="#3f3fff"
       opacity="0.03529412"
       color="#3f3fff"
       spacingy="2.6458333"
       spacingx="2.6458333"
       id="grid8056"
       type="xygrid"
       originx="-18.520832"
       originy="-4.0621783" />
    <sodipodi:guide
       inkscape:color="rgb(0,0,255)"
       inkscape:locked="false"
       inkscape:label=""
       id="guide8058"
       orientation="-1,0"
       position="60.854165,21.16667" />
    <sodipodi:guide
       inkscape:color="rgb(0,0,255)"
       inkscape:locked="false"
       inkscape:label=""
       id="guide8062"
       orientation="0,1"
       position="60.854165,21.16667" />
  </sodipodi:namedview>
  <metadata
     id="metadata34376">
    <rdf:RDF>
      <cc:Work
         rdf:about="">
        <dc:format>image/svg+xml</dc:format>
        <dc:type
           rdf:resource="http://purl.org/dc/dcmitype/StillImage" />
        <dc:title></dc:title>
      </cc:Work>
    </rdf:RDF>
  </metadata>
  <g
     transform="translate(-18.520833,-91.062178)"
     id="layer1"
     inkscape:groupmode="layer"
     inkscape:label="Layer 1">
    <path
       d="m 48.565064,101.10761 v 46.74656"
       id="path1626-5-5"
       stroke="#000000"
       stroke-width="0.4"
       fill="none"
       marker-start="url(#Arrow2Lstart)" />
    <path
       d="M 121.1834,130.75044 H 18.520833"
       id="path2116"
       stroke="#000000"
       stroke-width="0.4"
       fill="none"
       marker-start="url(#marker2120)" />
    <circle
       cx="48.532257"
       cy="130.7433"
       r="3.0565197"
       id="path3312"
       stroke="#000000"
       stroke-width="0.600001"
       fill="#ffffff" />
    <g
       id="g3324"
       stroke-width="0.6"
       transform="translate(-104.54032,-32.197174)">
      <path
         d="m 129.913,159.952 5.978,5.978"
         id="path3318"
         stroke="#000000"
         fill="none" />
      <path
         d="m 135.891,159.952 -5.978,5.978"
         id="path3320"
         stroke="#000000"
         fill="none" />
    </g>
    <path
       d="m 129.12248,129.65322 h 0.008 0.009 0.0159 0.0159 0.008 0.0159 0.0159 l 0.0159,-0.008 h 0.0159 0.0161 0.0159 l 0.0159,-0.009 h 0.0159 l 0.0159,-0.008 h 0.0159 l 0.0161,-0.008 0.0159,-0.008 0.0159,-0.009 0.0159,-0.008 0.0159,-0.008 0.009,-0.0161 0.0159,-0.009 0.008,-0.008 v -0.008 h 0.008 l 0.008,-0.008 v -0.008 l 0.008,-0.008 0.008,-0.008 v -0.008 l 0.008,-0.008 v -0.008 l 0.009,-0.009 v -0.0159 -0.008 l 0.008,-0.008 v -0.009 -0.0159 -0.008 -0.0159 l 0.008,-0.008 v -0.0161 c 0,-0.1913 -0.16748,-0.1913 -0.31089,-0.1913 h -1.81768 c -1.19592,0 -2.08095,1.30758 -2.08095,2.24843 0,0.70141 0.47043,1.25175 1.19592,1.25175 l 0.009,-0.16748 c -0.39079,0 -0.70961,-0.28708 -0.70961,-0.86122 0,-0.23892 0.0955,-0.88477 0.37465,-1.3552 0.33496,-0.54213 0.81333,-0.65378 1.07632,-0.65378 0.66966,0 0.73343,0.52625 0.73343,0.76544 0,0.37465 -0.15928,1.02049 -0.43048,1.42716 -0.31088,0.47016 -0.73342,0.6776 -1.04431,0.6776 v 0 l -0.009,0.16748 c 0.93265,0 1.9931,-0.95674 1.9931,-2.17673 0,-0.13547 0,-0.51012 -0.24712,-0.86095 z"
       id="path3944"
       stroke="#000000"
       stroke-width="0"
       stroke-miterlimit="10.433"
       fill-rule="evenodd"
       font-weight="400" />
    <g
       id="g3952"
       transform="matrix(1.0374921,0,0,1.0374921,-104.0855,-73.760041)">
      <path
         d="m 146.092,159.112 v -0.013 -0.013 -0.014 -0.007 l -0.007,-0.013 v -0.014 l -0.007,-0.007 v -0.013 l -0.007,-0.007 -0.007,-0.013 -0.007,-0.014 v -0.007 l -0.007,-0.007 -0.007,-0.013 -0.014,-0.007 -0.007,-0.007 -0.007,-0.014 -0.007,-0.007 -0.013,-0.007 -0.007,-0.007 -0.013,-0.007 -0.007,-0.007 h -0.014 l -0.013,-0.007 -0.007,-0.007 h -0.014 l -0.013,-0.007 h -0.013 l -0.014,-0.007 h -0.013 -0.014 -0.02 c -0.154,0 -0.349,0.155 -0.349,0.35 0,0.134 0.087,0.242 0.242,0.242 0.181,0 0.363,-0.168 0.363,-0.35 z"
         id="path3946"
         stroke="#000000"
         stroke-width="0"
         stroke-miterlimit="10.433"
         fill-rule="evenodd"
         font-weight="400" />
      <path
         d="m 144.748,163.614 -0.013,0.047 -0.014,0.047 -0.013,0.047 -0.02,0.047 -0.014,0.04 -0.02,0.041 -0.02,0.047 -0.02,0.04 -0.021,0.04 -0.02,0.034 -0.02,0.04 -0.027,0.034 -0.02,0.033 -0.027,0.034 -0.027,0.034 -0.027,0.033 -0.027,0.027 -0.027,0.027 -0.026,0.027 -0.034,0.02 -0.027,0.027 -0.027,0.02 -0.033,0.02 -0.034,0.014 -0.034,0.02 -0.027,0.013 -0.033,0.007 -0.034,0.014 -0.033,0.007 -0.041,0.007 h -0.033 -0.034 c -0.04,0 -0.141,0 -0.262,-0.061 0.202,-0.047 0.302,-0.215 0.302,-0.349 0,-0.108 -0.073,-0.235 -0.255,-0.235 -0.168,0 -0.363,0.141 -0.363,0.383 0,0.262 0.269,0.41 0.592,0.41 0.47,0 1.095,-0.35 1.263,-1.015 l 0.611,-2.439 c 0.034,-0.134 0.034,-0.228 0.034,-0.249 0,-0.383 -0.282,-0.618 -0.612,-0.618 -0.685,0 -1.068,0.975 -1.068,1.028 0,0.067 0.067,0.067 0.081,0.067 0.06,0 0.067,-0.007 0.121,-0.134 0.168,-0.403 0.477,-0.813 0.846,-0.813 0.094,0 0.215,0.027 0.215,0.309 0,0.155 -0.02,0.229 -0.054,0.343 z"
         id="path3948"
         stroke="#000000"
         stroke-width="0"
         stroke-miterlimit="10.433"
         fill-rule="evenodd"
         font-weight="400" />
      <path
         d="m 150.627,160.799 v -0.027 l -0.007,-0.027 v -0.027 -0.027 l -0.007,-0.02 v -0.027 l -0.007,-0.02 v -0.027 l -0.007,-0.02 -0.007,-0.02 -0.007,-0.021 -0.007,-0.02 -0.007,-0.013 -0.007,-0.02 -0.013,-0.014 -0.007,-0.02 -0.007,-0.013 -0.014,-0.014 -0.007,-0.013 -0.013,-0.007 -0.014,-0.014 -0.007,-0.007 -0.013,-0.013 -0.013,-0.007 -0.014,-0.007 -0.007,-0.007 -0.013,-0.007 h -0.014 l -0.013,-0.007 h -0.013 l -0.014,-0.007 h -0.013 c -0.175,0 -0.356,0.161 -0.356,0.316 0,0.067 0.033,0.141 0.101,0.201 0.114,0.101 0.235,0.283 0.235,0.558 0,0.269 -0.128,0.652 -0.336,0.954 -0.202,0.289 -0.45,0.517 -0.766,0.517 -0.383,0 -0.591,-0.241 -0.652,-0.597 0.074,-0.175 0.229,-0.605 0.229,-0.793 0,-0.081 -0.034,-0.148 -0.115,-0.148 -0.06,0 -0.134,0.013 -0.181,0.114 -0.074,0.134 -0.155,0.571 -0.155,0.806 -0.221,0.316 -0.49,0.618 -0.913,0.618 -0.444,0 -0.585,-0.396 -0.585,-0.765 0,-0.834 0.685,-1.539 0.685,-1.626 0,-0.074 -0.053,-0.128 -0.127,-0.128 -0.088,0 -0.135,0.087 -0.175,0.148 -0.343,0.497 -0.598,1.29 -0.598,1.894 0,0.464 0.155,0.955 0.706,0.955 0.477,0 0.792,-0.33 1.034,-0.699 0.061,0.389 0.323,0.699 0.733,0.699 0.524,0 0.846,-0.404 1.088,-0.908 0.161,-0.322 0.417,-1.229 0.417,-1.646 z"
         id="path3950"
         stroke="#000000"
         stroke-width="0"
         stroke-miterlimit="10.433"
         fill-rule="evenodd"
         font-weight="400" />
    </g>
    <g
       id="g3968"
       transform="matrix(1.1800814,0,0,1.1800814,-108.78185,-108.63635)">
      <path
         d="m 151.439,187.035 h -0.013 -0.02 l -0.014,0.007 h -0.02 l -0.013,0.007 -0.014,0.007 h -0.02 l -0.013,0.007 -0.014,0.007 -0.013,0.007 -0.013,0.014 -0.014,0.007 -0.013,0.007 -0.014,0.013 -0.007,0.007 -0.013,0.014 -0.013,0.007 -0.007,0.013 -0.007,0.007 -0.014,0.013 -0.007,0.014 -0.007,0.013 -0.007,0.014 -0.007,0.013 -0.007,0.013 v 0.014 l -0.007,0.013 -0.007,0.014 v 0.013 0.013 0.014 l -0.007,0.013 c 0,0.094 0.061,0.188 0.208,0.188 0.148,0 0.309,-0.107 0.309,-0.369 0,-0.303 -0.288,-0.578 -0.792,-0.578 -0.887,0 -1.136,0.685 -1.136,0.981 0,0.517 0.497,0.618 0.692,0.658 0.35,0.068 0.699,0.141 0.699,0.504 0,0.175 -0.155,0.739 -0.961,0.739 -0.094,0 -0.611,0 -0.766,-0.356 0.256,0.034 0.423,-0.168 0.423,-0.356 0,-0.154 -0.107,-0.228 -0.248,-0.228 -0.175,0 -0.376,0.134 -0.376,0.436 0,0.383 0.383,0.645 0.96,0.645 1.082,0 1.344,-0.806 1.344,-1.108 0,-0.235 -0.127,-0.403 -0.208,-0.484 -0.175,-0.188 -0.376,-0.222 -0.665,-0.282 -0.242,-0.054 -0.511,-0.101 -0.511,-0.397 0,-0.194 0.161,-0.604 0.753,-0.604 0.161,0 0.497,0.047 0.598,0.309 z"
         id="path3954"
         stroke="#000000"
         stroke-width="0"
         stroke-miterlimit="10.433"
         fill-rule="evenodd"
         font-weight="400" />
      <path
         d="m 157.863,187.996 h 0.02 0.02 0.02 0.014 0.013 0.007 l 0.013,-0.007 h 0.007 0.007 0.014 l 0.007,-0.007 h 0.013 0.007 l 0.007,-0.007 0.007,-0.007 h 0.007 l 0.007,-0.007 0.007,-0.007 h 0.007 l 0.007,-0.007 0.007,-0.007 v -0.007 h 0.007 v -0.007 -0.007 0 l 0.007,-0.007 v -0.007 0 -0.007 -0.007 l 0.007,-0.007 v 0 -0.007 -0.007 -0.007 -0.007 c 0,-0.134 -0.121,-0.134 -0.235,-0.134 h -3.628 c -0.114,0 -0.229,0 -0.229,0.134 0,0.135 0.115,0.135 0.229,0.135 z"
         id="path3956"
         stroke="#000000"
         stroke-width="0"
         stroke-miterlimit="10.433"
         fill-rule="evenodd"
         font-weight="400" />
      <path
         d="m 160.443,190.348 -0.007,0.02 v 0.02 l -0.007,0.02 -0.007,0.014 v 0.02 l -0.007,0.013 -0.007,0.014 -0.007,0.013 v 0.014 l -0.007,0.013 -0.007,0.013 -0.007,0.007 -0.007,0.014 -0.007,0.007 -0.007,0.013 -0.007,0.007 -0.014,0.007 -0.007,0.007 -0.013,0.007 h -0.014 l -0.013,0.007 -0.013,0.007 h -0.014 l -0.013,0.007 h -0.02 -0.007 l -0.007,0.007 h -0.014 -0.007 -0.013 -0.007 -0.014 -0.013 -0.007 -0.013 -0.014 -0.013 -0.014 -0.013 c -0.081,0 -0.154,0 -0.154,0.128 0,0.054 0.033,0.08 0.087,0.08 0.181,0 0.376,-0.02 0.564,-0.02 0.222,0 0.45,0.02 0.665,0.02 0.034,0 0.121,0 0.121,-0.134 0,-0.074 -0.067,-0.074 -0.161,-0.074 -0.336,0 -0.336,-0.04 -0.336,-0.107 0,-0.074 0.282,-1.163 0.329,-1.331 0.088,0.195 0.276,0.424 0.612,0.424 l -0.007,-0.141 c -0.437,0 -0.524,-0.558 -0.524,-0.598 0,-0.014 0,-0.027 0.02,-0.108 l 0.322,-1.303 c 0.054,-0.182 0.229,-0.37 0.35,-0.471 0.235,-0.208 0.43,-0.255 0.544,-0.255 0.269,0 0.43,0.235 0.43,0.632 0,0.389 -0.222,1.162 -0.343,1.41 -0.228,0.471 -0.551,0.693 -0.799,0.693 l 0.007,0.141 c 0.779,0 1.619,-0.975 1.619,-1.956 0,-0.624 -0.383,-1.068 -0.894,-1.068 -0.335,0 -0.658,0.242 -0.873,0.504 -0.074,-0.363 -0.356,-0.504 -0.605,-0.504 -0.309,0 -0.436,0.262 -0.497,0.383 -0.121,0.229 -0.208,0.625 -0.208,0.645 0,0.067 0.067,0.067 0.08,0.067 0.068,0 0.074,-0.007 0.115,-0.147 0.114,-0.478 0.248,-0.8 0.49,-0.8 0.114,0 0.208,0.054 0.208,0.309 0,0.155 -0.02,0.228 -0.047,0.343 z"
         id="path3958"
         stroke="#000000"
         stroke-width="0"
         stroke-miterlimit="10.433"
         fill-rule="evenodd"
         font-weight="400" />
      <path
         d="m 165.24,184.973 v 0 0 0 -0.007 0 0 0 l -0.007,-0.007 v 0 -0.007 0 0 -0.007 0 -0.007 h -0.007 v -0.007 0 l -0.007,-0.007 v 0 l -0.007,-0.007 v 0 0 0 l -0.007,-0.007 v 0 0 h -0.007 v 0 -0.007 h -0.007 v 0 0 h -0.007 v 0 h -0.007 v 0 l -0.007,-0.007 v 0 h -0.007 v 0 h -0.007 v 0 h -0.007 v 0 c -0.155,0 -0.645,0.053 -0.82,0.067 -0.054,0.007 -0.127,0.013 -0.127,0.141 0,0.074 0.067,0.074 0.168,0.074 0.322,0 0.329,0.06 0.329,0.114 l -0.02,0.134 -0.847,3.333 c -0.02,0.074 -0.034,0.121 -0.034,0.229 0,0.382 0.296,0.611 0.612,0.611 0.222,0 0.39,-0.128 0.504,-0.37 0.121,-0.255 0.201,-0.645 0.201,-0.658 0,-0.067 -0.06,-0.067 -0.08,-0.067 -0.067,0 -0.074,0.027 -0.094,0.121 -0.115,0.436 -0.242,0.833 -0.511,0.833 -0.202,0 -0.202,-0.215 -0.202,-0.309 0,-0.161 0.007,-0.195 0.041,-0.323 z"
         id="path3960"
         stroke="#000000"
         stroke-width="0"
         stroke-miterlimit="10.433"
         fill-rule="evenodd"
         font-weight="400" />
      <path
         d="m 168.136,187.009 -0.007,-0.021 -0.014,-0.027 -0.013,-0.02 -0.013,-0.02 -0.014,-0.02 -0.013,-0.027 -0.014,-0.02 -0.013,-0.014 -0.013,-0.02 -0.021,-0.02 -0.013,-0.02 -0.02,-0.014 -0.014,-0.02 -0.02,-0.013 -0.02,-0.014 -0.013,-0.02 -0.021,-0.013 -0.02,-0.014 -0.02,-0.007 -0.02,-0.013 -0.02,-0.013 -0.027,-0.007 -0.02,-0.014 -0.027,-0.007 -0.021,-0.007 -0.026,-0.007 -0.021,-0.007 h -0.027 l -0.026,-0.007 h -0.027 l -0.027,-0.007 h -0.027 c -0.786,0 -1.619,0.988 -1.619,1.955 0,0.632 0.369,1.069 0.893,1.069 l 0.014,-0.141 c -0.336,0 -0.43,-0.37 -0.43,-0.632 0,-0.336 0.215,-1.156 0.369,-1.458 0.208,-0.396 0.511,-0.645 0.78,-0.645 0.436,0 0.53,0.551 0.53,0.591 0,0.04 -0.02,0.081 -0.02,0.114 l -0.336,1.304 c -0.033,0.121 -0.033,0.134 -0.134,0.248 -0.296,0.37 -0.571,0.478 -0.759,0.478 l -0.014,0.141 c 0.135,0 0.47,-0.021 0.874,-0.498 0.053,0.283 0.289,0.498 0.604,0.498 0.235,0 0.39,-0.148 0.498,-0.363 0.114,-0.242 0.201,-0.652 0.201,-0.665 0,-0.068 -0.06,-0.068 -0.081,-0.068 -0.067,0 -0.073,0.027 -0.094,0.121 -0.114,0.437 -0.235,0.834 -0.51,0.834 -0.175,0 -0.195,-0.175 -0.195,-0.31 0,-0.147 0.013,-0.201 0.081,-0.497 0.073,-0.275 0.087,-0.342 0.147,-0.598 l 0.242,-0.934 c 0.047,-0.188 0.047,-0.201 0.047,-0.228 0,-0.114 -0.08,-0.182 -0.195,-0.182 -0.161,0 -0.262,0.148 -0.282,0.296 z"
         id="path3962"
         stroke="#000000"
         stroke-width="0"
         stroke-miterlimit="10.433"
         fill-rule="evenodd"
         font-weight="400" />
      <path
         d="m 169.769,189.138 v 0.007 l -0.007,0.014 v 0.007 0.013 l -0.007,0.02 -0.007,0.021 -0.007,0.02 v 0.027 l -0.007,0.02 -0.007,0.02 v 0.007 0.014 l -0.007,0.007 v 0.013 0.007 l -0.007,0.007 v 0.013 0.007 0.007 l -0.007,0.007 v 0.007 0.007 0.007 0 0.007 0.007 c 0,0.115 0.094,0.175 0.194,0.175 0.081,0 0.202,-0.054 0.249,-0.181 0.007,-0.014 0.087,-0.33 0.128,-0.498 l 0.147,-0.598 c 0.041,-0.147 0.081,-0.295 0.115,-0.45 0.027,-0.114 0.074,-0.309 0.087,-0.336 0.101,-0.201 0.45,-0.813 1.089,-0.813 0.302,0 0.362,0.249 0.362,0.471 0,0.409 -0.329,1.27 -0.436,1.552 -0.061,0.154 -0.068,0.235 -0.068,0.309 0,0.316 0.236,0.544 0.551,0.544 0.632,0 0.881,-0.974 0.881,-1.028 0,-0.067 -0.061,-0.067 -0.081,-0.067 -0.067,0 -0.067,0.027 -0.101,0.121 -0.134,0.457 -0.356,0.833 -0.685,0.833 -0.114,0 -0.161,-0.067 -0.161,-0.222 0,-0.168 0.06,-0.329 0.121,-0.477 0.127,-0.349 0.409,-1.088 0.409,-1.465 0,-0.45 -0.289,-0.719 -0.772,-0.719 -0.605,0 -0.934,0.43 -1.048,0.585 -0.034,-0.376 -0.303,-0.585 -0.612,-0.585 -0.309,0 -0.437,0.263 -0.504,0.383 -0.107,0.229 -0.201,0.619 -0.201,0.645 0,0.068 0.067,0.068 0.08,0.068 0.067,0 0.074,-0.007 0.114,-0.148 0.115,-0.477 0.249,-0.8 0.491,-0.8 0.134,0 0.208,0.088 0.208,0.309 0,0.141 -0.02,0.215 -0.107,0.558 z"
         id="path3964"
         stroke="#000000"
         stroke-width="0"
         stroke-miterlimit="10.433"
         fill-rule="evenodd"
         font-weight="400" />
      <path
         d="m 174.452,187.989 h 0.013 0.027 0.02 0.02 0.027 0.027 0.027 l 0.034,-0.007 h 0.027 0.033 0.034 l 0.027,-0.007 h 0.033 l 0.041,-0.007 0.067,-0.007 0.074,-0.007 0.074,-0.007 0.067,-0.013 0.074,-0.013 0.074,-0.021 0.033,-0.007 0.034,-0.013 0.04,-0.007 0.027,-0.013 0.034,-0.014 0.033,-0.013 c 0.47,-0.202 0.504,-0.591 0.504,-0.685 0,-0.296 -0.255,-0.572 -0.719,-0.572 v 0.148 c 0.316,0 0.497,0.195 0.497,0.424 0,0.692 -1.068,0.692 -1.343,0.692 h -0.276 c 0.262,-1.015 0.947,-1.116 1.122,-1.116 v -0.148 c -0.739,0 -1.754,0.652 -1.754,1.821 0,0.679 0.397,1.203 1.049,1.203 0.96,0 1.525,-0.706 1.525,-0.786 0,-0.04 -0.04,-0.088 -0.081,-0.088 -0.033,0 -0.047,0.014 -0.087,0.068 -0.531,0.665 -1.263,0.665 -1.337,0.665 -0.524,0 -0.585,-0.565 -0.585,-0.78 0,-0.08 0.007,-0.282 0.108,-0.692 z"
         id="path3966"
         stroke="#000000"
         stroke-width="0"
         stroke-miterlimit="10.433"
         fill-rule="evenodd"
         font-weight="400" />
    </g>
    <g
       id="g8405"
       transform="translate(-122.87938,36.72308)">
      <path
         d="m 148.505,104.009 h 0.035 0.026 0.027 0.009 0.017 0.009 L 148.646,104 h 0.009 0.017 0.009 l 0.018,-0.009 h 0.009 0.009 l 0.009,-0.009 0.018,-0.009 h 0.009 l 0.009,-0.009 0.009,-0.009 h 0.009 v -0.009 l 0.009,-0.009 0.009,-0.009 v 0 -0.009 l 0.009,-0.009 v 0 -0.009 -0.009 0 l 0.009,-0.009 v -0.009 -0.009 0 -0.009 -0.009 -0.009 -0.009 c 0,-0.176 -0.158,-0.176 -0.308,-0.176 h -4.735 c -0.149,0 -0.307,0 -0.307,0.176 0,0.175 0.158,0.175 0.307,0.175 z"
         id="path8174"
         stroke="#000000"
         stroke-width="0"
         stroke-miterlimit="10.433"
         fill-rule="evenodd"
         font-weight="400" />
      <path
         d="m 153.477,104.263 v -0.096 l -0.009,-0.097 -0.009,-0.097 -0.018,-0.087 -0.017,-0.097 -0.018,-0.088 -0.026,-0.088 -0.035,-0.088 -0.027,-0.087 -0.035,-0.079 -0.044,-0.08 -0.044,-0.079 -0.044,-0.079 -0.043,-0.07 -0.053,-0.07 -0.062,-0.062 -0.052,-0.07 -0.062,-0.053 -0.061,-0.061 -0.062,-0.053 -0.07,-0.053 -0.07,-0.044 -0.071,-0.044 -0.079,-0.035 -0.07,-0.035 -0.079,-0.035 -0.079,-0.026 -0.088,-0.018 -0.079,-0.017 -0.088,-0.018 h -0.088 l -0.088,-0.009 c -0.413,0 -0.79,0.141 -1.107,0.448 v -1.704 c 0.176,0.052 0.466,0.114 0.747,0.114 1.072,0 1.687,-0.791 1.687,-0.905 0,-0.053 -0.027,-0.096 -0.088,-0.096 -0.009,0 -0.027,0 -0.07,0.026 -0.176,0.079 -0.607,0.255 -1.195,0.255 -0.343,0 -0.747,-0.062 -1.16,-0.246 -0.07,-0.027 -0.088,-0.027 -0.105,-0.027 -0.088,0 -0.088,0.071 -0.088,0.211 v 2.583 c 0,0.158 0,0.228 0.123,0.228 0.061,0 0.079,-0.026 0.114,-0.079 0.097,-0.14 0.422,-0.615 1.125,-0.615 0.456,0 0.676,0.404 0.746,0.563 0.141,0.325 0.158,0.658 0.158,1.098 0,0.307 0,0.825 -0.21,1.194 -0.211,0.343 -0.536,0.571 -0.94,0.571 -0.633,0 -1.134,-0.465 -1.283,-0.983 0.026,0.009 0.053,0.017 0.149,0.017 0.29,0 0.44,-0.22 0.44,-0.422 0,-0.21 -0.15,-0.43 -0.44,-0.43 -0.123,0 -0.43,0.061 -0.43,0.466 0,0.746 0.606,1.59 1.581,1.59 1.019,0 1.915,-0.835 1.915,-1.942 z"
         id="path8176"
         stroke="#000000"
         stroke-width="0"
         stroke-miterlimit="10.433"
         fill-rule="evenodd"
         font-weight="400" />
    </g>
    <g
       id="content"
       stroke="#000000"
       stroke-miterlimit="10.433"
       fill="none"
       fill-rule="evenodd"
       font-weight="400"
       transform="matrix(0.87847752,0,0,-0.87847752,-87.451407,720.10426)">
      <path
         d="m 153.3,660.41 v 0.15 0.15 l -0.01,0.15 v 0.15 l -0.01,0.15 -0.02,0.14 -0.01,0.15 -0.02,0.15 -0.02,0.14 -0.03,0.15 -0.03,0.14 -0.04,0.15 -0.04,0.14 -0.05,0.14 -0.06,0.14 -0.03,0.07 -0.03,0.07 c -0.46,0.95 -1.28,1.11 -1.69,1.11 -0.6,0 -1.33,-0.26 -1.74,-1.18 -0.32,-0.69 -0.37,-1.46 -0.37,-2.26 0,-0.74 0.04,-1.63 0.45,-2.39 0.43,-0.8 1.16,-1 1.65,-1 v 0.21 c -0.39,0 -0.98,0.25 -1.16,1.21 -0.11,0.59 -0.11,1.51 -0.11,2.09 0,0.64 0,1.29 0.08,1.83 0.19,1.18 0.94,1.27 1.19,1.27 0.32,0 0.98,-0.18 1.17,-1.16 0.1,-0.56 0.1,-1.31 0.1,-1.94 0,-0.74 0,-1.42 -0.11,-2.05 -0.15,-0.95 -0.72,-1.25 -1.16,-1.25 v 0 -0.21 c 0.53,0 1.29,0.2 1.73,1.15 0.32,0.68 0.37,1.46 0.37,2.24 z"
         id="path26005"
         stroke-width="0"
         fill="#000000" />
    </g>
  </g>
  <inkscape:templateinfo>
    <inkscape:name>Engineering Diagram</inkscape:name>
    <inkscape:author>Ali AlSaibie</inkscape:author>
    <inkscape:date>2021-01-16</inkscape:date>
  </inkscape:templateinfo>
</svg>
