<?xml version="1.0" encoding="UTF-8" standalone="no"?>
<svg
   xmlns:ns0="http://www.iki.fi/pav/software/textext/"
   xmlns:dc="http://purl.org/dc/elements/1.1/"
   xmlns:cc="http://creativecommons.org/ns#"
   xmlns:rdf="http://www.w3.org/1999/02/22-rdf-syntax-ns#"
   xmlns:svg="http://www.w3.org/2000/svg"
   xmlns="http://www.w3.org/2000/svg"
   xmlns:sodipodi="http://sodipodi.sourceforge.net/DTD/sodipodi-0.dtd"
   xmlns:inkscape="http://www.inkscape.org/namespaces/inkscape"
   inkscape:version="1.0.1 (3bc2e813f5, 2020-09-07)"
   id="svg8"
   version="1.1"
   viewBox="0 0 189.83871 21.704451"
   height="21.704451mm"
   width="189.83871mm"
   sodipodi:docname="PID_Continuous_BlockDiagram_Reduced.svg">
  <defs
     id="defs2">
    <marker
       inkscape:isstock="true"
       style="overflow:visible"
       id="marker1613"
       refX="0"
       refY="0"
       orient="auto"
       inkscape:stockid="Arrow1Mend">
      <path
         transform="matrix(-0.4,0,0,-0.4,-4,0)"
         style="fill:#000000;fill-opacity:1;fill-rule:evenodd;stroke:#000000;stroke-width:1pt;stroke-opacity:1"
         d="M 0,0 5,-5 -12.5,0 5,5 Z"
         id="path1611"
         inkscape:connector-curvature="0" />
    </marker>
    <marker
       inkscape:stockid="Arrow1Mend"
       orient="auto"
       refY="0"
       refX="0"
       id="marker2365"
       style="overflow:visible"
       inkscape:isstock="true">
      <path
         id="path2363"
         d="M 0,0 5,-5 -12.5,0 5,5 Z"
         style="fill:#000000;fill-opacity:1;fill-rule:evenodd;stroke:#000000;stroke-width:1pt;stroke-opacity:1"
         transform="matrix(-0.4,0,0,-0.4,-4,0)"
         inkscape:connector-curvature="0" />
    </marker>
  </defs>
  <sodipodi:namedview
     inkscape:window-maximized="1"
     inkscape:window-y="-8"
     inkscape:window-x="-6"
     inkscape:window-height="1027"
     inkscape:window-width="1920"
     showgrid="false"
     inkscape:document-rotation="0"
     inkscape:current-layer="layer1"
     inkscape:document-units="mm"
     inkscape:cy="23.580984"
     inkscape:cx="268.58158"
     inkscape:zoom="0.97139881"
     inkscape:pageshadow="2"
     inkscape:pageopacity="0.0"
     borderopacity="1.0"
     bordercolor="#666666"
     pagecolor="#ffffff"
     id="base" />
  <metadata
     id="metadata5">
    <rdf:RDF>
      <cc:Work
         rdf:about="">
        <dc:format>image/svg+xml</dc:format>
        <dc:type
           rdf:resource="http://purl.org/dc/dcmitype/StillImage" />
        <dc:title></dc:title>
      </cc:Work>
    </rdf:RDF>
  </metadata>
  <g
     id="layer1"
     inkscape:groupmode="layer"
     inkscape:label="Layer 1"
     transform="translate(-77.437789,-98.760865)">
    <path
       sodipodi:nodetypes="cc"
       inkscape:connector-curvature="0"
       id="path1575"
       d="m 242.36507,109.6131 h 23.92609"
       style="fill:none;stroke:#000000;stroke-width:0.499999;stroke-linecap:butt;stroke-linejoin:miter;stroke-miterlimit:4;stroke-dasharray:none;stroke-opacity:1;marker-end:url(#marker1613)" />
    <g
       id="g1585"
       transform="translate(-36.329541,1.360111)">
      <path
         id="path1577"
         d="m 126.38103,100.97682 0.0788,-0.0175 0.0875,-0.0263 0.0788,-0.0263 0.0875,-0.0263 0.0875,-0.0263 0.0788,-0.0263 0.0875,-0.035 0.0875,-0.035 0.0788,-0.0438 0.0788,-0.035 0.0788,-0.0438 0.0788,-0.0438 0.0788,-0.0438 0.0788,-0.0525 0.07,-0.0525 0.07,-0.0525 0.07,-0.0525 0.0613,-0.0525 0.07,-0.0613 0.0525,-0.0613 0.0613,-0.0613 0.0525,-0.0613 0.0438,-0.07003 0.0438,-0.07002 0.0438,-0.07002 0.0263,-0.07002 0.035,-0.07002 0.0263,-0.07877 0.0175,-0.07878 0.0175,-0.07877 0.009,-0.07878 v -0.07877 c 0,-0.743983 -0.78775,-1.304158 -1.9256,-1.304158 h -2.48578 c -0.17505,0 -0.25383,0 -0.25383,0.175055 0,0.09628 0.0788,0.09628 0.24508,0.09628 0.009,0 0.18381,0 0.32385,0.0175 0.15755,0.01751 0.23632,0.02626 0.23632,0.140044 0,0.03501 -0.009,0.06127 -0.035,0.166302 l -1.16411,4.665207 c -0.0875,0.34136 -0.10503,0.41138 -0.7965,0.41138 -0.15755,0 -0.23632,0 -0.23632,0.17505 0,0.0963 0.10503,0.0963 0.12254,0.0963 0.24507,0 0.85776,-0.035 1.10284,-0.035 0.24508,0 0.85777,0.035 1.10284,0.035 0.07,0 0.17506,0 0.17506,-0.17505 0,-0.0963 -0.0788,-0.0963 -0.24508,-0.0963 -0.3151,0 -0.56893,0 -0.56893,-0.15755 0,-0.0525 0.0175,-0.0963 0.035,-0.1488 l 0.56892,-2.30197 h 1.04158 l -0.009,-0.19256 h -0.98031 l 0.56893,-2.266954 c 0.0525,-0.210066 0.0788,-0.297593 0.24507,-0.323851 0.0788,-0.0088 0.35887,-0.0088 0.53392,-0.0088 0.62145,0 1.58425,0 1.58425,0.857768 0,0.297593 -0.14005,0.892777 -0.4814,1.234137 -0.21882,0.22757 -0.68272,0.50765 -1.47046,0.50765 l 0.009,0.19256 c 0.7965,0 0.95405,0.4814 0.95405,0.78775 0,0.13129 -0.07,0.40263 -0.12254,0.60394 -0.0613,0.23632 -0.14004,0.56017 -0.14004,0.73523 0,0.93654 1.04157,0.93654 1.15536,0.93654 0.74398,0 1.05032,-0.87527 1.05032,-0.99781 0,-0.10503 -0.0963,-0.10503 -0.10503,-0.10503 -0.0788,0 -0.0963,0.0613 -0.11378,0.12254 -0.21882,0.6477 -0.59519,0.79649 -0.7965,0.79649 -0.28009,0 -0.35011,-0.19256 -0.35011,-0.53391 0,-0.27134 0.0525,-0.71773 0.0963,-0.98906 0.009,-0.12254 0.0263,-0.28884 0.0263,-0.41138 0,-0.67396 -0.57768,-0.93654 -0.81401,-1.02407 z"
         inkscape:connector-curvature="0"
         style="font-style:normal;font-variant:normal;font-weight:normal;font-stretch:normal;letter-spacing:normal;word-spacing:normal;text-anchor:start;fill:#000000;fill-opacity:1;fill-rule:evenodd;stroke:#000000;stroke-width:0;stroke-linecap:butt;stroke-linejoin:miter;stroke-miterlimit:10.433;stroke-dasharray:none;stroke-dashoffset:0;stroke-opacity:1" />
      <path
         id="path1579"
         d="m 131.42261,106.01839 v -0.009 0 0 -0.009 0 0 -0.009 0 0 -0.009 h -0.009 v -0.009 0 l -0.009,-0.009 v 0 l -0.009,-0.009 v -0.009 h -0.009 v -0.009 0 l -0.009,-0.009 v 0 0 l -0.009,-0.009 v 0 l -0.009,-0.009 v 0 l -0.009,-0.009 v 0 l -0.009,-0.009 v 0 l -0.009,-0.009 v -0.009 h -0.009 l -0.009,-0.009 v -0.009 h -0.009 l -0.009,-0.009 v -0.009 h -0.009 l -0.009,-0.009 v -0.009 c -1.09409,-1.09409 -1.37418,-2.7396 -1.37418,-4.07002 0,-1.51422 0.33261,-3.01969 1.40044,-4.113782 0.11379,-0.105033 0.11379,-0.122539 0.11379,-0.148797 0,-0.06127 -0.0263,-0.07877 -0.0875,-0.07877 -0.0788,0 -0.86652,0.586433 -1.38293,1.689277 -0.44639,0.954042 -0.55143,1.925602 -0.55143,2.652072 0,0.68272 0.0963,1.73304 0.57769,2.71335 0.52516,1.06783 1.27789,1.63676 1.35667,1.63676 0.0613,0 0.0875,-0.0263 0.0875,-0.0875 z"
         inkscape:connector-curvature="0"
         style="font-style:normal;font-variant:normal;font-weight:normal;font-stretch:normal;letter-spacing:normal;word-spacing:normal;text-anchor:start;fill:#000000;fill-opacity:1;fill-rule:evenodd;stroke:#000000;stroke-width:0;stroke-linecap:butt;stroke-linejoin:miter;stroke-miterlimit:10.433;stroke-dasharray:none;stroke-dashoffset:0;stroke-opacity:1" />
      <path
         id="path1581"
         d="m 135.34383,100.67923 h -0.0263 -0.0175 l -0.0263,0.009 h -0.0175 l -0.0263,0.009 -0.0175,0.009 h -0.0175 l -0.0263,0.009 -0.0175,0.009 -0.0175,0.009 -0.0175,0.0175 -0.0175,0.009 -0.0175,0.009 -0.009,0.0175 -0.0175,0.009 -0.0175,0.0175 -0.009,0.009 -0.0175,0.0175 -0.009,0.009 -0.009,0.0175 -0.0175,0.0175 -0.009,0.0175 -0.009,0.0175 -0.009,0.0175 v 0.0175 l -0.009,0.0175 -0.009,0.0175 v 0.0175 l -0.009,0.0175 v 0.0175 0.0175 0.0175 c 0,0.12254 0.0788,0.24508 0.27134,0.24508 0.19256,0 0.40262,-0.14005 0.40262,-0.4814 0,-0.39388 -0.37637,-0.75274 -1.04157,-0.75274 -1.15537,0 -1.47922,0.89278 -1.47922,1.2779 0,0.67396 0.64771,0.80525 0.90154,0.85777 0.45514,0.0875 0.91028,0.18381 0.91028,0.65645 0,0.22757 -0.20131,0.9628 -1.25164,0.9628 -0.12254,0 -0.7965,0 -0.98906,-0.46389 0.3326,0.0438 0.54267,-0.21882 0.54267,-0.4639 0,-0.20131 -0.14004,-0.29759 -0.32385,-0.29759 -0.21882,0 -0.4814,0.17506 -0.4814,0.56893 0,0.4989 0.4989,0.84026 1.24289,0.84026 1.41794,0 1.7593,-1.05033 1.7593,-1.4442 0,-0.30635 -0.16631,-0.52516 -0.27134,-0.6302 -0.23632,-0.24507 -0.49015,-0.28884 -0.87527,-0.36761 -0.3151,-0.07 -0.66521,-0.13129 -0.66521,-0.51641 0,-0.25383 0.21007,-0.78775 0.98031,-0.78775 0.21881,0 0.65645,0.0613 0.78774,0.40263 z"
         inkscape:connector-curvature="0"
         style="font-style:normal;font-variant:normal;font-weight:normal;font-stretch:normal;letter-spacing:normal;word-spacing:normal;text-anchor:start;fill:#000000;fill-opacity:1;fill-rule:evenodd;stroke:#000000;stroke-width:0;stroke-linecap:butt;stroke-linejoin:miter;stroke-miterlimit:10.433;stroke-dasharray:none;stroke-dashoffset:0;stroke-opacity:1" />
      <path
         id="path1583"
         d="m 138.53858,101.75581 v -0.0613 -0.07 -0.07 l -0.009,-0.07 v -0.1488 l -0.0175,-0.14879 -0.009,-0.15755 -0.0175,-0.16631 -0.0263,-0.17505 -0.0263,-0.17506 -0.035,-0.17505 -0.0438,-0.18381 -0.0438,-0.183805 -0.0525,-0.183807 -0.0613,-0.183808 -0.07,-0.183807 -0.0438,-0.09628 -0.035,-0.09628 -0.0438,-0.08753 -0.0438,-0.09628 c -0.52516,-1.067833 -1.26915,-1.628008 -1.35667,-1.628008 -0.0525,0 -0.0875,0.02626 -0.0875,0.07877 0,0.02626 0,0.04376 0.1663,0.201313 0.84902,0.866521 1.34792,2.249453 1.34792,4.061262 0,1.48797 -0.32385,3.0197 -1.40044,4.11379 -0.11378,0.10503 -0.11378,0.12254 -0.11378,0.14879 0,0.0525 0.035,0.0875 0.0875,0.0875 0.0875,0 0.86652,-0.59518 1.38293,-1.69803 0.44639,-0.95405 0.55142,-1.91685 0.55142,-2.65208 z"
         inkscape:connector-curvature="0"
         style="font-style:normal;font-variant:normal;font-weight:normal;font-stretch:normal;letter-spacing:normal;word-spacing:normal;text-anchor:start;fill:#000000;fill-opacity:1;fill-rule:evenodd;stroke:#000000;stroke-width:0;stroke-linecap:butt;stroke-linejoin:miter;stroke-miterlimit:10.433;stroke-dasharray:none;stroke-dashoffset:0;stroke-opacity:1" />
    </g>
    <g
       id="g1595"
       transform="translate(51.348269,1.360111)">
      <path
         id="path1587"
         d="m 203.39634,97.887104 v 0 -0.0088 0 h -0.009 v -0.0088 0 0 -0.0088 0 -0.0088 0 h -0.009 v -0.0088 0 -0.0088 h -0.009 v 0 -0.0088 h -0.009 v 0 -0.0088 h -0.009 v 0 l -0.009,-0.0088 v 0 h -0.009 v 0 0 h -0.009 v 0 0 l -0.009,-0.0088 v 0 0 h -0.009 v 0 h -0.009 v 0 0 c -0.0263,0 -0.035,0.0088 -0.13129,0.105033 l -0.61269,0.67396 c -0.0788,-0.122538 -0.4814,-0.778993 -1.45295,-0.778993 -1.94311,0 -3.90372,1.925602 -3.90372,3.938736 0,1.43545 1.02407,2.38074 2.36324,2.38074 0.76148,0 1.41794,-0.34136 1.88183,-0.74398 0.81401,-0.70897 0.9628,-1.50547 0.9628,-1.53173 0,-0.0875 -0.0875,-0.0875 -0.10503,-0.0875 -0.0525,0 -0.0963,0.0175 -0.11378,0.0875 -0.0788,0.25383 -0.28009,0.86652 -0.88403,1.37418 -0.60394,0.49015 -1.14661,0.63895 -1.60175,0.63895 -0.78775,0 -1.71554,-0.45514 -1.71554,-1.81182 0,-0.4989 0.18381,-1.90809 1.05908,-2.923413 0.53392,-0.612692 1.35668,-1.050328 2.12692,-1.050328 0.89278,0 1.40919,0.67396 1.40919,1.680525 0,0.341356 -0.0263,0.350116 -0.0263,0.437636 0,0.0875 0.0963,0.0875 0.13129,0.0875 0.11379,0 0.11379,-0.0175 0.15755,-0.17505 z"
         inkscape:connector-curvature="0"
         style="font-style:normal;font-variant:normal;font-weight:normal;font-stretch:normal;letter-spacing:normal;word-spacing:normal;text-anchor:start;fill:#000000;fill-opacity:1;fill-rule:evenodd;stroke:#000000;stroke-width:0;stroke-linecap:butt;stroke-linejoin:miter;stroke-miterlimit:10.433;stroke-dasharray:none;stroke-dashoffset:0;stroke-opacity:1" />
      <path
         id="path1589"
         d="m 206.50356,106.01839 v -0.009 0 0 -0.009 0 0 -0.009 0 h -0.009 v -0.009 0 -0.009 h -0.009 v -0.009 0 l -0.009,-0.009 v -0.009 h -0.009 v -0.009 h -0.009 v -0.009 0 h -0.009 v -0.009 h -0.009 v -0.009 h -0.009 v -0.009 h -0.009 v -0.009 h -0.009 v -0.009 l -0.009,-0.009 v 0 l -0.009,-0.009 -0.009,-0.009 v 0 l -0.009,-0.009 -0.009,-0.009 v 0 l -0.009,-0.009 -0.009,-0.009 c -1.09409,-1.09409 -1.36543,-2.7396 -1.36543,-4.07002 0,-1.51422 0.32385,-3.01969 1.40044,-4.113782 0.11378,-0.105033 0.11378,-0.122539 0.11378,-0.148797 0,-0.06127 -0.035,-0.07877 -0.0875,-0.07877 -0.0875,0 -0.87528,0.586433 -1.39169,1.689277 -0.43763,0.954042 -0.54267,1.925602 -0.54267,2.652072 0,0.68272 0.0963,1.73304 0.56893,2.71335 0.52516,1.06783 1.2779,1.63676 1.36543,1.63676 0.0525,0 0.0875,-0.0263 0.0875,-0.0875 z"
         inkscape:connector-curvature="0"
         style="font-style:normal;font-variant:normal;font-weight:normal;font-stretch:normal;letter-spacing:normal;word-spacing:normal;text-anchor:start;fill:#000000;fill-opacity:1;fill-rule:evenodd;stroke:#000000;stroke-width:0;stroke-linecap:butt;stroke-linejoin:miter;stroke-miterlimit:10.433;stroke-dasharray:none;stroke-dashoffset:0;stroke-opacity:1" />
      <path
         id="path1591"
         d="m 210.41604,100.67923 h -0.0175 -0.0263 l -0.0175,0.009 h -0.0263 l -0.0175,0.009 -0.0175,0.009 h -0.0263 l -0.0175,0.009 -0.0175,0.009 -0.0175,0.009 -0.0175,0.0175 -0.0175,0.009 -0.0175,0.009 -0.0175,0.0175 -0.009,0.009 -0.0175,0.0175 -0.0175,0.009 -0.009,0.0175 -0.009,0.009 -0.0175,0.0175 -0.009,0.0175 -0.009,0.0175 -0.009,0.0175 -0.009,0.0175 -0.009,0.0175 v 0.0175 l -0.009,0.0175 -0.009,0.0175 v 0.0175 0.0175 0.0175 0.0175 c 0,0.12254 0.07,0.24508 0.27133,0.24508 0.18381,0 0.39388,-0.14005 0.39388,-0.4814 0,-0.39388 -0.37637,-0.75274 -1.03283,-0.75274 -1.15536,0 -1.47921,0.89278 -1.47921,1.2779 0,0.67396 0.6477,0.80525 0.90153,0.85777 0.45514,0.0875 0.91029,0.18381 0.91029,0.65645 0,0.22757 -0.20132,0.9628 -1.25164,0.9628 -0.12254,0 -0.7965,0 -0.99782,-0.46389 0.33261,0.0438 0.55143,-0.21882 0.55143,-0.4639 0,-0.20131 -0.14005,-0.29759 -0.32385,-0.29759 -0.22758,0 -0.49016,0.17506 -0.49016,0.56893 0,0.4989 0.49891,0.84026 1.25164,0.84026 1.41795,0 1.75055,-1.05033 1.75055,-1.4442 0,-0.30635 -0.1663,-0.52516 -0.26258,-0.6302 -0.23633,-0.24507 -0.49016,-0.28884 -0.87528,-0.36761 -0.31509,-0.07 -0.6652,-0.13129 -0.6652,-0.51641 0,-0.25383 0.21006,-0.78775 0.9803,-0.78775 0.21882,0 0.65646,0.0613 0.779,0.40263 z"
         inkscape:connector-curvature="0"
         style="font-style:normal;font-variant:normal;font-weight:normal;font-stretch:normal;letter-spacing:normal;word-spacing:normal;text-anchor:start;fill:#000000;fill-opacity:1;fill-rule:evenodd;stroke:#000000;stroke-width:0;stroke-linecap:butt;stroke-linejoin:miter;stroke-miterlimit:10.433;stroke-dasharray:none;stroke-dashoffset:0;stroke-opacity:1" />
      <path
         id="path1593"
         d="m 213.61954,101.75581 v -0.0613 -0.07 l -0.009,-0.07 v -0.07 l -0.009,-0.1488 -0.009,-0.14879 -0.0175,-0.15755 -0.0175,-0.16631 -0.0175,-0.17505 -0.035,-0.17506 -0.035,-0.17505 -0.035,-0.18381 -0.0525,-0.183805 -0.0525,-0.183807 -0.0613,-0.183808 -0.07,-0.183807 -0.035,-0.09628 -0.035,-0.09628 -0.0438,-0.08753 -0.0438,-0.09628 c -0.52517,-1.067833 -1.2779,-1.628008 -1.36543,-1.628008 -0.0525,0 -0.0875,0.02626 -0.0875,0.07877 0,0.02626 0,0.04376 0.1663,0.201313 0.85777,0.866521 1.35668,2.249453 1.35668,4.061262 0,1.48797 -0.32385,3.0197 -1.40919,4.11379 -0.11379,0.10503 -0.11379,0.12254 -0.11379,0.14879 0,0.0525 0.035,0.0875 0.0875,0.0875 0.0875,0 0.87527,-0.59518 1.39169,-1.69803 0.44638,-0.95405 0.55142,-1.91685 0.55142,-2.65208 z"
         inkscape:connector-curvature="0"
         style="font-style:normal;font-variant:normal;font-weight:normal;font-stretch:normal;letter-spacing:normal;word-spacing:normal;text-anchor:start;fill:#000000;fill-opacity:1;fill-rule:evenodd;stroke:#000000;stroke-width:0;stroke-linecap:butt;stroke-linejoin:miter;stroke-miterlimit:10.433;stroke-dasharray:none;stroke-dashoffset:0;stroke-opacity:1" />
    </g>
    <rect
       style="opacity:1;vector-effect:none;fill:#ffffff;fill-opacity:1;stroke:#000000;stroke-width:0.499999;stroke-linecap:butt;stroke-linejoin:miter;stroke-miterlimit:4;stroke-dasharray:none;stroke-dashoffset:0;stroke-opacity:1"
       id="rect1597"
       width="127.13158"
       height="21.204453"
       x="116.0696"
       y="99.010864" />
    <path
       sodipodi:nodetypes="cc"
       inkscape:connector-curvature="0"
       id="path1609"
       d="M 77.437789,109.6131 H 114.74412"
       style="opacity:1;vector-effect:none;fill:none;fill-opacity:1;stroke:#000000;stroke-width:0.499999;stroke-linecap:butt;stroke-linejoin:miter;stroke-miterlimit:4;stroke-dasharray:none;stroke-dashoffset:0;stroke-opacity:1;marker-end:url(#marker2365)" />
    <g
       transform="matrix(0.875274,0,0,0.875274,131.115,102.053)"
       ns0:version="1.1.0"
       ns0:texconverter="pdflatex"
       ns0:pdfconverter="inkscape"
       ns0:text="$G_{cl}=\\frac{(K_Ds^2+K_Ps+K_I)G}{s+(K_Ds^2+K_Ps+K_I)G}$\n"
       ns0:preamble="C:\\Users\\alsai\\AppData\\Roaming\\inkscape\\extensions\\textext\\default_packages.tex"
       ns0:scale="2.48109209499"
       ns0:alignment="middle center"
       ns0:inkscapeversion="1.0"
       ns0:jacobian_sqrt="0.875274"
       style="fill-opacity:1;stroke:#000000;stroke-width:0;stroke-opacity:1"
       id="g2235">
      <defs
         id="id-d3cf8c0b-2c19-4fd9-9279-ef7d4a134b89">
        <g
           id="id-956d749e-1088-4aa3-a149-88105332d279"
           style="fill-opacity:1;stroke:#000000;stroke-width:0;stroke-opacity:1">
          <symbol
             overflow="visible"
             id="id-a1abaa10-cd2f-4940-b222-44189969dd87"
             style="fill-opacity:1;stroke:#000000;stroke-width:0;stroke-opacity:1">
            <path
               style="fill-opacity:1;stroke:#000000;stroke-width:0;stroke-opacity:1"
               d=""
               id="id-1eec13a6-fd7a-4dda-b5f5-348895970400" />
          </symbol>
          <symbol
             overflow="visible"
             id="id-c231ade7-2380-447b-a7c2-3581c0e1f962"
             style="fill-opacity:1;stroke:#000000;stroke-width:0;stroke-opacity:1">
            <path
               style="fill-opacity:1;stroke:#000000;stroke-width:0;stroke-opacity:1"
               d="m 7.578125,-6.921875 c 0,-0.03125 -0.015625,-0.109375 -0.109375,-0.109375 -0.03125,0 -0.046875,0.015625 -0.15625,0.125 L 6.625,-6.140625 C 6.53125,-6.28125 6.078125,-7.03125 4.96875,-7.03125 2.734375,-7.03125 0.5,-4.828125 0.5,-2.515625 c 0,1.59375 1.109375,2.734375 2.71875,2.734375 0.4375,0 0.890625,-0.09375 1.25,-0.234375 0.5,-0.203125 0.6875,-0.40625 0.859375,-0.609375 0.09375,0.25 0.359375,0.609375 0.453125,0.609375 0.046875,0 0.078125,-0.03125 0.078125,-0.03125 C 5.875,-0.0625 5.96875,-0.453125 6.015625,-0.65625 l 0.1875,-0.765625 C 6.25,-1.59375 6.296875,-1.765625 6.34375,-1.9375 c 0.109375,-0.4375 0.109375,-0.46875 0.6875,-0.46875 0.046875,0 0.15625,-0.015625 0.15625,-0.203125 0,-0.078125 -0.046875,-0.109375 -0.125,-0.109375 -0.234375,0 -0.828125,0.03125 -1.046875,0.03125 -0.3125,0 -1.09375,-0.03125 -1.40625,-0.03125 -0.078125,0 -0.203125,0 -0.203125,0.203125 0,0.109375 0.078125,0.109375 0.296875,0.109375 0.015625,0 0.296875,0 0.53125,0.015625 0.265625,0.03125 0.3125,0.0625 0.3125,0.1875 0,0.09375 -0.109375,0.53125 -0.21875,0.90625 -0.28125,1.09375 -1.5625,1.203125 -1.921875,1.203125 -0.953125,0 -2,-0.5625 -2,-2.09375 0,-0.3125 0.09375,-1.953125 1.140625,-3.25 0.546875,-0.671875 1.515625,-1.28125 2.5,-1.28125 1.015625,0 1.609375,0.765625 1.609375,1.921875 0,0.40625 -0.03125,0.40625 -0.03125,0.515625 0,0.09375 0.109375,0.09375 0.140625,0.09375 0.125,0 0.125,-0.015625 0.1875,-0.203125 z m 0,0"
               id="id-7c99969d-c3e2-48bd-bbb8-a2ab26a83eca" />
          </symbol>
          <symbol
             overflow="visible"
             id="id-995ea592-3c10-4719-9316-c1e784c8f174"
             style="fill-opacity:1;stroke:#000000;stroke-width:0;stroke-opacity:1">
            <path
               style="fill-opacity:1;stroke:#000000;stroke-width:0;stroke-opacity:1"
               d=""
               id="id-dd3d76e4-cf49-472d-a703-6093beee6289" />
          </symbol>
          <symbol
             overflow="visible"
             id="id-e8f40320-28b1-41a9-af84-e73a20cc8532"
             style="fill-opacity:1;stroke:#000000;stroke-width:0;stroke-opacity:1">
            <path
               style="fill-opacity:1;stroke:#000000;stroke-width:0;stroke-opacity:1"
               d="m 3.046875,-2.671875 c -0.25,0.046875 -0.34375,0.234375 -0.34375,0.390625 0,0.1875 0.140625,0.265625 0.265625,0.265625 0.15625,0 0.390625,-0.109375 0.390625,-0.453125 0,-0.46875 -0.53125,-0.609375 -0.90625,-0.609375 -1.046875,0 -2.015625,0.96875 -2.015625,1.9375 0,0.59375 0.40625,1.203125 1.28125,1.203125 1.1875,0 1.734375,-0.6875 1.734375,-0.78125 0,-0.046875 -0.0625,-0.125 -0.125,-0.125 -0.03125,0 -0.046875,0.015625 -0.109375,0.078125 C 2.671875,-0.125 1.859375,-0.125 1.734375,-0.125 c -0.5,0 -0.71875,-0.34375 -0.71875,-0.78125 0,-0.1875 0.09375,-0.953125 0.453125,-1.4375 0.265625,-0.34375 0.625,-0.53125 0.984375,-0.53125 0.09375,0 0.421875,0.015625 0.59375,0.203125 z m 0,0"
               id="id-317fa8a4-bb0c-491a-9e9b-8ff72d4e32c6" />
          </symbol>
          <symbol
             overflow="visible"
             id="id-cf0ae431-07db-495d-b976-530b01027200"
             style="fill-opacity:1;stroke:#000000;stroke-width:0;stroke-opacity:1">
            <path
               style="fill-opacity:1;stroke:#000000;stroke-width:0;stroke-opacity:1"
               d="M 1.96875,-4.625 C 1.96875,-4.640625 2,-4.734375 2,-4.734375 2,-4.78125 1.96875,-4.84375 1.875,-4.84375 c -0.140625,0 -0.71875,0.0625 -0.890625,0.078125 -0.046875,0 -0.140625,0.015625 -0.140625,0.15625 0,0.09375 0.09375,0.09375 0.171875,0.09375 0.34375,0 0.34375,0.0625 0.34375,0.109375 0,0.046875 -0.015625,0.09375 -0.03125,0.15625 l -0.875,3.4375 C 0.4375,-0.734375 0.4375,-0.65625 0.4375,-0.59375 c 0,0.453125 0.390625,0.65625 0.71875,0.65625 0.171875,0 0.390625,-0.046875 0.5625,-0.359375 C 1.875,-0.5625 1.96875,-0.96875 1.96875,-1 c 0,-0.09375 -0.09375,-0.09375 -0.109375,-0.09375 -0.109375,0 -0.125,0.046875 -0.140625,0.171875 C 1.625,-0.578125 1.484375,-0.125 1.1875,-0.125 1,-0.125 0.953125,-0.296875 0.953125,-0.46875 0.953125,-0.546875 0.96875,-0.671875 1,-0.75 Z m 0,0"
               id="id-a04135ee-1767-4064-a33d-b53b5a6734df" />
          </symbol>
          <symbol
             overflow="visible"
             id="id-bb116734-35ae-45c9-9810-961992b3507b"
             style="fill-opacity:1;stroke:#000000;stroke-width:0;stroke-opacity:1">
            <path
               style="fill-opacity:1;stroke:#000000;stroke-width:0;stroke-opacity:1"
               d="M 3.984375,-2.796875 C 3.953125,-2.859375 3.9375,-2.875 3.9375,-2.890625 c 0,-0.015625 0.015625,-0.015625 0.171875,-0.125 l 0.703125,-0.5 c 0.921875,-0.640625 1.359375,-0.953125 1.84375,-1 0.078125,0 0.171875,0 0.171875,-0.140625 0,-0.0625 -0.046875,-0.09375 -0.09375,-0.09375 -0.15625,0 -0.328125,0.015625 -0.484375,0.015625 -0.1875,0 -0.65625,-0.03125 -0.84375,-0.03125 -0.046875,0 -0.140625,0 -0.140625,0.15625 0,0.015625 0,0.09375 0.09375,0.09375 0.09375,0.015625 0.1875,0.03125 0.1875,0.109375 0,0.125 -0.21875,0.28125 -0.3125,0.34375 L 2.328125,-2.015625 2.875,-4.21875 c 0.0625,-0.234375 0.078125,-0.296875 0.609375,-0.296875 0.125,0 0.21875,0 0.21875,-0.140625 0,-0.0625 -0.046875,-0.109375 -0.109375,-0.109375 -0.203125,0 -0.71875,0.03125 -0.921875,0.03125 -0.109375,0 -0.359375,0 -0.484375,0 C 2.0625,-4.75 1.890625,-4.765625 1.75,-4.765625 c -0.03125,0 -0.140625,0 -0.140625,0.15625 0,0.09375 0.078125,0.09375 0.234375,0.09375 0.109375,0 0.140625,0 0.265625,0.015625 0.140625,0.015625 0.15625,0.03125 0.15625,0.109375 0,0 0,0.046875 -0.03125,0.140625 l -0.9375,3.703125 C 1.25,-0.3125 1.234375,-0.25 0.6875,-0.25 c -0.125,0 -0.203125,0 -0.203125,0.15625 0,0 0,0.09375 0.109375,0.09375 0.203125,0 0.703125,-0.03125 0.90625,-0.03125 0.109375,0 0.359375,0 0.484375,0.015625 C 2.125,-0.015625 2.296875,0 2.421875,0 2.46875,0 2.578125,0 2.578125,-0.15625 2.578125,-0.25 2.484375,-0.25 2.34375,-0.25 c 0,0 -0.140625,0 -0.265625,-0.015625 C 1.921875,-0.28125 1.921875,-0.296875 1.921875,-0.375 1.921875,-0.421875 2,-0.6875 2.25,-1.703125 l 1.15625,-0.8125 1.015625,1.953125 c 0.046875,0.09375 0.046875,0.09375 0.046875,0.125 0,0.171875 -0.203125,0.1875 -0.328125,0.1875 -0.078125,0 -0.171875,0 -0.171875,0.15625 0,0 0,0.09375 0.109375,0.09375 C 4.28125,0 4.78125,-0.03125 4.96875,-0.03125 5.1875,-0.03125 5.46875,0 5.65625,0 5.75,0 5.796875,-0.046875 5.796875,-0.140625 5.796875,-0.25 5.703125,-0.25 5.640625,-0.25 c -0.125,0 -0.34375,-0.015625 -0.46875,-0.234375 z m 0,0"
               id="id-94a8eedd-a4f5-4e20-a6b9-2c975df47b60" />
          </symbol>
          <symbol
             overflow="visible"
             id="id-81f92ec7-6db0-4500-a106-7cd8119a7b6f"
             style="fill-opacity:1;stroke:#000000;stroke-width:0;stroke-opacity:1">
            <path
               style="fill-opacity:1;stroke:#000000;stroke-width:0;stroke-opacity:1"
               d="m 3,-2.625 c -0.171875,0.046875 -0.296875,0.1875 -0.296875,0.328125 0,0.171875 0.140625,0.234375 0.234375,0.234375 0.078125,0 0.34375,-0.046875 0.34375,-0.40625 0,-0.453125 -0.5,-0.609375 -0.9375,-0.609375 -1.078125,0 -1.28125,0.8125 -1.28125,1.015625 0,0.265625 0.15625,0.4375 0.25,0.515625 0.171875,0.140625 0.296875,0.171875 0.78125,0.25 0.15625,0.03125 0.59375,0.109375 0.59375,0.453125 0,0.125 -0.078125,0.390625 -0.359375,0.5625 C 2.046875,-0.125 1.703125,-0.125 1.625,-0.125 1.34375,-0.125 0.953125,-0.1875 0.78125,-0.421875 1.015625,-0.453125 1.171875,-0.625 1.171875,-0.8125 c 0,-0.171875 -0.125,-0.265625 -0.265625,-0.265625 -0.203125,0 -0.40625,0.171875 -0.40625,0.46875 0,0.421875 0.4375,0.671875 1.109375,0.671875 1.296875,0 1.53125,-0.875 1.53125,-1.140625 0,-0.640625 -0.703125,-0.765625 -0.96875,-0.8125 -0.0625,-0.015625 -0.234375,-0.046875 -0.28125,-0.0625 -0.25,-0.046875 -0.375,-0.1875 -0.375,-0.34375 0,-0.15625 0.125,-0.34375 0.28125,-0.453125 0.1875,-0.109375 0.421875,-0.125 0.546875,-0.125 0.140625,0 0.5,0.015625 0.65625,0.25 z m 0,0"
               id="id-73735fe6-f9c9-41bd-b4ac-3c1b90ea9c39" />
          </symbol>
          <symbol
             overflow="visible"
             id="id-77de5951-e8e3-463b-abb7-0ebc9d815ae6"
             style="fill-opacity:1;stroke:#000000;stroke-width:0;stroke-opacity:1">
            <path
               style="fill-opacity:1;stroke:#000000;stroke-width:0;stroke-opacity:1"
               d="m 5.875,-4.8125 c 0,-0.03125 -0.015625,-0.09375 -0.09375,-0.09375 -0.046875,0 -0.0625,0.015625 -0.125,0.09375 l -0.5,0.53125 c -0.0625,-0.078125 -0.453125,-0.625 -1.3125,-0.625 -1.703125,0 -3.359375,1.5 -3.359375,3.078125 0,1.078125 0.828125,1.96875 2.15625,1.96875 0.625,0 1.265625,-0.15625 1.625,-0.546875 C 4.34375,-0.265625 4.53125,0 4.609375,0 4.671875,0 4.6875,-0.03125 4.71875,-0.1875 l 0.140625,-0.53125 c 0.03125,-0.125 0.125,-0.546875 0.15625,-0.625 0.078125,-0.3125 0.078125,-0.328125 0.5,-0.328125 0.046875,0 0.15625,0 0.15625,-0.140625 0,-0.078125 -0.0625,-0.109375 -0.109375,-0.109375 -0.234375,0 -0.53125,0.03125 -0.765625,0.03125 -0.171875,0 -0.40625,0 -0.578125,-0.015625 -0.171875,0 -0.375,-0.015625 -0.546875,-0.015625 -0.0625,0 -0.15625,0 -0.15625,0.15625 0,0.09375 0.078125,0.09375 0.25,0.09375 0.125,0 0.265625,0 0.40625,0.015625 0.21875,0.015625 0.21875,0.046875 0.21875,0.125 0,0.03125 0,0.046875 -0.046875,0.234375 -0.046875,0.1875 -0.125,0.5 -0.15625,0.578125 C 4,-0.296875 3.34375,-0.109375 2.796875,-0.109375 c -0.6875,0 -1.609375,-0.34375 -1.609375,-1.515625 0,-0.75 0.359375,-1.671875 0.875,-2.203125 0.71875,-0.703125 1.453125,-0.8125 1.84375,-0.8125 0.8125,0 1.28125,0.578125 1.28125,1.359375 0,0.1875 -0.015625,0.25 -0.015625,0.28125 0,0.09375 0.09375,0.09375 0.125,0.09375 0.109375,0 0.109375,-0.015625 0.140625,-0.15625 z m 0,0"
               id="id-20a8bf77-7363-4000-83ce-3ae659ff0077" />
          </symbol>
          <symbol
             overflow="visible"
             id="id-3ce1c5b5-6665-406b-b074-fe2e3e4a73fb"
             style="fill-opacity:1;stroke:#000000;stroke-width:0;stroke-opacity:1">
            <path
               style="fill-opacity:1;stroke:#000000;stroke-width:0;stroke-opacity:1"
               d=""
               id="id-ca5d5239-9f94-47c2-8c37-200e147bc46e" />
          </symbol>
          <symbol
             overflow="visible"
             id="id-a444d5f6-230a-4a2a-b77e-ae0c46c6fd82"
             style="fill-opacity:1;stroke:#000000;stroke-width:0;stroke-opacity:1">
            <path
               style="fill-opacity:1;stroke:#000000;stroke-width:0;stroke-opacity:1"
               d="m 6.84375,-3.265625 c 0.15625,0 0.34375,0 0.34375,-0.1875 C 7.1875,-3.65625 7,-3.65625 6.859375,-3.65625 h -5.96875 c -0.140625,0 -0.328125,0 -0.328125,0.203125 0,0.1875 0.1875,0.1875 0.328125,0.1875 z m 0.015625,1.9375 c 0.140625,0 0.328125,0 0.328125,-0.203125 0,-0.1875 -0.1875,-0.1875 -0.34375,-0.1875 H 0.890625 c -0.140625,0 -0.328125,0 -0.328125,0.1875 0,0.203125 0.1875,0.203125 0.328125,0.203125 z m 0,0"
               id="id-aa0650b5-1763-4a57-b0ca-7127438fdca3" />
          </symbol>
          <symbol
             overflow="visible"
             id="id-468d2294-2eda-4565-a031-fde69bbc858d"
             style="fill-opacity:1;stroke:#000000;stroke-width:0;stroke-opacity:1">
            <path
               style="fill-opacity:1;stroke:#000000;stroke-width:0;stroke-opacity:1"
               d=""
               id="id-7537d94f-df77-44a1-9654-b053a849cb39" />
          </symbol>
          <symbol
             overflow="visible"
             id="id-08692449-22d6-4322-aeac-c8f67b835081"
             style="fill-opacity:1;stroke:#000000;stroke-width:0;stroke-opacity:1">
            <path
               style="fill-opacity:1;stroke:#000000;stroke-width:0;stroke-opacity:1"
               d="M 2.46875,-5.21875 C 1.15625,-4.296875 0.796875,-2.8125 0.796875,-1.75 c 0,0.984375 0.296875,2.515625 1.671875,3.484375 0.0625,0 0.140625,0 0.140625,-0.078125 0,-0.046875 -0.015625,-0.0625 -0.0625,-0.109375 C 1.609375,0.703125 1.28125,-0.46875 1.28125,-1.734375 1.28125,-3.625 2,-4.546875 2.5625,-5.0625 2.59375,-5.09375 2.609375,-5.109375 2.609375,-5.140625 2.609375,-5.21875 2.53125,-5.21875 2.46875,-5.21875 Z m 0,0"
               id="id-8ef4be3a-634d-4875-89c7-a194ae7aac9b" />
          </symbol>
          <symbol
             overflow="visible"
             id="id-8bca6504-bff1-4050-9fc7-ad4d30c597c5"
             style="fill-opacity:1;stroke:#000000;stroke-width:0;stroke-opacity:1">
            <path
               style="fill-opacity:1;stroke:#000000;stroke-width:0;stroke-opacity:1"
               d="m 3.21875,-1.578125 h 2.140625 c 0.09375,0 0.25,0 0.25,-0.15625 0,-0.1875 -0.15625,-0.1875 -0.25,-0.1875 H 3.21875 V -4.0625 c 0,-0.078125 0,-0.25 -0.15625,-0.25 -0.171875,0 -0.171875,0.15625 -0.171875,0.25 v 2.140625 H 0.75 c -0.09375,0 -0.265625,0 -0.265625,0.171875 0,0.171875 0.15625,0.171875 0.265625,0.171875 H 2.890625 V 0.5625 c 0,0.09375 0,0.265625 0.15625,0.265625 0.171875,0 0.171875,-0.171875 0.171875,-0.265625 z m 0,0"
               id="id-aa1f27f0-86ff-468d-a593-a0bbd6dd3f57" />
          </symbol>
          <symbol
             overflow="visible"
             id="id-7cc54e7c-64a3-42ff-b5c0-40a93b061542"
             style="fill-opacity:1;stroke:#000000;stroke-width:0;stroke-opacity:1">
            <path
               style="fill-opacity:1;stroke:#000000;stroke-width:0;stroke-opacity:1"
               d="m 0.625,-5.21875 c -0.046875,0 -0.125,0 -0.125,0.078125 0,0.03125 0.015625,0.046875 0.0625,0.109375 0.59375,0.546875 1.265625,1.484375 1.265625,3.28125 0,1.453125 -0.453125,2.5625 -1.203125,3.234375 -0.125,0.125 -0.125,0.125 -0.125,0.171875 0,0.03125 0.015625,0.078125 0.078125,0.078125 0.09375,0 0.75,-0.453125 1.21875,-1.328125 0.296875,-0.578125 0.5,-1.328125 0.5,-2.140625 C 2.296875,-2.71875 2,-4.25 0.625,-5.21875 Z m 0,0"
               id="id-5991be6a-3bfc-4173-b42b-cbff3345def8" />
          </symbol>
          <symbol
             overflow="visible"
             id="id-bad958a7-2ca7-46c8-a850-164b0498fff2"
             style="fill-opacity:1;stroke:#000000;stroke-width:0;stroke-opacity:1">
            <path
               style="fill-opacity:1;stroke:#000000;stroke-width:0;stroke-opacity:1"
               d=""
               id="id-1d7e4331-0fbc-4086-a313-40c38a61905c" />
          </symbol>
          <symbol
             overflow="visible"
             id="id-282559f2-54f2-438c-9131-406a1c5f4a58"
             style="fill-opacity:1;stroke:#000000;stroke-width:0;stroke-opacity:1">
            <path
               style="fill-opacity:1;stroke:#000000;stroke-width:0;stroke-opacity:1"
               d="m 1.21875,-0.40625 c -0.03125,0.140625 -0.03125,0.1875 -0.421875,0.1875 -0.125,0 -0.203125,0 -0.203125,0.140625 C 0.59375,0 0.671875,0 0.75,0 H 2.765625 C 3.9375,0 5.125,-0.953125 5.125,-2.046875 5.125,-2.875 4.46875,-3.40625 3.609375,-3.40625 H 1.5625 c -0.09375,0 -0.171875,0 -0.171875,0.140625 0,0.078125 0.0625,0.078125 0.1875,0.078125 0.046875,0 0.21875,0 0.3125,0.03125 0,0.0625 0,0.078125 -0.015625,0.125 z M 2.375,-3.015625 C 2.421875,-3.171875 2.421875,-3.1875 2.625,-3.1875 h 0.796875 c 0.34375,0 0.671875,0.09375 0.890625,0.28125 0.171875,0.171875 0.28125,0.375 0.28125,0.71875 0,0.3125 -0.109375,0.953125 -0.484375,1.375 -0.375,0.40625 -0.921875,0.59375 -1.4375,0.59375 H 1.84375 c -0.03125,0 -0.109375,0 -0.15625,-0.015625 0,-0.046875 0,-0.0625 0.015625,-0.09375 z m 0,0"
               id="id-11809d29-8640-46fa-9015-30d017b3ca18" />
          </symbol>
          <symbol
             overflow="visible"
             id="id-8ba58891-301f-49e4-9619-911b38e593c2"
             style="fill-opacity:1;stroke:#000000;stroke-width:0;stroke-opacity:1">
            <path
               style="fill-opacity:1;stroke:#000000;stroke-width:0;stroke-opacity:1"
               d="m 2.015625,-1.515625 h 1.09375 c 0.765625,0 1.65625,-0.46875 1.65625,-1.078125 0,-0.46875 -0.515625,-0.8125 -1.234375,-0.8125 H 1.5625 c -0.09375,0 -0.171875,0 -0.171875,0.140625 0,0.078125 0.0625,0.078125 0.1875,0.078125 0.046875,0 0.21875,0 0.3125,0.03125 0,0.0625 0,0.078125 -0.015625,0.125 l -0.65625,2.625 c -0.03125,0.140625 -0.03125,0.1875 -0.421875,0.1875 -0.125,0 -0.203125,0 -0.203125,0.140625 C 0.59375,-0.046875 0.625,0 0.6875,0 c 0.09375,0 0.21875,-0.015625 0.328125,-0.015625 0.125,0 0.25,0 0.375,0 0.125,0 0.234375,0 0.359375,0 C 1.875,-0.015625 2,0 2.109375,0 c 0.03125,0 0.125,0 0.125,-0.140625 0,-0.078125 -0.078125,-0.078125 -0.171875,-0.078125 -0.015625,0 -0.125,0 -0.21875,-0.015625 -0.125,-0.015625 -0.125,-0.015625 -0.125,-0.0625 0,0 0,-0.015625 0.015625,-0.0625 z m 0.359375,-1.5 C 2.421875,-3.171875 2.421875,-3.1875 2.625,-3.1875 h 0.734375 c 0.515625,0 0.859375,0.140625 0.859375,0.515625 0,0.15625 -0.078125,0.53125 -0.359375,0.75 -0.28125,0.203125 -0.671875,0.21875 -0.875,0.21875 h -0.9375 z m 0,0"
               id="id-b43c1a50-f0b6-4088-9057-1763af37b04a" />
          </symbol>
          <symbol
             overflow="visible"
             id="id-f65b29da-b204-421d-9929-1a29d023650f"
             style="fill-opacity:1;stroke:#000000;stroke-width:0;stroke-opacity:1">
            <path
               style="fill-opacity:1;stroke:#000000;stroke-width:0;stroke-opacity:1"
               d="m 2.375,-2.96875 c 0.046875,-0.171875 0.046875,-0.21875 0.46875,-0.21875 0.125,0 0.203125,0 0.203125,-0.125 0,-0.046875 -0.03125,-0.09375 -0.09375,-0.09375 -0.109375,0 -0.234375,0.015625 -0.34375,0.015625 -0.125,0 -0.25,0 -0.390625,0 -0.125,0 -0.25,0 -0.375,0 -0.125,0 -0.25,-0.015625 -0.359375,-0.015625 -0.03125,0 -0.140625,0 -0.140625,0.140625 0,0.078125 0.078125,0.078125 0.1875,0.078125 0.015625,0 0.109375,0 0.21875,0.015625 0.125,0.015625 0.140625,0.015625 0.140625,0.0625 0,0.03125 0,0.03125 -0.015625,0.078125 l -0.65625,2.609375 c -0.046875,0.15625 -0.046875,0.203125 -0.453125,0.203125 -0.140625,0 -0.203125,0 -0.203125,0.140625 C 0.5625,-0.03125 0.59375,0 0.640625,0 0.75,0 0.875,-0.015625 0.984375,-0.015625 c 0.140625,0 0.265625,0 0.390625,0 0.125,0 0.25,0 0.390625,0 C 1.875,-0.015625 2,0 2.125,0 2.140625,0 2.25,0 2.25,-0.140625 2.25,-0.21875 2.171875,-0.21875 2.0625,-0.21875 c -0.078125,0 -0.125,0 -0.203125,-0.015625 C 1.71875,-0.25 1.703125,-0.25 1.703125,-0.296875 c 0,-0.015625 0.015625,-0.0625 0.03125,-0.09375 z m 0,0"
               id="id-a2ee4c02-904d-41ec-b295-0ab21a90e720" />
          </symbol>
          <symbol
             overflow="visible"
             id="id-5890dcb4-306c-4a3f-9c83-014d13e16788"
             style="fill-opacity:1;stroke:#000000;stroke-width:0;stroke-opacity:1">
            <path
               style="fill-opacity:1;stroke:#000000;stroke-width:0;stroke-opacity:1"
               d=""
               id="id-4b65df8f-0ccc-460e-951f-040b8e07e068" />
          </symbol>
          <symbol
             overflow="visible"
             id="id-701f9d56-90a4-44a9-aac0-b7906bd96e1e"
             style="fill-opacity:1;stroke:#000000;stroke-width:0;stroke-opacity:1">
            <path
               style="fill-opacity:1;stroke:#000000;stroke-width:0;stroke-opacity:1"
               d="M 2.9375,-0.96875 H 2.71875 c 0,0.09375 -0.0625,0.40625 -0.140625,0.453125 -0.03125,0.03125 -0.453125,0.03125 -0.53125,0.03125 H 1.078125 C 1.40625,-0.71875 1.765625,-1 2.0625,-1.203125 c 0.453125,-0.3125 0.875,-0.59375 0.875,-1.125 0,-0.640625 -0.609375,-0.984375 -1.3125,-0.984375 -0.671875,0 -1.171875,0.375 -1.171875,0.875 0,0.25 0.21875,0.296875 0.296875,0.296875 0.125,0 0.28125,-0.09375 0.28125,-0.296875 0,-0.171875 -0.125,-0.28125 -0.28125,-0.28125 0.140625,-0.234375 0.4375,-0.375 0.765625,-0.375 0.484375,0 0.890625,0.28125 0.890625,0.765625 0,0.421875 -0.296875,0.75 -0.671875,1.0625 l -1.21875,1.03125 C 0.46875,-0.1875 0.453125,-0.1875 0.453125,-0.15625 V 0 h 2.3125 z m 0,0"
               id="id-4b8b4cbf-1a97-4956-9fa9-2fecf4fd2f26" />
          </symbol>
        </g>
      </defs>
      <g
         id="id-103247fb-4940-4bde-9a9b-df0443efa24f"
         transform="translate(-149.212,-124.699)"
         style="fill-opacity:1;stroke:#000000;stroke-width:0;stroke-opacity:1">
        <g
           style="fill:#000000;fill-opacity:1;stroke:#000000;stroke-width:0;stroke-opacity:1"
           id="id-b76fe506-c880-40c0-9365-9dacf3416eba">
          <g
             transform="translate(148.712,135.851)"
             style="fill-opacity:1;stroke:#000000;stroke-width:0;stroke-opacity:1"
             id="g2100">
            <path
               style="fill-opacity:1;stroke:#000000;stroke-width:0;stroke-opacity:1"
               d="m 7.578125,-6.921875 c 0,-0.03125 -0.015625,-0.109375 -0.109375,-0.109375 -0.03125,0 -0.046875,0.015625 -0.15625,0.125 L 6.625,-6.140625 C 6.53125,-6.28125 6.078125,-7.03125 4.96875,-7.03125 2.734375,-7.03125 0.5,-4.828125 0.5,-2.515625 c 0,1.59375 1.109375,2.734375 2.71875,2.734375 0.4375,0 0.890625,-0.09375 1.25,-0.234375 0.5,-0.203125 0.6875,-0.40625 0.859375,-0.609375 0.09375,0.25 0.359375,0.609375 0.453125,0.609375 0.046875,0 0.078125,-0.03125 0.078125,-0.03125 C 5.875,-0.0625 5.96875,-0.453125 6.015625,-0.65625 l 0.1875,-0.765625 C 6.25,-1.59375 6.296875,-1.765625 6.34375,-1.9375 c 0.109375,-0.4375 0.109375,-0.46875 0.6875,-0.46875 0.046875,0 0.15625,-0.015625 0.15625,-0.203125 0,-0.078125 -0.046875,-0.109375 -0.125,-0.109375 -0.234375,0 -0.828125,0.03125 -1.046875,0.03125 -0.3125,0 -1.09375,-0.03125 -1.40625,-0.03125 -0.078125,0 -0.203125,0 -0.203125,0.203125 0,0.109375 0.078125,0.109375 0.296875,0.109375 0.015625,0 0.296875,0 0.53125,0.015625 0.265625,0.03125 0.3125,0.0625 0.3125,0.1875 0,0.09375 -0.109375,0.53125 -0.21875,0.90625 -0.28125,1.09375 -1.5625,1.203125 -1.921875,1.203125 -0.953125,0 -2,-0.5625 -2,-2.09375 0,-0.3125 0.09375,-1.953125 1.140625,-3.25 0.546875,-0.671875 1.515625,-1.28125 2.5,-1.28125 1.015625,0 1.609375,0.765625 1.609375,1.921875 0,0.40625 -0.03125,0.40625 -0.03125,0.515625 0,0.09375 0.109375,0.09375 0.140625,0.09375 0.125,0 0.125,-0.015625 0.1875,-0.203125 z m 0,0"
               id="id-64843117-1b05-45b0-a1b9-e27bb10890a7" />
          </g>
        </g>
        <g
           style="fill:#000000;fill-opacity:1;stroke:#000000;stroke-width:0;stroke-opacity:1"
           id="id-2436a1af-6a23-463f-89dd-82b41c780740">
          <g
             transform="translate(156.545,137.345)"
             style="fill-opacity:1;stroke:#000000;stroke-width:0;stroke-opacity:1"
             id="g2104">
            <path
               style="fill-opacity:1;stroke:#000000;stroke-width:0;stroke-opacity:1"
               d="m 3.046875,-2.671875 c -0.25,0.046875 -0.34375,0.234375 -0.34375,0.390625 0,0.1875 0.140625,0.265625 0.265625,0.265625 0.15625,0 0.390625,-0.109375 0.390625,-0.453125 0,-0.46875 -0.53125,-0.609375 -0.90625,-0.609375 -1.046875,0 -2.015625,0.96875 -2.015625,1.9375 0,0.59375 0.40625,1.203125 1.28125,1.203125 1.1875,0 1.734375,-0.6875 1.734375,-0.78125 0,-0.046875 -0.0625,-0.125 -0.125,-0.125 -0.03125,0 -0.046875,0.015625 -0.109375,0.078125 C 2.671875,-0.125 1.859375,-0.125 1.734375,-0.125 c -0.5,0 -0.71875,-0.34375 -0.71875,-0.78125 0,-0.1875 0.09375,-0.953125 0.453125,-1.4375 0.265625,-0.34375 0.625,-0.53125 0.984375,-0.53125 0.09375,0 0.421875,0.015625 0.59375,0.203125 z m 0,0"
               id="id-6dcf259f-c4a4-4173-99f4-e2e29c3f7d73" />
          </g>
          <g
             transform="translate(160.105,137.345)"
             style="fill-opacity:1;stroke:#000000;stroke-width:0;stroke-opacity:1"
             id="g2107">
            <path
               style="fill-opacity:1;stroke:#000000;stroke-width:0;stroke-opacity:1"
               d="M 1.96875,-4.625 C 1.96875,-4.640625 2,-4.734375 2,-4.734375 2,-4.78125 1.96875,-4.84375 1.875,-4.84375 c -0.140625,0 -0.71875,0.0625 -0.890625,0.078125 -0.046875,0 -0.140625,0.015625 -0.140625,0.15625 0,0.09375 0.09375,0.09375 0.171875,0.09375 0.34375,0 0.34375,0.0625 0.34375,0.109375 0,0.046875 -0.015625,0.09375 -0.03125,0.15625 l -0.875,3.4375 C 0.4375,-0.734375 0.4375,-0.65625 0.4375,-0.59375 c 0,0.453125 0.390625,0.65625 0.71875,0.65625 0.171875,0 0.390625,-0.046875 0.5625,-0.359375 C 1.875,-0.5625 1.96875,-0.96875 1.96875,-1 c 0,-0.09375 -0.09375,-0.09375 -0.109375,-0.09375 -0.109375,0 -0.125,0.046875 -0.140625,0.171875 C 1.625,-0.578125 1.484375,-0.125 1.1875,-0.125 1,-0.125 0.953125,-0.296875 0.953125,-0.46875 0.953125,-0.546875 0.96875,-0.671875 1,-0.75 Z m 0,0"
               id="id-f93ec5ea-b664-4e29-a82f-095ea5ac229e" />
          </g>
        </g>
        <g
           style="fill:#000000;fill-opacity:1;stroke:#000000;stroke-width:0;stroke-opacity:1"
           id="id-a297d42a-9d2b-4d5c-b0ad-cd91ecdb9020">
          <g
             transform="translate(165.931,135.851)"
             style="fill-opacity:1;stroke:#000000;stroke-width:0;stroke-opacity:1"
             id="g2111">
            <path
               style="fill-opacity:1;stroke:#000000;stroke-width:0;stroke-opacity:1"
               d="m 6.84375,-3.265625 c 0.15625,0 0.34375,0 0.34375,-0.1875 C 7.1875,-3.65625 7,-3.65625 6.859375,-3.65625 h -5.96875 c -0.140625,0 -0.328125,0 -0.328125,0.203125 0,0.1875 0.1875,0.1875 0.328125,0.1875 z m 0.015625,1.9375 c 0.140625,0 0.328125,0 0.328125,-0.203125 0,-0.1875 -0.1875,-0.1875 -0.34375,-0.1875 H 0.890625 c -0.140625,0 -0.328125,0 -0.328125,0.1875 0,0.203125 0.1875,0.203125 0.328125,0.203125 z m 0,0"
               id="id-2b349f3c-4af2-4490-8d6f-e855b43d97b4" />
          </g>
        </g>
        <g
           style="fill:#000000;fill-opacity:1;stroke:#000000;stroke-width:0;stroke-opacity:1"
           id="id-9e381ca5-f0cb-423c-9b25-e04be3c5cc4b">
          <g
             transform="translate(182.581,131.019)"
             style="fill-opacity:1;stroke:#000000;stroke-width:0;stroke-opacity:1"
             id="g2115">
            <path
               style="fill-opacity:1;stroke:#000000;stroke-width:0;stroke-opacity:1"
               d="M 2.46875,-5.21875 C 1.15625,-4.296875 0.796875,-2.8125 0.796875,-1.75 c 0,0.984375 0.296875,2.515625 1.671875,3.484375 0.0625,0 0.140625,0 0.140625,-0.078125 0,-0.046875 -0.015625,-0.0625 -0.0625,-0.109375 C 1.609375,0.703125 1.28125,-0.46875 1.28125,-1.734375 1.28125,-3.625 2,-4.546875 2.5625,-5.0625 2.59375,-5.09375 2.609375,-5.109375 2.609375,-5.140625 2.609375,-5.21875 2.53125,-5.21875 2.46875,-5.21875 Z m 0,0"
               id="id-d12f843c-053a-47b7-acef-18a45e1b95c6" />
          </g>
        </g>
        <g
           style="fill:#000000;fill-opacity:1;stroke:#000000;stroke-width:0;stroke-opacity:1"
           id="id-2805da6d-74e5-4c8a-bc48-56087cbd458d">
          <g
             transform="translate(185.694,131.019)"
             style="fill-opacity:1;stroke:#000000;stroke-width:0;stroke-opacity:1"
             id="g2119">
            <path
               style="fill-opacity:1;stroke:#000000;stroke-width:0;stroke-opacity:1"
               d="M 3.984375,-2.796875 C 3.953125,-2.859375 3.9375,-2.875 3.9375,-2.890625 c 0,-0.015625 0.015625,-0.015625 0.171875,-0.125 l 0.703125,-0.5 c 0.921875,-0.640625 1.359375,-0.953125 1.84375,-1 0.078125,0 0.171875,0 0.171875,-0.140625 0,-0.0625 -0.046875,-0.09375 -0.09375,-0.09375 -0.15625,0 -0.328125,0.015625 -0.484375,0.015625 -0.1875,0 -0.65625,-0.03125 -0.84375,-0.03125 -0.046875,0 -0.140625,0 -0.140625,0.15625 0,0.015625 0,0.09375 0.09375,0.09375 0.09375,0.015625 0.1875,0.03125 0.1875,0.109375 0,0.125 -0.21875,0.28125 -0.3125,0.34375 L 2.328125,-2.015625 2.875,-4.21875 c 0.0625,-0.234375 0.078125,-0.296875 0.609375,-0.296875 0.125,0 0.21875,0 0.21875,-0.140625 0,-0.0625 -0.046875,-0.109375 -0.109375,-0.109375 -0.203125,0 -0.71875,0.03125 -0.921875,0.03125 -0.109375,0 -0.359375,0 -0.484375,0 C 2.0625,-4.75 1.890625,-4.765625 1.75,-4.765625 c -0.03125,0 -0.140625,0 -0.140625,0.15625 0,0.09375 0.078125,0.09375 0.234375,0.09375 0.109375,0 0.140625,0 0.265625,0.015625 0.140625,0.015625 0.15625,0.03125 0.15625,0.109375 0,0 0,0.046875 -0.03125,0.140625 l -0.9375,3.703125 C 1.25,-0.3125 1.234375,-0.25 0.6875,-0.25 c -0.125,0 -0.203125,0 -0.203125,0.15625 0,0 0,0.09375 0.109375,0.09375 0.203125,0 0.703125,-0.03125 0.90625,-0.03125 0.109375,0 0.359375,0 0.484375,0.015625 C 2.125,-0.015625 2.296875,0 2.421875,0 2.46875,0 2.578125,0 2.578125,-0.15625 2.578125,-0.25 2.484375,-0.25 2.34375,-0.25 c 0,0 -0.140625,0 -0.265625,-0.015625 C 1.921875,-0.28125 1.921875,-0.296875 1.921875,-0.375 1.921875,-0.421875 2,-0.6875 2.25,-1.703125 l 1.15625,-0.8125 1.015625,1.953125 c 0.046875,0.09375 0.046875,0.09375 0.046875,0.125 0,0.171875 -0.203125,0.1875 -0.328125,0.1875 -0.078125,0 -0.171875,0 -0.171875,0.15625 0,0 0,0.09375 0.109375,0.09375 C 4.28125,0 4.78125,-0.03125 4.96875,-0.03125 5.1875,-0.03125 5.46875,0 5.65625,0 5.75,0 5.796875,-0.046875 5.796875,-0.140625 5.796875,-0.25 5.703125,-0.25 5.640625,-0.25 c -0.125,0 -0.34375,-0.015625 -0.46875,-0.234375 z m 0,0"
               id="id-fdf303ae-4b3b-4d1d-853e-58c03df88dfa" />
          </g>
        </g>
        <g
           style="fill:#000000;fill-opacity:1;stroke:#000000;stroke-width:0;stroke-opacity:1"
           id="id-a64c869a-8328-4fd9-ac43-c8759372dcf4">
          <g
             transform="translate(192.389,132.021)"
             style="fill-opacity:1;stroke:#000000;stroke-width:0;stroke-opacity:1"
             id="g2123">
            <path
               style="fill-opacity:1;stroke:#000000;stroke-width:0;stroke-opacity:1"
               d="m 1.21875,-0.40625 c -0.03125,0.140625 -0.03125,0.1875 -0.421875,0.1875 -0.125,0 -0.203125,0 -0.203125,0.140625 C 0.59375,0 0.671875,0 0.75,0 H 2.765625 C 3.9375,0 5.125,-0.953125 5.125,-2.046875 5.125,-2.875 4.46875,-3.40625 3.609375,-3.40625 H 1.5625 c -0.09375,0 -0.171875,0 -0.171875,0.140625 0,0.078125 0.0625,0.078125 0.1875,0.078125 0.046875,0 0.21875,0 0.3125,0.03125 0,0.0625 0,0.078125 -0.015625,0.125 z M 2.375,-3.015625 C 2.421875,-3.171875 2.421875,-3.1875 2.625,-3.1875 h 0.796875 c 0.34375,0 0.671875,0.09375 0.890625,0.28125 0.171875,0.171875 0.28125,0.375 0.28125,0.71875 0,0.3125 -0.109375,0.953125 -0.484375,1.375 -0.375,0.40625 -0.921875,0.59375 -1.4375,0.59375 H 1.84375 c -0.03125,0 -0.109375,0 -0.15625,-0.015625 0,-0.046875 0,-0.0625 0.015625,-0.09375 z m 0,0"
               id="id-da763351-832f-49e7-b125-c5c7c6a266e0" />
          </g>
        </g>
        <g
           style="fill:#000000;fill-opacity:1;stroke:#000000;stroke-width:0;stroke-opacity:1"
           id="id-96b0f70f-2255-4ccb-a032-863ae855dee1">
          <g
             transform="translate(198.588,131.019)"
             style="fill-opacity:1;stroke:#000000;stroke-width:0;stroke-opacity:1"
             id="g2127">
            <path
               style="fill-opacity:1;stroke:#000000;stroke-width:0;stroke-opacity:1"
               d="m 3,-2.625 c -0.171875,0.046875 -0.296875,0.1875 -0.296875,0.328125 0,0.171875 0.140625,0.234375 0.234375,0.234375 0.078125,0 0.34375,-0.046875 0.34375,-0.40625 0,-0.453125 -0.5,-0.609375 -0.9375,-0.609375 -1.078125,0 -1.28125,0.8125 -1.28125,1.015625 0,0.265625 0.15625,0.4375 0.25,0.515625 0.171875,0.140625 0.296875,0.171875 0.78125,0.25 0.15625,0.03125 0.59375,0.109375 0.59375,0.453125 0,0.125 -0.078125,0.390625 -0.359375,0.5625 C 2.046875,-0.125 1.703125,-0.125 1.625,-0.125 1.34375,-0.125 0.953125,-0.1875 0.78125,-0.421875 1.015625,-0.453125 1.171875,-0.625 1.171875,-0.8125 c 0,-0.171875 -0.125,-0.265625 -0.265625,-0.265625 -0.203125,0 -0.40625,0.171875 -0.40625,0.46875 0,0.421875 0.4375,0.671875 1.109375,0.671875 1.296875,0 1.53125,-0.875 1.53125,-1.140625 0,-0.640625 -0.703125,-0.765625 -0.96875,-0.8125 -0.0625,-0.015625 -0.234375,-0.046875 -0.28125,-0.0625 -0.25,-0.046875 -0.375,-0.1875 -0.375,-0.34375 0,-0.15625 0.125,-0.34375 0.28125,-0.453125 0.1875,-0.109375 0.421875,-0.125 0.546875,-0.125 0.140625,0 0.5,0.015625 0.65625,0.25 z m 0,0"
               id="id-abdbda69-df1d-4c74-95d6-08a27ede210c" />
          </g>
        </g>
        <g
           style="fill:#000000;fill-opacity:1;stroke:#000000;stroke-width:0;stroke-opacity:1"
           id="id-f7158eed-05ff-4395-88ba-130ba9c60854">
          <g
             transform="translate(202.349,128.012)"
             style="fill-opacity:1;stroke:#000000;stroke-width:0;stroke-opacity:1"
             id="g2131">
            <path
               style="fill-opacity:1;stroke:#000000;stroke-width:0;stroke-opacity:1"
               d="M 2.9375,-0.96875 H 2.71875 c 0,0.09375 -0.0625,0.40625 -0.140625,0.453125 -0.03125,0.03125 -0.453125,0.03125 -0.53125,0.03125 H 1.078125 C 1.40625,-0.71875 1.765625,-1 2.0625,-1.203125 c 0.453125,-0.3125 0.875,-0.59375 0.875,-1.125 0,-0.640625 -0.609375,-0.984375 -1.3125,-0.984375 -0.671875,0 -1.171875,0.375 -1.171875,0.875 0,0.25 0.21875,0.296875 0.296875,0.296875 0.125,0 0.28125,-0.09375 0.28125,-0.296875 0,-0.171875 -0.125,-0.28125 -0.28125,-0.28125 0.140625,-0.234375 0.4375,-0.375 0.765625,-0.375 0.484375,0 0.890625,0.28125 0.890625,0.765625 0,0.421875 -0.296875,0.75 -0.671875,1.0625 l -1.21875,1.03125 C 0.46875,-0.1875 0.453125,-0.1875 0.453125,-0.15625 V 0 h 2.3125 z m 0,0"
               id="id-acb0d41b-6273-43d2-8cd7-7aa2ac0e08fa" />
          </g>
        </g>
        <g
           style="fill:#000000;fill-opacity:1;stroke:#000000;stroke-width:0;stroke-opacity:1"
           id="id-66933d52-2f11-4f3e-ba81-07cebd01bb5d">
          <g
             transform="translate(206.237,131.019)"
             style="fill-opacity:1;stroke:#000000;stroke-width:0;stroke-opacity:1"
             id="g2135">
            <path
               style="fill-opacity:1;stroke:#000000;stroke-width:0;stroke-opacity:1"
               d="m 3.21875,-1.578125 h 2.140625 c 0.09375,0 0.25,0 0.25,-0.15625 0,-0.1875 -0.15625,-0.1875 -0.25,-0.1875 H 3.21875 V -4.0625 c 0,-0.078125 0,-0.25 -0.15625,-0.25 -0.171875,0 -0.171875,0.15625 -0.171875,0.25 v 2.140625 H 0.75 c -0.09375,0 -0.265625,0 -0.265625,0.171875 0,0.171875 0.15625,0.171875 0.265625,0.171875 H 2.890625 V 0.5625 c 0,0.09375 0,0.265625 0.15625,0.265625 0.171875,0 0.171875,-0.171875 0.171875,-0.265625 z m 0,0"
               id="id-1368f403-11b3-4686-aaef-e5e8fb823f05" />
          </g>
        </g>
        <g
           style="fill:#000000;fill-opacity:1;stroke:#000000;stroke-width:0;stroke-opacity:1"
           id="id-8632132e-b5ce-4a3d-b04c-ecc92cf53293">
          <g
             transform="translate(212.353,131.019)"
             style="fill-opacity:1;stroke:#000000;stroke-width:0;stroke-opacity:1"
             id="g2139">
            <path
               style="fill-opacity:1;stroke:#000000;stroke-width:0;stroke-opacity:1"
               d="M 3.984375,-2.796875 C 3.953125,-2.859375 3.9375,-2.875 3.9375,-2.890625 c 0,-0.015625 0.015625,-0.015625 0.171875,-0.125 l 0.703125,-0.5 c 0.921875,-0.640625 1.359375,-0.953125 1.84375,-1 0.078125,0 0.171875,0 0.171875,-0.140625 0,-0.0625 -0.046875,-0.09375 -0.09375,-0.09375 -0.15625,0 -0.328125,0.015625 -0.484375,0.015625 -0.1875,0 -0.65625,-0.03125 -0.84375,-0.03125 -0.046875,0 -0.140625,0 -0.140625,0.15625 0,0.015625 0,0.09375 0.09375,0.09375 0.09375,0.015625 0.1875,0.03125 0.1875,0.109375 0,0.125 -0.21875,0.28125 -0.3125,0.34375 L 2.328125,-2.015625 2.875,-4.21875 c 0.0625,-0.234375 0.078125,-0.296875 0.609375,-0.296875 0.125,0 0.21875,0 0.21875,-0.140625 0,-0.0625 -0.046875,-0.109375 -0.109375,-0.109375 -0.203125,0 -0.71875,0.03125 -0.921875,0.03125 -0.109375,0 -0.359375,0 -0.484375,0 C 2.0625,-4.75 1.890625,-4.765625 1.75,-4.765625 c -0.03125,0 -0.140625,0 -0.140625,0.15625 0,0.09375 0.078125,0.09375 0.234375,0.09375 0.109375,0 0.140625,0 0.265625,0.015625 0.140625,0.015625 0.15625,0.03125 0.15625,0.109375 0,0 0,0.046875 -0.03125,0.140625 l -0.9375,3.703125 C 1.25,-0.3125 1.234375,-0.25 0.6875,-0.25 c -0.125,0 -0.203125,0 -0.203125,0.15625 0,0 0,0.09375 0.109375,0.09375 0.203125,0 0.703125,-0.03125 0.90625,-0.03125 0.109375,0 0.359375,0 0.484375,0.015625 C 2.125,-0.015625 2.296875,0 2.421875,0 2.46875,0 2.578125,0 2.578125,-0.15625 2.578125,-0.25 2.484375,-0.25 2.34375,-0.25 c 0,0 -0.140625,0 -0.265625,-0.015625 C 1.921875,-0.28125 1.921875,-0.296875 1.921875,-0.375 1.921875,-0.421875 2,-0.6875 2.25,-1.703125 l 1.15625,-0.8125 1.015625,1.953125 c 0.046875,0.09375 0.046875,0.09375 0.046875,0.125 0,0.171875 -0.203125,0.1875 -0.328125,0.1875 -0.078125,0 -0.171875,0 -0.171875,0.15625 0,0 0,0.09375 0.109375,0.09375 C 4.28125,0 4.78125,-0.03125 4.96875,-0.03125 5.1875,-0.03125 5.46875,0 5.65625,0 5.75,0 5.796875,-0.046875 5.796875,-0.140625 5.796875,-0.25 5.703125,-0.25 5.640625,-0.25 c -0.125,0 -0.34375,-0.015625 -0.46875,-0.234375 z m 0,0"
               id="id-db62f393-a37c-49a0-ba4d-febdb057f7df" />
          </g>
        </g>
        <g
           style="fill:#000000;fill-opacity:1;stroke:#000000;stroke-width:0;stroke-opacity:1"
           id="id-ceb8db61-25f3-4a62-bad0-0498dec1ccb5">
          <g
             transform="translate(219.047,132.021)"
             style="fill-opacity:1;stroke:#000000;stroke-width:0;stroke-opacity:1"
             id="g2143">
            <path
               style="fill-opacity:1;stroke:#000000;stroke-width:0;stroke-opacity:1"
               d="m 2.015625,-1.515625 h 1.09375 c 0.765625,0 1.65625,-0.46875 1.65625,-1.078125 0,-0.46875 -0.515625,-0.8125 -1.234375,-0.8125 H 1.5625 c -0.09375,0 -0.171875,0 -0.171875,0.140625 0,0.078125 0.0625,0.078125 0.1875,0.078125 0.046875,0 0.21875,0 0.3125,0.03125 0,0.0625 0,0.078125 -0.015625,0.125 l -0.65625,2.625 c -0.03125,0.140625 -0.03125,0.1875 -0.421875,0.1875 -0.125,0 -0.203125,0 -0.203125,0.140625 C 0.59375,-0.046875 0.625,0 0.6875,0 c 0.09375,0 0.21875,-0.015625 0.328125,-0.015625 0.125,0 0.25,0 0.375,0 0.125,0 0.234375,0 0.359375,0 C 1.875,-0.015625 2,0 2.109375,0 c 0.03125,0 0.125,0 0.125,-0.140625 0,-0.078125 -0.078125,-0.078125 -0.171875,-0.078125 -0.015625,0 -0.125,0 -0.21875,-0.015625 -0.125,-0.015625 -0.125,-0.015625 -0.125,-0.0625 0,0 0,-0.015625 0.015625,-0.0625 z m 0.359375,-1.5 C 2.421875,-3.171875 2.421875,-3.1875 2.625,-3.1875 h 0.734375 c 0.515625,0 0.859375,0.140625 0.859375,0.515625 0,0.15625 -0.078125,0.53125 -0.359375,0.75 -0.28125,0.203125 -0.671875,0.21875 -0.875,0.21875 h -0.9375 z m 0,0"
               id="id-97169400-4411-4b73-8c33-510944e5ab0f" />
          </g>
        </g>
        <g
           style="fill:#000000;fill-opacity:1;stroke:#000000;stroke-width:0;stroke-opacity:1"
           id="id-bd11afd2-c70f-4d8c-aac4-2ad9d942ff39">
          <g
             transform="translate(224.771,131.019)"
             style="fill-opacity:1;stroke:#000000;stroke-width:0;stroke-opacity:1"
             id="g2147">
            <path
               style="fill-opacity:1;stroke:#000000;stroke-width:0;stroke-opacity:1"
               d="m 3,-2.625 c -0.171875,0.046875 -0.296875,0.1875 -0.296875,0.328125 0,0.171875 0.140625,0.234375 0.234375,0.234375 0.078125,0 0.34375,-0.046875 0.34375,-0.40625 0,-0.453125 -0.5,-0.609375 -0.9375,-0.609375 -1.078125,0 -1.28125,0.8125 -1.28125,1.015625 0,0.265625 0.15625,0.4375 0.25,0.515625 0.171875,0.140625 0.296875,0.171875 0.78125,0.25 0.15625,0.03125 0.59375,0.109375 0.59375,0.453125 0,0.125 -0.078125,0.390625 -0.359375,0.5625 C 2.046875,-0.125 1.703125,-0.125 1.625,-0.125 1.34375,-0.125 0.953125,-0.1875 0.78125,-0.421875 1.015625,-0.453125 1.171875,-0.625 1.171875,-0.8125 c 0,-0.171875 -0.125,-0.265625 -0.265625,-0.265625 -0.203125,0 -0.40625,0.171875 -0.40625,0.46875 0,0.421875 0.4375,0.671875 1.109375,0.671875 1.296875,0 1.53125,-0.875 1.53125,-1.140625 0,-0.640625 -0.703125,-0.765625 -0.96875,-0.8125 -0.0625,-0.015625 -0.234375,-0.046875 -0.28125,-0.0625 -0.25,-0.046875 -0.375,-0.1875 -0.375,-0.34375 0,-0.15625 0.125,-0.34375 0.28125,-0.453125 0.1875,-0.109375 0.421875,-0.125 0.546875,-0.125 0.140625,0 0.5,0.015625 0.65625,0.25 z m 0,0"
               id="id-f1ac9ccc-df1c-42b5-9ff1-49f6f9a28b43" />
          </g>
        </g>
        <g
           style="fill:#000000;fill-opacity:1;stroke:#000000;stroke-width:0;stroke-opacity:1"
           id="id-97c71e5a-cd92-4548-95bf-b792ce0b1bc8">
          <g
             transform="translate(228.531,131.019)"
             style="fill-opacity:1;stroke:#000000;stroke-width:0;stroke-opacity:1"
             id="g2151">
            <path
               style="fill-opacity:1;stroke:#000000;stroke-width:0;stroke-opacity:1"
               d="m 3.21875,-1.578125 h 2.140625 c 0.09375,0 0.25,0 0.25,-0.15625 0,-0.1875 -0.15625,-0.1875 -0.25,-0.1875 H 3.21875 V -4.0625 c 0,-0.078125 0,-0.25 -0.15625,-0.25 -0.171875,0 -0.171875,0.15625 -0.171875,0.25 v 2.140625 H 0.75 c -0.09375,0 -0.265625,0 -0.265625,0.171875 0,0.171875 0.15625,0.171875 0.265625,0.171875 H 2.890625 V 0.5625 c 0,0.09375 0,0.265625 0.15625,0.265625 0.171875,0 0.171875,-0.171875 0.171875,-0.265625 z m 0,0"
               id="id-813f088f-45be-43a6-bd08-c09ac16acaab" />
          </g>
        </g>
        <g
           style="fill:#000000;fill-opacity:1;stroke:#000000;stroke-width:0;stroke-opacity:1"
           id="id-5ba53ed7-e04e-49fa-874e-7f6d299cc345">
          <g
             transform="translate(234.647,131.019)"
             style="fill-opacity:1;stroke:#000000;stroke-width:0;stroke-opacity:1"
             id="g2155">
            <path
               style="fill-opacity:1;stroke:#000000;stroke-width:0;stroke-opacity:1"
               d="M 3.984375,-2.796875 C 3.953125,-2.859375 3.9375,-2.875 3.9375,-2.890625 c 0,-0.015625 0.015625,-0.015625 0.171875,-0.125 l 0.703125,-0.5 c 0.921875,-0.640625 1.359375,-0.953125 1.84375,-1 0.078125,0 0.171875,0 0.171875,-0.140625 0,-0.0625 -0.046875,-0.09375 -0.09375,-0.09375 -0.15625,0 -0.328125,0.015625 -0.484375,0.015625 -0.1875,0 -0.65625,-0.03125 -0.84375,-0.03125 -0.046875,0 -0.140625,0 -0.140625,0.15625 0,0.015625 0,0.09375 0.09375,0.09375 0.09375,0.015625 0.1875,0.03125 0.1875,0.109375 0,0.125 -0.21875,0.28125 -0.3125,0.34375 L 2.328125,-2.015625 2.875,-4.21875 c 0.0625,-0.234375 0.078125,-0.296875 0.609375,-0.296875 0.125,0 0.21875,0 0.21875,-0.140625 0,-0.0625 -0.046875,-0.109375 -0.109375,-0.109375 -0.203125,0 -0.71875,0.03125 -0.921875,0.03125 -0.109375,0 -0.359375,0 -0.484375,0 C 2.0625,-4.75 1.890625,-4.765625 1.75,-4.765625 c -0.03125,0 -0.140625,0 -0.140625,0.15625 0,0.09375 0.078125,0.09375 0.234375,0.09375 0.109375,0 0.140625,0 0.265625,0.015625 0.140625,0.015625 0.15625,0.03125 0.15625,0.109375 0,0 0,0.046875 -0.03125,0.140625 l -0.9375,3.703125 C 1.25,-0.3125 1.234375,-0.25 0.6875,-0.25 c -0.125,0 -0.203125,0 -0.203125,0.15625 0,0 0,0.09375 0.109375,0.09375 0.203125,0 0.703125,-0.03125 0.90625,-0.03125 0.109375,0 0.359375,0 0.484375,0.015625 C 2.125,-0.015625 2.296875,0 2.421875,0 2.46875,0 2.578125,0 2.578125,-0.15625 2.578125,-0.25 2.484375,-0.25 2.34375,-0.25 c 0,0 -0.140625,0 -0.265625,-0.015625 C 1.921875,-0.28125 1.921875,-0.296875 1.921875,-0.375 1.921875,-0.421875 2,-0.6875 2.25,-1.703125 l 1.15625,-0.8125 1.015625,1.953125 c 0.046875,0.09375 0.046875,0.09375 0.046875,0.125 0,0.171875 -0.203125,0.1875 -0.328125,0.1875 -0.078125,0 -0.171875,0 -0.171875,0.15625 0,0 0,0.09375 0.109375,0.09375 C 4.28125,0 4.78125,-0.03125 4.96875,-0.03125 5.1875,-0.03125 5.46875,0 5.65625,0 5.75,0 5.796875,-0.046875 5.796875,-0.140625 5.796875,-0.25 5.703125,-0.25 5.640625,-0.25 c -0.125,0 -0.34375,-0.015625 -0.46875,-0.234375 z m 0,0"
               id="id-862c70b7-e37c-4671-bacd-49c58364e0c6" />
          </g>
        </g>
        <g
           style="fill:#000000;fill-opacity:1;stroke:#000000;stroke-width:0;stroke-opacity:1"
           id="id-af3a7aed-c341-4e3f-afa6-93c6f6edb52e">
          <g
             transform="translate(241.341,132.021)"
             style="fill-opacity:1;stroke:#000000;stroke-width:0;stroke-opacity:1"
             id="g2159">
            <path
               style="fill-opacity:1;stroke:#000000;stroke-width:0;stroke-opacity:1"
               d="m 2.375,-2.96875 c 0.046875,-0.171875 0.046875,-0.21875 0.46875,-0.21875 0.125,0 0.203125,0 0.203125,-0.125 0,-0.046875 -0.03125,-0.09375 -0.09375,-0.09375 -0.109375,0 -0.234375,0.015625 -0.34375,0.015625 -0.125,0 -0.25,0 -0.390625,0 -0.125,0 -0.25,0 -0.375,0 -0.125,0 -0.25,-0.015625 -0.359375,-0.015625 -0.03125,0 -0.140625,0 -0.140625,0.140625 0,0.078125 0.078125,0.078125 0.1875,0.078125 0.015625,0 0.109375,0 0.21875,0.015625 0.125,0.015625 0.140625,0.015625 0.140625,0.0625 0,0.03125 0,0.03125 -0.015625,0.078125 l -0.65625,2.609375 c -0.046875,0.15625 -0.046875,0.203125 -0.453125,0.203125 -0.140625,0 -0.203125,0 -0.203125,0.140625 C 0.5625,-0.03125 0.59375,0 0.640625,0 0.75,0 0.875,-0.015625 0.984375,-0.015625 c 0.140625,0 0.265625,0 0.390625,0 0.125,0 0.25,0 0.390625,0 C 1.875,-0.015625 2,0 2.125,0 2.140625,0 2.25,0 2.25,-0.140625 2.25,-0.21875 2.171875,-0.21875 2.0625,-0.21875 c -0.078125,0 -0.125,0 -0.203125,-0.015625 C 1.71875,-0.25 1.703125,-0.25 1.703125,-0.296875 c 0,-0.015625 0.015625,-0.0625 0.03125,-0.09375 z m 0,0"
               id="id-42a7072f-94f7-4374-bf7d-3673b8264ba4" />
          </g>
        </g>
        <g
           style="fill:#000000;fill-opacity:1;stroke:#000000;stroke-width:0;stroke-opacity:1"
           id="id-a57c2caf-9095-4f81-a8dd-6291f1c4af1f">
          <g
             transform="translate(245.343,131.019)"
             style="fill-opacity:1;stroke:#000000;stroke-width:0;stroke-opacity:1"
             id="g2163">
            <path
               style="fill-opacity:1;stroke:#000000;stroke-width:0;stroke-opacity:1"
               d="m 0.625,-5.21875 c -0.046875,0 -0.125,0 -0.125,0.078125 0,0.03125 0.015625,0.046875 0.0625,0.109375 0.59375,0.546875 1.265625,1.484375 1.265625,3.28125 0,1.453125 -0.453125,2.5625 -1.203125,3.234375 -0.125,0.125 -0.125,0.125 -0.125,0.171875 0,0.03125 0.015625,0.078125 0.078125,0.078125 0.09375,0 0.75,-0.453125 1.21875,-1.328125 0.296875,-0.578125 0.5,-1.328125 0.5,-2.140625 C 2.296875,-2.71875 2,-4.25 0.625,-5.21875 Z m 0,0"
               id="id-163b7a42-1ccf-49ff-9f06-5261fd118363" />
          </g>
        </g>
        <g
           style="fill:#000000;fill-opacity:1;stroke:#000000;stroke-width:0;stroke-opacity:1"
           id="id-5cc23732-e132-4cde-ba81-c8d3e18c5426">
          <g
             transform="translate(248.457,131.019)"
             style="fill-opacity:1;stroke:#000000;stroke-width:0;stroke-opacity:1"
             id="g2167">
            <path
               style="fill-opacity:1;stroke:#000000;stroke-width:0;stroke-opacity:1"
               d="m 5.875,-4.8125 c 0,-0.03125 -0.015625,-0.09375 -0.09375,-0.09375 -0.046875,0 -0.0625,0.015625 -0.125,0.09375 l -0.5,0.53125 c -0.0625,-0.078125 -0.453125,-0.625 -1.3125,-0.625 -1.703125,0 -3.359375,1.5 -3.359375,3.078125 0,1.078125 0.828125,1.96875 2.15625,1.96875 0.625,0 1.265625,-0.15625 1.625,-0.546875 C 4.34375,-0.265625 4.53125,0 4.609375,0 4.671875,0 4.6875,-0.03125 4.71875,-0.1875 l 0.140625,-0.53125 c 0.03125,-0.125 0.125,-0.546875 0.15625,-0.625 0.078125,-0.3125 0.078125,-0.328125 0.5,-0.328125 0.046875,0 0.15625,0 0.15625,-0.140625 0,-0.078125 -0.0625,-0.109375 -0.109375,-0.109375 -0.234375,0 -0.53125,0.03125 -0.765625,0.03125 -0.171875,0 -0.40625,0 -0.578125,-0.015625 -0.171875,0 -0.375,-0.015625 -0.546875,-0.015625 -0.0625,0 -0.15625,0 -0.15625,0.15625 0,0.09375 0.078125,0.09375 0.25,0.09375 0.125,0 0.265625,0 0.40625,0.015625 0.21875,0.015625 0.21875,0.046875 0.21875,0.125 0,0.03125 0,0.046875 -0.046875,0.234375 -0.046875,0.1875 -0.125,0.5 -0.15625,0.578125 C 4,-0.296875 3.34375,-0.109375 2.796875,-0.109375 c -0.6875,0 -1.609375,-0.34375 -1.609375,-1.515625 0,-0.75 0.359375,-1.671875 0.875,-2.203125 0.71875,-0.703125 1.453125,-0.8125 1.84375,-0.8125 0.8125,0 1.28125,0.578125 1.28125,1.359375 0,0.1875 -0.015625,0.25 -0.015625,0.28125 0,0.09375 0.09375,0.09375 0.125,0.09375 0.109375,0 0.109375,-0.015625 0.140625,-0.15625 z m 0,0"
               id="id-48e0279d-082f-487c-b2f2-746173841431" />
          </g>
        </g>
        <path
           style="fill:none;fill-opacity:1;stroke:#000000;stroke-width:0.398;stroke-linecap:butt;stroke-linejoin:miter;stroke-miterlimit:10;stroke-opacity:1"
           d="M 0.00153125,6.25e-4 H 81.954656"
           transform="matrix(1,0,0,-1,177.643,133.36)"
           id="id-3764b839-51eb-4e88-99dc-a51da5090b89" />
        <g
           style="fill:#000000;fill-opacity:1;stroke:#000000;stroke-width:0;stroke-opacity:1"
           id="id-4833ee83-d682-45d8-b955-7afba44febb1">
          <g
             transform="translate(177.643,139.286)"
             style="fill-opacity:1;stroke:#000000;stroke-width:0;stroke-opacity:1"
             id="g2172">
            <path
               style="fill-opacity:1;stroke:#000000;stroke-width:0;stroke-opacity:1"
               d="m 3,-2.625 c -0.171875,0.046875 -0.296875,0.1875 -0.296875,0.328125 0,0.171875 0.140625,0.234375 0.234375,0.234375 0.078125,0 0.34375,-0.046875 0.34375,-0.40625 0,-0.453125 -0.5,-0.609375 -0.9375,-0.609375 -1.078125,0 -1.28125,0.8125 -1.28125,1.015625 0,0.265625 0.15625,0.4375 0.25,0.515625 0.171875,0.140625 0.296875,0.171875 0.78125,0.25 0.15625,0.03125 0.59375,0.109375 0.59375,0.453125 0,0.125 -0.078125,0.390625 -0.359375,0.5625 C 2.046875,-0.125 1.703125,-0.125 1.625,-0.125 1.34375,-0.125 0.953125,-0.1875 0.78125,-0.421875 1.015625,-0.453125 1.171875,-0.625 1.171875,-0.8125 c 0,-0.171875 -0.125,-0.265625 -0.265625,-0.265625 -0.203125,0 -0.40625,0.171875 -0.40625,0.46875 0,0.421875 0.4375,0.671875 1.109375,0.671875 1.296875,0 1.53125,-0.875 1.53125,-1.140625 0,-0.640625 -0.703125,-0.765625 -0.96875,-0.8125 -0.0625,-0.015625 -0.234375,-0.046875 -0.28125,-0.0625 -0.25,-0.046875 -0.375,-0.1875 -0.375,-0.34375 0,-0.15625 0.125,-0.34375 0.28125,-0.453125 0.1875,-0.109375 0.421875,-0.125 0.546875,-0.125 0.140625,0 0.5,0.015625 0.65625,0.25 z m 0,0"
               id="id-2541d825-7460-4118-8371-2e70fdca48dc" />
          </g>
        </g>
        <g
           style="fill:#000000;fill-opacity:1;stroke:#000000;stroke-width:0;stroke-opacity:1"
           id="id-cdf91112-c439-4e4e-b292-d7acbca896fa">
          <g
             transform="translate(181.403,139.286)"
             style="fill-opacity:1;stroke:#000000;stroke-width:0;stroke-opacity:1"
             id="g2176">
            <path
               style="fill-opacity:1;stroke:#000000;stroke-width:0;stroke-opacity:1"
               d="m 3.21875,-1.578125 h 2.140625 c 0.09375,0 0.25,0 0.25,-0.15625 0,-0.1875 -0.15625,-0.1875 -0.25,-0.1875 H 3.21875 V -4.0625 c 0,-0.078125 0,-0.25 -0.15625,-0.25 -0.171875,0 -0.171875,0.15625 -0.171875,0.25 v 2.140625 H 0.75 c -0.09375,0 -0.265625,0 -0.265625,0.171875 0,0.171875 0.15625,0.171875 0.265625,0.171875 H 2.890625 V 0.5625 c 0,0.09375 0,0.265625 0.15625,0.265625 0.171875,0 0.171875,-0.171875 0.171875,-0.265625 z m 0,0"
               id="id-173d5868-1998-482f-960e-836fee892f77" />
          </g>
          <g
             transform="translate(187.519,139.286)"
             style="fill-opacity:1;stroke:#000000;stroke-width:0;stroke-opacity:1"
             id="g2179">
            <path
               style="fill-opacity:1;stroke:#000000;stroke-width:0;stroke-opacity:1"
               d="M 2.46875,-5.21875 C 1.15625,-4.296875 0.796875,-2.8125 0.796875,-1.75 c 0,0.984375 0.296875,2.515625 1.671875,3.484375 0.0625,0 0.140625,0 0.140625,-0.078125 0,-0.046875 -0.015625,-0.0625 -0.0625,-0.109375 C 1.609375,0.703125 1.28125,-0.46875 1.28125,-1.734375 1.28125,-3.625 2,-4.546875 2.5625,-5.0625 2.59375,-5.09375 2.609375,-5.109375 2.609375,-5.140625 2.609375,-5.21875 2.53125,-5.21875 2.46875,-5.21875 Z m 0,0"
               id="id-be67b9b1-c082-4020-80b1-c890b9d1cdcf" />
          </g>
        </g>
        <g
           style="fill:#000000;fill-opacity:1;stroke:#000000;stroke-width:0;stroke-opacity:1"
           id="id-df59297c-9f88-40b6-a927-d82e6daac8e5">
          <g
             transform="translate(190.632,139.286)"
             style="fill-opacity:1;stroke:#000000;stroke-width:0;stroke-opacity:1"
             id="g2183">
            <path
               style="fill-opacity:1;stroke:#000000;stroke-width:0;stroke-opacity:1"
               d="M 3.984375,-2.796875 C 3.953125,-2.859375 3.9375,-2.875 3.9375,-2.890625 c 0,-0.015625 0.015625,-0.015625 0.171875,-0.125 l 0.703125,-0.5 c 0.921875,-0.640625 1.359375,-0.953125 1.84375,-1 0.078125,0 0.171875,0 0.171875,-0.140625 0,-0.0625 -0.046875,-0.09375 -0.09375,-0.09375 -0.15625,0 -0.328125,0.015625 -0.484375,0.015625 -0.1875,0 -0.65625,-0.03125 -0.84375,-0.03125 -0.046875,0 -0.140625,0 -0.140625,0.15625 0,0.015625 0,0.09375 0.09375,0.09375 0.09375,0.015625 0.1875,0.03125 0.1875,0.109375 0,0.125 -0.21875,0.28125 -0.3125,0.34375 L 2.328125,-2.015625 2.875,-4.21875 c 0.0625,-0.234375 0.078125,-0.296875 0.609375,-0.296875 0.125,0 0.21875,0 0.21875,-0.140625 0,-0.0625 -0.046875,-0.109375 -0.109375,-0.109375 -0.203125,0 -0.71875,0.03125 -0.921875,0.03125 -0.109375,0 -0.359375,0 -0.484375,0 C 2.0625,-4.75 1.890625,-4.765625 1.75,-4.765625 c -0.03125,0 -0.140625,0 -0.140625,0.15625 0,0.09375 0.078125,0.09375 0.234375,0.09375 0.109375,0 0.140625,0 0.265625,0.015625 0.140625,0.015625 0.15625,0.03125 0.15625,0.109375 0,0 0,0.046875 -0.03125,0.140625 l -0.9375,3.703125 C 1.25,-0.3125 1.234375,-0.25 0.6875,-0.25 c -0.125,0 -0.203125,0 -0.203125,0.15625 0,0 0,0.09375 0.109375,0.09375 0.203125,0 0.703125,-0.03125 0.90625,-0.03125 0.109375,0 0.359375,0 0.484375,0.015625 C 2.125,-0.015625 2.296875,0 2.421875,0 2.46875,0 2.578125,0 2.578125,-0.15625 2.578125,-0.25 2.484375,-0.25 2.34375,-0.25 c 0,0 -0.140625,0 -0.265625,-0.015625 C 1.921875,-0.28125 1.921875,-0.296875 1.921875,-0.375 1.921875,-0.421875 2,-0.6875 2.25,-1.703125 l 1.15625,-0.8125 1.015625,1.953125 c 0.046875,0.09375 0.046875,0.09375 0.046875,0.125 0,0.171875 -0.203125,0.1875 -0.328125,0.1875 -0.078125,0 -0.171875,0 -0.171875,0.15625 0,0 0,0.09375 0.109375,0.09375 C 4.28125,0 4.78125,-0.03125 4.96875,-0.03125 5.1875,-0.03125 5.46875,0 5.65625,0 5.75,0 5.796875,-0.046875 5.796875,-0.140625 5.796875,-0.25 5.703125,-0.25 5.640625,-0.25 c -0.125,0 -0.34375,-0.015625 -0.46875,-0.234375 z m 0,0"
               id="id-d1fb50d5-a9a5-452c-9e39-d3ff7840028e" />
          </g>
        </g>
        <g
           style="fill:#000000;fill-opacity:1;stroke:#000000;stroke-width:0;stroke-opacity:1"
           id="id-69b89b92-0f68-4918-b9a3-82955b9fd51a">
          <g
             transform="translate(197.327,140.288)"
             style="fill-opacity:1;stroke:#000000;stroke-width:0;stroke-opacity:1"
             id="g2187">
            <path
               style="fill-opacity:1;stroke:#000000;stroke-width:0;stroke-opacity:1"
               d="m 1.21875,-0.40625 c -0.03125,0.140625 -0.03125,0.1875 -0.421875,0.1875 -0.125,0 -0.203125,0 -0.203125,0.140625 C 0.59375,0 0.671875,0 0.75,0 H 2.765625 C 3.9375,0 5.125,-0.953125 5.125,-2.046875 5.125,-2.875 4.46875,-3.40625 3.609375,-3.40625 H 1.5625 c -0.09375,0 -0.171875,0 -0.171875,0.140625 0,0.078125 0.0625,0.078125 0.1875,0.078125 0.046875,0 0.21875,0 0.3125,0.03125 0,0.0625 0,0.078125 -0.015625,0.125 z M 2.375,-3.015625 C 2.421875,-3.171875 2.421875,-3.1875 2.625,-3.1875 h 0.796875 c 0.34375,0 0.671875,0.09375 0.890625,0.28125 0.171875,0.171875 0.28125,0.375 0.28125,0.71875 0,0.3125 -0.109375,0.953125 -0.484375,1.375 -0.375,0.40625 -0.921875,0.59375 -1.4375,0.59375 H 1.84375 c -0.03125,0 -0.109375,0 -0.15625,-0.015625 0,-0.046875 0,-0.0625 0.015625,-0.09375 z m 0,0"
               id="id-994ce1bb-a8af-4733-9343-4cf54e2dcb4a" />
          </g>
        </g>
        <g
           style="fill:#000000;fill-opacity:1;stroke:#000000;stroke-width:0;stroke-opacity:1"
           id="id-9003f79c-5b26-41c7-9d51-081927c97e6b">
          <g
             transform="translate(203.526,139.286)"
             style="fill-opacity:1;stroke:#000000;stroke-width:0;stroke-opacity:1"
             id="g2191">
            <path
               style="fill-opacity:1;stroke:#000000;stroke-width:0;stroke-opacity:1"
               d="m 3,-2.625 c -0.171875,0.046875 -0.296875,0.1875 -0.296875,0.328125 0,0.171875 0.140625,0.234375 0.234375,0.234375 0.078125,0 0.34375,-0.046875 0.34375,-0.40625 0,-0.453125 -0.5,-0.609375 -0.9375,-0.609375 -1.078125,0 -1.28125,0.8125 -1.28125,1.015625 0,0.265625 0.15625,0.4375 0.25,0.515625 0.171875,0.140625 0.296875,0.171875 0.78125,0.25 0.15625,0.03125 0.59375,0.109375 0.59375,0.453125 0,0.125 -0.078125,0.390625 -0.359375,0.5625 C 2.046875,-0.125 1.703125,-0.125 1.625,-0.125 1.34375,-0.125 0.953125,-0.1875 0.78125,-0.421875 1.015625,-0.453125 1.171875,-0.625 1.171875,-0.8125 c 0,-0.171875 -0.125,-0.265625 -0.265625,-0.265625 -0.203125,0 -0.40625,0.171875 -0.40625,0.46875 0,0.421875 0.4375,0.671875 1.109375,0.671875 1.296875,0 1.53125,-0.875 1.53125,-1.140625 0,-0.640625 -0.703125,-0.765625 -0.96875,-0.8125 -0.0625,-0.015625 -0.234375,-0.046875 -0.28125,-0.0625 -0.25,-0.046875 -0.375,-0.1875 -0.375,-0.34375 0,-0.15625 0.125,-0.34375 0.28125,-0.453125 0.1875,-0.109375 0.421875,-0.125 0.546875,-0.125 0.140625,0 0.5,0.015625 0.65625,0.25 z m 0,0"
               id="id-ee0b8737-4fa7-40a0-8332-ca700e4f0969" />
          </g>
        </g>
        <g
           style="fill:#000000;fill-opacity:1;stroke:#000000;stroke-width:0;stroke-opacity:1"
           id="id-ab160061-2451-4574-9421-dc5483f2d3ac">
          <g
             transform="translate(207.287,137.294)"
             style="fill-opacity:1;stroke:#000000;stroke-width:0;stroke-opacity:1"
             id="g2195">
            <path
               style="fill-opacity:1;stroke:#000000;stroke-width:0;stroke-opacity:1"
               d="M 2.9375,-0.96875 H 2.71875 c 0,0.09375 -0.0625,0.40625 -0.140625,0.453125 -0.03125,0.03125 -0.453125,0.03125 -0.53125,0.03125 H 1.078125 C 1.40625,-0.71875 1.765625,-1 2.0625,-1.203125 c 0.453125,-0.3125 0.875,-0.59375 0.875,-1.125 0,-0.640625 -0.609375,-0.984375 -1.3125,-0.984375 -0.671875,0 -1.171875,0.375 -1.171875,0.875 0,0.25 0.21875,0.296875 0.296875,0.296875 0.125,0 0.28125,-0.09375 0.28125,-0.296875 0,-0.171875 -0.125,-0.28125 -0.28125,-0.28125 0.140625,-0.234375 0.4375,-0.375 0.765625,-0.375 0.484375,0 0.890625,0.28125 0.890625,0.765625 0,0.421875 -0.296875,0.75 -0.671875,1.0625 l -1.21875,1.03125 C 0.46875,-0.1875 0.453125,-0.1875 0.453125,-0.15625 V 0 h 2.3125 z m 0,0"
               id="id-d1ddeb4c-1dfd-4694-9b99-117e85c4ac8a" />
          </g>
        </g>
        <g
           style="fill:#000000;fill-opacity:1;stroke:#000000;stroke-width:0;stroke-opacity:1"
           id="id-7eb1a92b-bab3-45cf-bb0b-0a30783e5f15">
          <g
             transform="translate(211.175,139.286)"
             style="fill-opacity:1;stroke:#000000;stroke-width:0;stroke-opacity:1"
             id="g2199">
            <path
               style="fill-opacity:1;stroke:#000000;stroke-width:0;stroke-opacity:1"
               d="m 3.21875,-1.578125 h 2.140625 c 0.09375,0 0.25,0 0.25,-0.15625 0,-0.1875 -0.15625,-0.1875 -0.25,-0.1875 H 3.21875 V -4.0625 c 0,-0.078125 0,-0.25 -0.15625,-0.25 -0.171875,0 -0.171875,0.15625 -0.171875,0.25 v 2.140625 H 0.75 c -0.09375,0 -0.265625,0 -0.265625,0.171875 0,0.171875 0.15625,0.171875 0.265625,0.171875 H 2.890625 V 0.5625 c 0,0.09375 0,0.265625 0.15625,0.265625 0.171875,0 0.171875,-0.171875 0.171875,-0.265625 z m 0,0"
               id="id-39d7f0e5-ee8d-4818-9f15-50c9c01ad4fd" />
          </g>
        </g>
        <g
           style="fill:#000000;fill-opacity:1;stroke:#000000;stroke-width:0;stroke-opacity:1"
           id="id-9407f9be-43db-4169-8954-dd14fd44dee6">
          <g
             transform="translate(217.291,139.286)"
             style="fill-opacity:1;stroke:#000000;stroke-width:0;stroke-opacity:1"
             id="g2203">
            <path
               style="fill-opacity:1;stroke:#000000;stroke-width:0;stroke-opacity:1"
               d="M 3.984375,-2.796875 C 3.953125,-2.859375 3.9375,-2.875 3.9375,-2.890625 c 0,-0.015625 0.015625,-0.015625 0.171875,-0.125 l 0.703125,-0.5 c 0.921875,-0.640625 1.359375,-0.953125 1.84375,-1 0.078125,0 0.171875,0 0.171875,-0.140625 0,-0.0625 -0.046875,-0.09375 -0.09375,-0.09375 -0.15625,0 -0.328125,0.015625 -0.484375,0.015625 -0.1875,0 -0.65625,-0.03125 -0.84375,-0.03125 -0.046875,0 -0.140625,0 -0.140625,0.15625 0,0.015625 0,0.09375 0.09375,0.09375 0.09375,0.015625 0.1875,0.03125 0.1875,0.109375 0,0.125 -0.21875,0.28125 -0.3125,0.34375 L 2.328125,-2.015625 2.875,-4.21875 c 0.0625,-0.234375 0.078125,-0.296875 0.609375,-0.296875 0.125,0 0.21875,0 0.21875,-0.140625 0,-0.0625 -0.046875,-0.109375 -0.109375,-0.109375 -0.203125,0 -0.71875,0.03125 -0.921875,0.03125 -0.109375,0 -0.359375,0 -0.484375,0 C 2.0625,-4.75 1.890625,-4.765625 1.75,-4.765625 c -0.03125,0 -0.140625,0 -0.140625,0.15625 0,0.09375 0.078125,0.09375 0.234375,0.09375 0.109375,0 0.140625,0 0.265625,0.015625 0.140625,0.015625 0.15625,0.03125 0.15625,0.109375 0,0 0,0.046875 -0.03125,0.140625 l -0.9375,3.703125 C 1.25,-0.3125 1.234375,-0.25 0.6875,-0.25 c -0.125,0 -0.203125,0 -0.203125,0.15625 0,0 0,0.09375 0.109375,0.09375 0.203125,0 0.703125,-0.03125 0.90625,-0.03125 0.109375,0 0.359375,0 0.484375,0.015625 C 2.125,-0.015625 2.296875,0 2.421875,0 2.46875,0 2.578125,0 2.578125,-0.15625 2.578125,-0.25 2.484375,-0.25 2.34375,-0.25 c 0,0 -0.140625,0 -0.265625,-0.015625 C 1.921875,-0.28125 1.921875,-0.296875 1.921875,-0.375 1.921875,-0.421875 2,-0.6875 2.25,-1.703125 l 1.15625,-0.8125 1.015625,1.953125 c 0.046875,0.09375 0.046875,0.09375 0.046875,0.125 0,0.171875 -0.203125,0.1875 -0.328125,0.1875 -0.078125,0 -0.171875,0 -0.171875,0.15625 0,0 0,0.09375 0.109375,0.09375 C 4.28125,0 4.78125,-0.03125 4.96875,-0.03125 5.1875,-0.03125 5.46875,0 5.65625,0 5.75,0 5.796875,-0.046875 5.796875,-0.140625 5.796875,-0.25 5.703125,-0.25 5.640625,-0.25 c -0.125,0 -0.34375,-0.015625 -0.46875,-0.234375 z m 0,0"
               id="id-24f8f36d-6db3-4258-aa1a-b4d8bfd8d28a" />
          </g>
        </g>
        <g
           style="fill:#000000;fill-opacity:1;stroke:#000000;stroke-width:0;stroke-opacity:1"
           id="id-666f2c57-15e5-4e92-b09a-d8bd257e0b13">
          <g
             transform="translate(223.985,140.288)"
             style="fill-opacity:1;stroke:#000000;stroke-width:0;stroke-opacity:1"
             id="g2207">
            <path
               style="fill-opacity:1;stroke:#000000;stroke-width:0;stroke-opacity:1"
               d="m 2.015625,-1.515625 h 1.09375 c 0.765625,0 1.65625,-0.46875 1.65625,-1.078125 0,-0.46875 -0.515625,-0.8125 -1.234375,-0.8125 H 1.5625 c -0.09375,0 -0.171875,0 -0.171875,0.140625 0,0.078125 0.0625,0.078125 0.1875,0.078125 0.046875,0 0.21875,0 0.3125,0.03125 0,0.0625 0,0.078125 -0.015625,0.125 l -0.65625,2.625 c -0.03125,0.140625 -0.03125,0.1875 -0.421875,0.1875 -0.125,0 -0.203125,0 -0.203125,0.140625 C 0.59375,-0.046875 0.625,0 0.6875,0 c 0.09375,0 0.21875,-0.015625 0.328125,-0.015625 0.125,0 0.25,0 0.375,0 0.125,0 0.234375,0 0.359375,0 C 1.875,-0.015625 2,0 2.109375,0 c 0.03125,0 0.125,0 0.125,-0.140625 0,-0.078125 -0.078125,-0.078125 -0.171875,-0.078125 -0.015625,0 -0.125,0 -0.21875,-0.015625 -0.125,-0.015625 -0.125,-0.015625 -0.125,-0.0625 0,0 0,-0.015625 0.015625,-0.0625 z m 0.359375,-1.5 C 2.421875,-3.171875 2.421875,-3.1875 2.625,-3.1875 h 0.734375 c 0.515625,0 0.859375,0.140625 0.859375,0.515625 0,0.15625 -0.078125,0.53125 -0.359375,0.75 -0.28125,0.203125 -0.671875,0.21875 -0.875,0.21875 h -0.9375 z m 0,0"
               id="id-53b162cd-0629-4aaa-8faa-00ec9ae94468" />
          </g>
        </g>
        <g
           style="fill:#000000;fill-opacity:1;stroke:#000000;stroke-width:0;stroke-opacity:1"
           id="id-ed971c52-b135-4065-a4f2-f06c839f112b">
          <g
             transform="translate(229.709,139.286)"
             style="fill-opacity:1;stroke:#000000;stroke-width:0;stroke-opacity:1"
             id="g2211">
            <path
               style="fill-opacity:1;stroke:#000000;stroke-width:0;stroke-opacity:1"
               d="m 3,-2.625 c -0.171875,0.046875 -0.296875,0.1875 -0.296875,0.328125 0,0.171875 0.140625,0.234375 0.234375,0.234375 0.078125,0 0.34375,-0.046875 0.34375,-0.40625 0,-0.453125 -0.5,-0.609375 -0.9375,-0.609375 -1.078125,0 -1.28125,0.8125 -1.28125,1.015625 0,0.265625 0.15625,0.4375 0.25,0.515625 0.171875,0.140625 0.296875,0.171875 0.78125,0.25 0.15625,0.03125 0.59375,0.109375 0.59375,0.453125 0,0.125 -0.078125,0.390625 -0.359375,0.5625 C 2.046875,-0.125 1.703125,-0.125 1.625,-0.125 1.34375,-0.125 0.953125,-0.1875 0.78125,-0.421875 1.015625,-0.453125 1.171875,-0.625 1.171875,-0.8125 c 0,-0.171875 -0.125,-0.265625 -0.265625,-0.265625 -0.203125,0 -0.40625,0.171875 -0.40625,0.46875 0,0.421875 0.4375,0.671875 1.109375,0.671875 1.296875,0 1.53125,-0.875 1.53125,-1.140625 0,-0.640625 -0.703125,-0.765625 -0.96875,-0.8125 -0.0625,-0.015625 -0.234375,-0.046875 -0.28125,-0.0625 -0.25,-0.046875 -0.375,-0.1875 -0.375,-0.34375 0,-0.15625 0.125,-0.34375 0.28125,-0.453125 0.1875,-0.109375 0.421875,-0.125 0.546875,-0.125 0.140625,0 0.5,0.015625 0.65625,0.25 z m 0,0"
               id="id-0d773cc3-f531-4c37-9c3d-fdb0f7d05861" />
          </g>
        </g>
        <g
           style="fill:#000000;fill-opacity:1;stroke:#000000;stroke-width:0;stroke-opacity:1"
           id="id-77a02c8c-1a28-4cbe-9713-e4844654dbb4">
          <g
             transform="translate(233.469,139.286)"
             style="fill-opacity:1;stroke:#000000;stroke-width:0;stroke-opacity:1"
             id="g2215">
            <path
               style="fill-opacity:1;stroke:#000000;stroke-width:0;stroke-opacity:1"
               d="m 3.21875,-1.578125 h 2.140625 c 0.09375,0 0.25,0 0.25,-0.15625 0,-0.1875 -0.15625,-0.1875 -0.25,-0.1875 H 3.21875 V -4.0625 c 0,-0.078125 0,-0.25 -0.15625,-0.25 -0.171875,0 -0.171875,0.15625 -0.171875,0.25 v 2.140625 H 0.75 c -0.09375,0 -0.265625,0 -0.265625,0.171875 0,0.171875 0.15625,0.171875 0.265625,0.171875 H 2.890625 V 0.5625 c 0,0.09375 0,0.265625 0.15625,0.265625 0.171875,0 0.171875,-0.171875 0.171875,-0.265625 z m 0,0"
               id="id-b37aaab1-f8e1-4771-807b-f0f70c1f4d77" />
          </g>
        </g>
        <g
           style="fill:#000000;fill-opacity:1;stroke:#000000;stroke-width:0;stroke-opacity:1"
           id="id-e8c5d334-9ccc-4e3e-8329-f466c473e969">
          <g
             transform="translate(239.585,139.286)"
             style="fill-opacity:1;stroke:#000000;stroke-width:0;stroke-opacity:1"
             id="g2219">
            <path
               style="fill-opacity:1;stroke:#000000;stroke-width:0;stroke-opacity:1"
               d="M 3.984375,-2.796875 C 3.953125,-2.859375 3.9375,-2.875 3.9375,-2.890625 c 0,-0.015625 0.015625,-0.015625 0.171875,-0.125 l 0.703125,-0.5 c 0.921875,-0.640625 1.359375,-0.953125 1.84375,-1 0.078125,0 0.171875,0 0.171875,-0.140625 0,-0.0625 -0.046875,-0.09375 -0.09375,-0.09375 -0.15625,0 -0.328125,0.015625 -0.484375,0.015625 -0.1875,0 -0.65625,-0.03125 -0.84375,-0.03125 -0.046875,0 -0.140625,0 -0.140625,0.15625 0,0.015625 0,0.09375 0.09375,0.09375 0.09375,0.015625 0.1875,0.03125 0.1875,0.109375 0,0.125 -0.21875,0.28125 -0.3125,0.34375 L 2.328125,-2.015625 2.875,-4.21875 c 0.0625,-0.234375 0.078125,-0.296875 0.609375,-0.296875 0.125,0 0.21875,0 0.21875,-0.140625 0,-0.0625 -0.046875,-0.109375 -0.109375,-0.109375 -0.203125,0 -0.71875,0.03125 -0.921875,0.03125 -0.109375,0 -0.359375,0 -0.484375,0 C 2.0625,-4.75 1.890625,-4.765625 1.75,-4.765625 c -0.03125,0 -0.140625,0 -0.140625,0.15625 0,0.09375 0.078125,0.09375 0.234375,0.09375 0.109375,0 0.140625,0 0.265625,0.015625 0.140625,0.015625 0.15625,0.03125 0.15625,0.109375 0,0 0,0.046875 -0.03125,0.140625 l -0.9375,3.703125 C 1.25,-0.3125 1.234375,-0.25 0.6875,-0.25 c -0.125,0 -0.203125,0 -0.203125,0.15625 0,0 0,0.09375 0.109375,0.09375 0.203125,0 0.703125,-0.03125 0.90625,-0.03125 0.109375,0 0.359375,0 0.484375,0.015625 C 2.125,-0.015625 2.296875,0 2.421875,0 2.46875,0 2.578125,0 2.578125,-0.15625 2.578125,-0.25 2.484375,-0.25 2.34375,-0.25 c 0,0 -0.140625,0 -0.265625,-0.015625 C 1.921875,-0.28125 1.921875,-0.296875 1.921875,-0.375 1.921875,-0.421875 2,-0.6875 2.25,-1.703125 l 1.15625,-0.8125 1.015625,1.953125 c 0.046875,0.09375 0.046875,0.09375 0.046875,0.125 0,0.171875 -0.203125,0.1875 -0.328125,0.1875 -0.078125,0 -0.171875,0 -0.171875,0.15625 0,0 0,0.09375 0.109375,0.09375 C 4.28125,0 4.78125,-0.03125 4.96875,-0.03125 5.1875,-0.03125 5.46875,0 5.65625,0 5.75,0 5.796875,-0.046875 5.796875,-0.140625 5.796875,-0.25 5.703125,-0.25 5.640625,-0.25 c -0.125,0 -0.34375,-0.015625 -0.46875,-0.234375 z m 0,0"
               id="id-4e01db94-0c81-498e-ad06-cad1dd7ebdb7" />
          </g>
        </g>
        <g
           style="fill:#000000;fill-opacity:1;stroke:#000000;stroke-width:0;stroke-opacity:1"
           id="id-637049b6-3105-454a-9771-ba95c40912f5">
          <g
             transform="translate(246.279,140.288)"
             style="fill-opacity:1;stroke:#000000;stroke-width:0;stroke-opacity:1"
             id="g2223">
            <path
               style="fill-opacity:1;stroke:#000000;stroke-width:0;stroke-opacity:1"
               d="m 2.375,-2.96875 c 0.046875,-0.171875 0.046875,-0.21875 0.46875,-0.21875 0.125,0 0.203125,0 0.203125,-0.125 0,-0.046875 -0.03125,-0.09375 -0.09375,-0.09375 -0.109375,0 -0.234375,0.015625 -0.34375,0.015625 -0.125,0 -0.25,0 -0.390625,0 -0.125,0 -0.25,0 -0.375,0 -0.125,0 -0.25,-0.015625 -0.359375,-0.015625 -0.03125,0 -0.140625,0 -0.140625,0.140625 0,0.078125 0.078125,0.078125 0.1875,0.078125 0.015625,0 0.109375,0 0.21875,0.015625 0.125,0.015625 0.140625,0.015625 0.140625,0.0625 0,0.03125 0,0.03125 -0.015625,0.078125 l -0.65625,2.609375 c -0.046875,0.15625 -0.046875,0.203125 -0.453125,0.203125 -0.140625,0 -0.203125,0 -0.203125,0.140625 C 0.5625,-0.03125 0.59375,0 0.640625,0 0.75,0 0.875,-0.015625 0.984375,-0.015625 c 0.140625,0 0.265625,0 0.390625,0 0.125,0 0.25,0 0.390625,0 C 1.875,-0.015625 2,0 2.125,0 2.140625,0 2.25,0 2.25,-0.140625 2.25,-0.21875 2.171875,-0.21875 2.0625,-0.21875 c -0.078125,0 -0.125,0 -0.203125,-0.015625 C 1.71875,-0.25 1.703125,-0.25 1.703125,-0.296875 c 0,-0.015625 0.015625,-0.0625 0.03125,-0.09375 z m 0,0"
               id="id-87b7c448-094f-4d38-95e8-af01c41cfe7c" />
          </g>
        </g>
        <g
           style="fill:#000000;fill-opacity:1;stroke:#000000;stroke-width:0;stroke-opacity:1"
           id="id-5e3feac7-93e8-4850-a9cf-bdbcce115750">
          <g
             transform="translate(250.282,139.286)"
             style="fill-opacity:1;stroke:#000000;stroke-width:0;stroke-opacity:1"
             id="g2227">
            <path
               style="fill-opacity:1;stroke:#000000;stroke-width:0;stroke-opacity:1"
               d="m 0.625,-5.21875 c -0.046875,0 -0.125,0 -0.125,0.078125 0,0.03125 0.015625,0.046875 0.0625,0.109375 0.59375,0.546875 1.265625,1.484375 1.265625,3.28125 0,1.453125 -0.453125,2.5625 -1.203125,3.234375 -0.125,0.125 -0.125,0.125 -0.125,0.171875 0,0.03125 0.015625,0.078125 0.078125,0.078125 0.09375,0 0.75,-0.453125 1.21875,-1.328125 0.296875,-0.578125 0.5,-1.328125 0.5,-2.140625 C 2.296875,-2.71875 2,-4.25 0.625,-5.21875 Z m 0,0"
               id="id-e0d62533-224a-4785-a203-27ad8d610951" />
          </g>
        </g>
        <g
           style="fill:#000000;fill-opacity:1;stroke:#000000;stroke-width:0;stroke-opacity:1"
           id="id-53f14ea7-f70a-404c-ae6e-b94d5e62004d">
          <g
             transform="translate(253.395,139.286)"
             style="fill-opacity:1;stroke:#000000;stroke-width:0;stroke-opacity:1"
             id="g2231">
            <path
               style="fill-opacity:1;stroke:#000000;stroke-width:0;stroke-opacity:1"
               d="m 5.875,-4.8125 c 0,-0.03125 -0.015625,-0.09375 -0.09375,-0.09375 -0.046875,0 -0.0625,0.015625 -0.125,0.09375 l -0.5,0.53125 c -0.0625,-0.078125 -0.453125,-0.625 -1.3125,-0.625 -1.703125,0 -3.359375,1.5 -3.359375,3.078125 0,1.078125 0.828125,1.96875 2.15625,1.96875 0.625,0 1.265625,-0.15625 1.625,-0.546875 C 4.34375,-0.265625 4.53125,0 4.609375,0 4.671875,0 4.6875,-0.03125 4.71875,-0.1875 l 0.140625,-0.53125 c 0.03125,-0.125 0.125,-0.546875 0.15625,-0.625 0.078125,-0.3125 0.078125,-0.328125 0.5,-0.328125 0.046875,0 0.15625,0 0.15625,-0.140625 0,-0.078125 -0.0625,-0.109375 -0.109375,-0.109375 -0.234375,0 -0.53125,0.03125 -0.765625,0.03125 -0.171875,0 -0.40625,0 -0.578125,-0.015625 -0.171875,0 -0.375,-0.015625 -0.546875,-0.015625 -0.0625,0 -0.15625,0 -0.15625,0.15625 0,0.09375 0.078125,0.09375 0.25,0.09375 0.125,0 0.265625,0 0.40625,0.015625 0.21875,0.015625 0.21875,0.046875 0.21875,0.125 0,0.03125 0,0.046875 -0.046875,0.234375 -0.046875,0.1875 -0.125,0.5 -0.15625,0.578125 C 4,-0.296875 3.34375,-0.109375 2.796875,-0.109375 c -0.6875,0 -1.609375,-0.34375 -1.609375,-1.515625 0,-0.75 0.359375,-1.671875 0.875,-2.203125 0.71875,-0.703125 1.453125,-0.8125 1.84375,-0.8125 0.8125,0 1.28125,0.578125 1.28125,1.359375 0,0.1875 -0.015625,0.25 -0.015625,0.28125 0,0.09375 0.09375,0.09375 0.125,0.09375 0.109375,0 0.109375,-0.015625 0.140625,-0.15625 z m 0,0"
               id="id-4e0be202-72e7-4176-95b3-c525849a3322" />
          </g>
        </g>
      </g>
    </g>
  </g>
</svg>
