<?xml version="1.0" encoding="utf-8" standalone="no"?>
<!DOCTYPE svg PUBLIC "-//W3C//DTD SVG 1.1//EN"
  "http://www.w3.org/Graphics/SVG/1.1/DTD/svg11.dtd">
<!-- Created with matplotlib (https://matplotlib.org/) -->
<svg height="288pt" version="1.1" viewBox="0 0 576 288" width="576pt" xmlns="http://www.w3.org/2000/svg" xmlns:xlink="http://www.w3.org/1999/xlink">
 <metadata>
  <rdf:RDF xmlns:cc="http://creativecommons.org/ns#" xmlns:dc="http://purl.org/dc/elements/1.1/" xmlns:rdf="http://www.w3.org/1999/02/22-rdf-syntax-ns#">
   <cc:Work>
    <dc:type rdf:resource="http://purl.org/dc/dcmitype/StillImage"/>
    <dc:date>2020-11-18T19:18:37.436092</dc:date>
    <dc:format>image/svg+xml</dc:format>
    <dc:creator>
     <cc:Agent>
      <dc:title>Matplotlib v3.3.1, https://matplotlib.org/</dc:title>
     </cc:Agent>
    </dc:creator>
   </cc:Work>
  </rdf:RDF>
 </metadata>
 <defs>
  <style type="text/css">*{stroke-linecap:butt;stroke-linejoin:round;}</style>
 </defs>
 <g id="figure_1">
  <g id="patch_1">
   <path d="M 0 288 
L 576 288 
L 576 0 
L 0 0 
z
" style="fill:none;"/>
  </g>
  <g id="axes_1">
   <g id="patch_2">
    <path d="M 24.928972 285.165354 
L 573.165354 285.165354 
L 573.165354 2.834646 
L 24.928972 2.834646 
z
" style="fill:none;"/>
   </g>
   <g id="matplotlib.axis_1">
    <g id="xtick_1">
     <g id="line2d_1">
      <path clip-path="url(#p2bf8218c0b)" d="M 40.445096 285.165354 
L 40.445096 2.834646 
" style="fill:none;stroke:#000000;stroke-linecap:square;stroke-opacity:0.1;stroke-width:0.5;"/>
     </g>
     <g id="line2d_2">
      <defs>
       <path d="M 0 0 
L 0 -2.5 
" id="m1cc74e0de0" style="stroke:#000000;stroke-width:0.5;"/>
      </defs>
      <g>
       <use style="stroke:#000000;stroke-width:0.5;" x="40.445096" xlink:href="#m1cc74e0de0" y="199.960382"/>
      </g>
     </g>
     <g id="text_1">
      <!-- $\mathregular{}$ -->
      <g transform="translate(40.445096 209.539132)scale(0.08 -0.08)"/>
     </g>
    </g>
    <g id="xtick_2">
     <g id="line2d_3">
      <path clip-path="url(#p2bf8218c0b)" d="M 169.74613 285.165354 
L 169.74613 2.834646 
" style="fill:none;stroke:#000000;stroke-linecap:square;stroke-opacity:0.1;stroke-width:0.5;"/>
     </g>
     <g id="line2d_4">
      <g>
       <use style="stroke:#000000;stroke-width:0.5;" x="169.74613" xlink:href="#m1cc74e0de0" y="199.960382"/>
      </g>
     </g>
     <g id="text_2">
      <!-- $\mathregular{25}$ -->
      <g transform="translate(164.62613 209.539132)scale(0.08 -0.08)">
       <defs>
        <path d="M 19.1875 8.296875 
L 53.609375 8.296875 
L 53.609375 0 
L 7.328125 0 
L 7.328125 8.296875 
Q 12.9375 14.109375 22.625 23.890625 
Q 32.328125 33.6875 34.8125 36.53125 
Q 39.546875 41.84375 41.421875 45.53125 
Q 43.3125 49.21875 43.3125 52.78125 
Q 43.3125 58.59375 39.234375 62.25 
Q 35.15625 65.921875 28.609375 65.921875 
Q 23.96875 65.921875 18.8125 64.3125 
Q 13.671875 62.703125 7.8125 59.421875 
L 7.8125 69.390625 
Q 13.765625 71.78125 18.9375 73 
Q 24.125 74.21875 28.421875 74.21875 
Q 39.75 74.21875 46.484375 68.546875 
Q 53.21875 62.890625 53.21875 53.421875 
Q 53.21875 48.921875 51.53125 44.890625 
Q 49.859375 40.875 45.40625 35.40625 
Q 44.1875 33.984375 37.640625 27.21875 
Q 31.109375 20.453125 19.1875 8.296875 
z
" id="DejaVuSans-50"/>
        <path d="M 10.796875 72.90625 
L 49.515625 72.90625 
L 49.515625 64.59375 
L 19.828125 64.59375 
L 19.828125 46.734375 
Q 21.96875 47.46875 24.109375 47.828125 
Q 26.265625 48.1875 28.421875 48.1875 
Q 40.625 48.1875 47.75 41.5 
Q 54.890625 34.8125 54.890625 23.390625 
Q 54.890625 11.625 47.5625 5.09375 
Q 40.234375 -1.421875 26.90625 -1.421875 
Q 22.3125 -1.421875 17.546875 -0.640625 
Q 12.796875 0.140625 7.71875 1.703125 
L 7.71875 11.625 
Q 12.109375 9.234375 16.796875 8.0625 
Q 21.484375 6.890625 26.703125 6.890625 
Q 35.15625 6.890625 40.078125 11.328125 
Q 45.015625 15.765625 45.015625 23.390625 
Q 45.015625 31 40.078125 35.4375 
Q 35.15625 39.890625 26.703125 39.890625 
Q 22.75 39.890625 18.8125 39.015625 
Q 14.890625 38.140625 10.796875 36.28125 
z
" id="DejaVuSans-53"/>
       </defs>
       <use transform="translate(0 0.78125)" xlink:href="#DejaVuSans-50"/>
       <use transform="translate(63.623047 0.78125)" xlink:href="#DejaVuSans-53"/>
      </g>
     </g>
    </g>
    <g id="xtick_3">
     <g id="line2d_5">
      <path clip-path="url(#p2bf8218c0b)" d="M 299.047163 285.165354 
L 299.047163 2.834646 
" style="fill:none;stroke:#000000;stroke-linecap:square;stroke-opacity:0.1;stroke-width:0.5;"/>
     </g>
     <g id="line2d_6">
      <g>
       <use style="stroke:#000000;stroke-width:0.5;" x="299.047163" xlink:href="#m1cc74e0de0" y="199.960382"/>
      </g>
     </g>
     <g id="text_3">
      <!-- $\mathregular{50}$ -->
      <g transform="translate(293.927163 209.539132)scale(0.08 -0.08)">
       <defs>
        <path d="M 31.78125 66.40625 
Q 24.171875 66.40625 20.328125 58.90625 
Q 16.5 51.421875 16.5 36.375 
Q 16.5 21.390625 20.328125 13.890625 
Q 24.171875 6.390625 31.78125 6.390625 
Q 39.453125 6.390625 43.28125 13.890625 
Q 47.125 21.390625 47.125 36.375 
Q 47.125 51.421875 43.28125 58.90625 
Q 39.453125 66.40625 31.78125 66.40625 
z
M 31.78125 74.21875 
Q 44.046875 74.21875 50.515625 64.515625 
Q 56.984375 54.828125 56.984375 36.375 
Q 56.984375 17.96875 50.515625 8.265625 
Q 44.046875 -1.421875 31.78125 -1.421875 
Q 19.53125 -1.421875 13.0625 8.265625 
Q 6.59375 17.96875 6.59375 36.375 
Q 6.59375 54.828125 13.0625 64.515625 
Q 19.53125 74.21875 31.78125 74.21875 
z
" id="DejaVuSans-48"/>
       </defs>
       <use transform="translate(0 0.78125)" xlink:href="#DejaVuSans-53"/>
       <use transform="translate(63.623047 0.78125)" xlink:href="#DejaVuSans-48"/>
      </g>
     </g>
    </g>
    <g id="xtick_4">
     <g id="line2d_7">
      <path clip-path="url(#p2bf8218c0b)" d="M 428.348197 285.165354 
L 428.348197 2.834646 
" style="fill:none;stroke:#000000;stroke-linecap:square;stroke-opacity:0.1;stroke-width:0.5;"/>
     </g>
     <g id="line2d_8">
      <g>
       <use style="stroke:#000000;stroke-width:0.5;" x="428.348197" xlink:href="#m1cc74e0de0" y="199.960382"/>
      </g>
     </g>
     <g id="text_4">
      <!-- $\mathregular{75}$ -->
      <g transform="translate(423.228197 209.539132)scale(0.08 -0.08)">
       <defs>
        <path d="M 8.203125 72.90625 
L 55.078125 72.90625 
L 55.078125 68.703125 
L 28.609375 0 
L 18.3125 0 
L 43.21875 64.59375 
L 8.203125 64.59375 
z
" id="DejaVuSans-55"/>
       </defs>
       <use transform="translate(0 0.09375)" xlink:href="#DejaVuSans-55"/>
       <use transform="translate(63.623047 0.09375)" xlink:href="#DejaVuSans-53"/>
      </g>
     </g>
    </g>
    <g id="xtick_5">
     <g id="line2d_9">
      <path clip-path="url(#p2bf8218c0b)" d="M 557.64923 285.165354 
L 557.64923 2.834646 
" style="fill:none;stroke:#000000;stroke-linecap:square;stroke-opacity:0.1;stroke-width:0.5;"/>
     </g>
     <g id="line2d_10">
      <g>
       <use style="stroke:#000000;stroke-width:0.5;" x="557.64923" xlink:href="#m1cc74e0de0" y="199.960382"/>
      </g>
     </g>
     <g id="text_5">
      <!-- $\mathregular{100}$ -->
      <g transform="translate(550.00923 209.539132)scale(0.08 -0.08)">
       <defs>
        <path d="M 12.40625 8.296875 
L 28.515625 8.296875 
L 28.515625 63.921875 
L 10.984375 60.40625 
L 10.984375 69.390625 
L 28.421875 72.90625 
L 38.28125 72.90625 
L 38.28125 8.296875 
L 54.390625 8.296875 
L 54.390625 0 
L 12.40625 0 
z
" id="DejaVuSans-49"/>
       </defs>
       <use transform="translate(0 0.78125)" xlink:href="#DejaVuSans-49"/>
       <use transform="translate(63.623047 0.78125)" xlink:href="#DejaVuSans-48"/>
       <use transform="translate(127.246094 0.78125)" xlink:href="#DejaVuSans-48"/>
      </g>
     </g>
    </g>
    <g id="xtick_6">
     <g id="line2d_11">
      <path clip-path="url(#p2bf8218c0b)" d="M 66.305303 285.165354 
L 66.305303 2.834646 
" style="fill:none;stroke:#000000;stroke-linecap:square;stroke-opacity:0.05;stroke-width:0.5;"/>
     </g>
     <g id="line2d_12">
      <defs>
       <path d="M 0 0 
L 0 -2 
" id="mb80ca29142" style="stroke:#000000;stroke-width:0.5;"/>
      </defs>
      <g>
       <use style="stroke:#000000;stroke-width:0.5;" x="66.305303" xlink:href="#mb80ca29142" y="199.960382"/>
      </g>
     </g>
    </g>
    <g id="xtick_7">
     <g id="line2d_13">
      <path clip-path="url(#p2bf8218c0b)" d="M 92.16551 285.165354 
L 92.16551 2.834646 
" style="fill:none;stroke:#000000;stroke-linecap:square;stroke-opacity:0.05;stroke-width:0.5;"/>
     </g>
     <g id="line2d_14">
      <g>
       <use style="stroke:#000000;stroke-width:0.5;" x="92.16551" xlink:href="#mb80ca29142" y="199.960382"/>
      </g>
     </g>
    </g>
    <g id="xtick_8">
     <g id="line2d_15">
      <path clip-path="url(#p2bf8218c0b)" d="M 118.025716 285.165354 
L 118.025716 2.834646 
" style="fill:none;stroke:#000000;stroke-linecap:square;stroke-opacity:0.05;stroke-width:0.5;"/>
     </g>
     <g id="line2d_16">
      <g>
       <use style="stroke:#000000;stroke-width:0.5;" x="118.025716" xlink:href="#mb80ca29142" y="199.960382"/>
      </g>
     </g>
    </g>
    <g id="xtick_9">
     <g id="line2d_17">
      <path clip-path="url(#p2bf8218c0b)" d="M 143.885923 285.165354 
L 143.885923 2.834646 
" style="fill:none;stroke:#000000;stroke-linecap:square;stroke-opacity:0.05;stroke-width:0.5;"/>
     </g>
     <g id="line2d_18">
      <g>
       <use style="stroke:#000000;stroke-width:0.5;" x="143.885923" xlink:href="#mb80ca29142" y="199.960382"/>
      </g>
     </g>
    </g>
    <g id="xtick_10">
     <g id="line2d_19">
      <path clip-path="url(#p2bf8218c0b)" d="M 195.606336 285.165354 
L 195.606336 2.834646 
" style="fill:none;stroke:#000000;stroke-linecap:square;stroke-opacity:0.05;stroke-width:0.5;"/>
     </g>
     <g id="line2d_20">
      <g>
       <use style="stroke:#000000;stroke-width:0.5;" x="195.606336" xlink:href="#mb80ca29142" y="199.960382"/>
      </g>
     </g>
    </g>
    <g id="xtick_11">
     <g id="line2d_21">
      <path clip-path="url(#p2bf8218c0b)" d="M 221.466543 285.165354 
L 221.466543 2.834646 
" style="fill:none;stroke:#000000;stroke-linecap:square;stroke-opacity:0.05;stroke-width:0.5;"/>
     </g>
     <g id="line2d_22">
      <g>
       <use style="stroke:#000000;stroke-width:0.5;" x="221.466543" xlink:href="#mb80ca29142" y="199.960382"/>
      </g>
     </g>
    </g>
    <g id="xtick_12">
     <g id="line2d_23">
      <path clip-path="url(#p2bf8218c0b)" d="M 247.32675 285.165354 
L 247.32675 2.834646 
" style="fill:none;stroke:#000000;stroke-linecap:square;stroke-opacity:0.05;stroke-width:0.5;"/>
     </g>
     <g id="line2d_24">
      <g>
       <use style="stroke:#000000;stroke-width:0.5;" x="247.32675" xlink:href="#mb80ca29142" y="199.960382"/>
      </g>
     </g>
    </g>
    <g id="xtick_13">
     <g id="line2d_25">
      <path clip-path="url(#p2bf8218c0b)" d="M 273.186957 285.165354 
L 273.186957 2.834646 
" style="fill:none;stroke:#000000;stroke-linecap:square;stroke-opacity:0.05;stroke-width:0.5;"/>
     </g>
     <g id="line2d_26">
      <g>
       <use style="stroke:#000000;stroke-width:0.5;" x="273.186957" xlink:href="#mb80ca29142" y="199.960382"/>
      </g>
     </g>
    </g>
    <g id="xtick_14">
     <g id="line2d_27">
      <path clip-path="url(#p2bf8218c0b)" d="M 324.90737 285.165354 
L 324.90737 2.834646 
" style="fill:none;stroke:#000000;stroke-linecap:square;stroke-opacity:0.05;stroke-width:0.5;"/>
     </g>
     <g id="line2d_28">
      <g>
       <use style="stroke:#000000;stroke-width:0.5;" x="324.90737" xlink:href="#mb80ca29142" y="199.960382"/>
      </g>
     </g>
    </g>
    <g id="xtick_15">
     <g id="line2d_29">
      <path clip-path="url(#p2bf8218c0b)" d="M 350.767577 285.165354 
L 350.767577 2.834646 
" style="fill:none;stroke:#000000;stroke-linecap:square;stroke-opacity:0.05;stroke-width:0.5;"/>
     </g>
     <g id="line2d_30">
      <g>
       <use style="stroke:#000000;stroke-width:0.5;" x="350.767577" xlink:href="#mb80ca29142" y="199.960382"/>
      </g>
     </g>
    </g>
    <g id="xtick_16">
     <g id="line2d_31">
      <path clip-path="url(#p2bf8218c0b)" d="M 376.627783 285.165354 
L 376.627783 2.834646 
" style="fill:none;stroke:#000000;stroke-linecap:square;stroke-opacity:0.05;stroke-width:0.5;"/>
     </g>
     <g id="line2d_32">
      <g>
       <use style="stroke:#000000;stroke-width:0.5;" x="376.627783" xlink:href="#mb80ca29142" y="199.960382"/>
      </g>
     </g>
    </g>
    <g id="xtick_17">
     <g id="line2d_33">
      <path clip-path="url(#p2bf8218c0b)" d="M 402.48799 285.165354 
L 402.48799 2.834646 
" style="fill:none;stroke:#000000;stroke-linecap:square;stroke-opacity:0.05;stroke-width:0.5;"/>
     </g>
     <g id="line2d_34">
      <g>
       <use style="stroke:#000000;stroke-width:0.5;" x="402.48799" xlink:href="#mb80ca29142" y="199.960382"/>
      </g>
     </g>
    </g>
    <g id="xtick_18">
     <g id="line2d_35">
      <path clip-path="url(#p2bf8218c0b)" d="M 454.208404 285.165354 
L 454.208404 2.834646 
" style="fill:none;stroke:#000000;stroke-linecap:square;stroke-opacity:0.05;stroke-width:0.5;"/>
     </g>
     <g id="line2d_36">
      <g>
       <use style="stroke:#000000;stroke-width:0.5;" x="454.208404" xlink:href="#mb80ca29142" y="199.960382"/>
      </g>
     </g>
    </g>
    <g id="xtick_19">
     <g id="line2d_37">
      <path clip-path="url(#p2bf8218c0b)" d="M 480.06861 285.165354 
L 480.06861 2.834646 
" style="fill:none;stroke:#000000;stroke-linecap:square;stroke-opacity:0.05;stroke-width:0.5;"/>
     </g>
     <g id="line2d_38">
      <g>
       <use style="stroke:#000000;stroke-width:0.5;" x="480.06861" xlink:href="#mb80ca29142" y="199.960382"/>
      </g>
     </g>
    </g>
    <g id="xtick_20">
     <g id="line2d_39">
      <path clip-path="url(#p2bf8218c0b)" d="M 505.928817 285.165354 
L 505.928817 2.834646 
" style="fill:none;stroke:#000000;stroke-linecap:square;stroke-opacity:0.05;stroke-width:0.5;"/>
     </g>
     <g id="line2d_40">
      <g>
       <use style="stroke:#000000;stroke-width:0.5;" x="505.928817" xlink:href="#mb80ca29142" y="199.960382"/>
      </g>
     </g>
    </g>
    <g id="xtick_21">
     <g id="line2d_41">
      <path clip-path="url(#p2bf8218c0b)" d="M 531.789024 285.165354 
L 531.789024 2.834646 
" style="fill:none;stroke:#000000;stroke-linecap:square;stroke-opacity:0.05;stroke-width:0.5;"/>
     </g>
     <g id="line2d_42">
      <g>
       <use style="stroke:#000000;stroke-width:0.5;" x="531.789024" xlink:href="#mb80ca29142" y="199.960382"/>
      </g>
     </g>
    </g>
    <g id="text_6">
     <!-- Time (s) -->
     <g transform="translate(276.685366 223.561163)scale(0.11 -0.11)">
      <defs>
       <path d="M -0.296875 72.90625 
L 61.375 72.90625 
L 61.375 64.59375 
L 35.5 64.59375 
L 35.5 0 
L 25.59375 0 
L 25.59375 64.59375 
L -0.296875 64.59375 
z
" id="DejaVuSans-84"/>
       <path d="M 9.421875 54.6875 
L 18.40625 54.6875 
L 18.40625 0 
L 9.421875 0 
z
M 9.421875 75.984375 
L 18.40625 75.984375 
L 18.40625 64.59375 
L 9.421875 64.59375 
z
" id="DejaVuSans-105"/>
       <path d="M 52 44.1875 
Q 55.375 50.25 60.0625 53.125 
Q 64.75 56 71.09375 56 
Q 79.640625 56 84.28125 50.015625 
Q 88.921875 44.046875 88.921875 33.015625 
L 88.921875 0 
L 79.890625 0 
L 79.890625 32.71875 
Q 79.890625 40.578125 77.09375 44.375 
Q 74.3125 48.1875 68.609375 48.1875 
Q 61.625 48.1875 57.5625 43.546875 
Q 53.515625 38.921875 53.515625 30.90625 
L 53.515625 0 
L 44.484375 0 
L 44.484375 32.71875 
Q 44.484375 40.625 41.703125 44.40625 
Q 38.921875 48.1875 33.109375 48.1875 
Q 26.21875 48.1875 22.15625 43.53125 
Q 18.109375 38.875 18.109375 30.90625 
L 18.109375 0 
L 9.078125 0 
L 9.078125 54.6875 
L 18.109375 54.6875 
L 18.109375 46.1875 
Q 21.1875 51.21875 25.484375 53.609375 
Q 29.78125 56 35.6875 56 
Q 41.65625 56 45.828125 52.96875 
Q 50 49.953125 52 44.1875 
z
" id="DejaVuSans-109"/>
       <path d="M 56.203125 29.59375 
L 56.203125 25.203125 
L 14.890625 25.203125 
Q 15.484375 15.921875 20.484375 11.0625 
Q 25.484375 6.203125 34.421875 6.203125 
Q 39.59375 6.203125 44.453125 7.46875 
Q 49.3125 8.734375 54.109375 11.28125 
L 54.109375 2.78125 
Q 49.265625 0.734375 44.1875 -0.34375 
Q 39.109375 -1.421875 33.890625 -1.421875 
Q 20.796875 -1.421875 13.15625 6.1875 
Q 5.515625 13.8125 5.515625 26.8125 
Q 5.515625 40.234375 12.765625 48.109375 
Q 20.015625 56 32.328125 56 
Q 43.359375 56 49.78125 48.890625 
Q 56.203125 41.796875 56.203125 29.59375 
z
M 47.21875 32.234375 
Q 47.125 39.59375 43.09375 43.984375 
Q 39.0625 48.390625 32.421875 48.390625 
Q 24.90625 48.390625 20.390625 44.140625 
Q 15.875 39.890625 15.1875 32.171875 
z
" id="DejaVuSans-101"/>
       <path id="DejaVuSans-32"/>
       <path d="M 31 75.875 
Q 24.46875 64.65625 21.28125 53.65625 
Q 18.109375 42.671875 18.109375 31.390625 
Q 18.109375 20.125 21.3125 9.0625 
Q 24.515625 -2 31 -13.1875 
L 23.1875 -13.1875 
Q 15.875 -1.703125 12.234375 9.375 
Q 8.59375 20.453125 8.59375 31.390625 
Q 8.59375 42.28125 12.203125 53.3125 
Q 15.828125 64.359375 23.1875 75.875 
z
" id="DejaVuSans-40"/>
       <path d="M 44.28125 53.078125 
L 44.28125 44.578125 
Q 40.484375 46.53125 36.375 47.5 
Q 32.28125 48.484375 27.875 48.484375 
Q 21.1875 48.484375 17.84375 46.4375 
Q 14.5 44.390625 14.5 40.28125 
Q 14.5 37.15625 16.890625 35.375 
Q 19.28125 33.59375 26.515625 31.984375 
L 29.59375 31.296875 
Q 39.15625 29.25 43.1875 25.515625 
Q 47.21875 21.78125 47.21875 15.09375 
Q 47.21875 7.46875 41.1875 3.015625 
Q 35.15625 -1.421875 24.609375 -1.421875 
Q 20.21875 -1.421875 15.453125 -0.5625 
Q 10.6875 0.296875 5.421875 2 
L 5.421875 11.28125 
Q 10.40625 8.6875 15.234375 7.390625 
Q 20.0625 6.109375 24.8125 6.109375 
Q 31.15625 6.109375 34.5625 8.28125 
Q 37.984375 10.453125 37.984375 14.40625 
Q 37.984375 18.0625 35.515625 20.015625 
Q 33.0625 21.96875 24.703125 23.78125 
L 21.578125 24.515625 
Q 13.234375 26.265625 9.515625 29.90625 
Q 5.8125 33.546875 5.8125 39.890625 
Q 5.8125 47.609375 11.28125 51.796875 
Q 16.75 56 26.8125 56 
Q 31.78125 56 36.171875 55.265625 
Q 40.578125 54.546875 44.28125 53.078125 
z
" id="DejaVuSans-115"/>
       <path d="M 8.015625 75.875 
L 15.828125 75.875 
Q 23.140625 64.359375 26.78125 53.3125 
Q 30.421875 42.28125 30.421875 31.390625 
Q 30.421875 20.453125 26.78125 9.375 
Q 23.140625 -1.703125 15.828125 -13.1875 
L 8.015625 -13.1875 
Q 14.5 -2 17.703125 9.0625 
Q 20.90625 20.125 20.90625 31.390625 
Q 20.90625 42.671875 17.703125 53.65625 
Q 14.5 64.65625 8.015625 75.875 
z
" id="DejaVuSans-41"/>
      </defs>
      <use xlink:href="#DejaVuSans-84"/>
      <use x="57.958984" xlink:href="#DejaVuSans-105"/>
      <use x="85.742188" xlink:href="#DejaVuSans-109"/>
      <use x="183.154297" xlink:href="#DejaVuSans-101"/>
      <use x="244.677734" xlink:href="#DejaVuSans-32"/>
      <use x="276.464844" xlink:href="#DejaVuSans-40"/>
      <use x="315.478516" xlink:href="#DejaVuSans-115"/>
      <use x="367.578125" xlink:href="#DejaVuSans-41"/>
     </g>
    </g>
   </g>
   <g id="matplotlib.axis_2">
    <g id="ytick_1">
     <g id="line2d_43">
      <path clip-path="url(#p2bf8218c0b)" d="M 24.928972 249.757422 
L 573.165354 249.757422 
" style="fill:none;stroke:#000000;stroke-linecap:square;stroke-opacity:0.1;stroke-width:0.5;"/>
     </g>
     <g id="line2d_44">
      <defs>
       <path d="M 0 0 
L 2.5 0 
" id="mb0f7d4a53f" style="stroke:#000000;stroke-width:0.5;"/>
      </defs>
      <g>
       <use style="stroke:#000000;stroke-width:0.5;" x="40.445096" xlink:href="#mb0f7d4a53f" y="249.757422"/>
      </g>
     </g>
     <g id="text_7">
      <!-- $\mathregular{-2.5}$ -->
      <g transform="translate(17.505096 252.796797)scale(0.08 -0.08)">
       <defs>
        <path d="M 10.59375 35.5 
L 73.1875 35.5 
L 73.1875 27.203125 
L 10.59375 27.203125 
z
" id="DejaVuSans-8722"/>
        <path d="M 10.6875 12.40625 
L 21 12.40625 
L 21 0 
L 10.6875 0 
z
" id="DejaVuSans-46"/>
       </defs>
       <use transform="translate(0 0.78125)" xlink:href="#DejaVuSans-8722"/>
       <use transform="translate(83.789062 0.78125)" xlink:href="#DejaVuSans-50"/>
       <use transform="translate(147.412109 0.78125)" xlink:href="#DejaVuSans-46"/>
       <use transform="translate(179.199219 0.78125)" xlink:href="#DejaVuSans-53"/>
      </g>
     </g>
    </g>
    <g id="ytick_2">
     <g id="line2d_45">
      <path clip-path="url(#p2bf8218c0b)" d="M 24.928972 199.960382 
L 573.165354 199.960382 
" style="fill:none;stroke:#000000;stroke-linecap:square;stroke-opacity:0.1;stroke-width:0.5;"/>
     </g>
     <g id="line2d_46">
      <g>
       <use style="stroke:#000000;stroke-width:0.5;" x="40.445096" xlink:href="#mb0f7d4a53f" y="199.960382"/>
      </g>
     </g>
     <g id="text_8">
      <!-- $\mathregular{}$ -->
      <g transform="translate(36.945096 202.999757)scale(0.08 -0.08)"/>
     </g>
    </g>
    <g id="ytick_3">
     <g id="line2d_47">
      <path clip-path="url(#p2bf8218c0b)" d="M 24.928972 150.163341 
L 573.165354 150.163341 
" style="fill:none;stroke:#000000;stroke-linecap:square;stroke-opacity:0.1;stroke-width:0.5;"/>
     </g>
     <g id="line2d_48">
      <g>
       <use style="stroke:#000000;stroke-width:0.5;" x="40.445096" xlink:href="#mb0f7d4a53f" y="150.163341"/>
      </g>
     </g>
     <g id="text_9">
      <!-- $\mathregular{2.5}$ -->
      <g transform="translate(24.145096 153.202716)scale(0.08 -0.08)">
       <use transform="translate(0 0.78125)" xlink:href="#DejaVuSans-50"/>
       <use transform="translate(63.623047 0.78125)" xlink:href="#DejaVuSans-46"/>
       <use transform="translate(95.410156 0.78125)" xlink:href="#DejaVuSans-53"/>
      </g>
     </g>
    </g>
    <g id="ytick_4">
     <g id="line2d_49">
      <path clip-path="url(#p2bf8218c0b)" d="M 24.928972 100.3663 
L 573.165354 100.3663 
" style="fill:none;stroke:#000000;stroke-linecap:square;stroke-opacity:0.1;stroke-width:0.5;"/>
     </g>
     <g id="line2d_50">
      <g>
       <use style="stroke:#000000;stroke-width:0.5;" x="40.445096" xlink:href="#mb0f7d4a53f" y="100.3663"/>
      </g>
     </g>
     <g id="text_10">
      <!-- $\mathregular{5.0}$ -->
      <g transform="translate(24.145096 103.405675)scale(0.08 -0.08)">
       <use transform="translate(0 0.78125)" xlink:href="#DejaVuSans-53"/>
       <use transform="translate(63.623047 0.78125)" xlink:href="#DejaVuSans-46"/>
       <use transform="translate(95.410156 0.78125)" xlink:href="#DejaVuSans-48"/>
      </g>
     </g>
    </g>
    <g id="ytick_5">
     <g id="line2d_51">
      <path clip-path="url(#p2bf8218c0b)" d="M 24.928972 50.569259 
L 573.165354 50.569259 
" style="fill:none;stroke:#000000;stroke-linecap:square;stroke-opacity:0.1;stroke-width:0.5;"/>
     </g>
     <g id="line2d_52">
      <g>
       <use style="stroke:#000000;stroke-width:0.5;" x="40.445096" xlink:href="#mb0f7d4a53f" y="50.569259"/>
      </g>
     </g>
     <g id="text_11">
      <!-- $\mathregular{7.5}$ -->
      <g transform="translate(24.145096 53.608634)scale(0.08 -0.08)">
       <use transform="translate(0 0.09375)" xlink:href="#DejaVuSans-55"/>
       <use transform="translate(63.623047 0.09375)" xlink:href="#DejaVuSans-46"/>
       <use transform="translate(95.410156 0.09375)" xlink:href="#DejaVuSans-53"/>
      </g>
     </g>
    </g>
    <g id="ytick_6">
     <g id="line2d_53">
      <path clip-path="url(#p2bf8218c0b)" d="M 24.928972 279.635647 
L 573.165354 279.635647 
" style="fill:none;stroke:#000000;stroke-linecap:square;stroke-opacity:0.05;stroke-width:0.5;"/>
     </g>
     <g id="line2d_54">
      <defs>
       <path d="M 0 0 
L 2 0 
" id="m9cf353aae4" style="stroke:#000000;stroke-width:0.5;"/>
      </defs>
      <g>
       <use style="stroke:#000000;stroke-width:0.5;" x="40.445096" xlink:href="#m9cf353aae4" y="279.635647"/>
      </g>
     </g>
    </g>
    <g id="ytick_7">
     <g id="line2d_55">
      <path clip-path="url(#p2bf8218c0b)" d="M 24.928972 269.676239 
L 573.165354 269.676239 
" style="fill:none;stroke:#000000;stroke-linecap:square;stroke-opacity:0.05;stroke-width:0.5;"/>
     </g>
     <g id="line2d_56">
      <g>
       <use style="stroke:#000000;stroke-width:0.5;" x="40.445096" xlink:href="#m9cf353aae4" y="269.676239"/>
      </g>
     </g>
    </g>
    <g id="ytick_8">
     <g id="line2d_57">
      <path clip-path="url(#p2bf8218c0b)" d="M 24.928972 259.716831 
L 573.165354 259.716831 
" style="fill:none;stroke:#000000;stroke-linecap:square;stroke-opacity:0.05;stroke-width:0.5;"/>
     </g>
     <g id="line2d_58">
      <g>
       <use style="stroke:#000000;stroke-width:0.5;" x="40.445096" xlink:href="#m9cf353aae4" y="259.716831"/>
      </g>
     </g>
    </g>
    <g id="ytick_9">
     <g id="line2d_59">
      <path clip-path="url(#p2bf8218c0b)" d="M 24.928972 239.798014 
L 573.165354 239.798014 
" style="fill:none;stroke:#000000;stroke-linecap:square;stroke-opacity:0.05;stroke-width:0.5;"/>
     </g>
     <g id="line2d_60">
      <g>
       <use style="stroke:#000000;stroke-width:0.5;" x="40.445096" xlink:href="#m9cf353aae4" y="239.798014"/>
      </g>
     </g>
    </g>
    <g id="ytick_10">
     <g id="line2d_61">
      <path clip-path="url(#p2bf8218c0b)" d="M 24.928972 229.838606 
L 573.165354 229.838606 
" style="fill:none;stroke:#000000;stroke-linecap:square;stroke-opacity:0.05;stroke-width:0.5;"/>
     </g>
     <g id="line2d_62">
      <g>
       <use style="stroke:#000000;stroke-width:0.5;" x="40.445096" xlink:href="#m9cf353aae4" y="229.838606"/>
      </g>
     </g>
    </g>
    <g id="ytick_11">
     <g id="line2d_63">
      <path clip-path="url(#p2bf8218c0b)" d="M 24.928972 219.879198 
L 573.165354 219.879198 
" style="fill:none;stroke:#000000;stroke-linecap:square;stroke-opacity:0.05;stroke-width:0.5;"/>
     </g>
     <g id="line2d_64">
      <g>
       <use style="stroke:#000000;stroke-width:0.5;" x="40.445096" xlink:href="#m9cf353aae4" y="219.879198"/>
      </g>
     </g>
    </g>
    <g id="ytick_12">
     <g id="line2d_65">
      <path clip-path="url(#p2bf8218c0b)" d="M 24.928972 209.91979 
L 573.165354 209.91979 
" style="fill:none;stroke:#000000;stroke-linecap:square;stroke-opacity:0.05;stroke-width:0.5;"/>
     </g>
     <g id="line2d_66">
      <g>
       <use style="stroke:#000000;stroke-width:0.5;" x="40.445096" xlink:href="#m9cf353aae4" y="209.91979"/>
      </g>
     </g>
    </g>
    <g id="ytick_13">
     <g id="line2d_67">
      <path clip-path="url(#p2bf8218c0b)" d="M 24.928972 190.000974 
L 573.165354 190.000974 
" style="fill:none;stroke:#000000;stroke-linecap:square;stroke-opacity:0.05;stroke-width:0.5;"/>
     </g>
     <g id="line2d_68">
      <g>
       <use style="stroke:#000000;stroke-width:0.5;" x="40.445096" xlink:href="#m9cf353aae4" y="190.000974"/>
      </g>
     </g>
    </g>
    <g id="ytick_14">
     <g id="line2d_69">
      <path clip-path="url(#p2bf8218c0b)" d="M 24.928972 180.041565 
L 573.165354 180.041565 
" style="fill:none;stroke:#000000;stroke-linecap:square;stroke-opacity:0.05;stroke-width:0.5;"/>
     </g>
     <g id="line2d_70">
      <g>
       <use style="stroke:#000000;stroke-width:0.5;" x="40.445096" xlink:href="#m9cf353aae4" y="180.041565"/>
      </g>
     </g>
    </g>
    <g id="ytick_15">
     <g id="line2d_71">
      <path clip-path="url(#p2bf8218c0b)" d="M 24.928972 170.082157 
L 573.165354 170.082157 
" style="fill:none;stroke:#000000;stroke-linecap:square;stroke-opacity:0.05;stroke-width:0.5;"/>
     </g>
     <g id="line2d_72">
      <g>
       <use style="stroke:#000000;stroke-width:0.5;" x="40.445096" xlink:href="#m9cf353aae4" y="170.082157"/>
      </g>
     </g>
    </g>
    <g id="ytick_16">
     <g id="line2d_73">
      <path clip-path="url(#p2bf8218c0b)" d="M 24.928972 160.122749 
L 573.165354 160.122749 
" style="fill:none;stroke:#000000;stroke-linecap:square;stroke-opacity:0.05;stroke-width:0.5;"/>
     </g>
     <g id="line2d_74">
      <g>
       <use style="stroke:#000000;stroke-width:0.5;" x="40.445096" xlink:href="#m9cf353aae4" y="160.122749"/>
      </g>
     </g>
    </g>
    <g id="ytick_17">
     <g id="line2d_75">
      <path clip-path="url(#p2bf8218c0b)" d="M 24.928972 140.203933 
L 573.165354 140.203933 
" style="fill:none;stroke:#000000;stroke-linecap:square;stroke-opacity:0.05;stroke-width:0.5;"/>
     </g>
     <g id="line2d_76">
      <g>
       <use style="stroke:#000000;stroke-width:0.5;" x="40.445096" xlink:href="#m9cf353aae4" y="140.203933"/>
      </g>
     </g>
    </g>
    <g id="ytick_18">
     <g id="line2d_77">
      <path clip-path="url(#p2bf8218c0b)" d="M 24.928972 130.244525 
L 573.165354 130.244525 
" style="fill:none;stroke:#000000;stroke-linecap:square;stroke-opacity:0.05;stroke-width:0.5;"/>
     </g>
     <g id="line2d_78">
      <g>
       <use style="stroke:#000000;stroke-width:0.5;" x="40.445096" xlink:href="#m9cf353aae4" y="130.244525"/>
      </g>
     </g>
    </g>
    <g id="ytick_19">
     <g id="line2d_79">
      <path clip-path="url(#p2bf8218c0b)" d="M 24.928972 120.285116 
L 573.165354 120.285116 
" style="fill:none;stroke:#000000;stroke-linecap:square;stroke-opacity:0.05;stroke-width:0.5;"/>
     </g>
     <g id="line2d_80">
      <g>
       <use style="stroke:#000000;stroke-width:0.5;" x="40.445096" xlink:href="#m9cf353aae4" y="120.285116"/>
      </g>
     </g>
    </g>
    <g id="ytick_20">
     <g id="line2d_81">
      <path clip-path="url(#p2bf8218c0b)" d="M 24.928972 110.325708 
L 573.165354 110.325708 
" style="fill:none;stroke:#000000;stroke-linecap:square;stroke-opacity:0.05;stroke-width:0.5;"/>
     </g>
     <g id="line2d_82">
      <g>
       <use style="stroke:#000000;stroke-width:0.5;" x="40.445096" xlink:href="#m9cf353aae4" y="110.325708"/>
      </g>
     </g>
    </g>
    <g id="ytick_21">
     <g id="line2d_83">
      <path clip-path="url(#p2bf8218c0b)" d="M 24.928972 90.406892 
L 573.165354 90.406892 
" style="fill:none;stroke:#000000;stroke-linecap:square;stroke-opacity:0.05;stroke-width:0.5;"/>
     </g>
     <g id="line2d_84">
      <g>
       <use style="stroke:#000000;stroke-width:0.5;" x="40.445096" xlink:href="#m9cf353aae4" y="90.406892"/>
      </g>
     </g>
    </g>
    <g id="ytick_22">
     <g id="line2d_85">
      <path clip-path="url(#p2bf8218c0b)" d="M 24.928972 80.447484 
L 573.165354 80.447484 
" style="fill:none;stroke:#000000;stroke-linecap:square;stroke-opacity:0.05;stroke-width:0.5;"/>
     </g>
     <g id="line2d_86">
      <g>
       <use style="stroke:#000000;stroke-width:0.5;" x="40.445096" xlink:href="#m9cf353aae4" y="80.447484"/>
      </g>
     </g>
    </g>
    <g id="ytick_23">
     <g id="line2d_87">
      <path clip-path="url(#p2bf8218c0b)" d="M 24.928972 70.488076 
L 573.165354 70.488076 
" style="fill:none;stroke:#000000;stroke-linecap:square;stroke-opacity:0.05;stroke-width:0.5;"/>
     </g>
     <g id="line2d_88">
      <g>
       <use style="stroke:#000000;stroke-width:0.5;" x="40.445096" xlink:href="#m9cf353aae4" y="70.488076"/>
      </g>
     </g>
    </g>
    <g id="ytick_24">
     <g id="line2d_89">
      <path clip-path="url(#p2bf8218c0b)" d="M 24.928972 60.528668 
L 573.165354 60.528668 
" style="fill:none;stroke:#000000;stroke-linecap:square;stroke-opacity:0.05;stroke-width:0.5;"/>
     </g>
     <g id="line2d_90">
      <g>
       <use style="stroke:#000000;stroke-width:0.5;" x="40.445096" xlink:href="#m9cf353aae4" y="60.528668"/>
      </g>
     </g>
    </g>
    <g id="ytick_25">
     <g id="line2d_91">
      <path clip-path="url(#p2bf8218c0b)" d="M 24.928972 40.609851 
L 573.165354 40.609851 
" style="fill:none;stroke:#000000;stroke-linecap:square;stroke-opacity:0.05;stroke-width:0.5;"/>
     </g>
     <g id="line2d_92">
      <g>
       <use style="stroke:#000000;stroke-width:0.5;" x="40.445096" xlink:href="#m9cf353aae4" y="40.609851"/>
      </g>
     </g>
    </g>
    <g id="ytick_26">
     <g id="line2d_93">
      <path clip-path="url(#p2bf8218c0b)" d="M 24.928972 30.650443 
L 573.165354 30.650443 
" style="fill:none;stroke:#000000;stroke-linecap:square;stroke-opacity:0.05;stroke-width:0.5;"/>
     </g>
     <g id="line2d_94">
      <g>
       <use style="stroke:#000000;stroke-width:0.5;" x="40.445096" xlink:href="#m9cf353aae4" y="30.650443"/>
      </g>
     </g>
    </g>
    <g id="ytick_27">
     <g id="line2d_95">
      <path clip-path="url(#p2bf8218c0b)" d="M 24.928972 20.691035 
L 573.165354 20.691035 
" style="fill:none;stroke:#000000;stroke-linecap:square;stroke-opacity:0.05;stroke-width:0.5;"/>
     </g>
     <g id="line2d_96">
      <g>
       <use style="stroke:#000000;stroke-width:0.5;" x="40.445096" xlink:href="#m9cf353aae4" y="20.691035"/>
      </g>
     </g>
    </g>
    <g id="ytick_28">
     <g id="line2d_97">
      <path clip-path="url(#p2bf8218c0b)" d="M 24.928972 10.731627 
L 573.165354 10.731627 
" style="fill:none;stroke:#000000;stroke-linecap:square;stroke-opacity:0.05;stroke-width:0.5;"/>
     </g>
     <g id="line2d_98">
      <g>
       <use style="stroke:#000000;stroke-width:0.5;" x="40.445096" xlink:href="#m9cf353aae4" y="10.731627"/>
      </g>
     </g>
    </g>
    <g id="text_12">
     <!-- A -->
     <g transform="translate(11.21744 147.762344)rotate(-90)scale(0.11 -0.11)">
      <defs>
       <path d="M 34.1875 63.1875 
L 20.796875 26.90625 
L 47.609375 26.90625 
z
M 28.609375 72.90625 
L 39.796875 72.90625 
L 67.578125 0 
L 57.328125 0 
L 50.6875 18.703125 
L 17.828125 18.703125 
L 11.1875 0 
L 0.78125 0 
z
" id="DejaVuSans-65"/>
      </defs>
      <use xlink:href="#DejaVuSans-65"/>
     </g>
    </g>
   </g>
   <g id="line2d_99">
    <path clip-path="url(#p2bf8218c0b)" d="M 40.445096 199.960382 
L 53.892404 199.960382 
L 54.409608 199.723133 
L 54.926812 199.019045 
L 55.444016 197.860799 
L 55.96122 196.262606 
L 56.995629 191.810328 
L 58.030037 185.80299 
L 59.064445 178.399794 
L 60.616058 165.062476 
L 62.16767 149.614127 
L 64.753691 120.995882 
L 68.891324 74.53382 
L 70.96014 53.992894 
L 72.511753 40.705702 
L 74.063365 29.627345 
L 75.097773 23.595315 
L 76.132182 18.705571 
L 77.16659 14.986673 
L 78.200998 12.44767 
L 78.718202 11.618282 
L 79.235406 11.078775 
L 79.75261 10.825137 
L 80.269815 10.852312 
L 80.787019 11.154238 
L 81.304223 11.723896 
L 81.821427 12.553356 
L 82.855835 14.955718 
L 83.890244 18.281662 
L 84.924652 22.440419 
L 86.476264 30.019321 
L 88.027877 38.879362 
L 90.096693 52.014145 
L 95.268734 85.784487 
L 97.337551 97.502414 
L 98.889163 105.002872 
L 100.440776 111.182715 
L 101.475184 114.501031 
L 102.509592 117.147502 
L 103.544001 119.108919 
L 104.578409 120.383344 
L 105.095613 120.765303 
L 105.612817 120.979662 
L 106.130021 121.029126 
L 106.647225 120.916996 
L 107.16443 120.64714 
L 107.681634 120.22397 
L 108.716042 118.937869 
L 109.75045 117.103689 
L 110.784859 114.773113 
L 112.336471 110.473051 
L 113.888083 105.396951 
L 115.9569 97.81106 
L 121.646145 76.253984 
L 123.714962 69.580233 
L 124.232166 68.327356 
L 124.74937 67.621799 
L 125.266574 67.454747 
L 125.783778 67.815447 
L 126.300983 68.691282 
L 126.818187 70.067866 
L 127.335391 71.929137 
L 128.369799 77.033711 
L 129.404207 83.846849 
L 130.438616 92.19031 
L 131.990228 107.145365 
L 133.54184 124.395783 
L 136.127861 156.226058 
L 140.265494 207.645971 
L 142.334311 230.27476 
L 143.885923 244.865138 
L 145.437535 256.986061 
L 146.471944 263.558007 
L 147.506352 268.85951 
L 148.54076 272.860947 
L 149.575169 275.55427 
L 150.092373 276.413588 
L 150.609577 276.95223 
L 151.126781 277.174863 
L 151.643985 277.087305 
L 152.161189 276.696479 
L 152.678393 276.010362 
L 153.195597 275.037927 
L 154.230006 272.274657 
L 155.264414 268.496234 
L 156.298822 263.804346 
L 157.850435 255.300334 
L 159.402047 245.402036 
L 161.988068 226.980311 
L 166.125701 196.899521 
L 168.194517 183.530775 
L 169.74613 174.851127 
L 171.297742 167.584766 
L 172.33215 163.609648 
L 173.366559 160.369858 
L 174.400967 157.885224 
L 175.435375 156.162927 
L 175.952579 155.586541 
L 176.469784 155.197924 
L 176.986988 154.994632 
L 177.504192 154.97354 
L 178.021396 155.130869 
L 178.5386 155.462214 
L 179.055804 155.962574 
L 180.090212 157.447563 
L 181.124621 159.535202 
L 182.159029 162.167555 
L 183.710641 166.996016 
L 185.262254 172.669776 
L 187.33107 181.11691 
L 193.020316 204.980425 
L 194.571928 210.603639 
L 196.123541 215.506746 
L 197.675153 219.564136 
L 198.709561 221.754007 
L 199.74397 223.511132 
L 200.778378 224.826182 
L 201.812786 225.697135 
L 202.847194 226.128999 
L 203.881603 226.133438 
L 204.916011 225.728316 
L 205.950419 224.93715 
L 206.984827 223.78851 
L 208.019236 222.315359 
L 209.570848 219.578189 
L 211.122461 216.329473 
L 213.191277 211.453004 
L 219.397727 196.351903 
L 220.949339 193.151912 
L 222.500951 190.387844 
L 224.052564 188.128642 
L 225.086972 186.927162 
L 226.12138 185.979941 
L 227.155789 185.291127 
L 228.190197 184.860653 
L 229.224605 184.684415 
L 230.259013 184.754504 
L 231.293422 185.05949 
L 232.32783 185.584747 
L 233.362238 186.31282 
L 234.913851 187.741119 
L 236.465463 189.505264 
L 238.53428 192.23715 
L 246.292342 203.085534 
L 247.843954 204.82069 
L 249.395566 206.278853 
L 250.947179 207.426579 
L 252.498791 208.243298 
L 254.050404 208.721229 
L 255.602016 208.86485 
L 257.153628 208.689985 
L 258.705241 208.222543 
L 260.256853 207.496989 
L 261.808466 206.554616 
L 263.877282 205.041277 
L 267.497711 202.017862 
L 271.11814 199.047181 
L 273.186957 197.581816 
L 275.255773 196.381932 
L 276.807386 195.68804 
L 278.358998 195.185871 
L 279.91061 194.880943 
L 281.462223 194.771576 
L 283.013835 194.849397 
L 285.082652 195.218761 
L 287.151468 195.84706 
L 289.737489 196.905001 
L 293.875122 198.915502 
L 298.012755 200.84989 
L 300.598776 201.820473 
L 302.667592 202.402288 
L 304.736409 202.787336 
L 306.805225 202.96829 
L 308.874042 202.950874 
L 311.460063 202.67754 
L 314.046083 202.176452 
L 317.666512 201.227731 
L 324.90737 199.246005 
L 328.010595 198.643585 
L 331.11382 198.289657 
L 334.217044 198.201495 
L 337.320269 198.358805 
L 340.940698 198.783837 
L 347.664352 199.880579 
L 352.836393 200.603252 
L 356.456822 200.899674 
L 360.077251 200.98662 
L 364.214884 200.848561 
L 369.386926 200.430716 
L 379.731008 199.535989 
L 384.385845 199.3717 
L 389.557887 199.419505 
L 396.28154 199.732905 
L 407.142827 200.247388 
L 413.349277 200.303868 
L 421.107339 200.133491 
L 435.589055 199.766112 
L 444.381525 199.811404 
L 467.655711 200.06803 
L 503.86 199.955905 
L 525.06537 199.981493 
L 557.64923 199.962351 
L 557.64923 199.962351 
" style="fill:none;stroke:#009afa;stroke-width:3;"/>
   </g>
   <g id="line2d_100">
    <path clip-path="url(#p2bf8218c0b)" d="M 40.445096 199.960382 
L 53.892404 199.960382 
L 54.409608 199.727024 
L 54.926812 199.04943 
L 55.444016 197.96084 
L 55.96122 196.493786 
L 56.995629 192.550447 
L 58.030037 187.462861 
L 59.581649 178.180396 
L 61.650466 163.784957 
L 67.856915 118.544758 
L 69.925732 105.576047 
L 71.477344 97.039786 
L 73.028957 89.613967 
L 74.580569 83.324313 
L 76.132182 78.15488 
L 77.16659 75.307826 
L 78.200998 72.916306 
L 79.235406 70.955288 
L 80.269815 69.396662 
L 81.304223 68.210068 
L 82.338631 67.363649 
L 83.373039 66.824723 
L 84.407448 66.56038 
L 85.441856 66.538004 
L 86.476264 66.725716 
L 87.510672 67.092753 
L 89.062285 67.915822 
L 90.613897 68.984999 
L 93.199918 71.095866 
L 99.406368 76.330382 
L 101.992388 78.135201 
L 104.061205 79.329014 
L 106.130021 80.288072 
L 108.198838 81.017608 
L 110.267654 81.534269 
L 112.853675 81.91821 
L 115.439696 82.064193 
L 118.542921 82.008593 
L 122.680554 81.698173 
L 123.714962 81.598458 
L 124.232166 81.780375 
L 124.74937 82.405831 
L 125.266574 83.441836 
L 125.783778 84.85609 
L 126.818187 88.694047 
L 127.852595 93.677822 
L 129.404207 102.81038 
L 131.473024 117.022097 
L 138.196678 165.238267 
L 140.265494 177.700411 
L 141.817107 185.832871 
L 143.368719 192.853144 
L 144.920331 198.748946 
L 146.471944 203.54669 
L 147.506352 206.162188 
L 148.54076 208.337161 
L 149.575169 210.097869 
L 150.609577 211.473242 
L 151.643985 212.494098 
L 152.678393 213.192431 
L 153.712802 213.600778 
L 154.74721 213.751662 
L 155.781618 213.67711 
L 156.816026 213.408244 
L 158.367639 212.705534 
L 159.919251 211.726605 
L 161.988068 210.136981 
L 170.780538 202.964126 
L 172.849355 201.662258 
L 174.918171 200.589695 
L 176.986988 199.748841 
L 179.055804 199.128672 
L 181.124621 198.708684 
L 183.710641 198.424516 
L 186.296662 198.353775 
L 189.917091 198.503265 
L 195.606336 199.021806 
L 203.881603 199.755524 
L 210.088052 200.054459 
L 217.32891 200.147667 
L 230.776218 200.023749 
L 249.395566 199.938742 
L 557.64923 199.960382 
L 557.64923 199.960382 
" style="fill:none;stroke:#e36f47;stroke-width:3;"/>
   </g>
   <g id="patch_3">
    <path d="M 40.445096 285.165354 
L 40.445096 2.834646 
" style="fill:none;stroke:#000000;stroke-linecap:square;stroke-linejoin:miter;"/>
   </g>
   <g id="patch_4">
    <path d="M 24.928972 199.960382 
L 573.165354 199.960382 
" style="fill:none;stroke:#000000;stroke-linecap:square;stroke-linejoin:miter;"/>
   </g>
   <g id="line2d_101">
    <path clip-path="url(#p2bf8218c0b)" d="M 40.445096 199.960382 
L 53.892404 199.960382 
L 54.409608 199.742654 
L 54.926812 199.164109 
L 55.96122 197.269452 
L 56.995629 194.777578 
L 59.064445 189.040712 
L 63.719282 175.891287 
L 66.822507 167.82954 
L 69.925732 160.428072 
L 73.028957 153.64946 
L 76.132182 147.444558 
L 79.235406 141.765452 
L 82.338631 136.567713 
L 85.441856 131.810564 
L 88.545081 127.456663 
L 91.648306 123.47183 
L 94.75153 119.82478 
L 97.854755 116.48688 
L 101.475184 112.948558 
L 105.095613 109.757626 
L 108.716042 106.879978 
L 112.336471 104.284855 
L 115.9569 101.944519 
L 120.094533 99.54986 
L 123.714962 97.674402 
L 124.232166 97.63968 
L 124.74937 97.969476 
L 125.266574 98.57205 
L 126.300983 100.332648 
L 127.852595 103.737018 
L 136.645065 124.488623 
L 139.74829 130.88049 
L 142.851515 136.735081 
L 145.95474 142.094289 
L 149.057964 146.999388 
L 152.161189 151.488731 
L 155.264414 155.597532 
L 158.367639 159.358043 
L 161.470864 162.799786 
L 164.574088 165.949783 
L 168.194517 169.288919 
L 171.814946 172.300221 
L 175.435375 175.015875 
L 179.055804 177.464909 
L 183.193437 179.970789 
L 187.33107 182.197527 
L 191.468703 184.176218 
L 196.123541 186.140033 
L 200.778378 187.859517 
L 205.950419 189.520335 
L 211.122461 190.95321 
L 216.811706 192.303304 
L 223.018156 193.546421 
L 229.741809 194.666453 
L 237.499871 195.718025 
L 245.775137 196.610536 
L 255.084812 197.392236 
L 265.946099 198.076818 
L 278.876202 198.658129 
L 294.392326 199.124099 
L 314.046083 199.48316 
L 340.940698 199.738905 
L 383.351437 199.894374 
L 475.413773 199.955613 
L 557.64923 199.959926 
L 557.64923 199.959926 
" style="fill:none;stroke:#3ea44e;stroke-width:3;"/>
   </g>
   <g id="legend_1">
    <g id="patch_5">
     <path d="M 498.125354 50.862146 
L 569.165354 50.862146 
L 569.165354 6.834646 
L 498.125354 6.834646 
z
" style="fill:none;opacity:0;"/>
    </g>
    <g id="line2d_102">
     <path d="M 504.525354 16.513396 
L 520.525354 16.513396 
" style="fill:none;stroke:#009afa;stroke-linejoin:miter;"/>
    </g>
    <g id="line2d_103"/>
    <g id="text_13">
     <!-- $F_v=$1.5 -->
     <g transform="translate(526.925354 19.313396)scale(0.08 -0.08)">
      <defs>
       <path d="M 16.890625 72.90625 
L 58.6875 72.90625 
L 57.078125 64.59375 
L 25.09375 64.59375 
L 20.90625 43.109375 
L 49.8125 43.109375 
L 48.1875 34.8125 
L 19.28125 34.8125 
L 12.5 0 
L 2.6875 0 
z
" id="DejaVuSans-Oblique-70"/>
       <path d="M 7.171875 54.6875 
L 16.703125 54.6875 
L 24.703125 8.203125 
L 50.875 54.6875 
L 60.40625 54.6875 
L 29.296875 0 
L 17.1875 0 
z
" id="DejaVuSans-Oblique-118"/>
       <path d="M 10.59375 45.40625 
L 73.1875 45.40625 
L 73.1875 37.203125 
L 10.59375 37.203125 
z
M 10.59375 25.484375 
L 73.1875 25.484375 
L 73.1875 17.1875 
L 10.59375 17.1875 
z
" id="DejaVuSans-61"/>
      </defs>
      <use transform="translate(0 0.09375)" xlink:href="#DejaVuSans-Oblique-70"/>
      <use transform="translate(57.519531 -16.3125)scale(0.7)" xlink:href="#DejaVuSans-Oblique-118"/>
      <use transform="translate(121.162109 0.09375)" xlink:href="#DejaVuSans-61"/>
      <use transform="translate(224.433594 0.09375)" xlink:href="#DejaVuSans-49"/>
      <use transform="translate(288.056641 0.09375)" xlink:href="#DejaVuSans-46"/>
      <use transform="translate(319.84375 0.09375)" xlink:href="#DejaVuSans-53"/>
     </g>
    </g>
    <g id="line2d_104">
     <path d="M 504.525354 28.255896 
L 520.525354 28.255896 
" style="fill:none;stroke:#e36f47;stroke-linejoin:miter;"/>
    </g>
    <g id="line2d_105"/>
    <g id="text_14">
     <!-- $F_v=$5.0 -->
     <g transform="translate(526.925354 31.055896)scale(0.08 -0.08)">
      <use transform="translate(0 0.78125)" xlink:href="#DejaVuSans-Oblique-70"/>
      <use transform="translate(57.519531 -15.625)scale(0.7)" xlink:href="#DejaVuSans-Oblique-118"/>
      <use transform="translate(121.162109 0.78125)" xlink:href="#DejaVuSans-61"/>
      <use transform="translate(224.433594 0.78125)" xlink:href="#DejaVuSans-53"/>
      <use transform="translate(288.056641 0.78125)" xlink:href="#DejaVuSans-46"/>
      <use transform="translate(319.84375 0.78125)" xlink:href="#DejaVuSans-48"/>
     </g>
    </g>
    <g id="line2d_106">
     <path d="M 504.525354 39.998396 
L 520.525354 39.998396 
" style="fill:none;stroke:#3ea44e;stroke-linejoin:miter;"/>
    </g>
    <g id="line2d_107"/>
    <g id="text_15">
     <!-- $F_v=$20.0 -->
     <g transform="translate(526.925354 42.798396)scale(0.08 -0.08)">
      <use transform="translate(0 0.78125)" xlink:href="#DejaVuSans-Oblique-70"/>
      <use transform="translate(57.519531 -15.625)scale(0.7)" xlink:href="#DejaVuSans-Oblique-118"/>
      <use transform="translate(121.162109 0.78125)" xlink:href="#DejaVuSans-61"/>
      <use transform="translate(224.433594 0.78125)" xlink:href="#DejaVuSans-50"/>
      <use transform="translate(288.056641 0.78125)" xlink:href="#DejaVuSans-48"/>
      <use transform="translate(351.679688 0.78125)" xlink:href="#DejaVuSans-46"/>
      <use transform="translate(383.466797 0.78125)" xlink:href="#DejaVuSans-48"/>
     </g>
    </g>
   </g>
  </g>
 </g>
 <defs>
  <clipPath id="p2bf8218c0b">
   <rect height="282.330709" width="548.236382" x="24.928972" y="2.834646"/>
  </clipPath>
 </defs>
</svg>
