<?xml version="1.0" encoding="utf-8" standalone="no"?>
<!DOCTYPE svg PUBLIC "-//W3C//DTD SVG 1.1//EN"
  "http://www.w3.org/Graphics/SVG/1.1/DTD/svg11.dtd">
<!-- Created with matplotlib (https://matplotlib.org/) -->
<svg height="288pt" version="1.1" viewBox="0 0 576 288" width="576pt" xmlns="http://www.w3.org/2000/svg" xmlns:xlink="http://www.w3.org/1999/xlink">
 <metadata>
  <rdf:RDF xmlns:cc="http://creativecommons.org/ns#" xmlns:dc="http://purl.org/dc/elements/1.1/" xmlns:rdf="http://www.w3.org/1999/02/22-rdf-syntax-ns#">
   <cc:Work>
    <dc:type rdf:resource="http://purl.org/dc/dcmitype/StillImage"/>
    <dc:date>2020-11-21T12:08:07.962971</dc:date>
    <dc:format>image/svg+xml</dc:format>
    <dc:creator>
     <cc:Agent>
      <dc:title>Matplotlib v3.3.1, https://matplotlib.org/</dc:title>
     </cc:Agent>
    </dc:creator>
   </cc:Work>
  </rdf:RDF>
 </metadata>
 <defs>
  <style type="text/css">*{stroke-linecap:butt;stroke-linejoin:round;}</style>
 </defs>
 <g id="figure_1">
  <g id="patch_1">
   <path d="M 0 288 
L 576 288 
L 576 0 
L 0 0 
z
" style="fill:none;"/>
  </g>
  <g id="axes_1">
   <g id="patch_2">
    <path d="M 20.986397 284.791492 
L 573.165354 284.791492 
L 573.165354 2.834646 
L 20.986397 2.834646 
z
" style="fill:none;"/>
   </g>
   <g id="matplotlib.axis_1">
    <g id="xtick_1">
     <g id="line2d_1">
      <path clip-path="url(#p66cc3167b4)" d="M 36.614103 284.791492 
L 36.614103 2.834646 
" style="fill:none;stroke:#000000;stroke-linecap:square;stroke-opacity:0.1;stroke-width:0.5;"/>
     </g>
     <g id="line2d_2">
      <defs>
       <path d="M 0 0 
L 0 -2.5 
" id="me36cbc162b" style="stroke:#000000;stroke-width:0.5;"/>
      </defs>
      <g>
       <use style="stroke:#000000;stroke-width:0.5;" x="36.614103" xlink:href="#me36cbc162b" y="258.782796"/>
      </g>
     </g>
     <g id="text_1">
      <!-- $\mathregular{}$ -->
      <g transform="translate(36.614103 268.361546)scale(0.08 -0.08)"/>
     </g>
    </g>
    <g id="xtick_2">
     <g id="line2d_3">
      <path clip-path="url(#p66cc3167b4)" d="M 166.844989 284.791492 
L 166.844989 2.834646 
" style="fill:none;stroke:#000000;stroke-linecap:square;stroke-opacity:0.1;stroke-width:0.5;"/>
     </g>
     <g id="line2d_4">
      <g>
       <use style="stroke:#000000;stroke-width:0.5;" x="166.844989" xlink:href="#me36cbc162b" y="258.782796"/>
      </g>
     </g>
     <g id="text_2">
      <!-- $\mathregular{10}$ -->
      <g transform="translate(161.724989 268.361546)scale(0.08 -0.08)">
       <defs>
        <path d="M 12.40625 8.296875 
L 28.515625 8.296875 
L 28.515625 63.921875 
L 10.984375 60.40625 
L 10.984375 69.390625 
L 28.421875 72.90625 
L 38.28125 72.90625 
L 38.28125 8.296875 
L 54.390625 8.296875 
L 54.390625 0 
L 12.40625 0 
z
" id="DejaVuSans-49"/>
        <path d="M 31.78125 66.40625 
Q 24.171875 66.40625 20.328125 58.90625 
Q 16.5 51.421875 16.5 36.375 
Q 16.5 21.390625 20.328125 13.890625 
Q 24.171875 6.390625 31.78125 6.390625 
Q 39.453125 6.390625 43.28125 13.890625 
Q 47.125 21.390625 47.125 36.375 
Q 47.125 51.421875 43.28125 58.90625 
Q 39.453125 66.40625 31.78125 66.40625 
z
M 31.78125 74.21875 
Q 44.046875 74.21875 50.515625 64.515625 
Q 56.984375 54.828125 56.984375 36.375 
Q 56.984375 17.96875 50.515625 8.265625 
Q 44.046875 -1.421875 31.78125 -1.421875 
Q 19.53125 -1.421875 13.0625 8.265625 
Q 6.59375 17.96875 6.59375 36.375 
Q 6.59375 54.828125 13.0625 64.515625 
Q 19.53125 74.21875 31.78125 74.21875 
z
" id="DejaVuSans-48"/>
       </defs>
       <use transform="translate(0 0.78125)" xlink:href="#DejaVuSans-49"/>
       <use transform="translate(63.623047 0.78125)" xlink:href="#DejaVuSans-48"/>
      </g>
     </g>
    </g>
    <g id="xtick_3">
     <g id="line2d_5">
      <path clip-path="url(#p66cc3167b4)" d="M 297.075875 284.791492 
L 297.075875 2.834646 
" style="fill:none;stroke:#000000;stroke-linecap:square;stroke-opacity:0.1;stroke-width:0.5;"/>
     </g>
     <g id="line2d_6">
      <g>
       <use style="stroke:#000000;stroke-width:0.5;" x="297.075875" xlink:href="#me36cbc162b" y="258.782796"/>
      </g>
     </g>
     <g id="text_3">
      <!-- $\mathregular{20}$ -->
      <g transform="translate(291.955875 268.361546)scale(0.08 -0.08)">
       <defs>
        <path d="M 19.1875 8.296875 
L 53.609375 8.296875 
L 53.609375 0 
L 7.328125 0 
L 7.328125 8.296875 
Q 12.9375 14.109375 22.625 23.890625 
Q 32.328125 33.6875 34.8125 36.53125 
Q 39.546875 41.84375 41.421875 45.53125 
Q 43.3125 49.21875 43.3125 52.78125 
Q 43.3125 58.59375 39.234375 62.25 
Q 35.15625 65.921875 28.609375 65.921875 
Q 23.96875 65.921875 18.8125 64.3125 
Q 13.671875 62.703125 7.8125 59.421875 
L 7.8125 69.390625 
Q 13.765625 71.78125 18.9375 73 
Q 24.125 74.21875 28.421875 74.21875 
Q 39.75 74.21875 46.484375 68.546875 
Q 53.21875 62.890625 53.21875 53.421875 
Q 53.21875 48.921875 51.53125 44.890625 
Q 49.859375 40.875 45.40625 35.40625 
Q 44.1875 33.984375 37.640625 27.21875 
Q 31.109375 20.453125 19.1875 8.296875 
z
" id="DejaVuSans-50"/>
       </defs>
       <use transform="translate(0 0.78125)" xlink:href="#DejaVuSans-50"/>
       <use transform="translate(63.623047 0.78125)" xlink:href="#DejaVuSans-48"/>
      </g>
     </g>
    </g>
    <g id="xtick_4">
     <g id="line2d_7">
      <path clip-path="url(#p66cc3167b4)" d="M 427.306762 284.791492 
L 427.306762 2.834646 
" style="fill:none;stroke:#000000;stroke-linecap:square;stroke-opacity:0.1;stroke-width:0.5;"/>
     </g>
     <g id="line2d_8">
      <g>
       <use style="stroke:#000000;stroke-width:0.5;" x="427.306762" xlink:href="#me36cbc162b" y="258.782796"/>
      </g>
     </g>
     <g id="text_4">
      <!-- $\mathregular{30}$ -->
      <g transform="translate(422.186762 268.361546)scale(0.08 -0.08)">
       <defs>
        <path d="M 40.578125 39.3125 
Q 47.65625 37.796875 51.625 33 
Q 55.609375 28.21875 55.609375 21.1875 
Q 55.609375 10.40625 48.1875 4.484375 
Q 40.765625 -1.421875 27.09375 -1.421875 
Q 22.515625 -1.421875 17.65625 -0.515625 
Q 12.796875 0.390625 7.625 2.203125 
L 7.625 11.71875 
Q 11.71875 9.328125 16.59375 8.109375 
Q 21.484375 6.890625 26.8125 6.890625 
Q 36.078125 6.890625 40.9375 10.546875 
Q 45.796875 14.203125 45.796875 21.1875 
Q 45.796875 27.640625 41.28125 31.265625 
Q 36.765625 34.90625 28.71875 34.90625 
L 20.21875 34.90625 
L 20.21875 43.015625 
L 29.109375 43.015625 
Q 36.375 43.015625 40.234375 45.921875 
Q 44.09375 48.828125 44.09375 54.296875 
Q 44.09375 59.90625 40.109375 62.90625 
Q 36.140625 65.921875 28.71875 65.921875 
Q 24.65625 65.921875 20.015625 65.03125 
Q 15.375 64.15625 9.8125 62.3125 
L 9.8125 71.09375 
Q 15.4375 72.65625 20.34375 73.4375 
Q 25.25 74.21875 29.59375 74.21875 
Q 40.828125 74.21875 47.359375 69.109375 
Q 53.90625 64.015625 53.90625 55.328125 
Q 53.90625 49.265625 50.4375 45.09375 
Q 46.96875 40.921875 40.578125 39.3125 
z
" id="DejaVuSans-51"/>
       </defs>
       <use transform="translate(0 0.78125)" xlink:href="#DejaVuSans-51"/>
       <use transform="translate(63.623047 0.78125)" xlink:href="#DejaVuSans-48"/>
      </g>
     </g>
    </g>
    <g id="xtick_5">
     <g id="line2d_9">
      <path clip-path="url(#p66cc3167b4)" d="M 557.537648 284.791492 
L 557.537648 2.834646 
" style="fill:none;stroke:#000000;stroke-linecap:square;stroke-opacity:0.1;stroke-width:0.5;"/>
     </g>
     <g id="line2d_10">
      <g>
       <use style="stroke:#000000;stroke-width:0.5;" x="557.537648" xlink:href="#me36cbc162b" y="258.782796"/>
      </g>
     </g>
     <g id="text_5">
      <!-- $\mathregular{40}$ -->
      <g transform="translate(552.417648 268.361546)scale(0.08 -0.08)">
       <defs>
        <path d="M 37.796875 64.3125 
L 12.890625 25.390625 
L 37.796875 25.390625 
z
M 35.203125 72.90625 
L 47.609375 72.90625 
L 47.609375 25.390625 
L 58.015625 25.390625 
L 58.015625 17.1875 
L 47.609375 17.1875 
L 47.609375 0 
L 37.796875 0 
L 37.796875 17.1875 
L 4.890625 17.1875 
L 4.890625 26.703125 
z
" id="DejaVuSans-52"/>
       </defs>
       <use transform="translate(0 0.78125)" xlink:href="#DejaVuSans-52"/>
       <use transform="translate(63.623047 0.78125)" xlink:href="#DejaVuSans-48"/>
      </g>
     </g>
    </g>
    <g id="xtick_6">
     <g id="line2d_11">
      <path clip-path="url(#p66cc3167b4)" d="M 62.66028 284.791492 
L 62.66028 2.834646 
" style="fill:none;stroke:#000000;stroke-linecap:square;stroke-opacity:0.05;stroke-width:0.5;"/>
     </g>
     <g id="line2d_12">
      <defs>
       <path d="M 0 0 
L 0 -2 
" id="m268926e788" style="stroke:#000000;stroke-width:0.5;"/>
      </defs>
      <g>
       <use style="stroke:#000000;stroke-width:0.5;" x="62.66028" xlink:href="#m268926e788" y="258.782796"/>
      </g>
     </g>
    </g>
    <g id="xtick_7">
     <g id="line2d_13">
      <path clip-path="url(#p66cc3167b4)" d="M 88.706457 284.791492 
L 88.706457 2.834646 
" style="fill:none;stroke:#000000;stroke-linecap:square;stroke-opacity:0.05;stroke-width:0.5;"/>
     </g>
     <g id="line2d_14">
      <g>
       <use style="stroke:#000000;stroke-width:0.5;" x="88.706457" xlink:href="#m268926e788" y="258.782796"/>
      </g>
     </g>
    </g>
    <g id="xtick_8">
     <g id="line2d_15">
      <path clip-path="url(#p66cc3167b4)" d="M 114.752635 284.791492 
L 114.752635 2.834646 
" style="fill:none;stroke:#000000;stroke-linecap:square;stroke-opacity:0.05;stroke-width:0.5;"/>
     </g>
     <g id="line2d_16">
      <g>
       <use style="stroke:#000000;stroke-width:0.5;" x="114.752635" xlink:href="#m268926e788" y="258.782796"/>
      </g>
     </g>
    </g>
    <g id="xtick_9">
     <g id="line2d_17">
      <path clip-path="url(#p66cc3167b4)" d="M 140.798812 284.791492 
L 140.798812 2.834646 
" style="fill:none;stroke:#000000;stroke-linecap:square;stroke-opacity:0.05;stroke-width:0.5;"/>
     </g>
     <g id="line2d_18">
      <g>
       <use style="stroke:#000000;stroke-width:0.5;" x="140.798812" xlink:href="#m268926e788" y="258.782796"/>
      </g>
     </g>
    </g>
    <g id="xtick_10">
     <g id="line2d_19">
      <path clip-path="url(#p66cc3167b4)" d="M 192.891166 284.791492 
L 192.891166 2.834646 
" style="fill:none;stroke:#000000;stroke-linecap:square;stroke-opacity:0.05;stroke-width:0.5;"/>
     </g>
     <g id="line2d_20">
      <g>
       <use style="stroke:#000000;stroke-width:0.5;" x="192.891166" xlink:href="#m268926e788" y="258.782796"/>
      </g>
     </g>
    </g>
    <g id="xtick_11">
     <g id="line2d_21">
      <path clip-path="url(#p66cc3167b4)" d="M 218.937344 284.791492 
L 218.937344 2.834646 
" style="fill:none;stroke:#000000;stroke-linecap:square;stroke-opacity:0.05;stroke-width:0.5;"/>
     </g>
     <g id="line2d_22">
      <g>
       <use style="stroke:#000000;stroke-width:0.5;" x="218.937344" xlink:href="#m268926e788" y="258.782796"/>
      </g>
     </g>
    </g>
    <g id="xtick_12">
     <g id="line2d_23">
      <path clip-path="url(#p66cc3167b4)" d="M 244.983521 284.791492 
L 244.983521 2.834646 
" style="fill:none;stroke:#000000;stroke-linecap:square;stroke-opacity:0.05;stroke-width:0.5;"/>
     </g>
     <g id="line2d_24">
      <g>
       <use style="stroke:#000000;stroke-width:0.5;" x="244.983521" xlink:href="#m268926e788" y="258.782796"/>
      </g>
     </g>
    </g>
    <g id="xtick_13">
     <g id="line2d_25">
      <path clip-path="url(#p66cc3167b4)" d="M 271.029698 284.791492 
L 271.029698 2.834646 
" style="fill:none;stroke:#000000;stroke-linecap:square;stroke-opacity:0.05;stroke-width:0.5;"/>
     </g>
     <g id="line2d_26">
      <g>
       <use style="stroke:#000000;stroke-width:0.5;" x="271.029698" xlink:href="#m268926e788" y="258.782796"/>
      </g>
     </g>
    </g>
    <g id="xtick_14">
     <g id="line2d_27">
      <path clip-path="url(#p66cc3167b4)" d="M 323.122053 284.791492 
L 323.122053 2.834646 
" style="fill:none;stroke:#000000;stroke-linecap:square;stroke-opacity:0.05;stroke-width:0.5;"/>
     </g>
     <g id="line2d_28">
      <g>
       <use style="stroke:#000000;stroke-width:0.5;" x="323.122053" xlink:href="#m268926e788" y="258.782796"/>
      </g>
     </g>
    </g>
    <g id="xtick_15">
     <g id="line2d_29">
      <path clip-path="url(#p66cc3167b4)" d="M 349.16823 284.791492 
L 349.16823 2.834646 
" style="fill:none;stroke:#000000;stroke-linecap:square;stroke-opacity:0.05;stroke-width:0.5;"/>
     </g>
     <g id="line2d_30">
      <g>
       <use style="stroke:#000000;stroke-width:0.5;" x="349.16823" xlink:href="#m268926e788" y="258.782796"/>
      </g>
     </g>
    </g>
    <g id="xtick_16">
     <g id="line2d_31">
      <path clip-path="url(#p66cc3167b4)" d="M 375.214407 284.791492 
L 375.214407 2.834646 
" style="fill:none;stroke:#000000;stroke-linecap:square;stroke-opacity:0.05;stroke-width:0.5;"/>
     </g>
     <g id="line2d_32">
      <g>
       <use style="stroke:#000000;stroke-width:0.5;" x="375.214407" xlink:href="#m268926e788" y="258.782796"/>
      </g>
     </g>
    </g>
    <g id="xtick_17">
     <g id="line2d_33">
      <path clip-path="url(#p66cc3167b4)" d="M 401.260584 284.791492 
L 401.260584 2.834646 
" style="fill:none;stroke:#000000;stroke-linecap:square;stroke-opacity:0.05;stroke-width:0.5;"/>
     </g>
     <g id="line2d_34">
      <g>
       <use style="stroke:#000000;stroke-width:0.5;" x="401.260584" xlink:href="#m268926e788" y="258.782796"/>
      </g>
     </g>
    </g>
    <g id="xtick_18">
     <g id="line2d_35">
      <path clip-path="url(#p66cc3167b4)" d="M 453.352939 284.791492 
L 453.352939 2.834646 
" style="fill:none;stroke:#000000;stroke-linecap:square;stroke-opacity:0.05;stroke-width:0.5;"/>
     </g>
     <g id="line2d_36">
      <g>
       <use style="stroke:#000000;stroke-width:0.5;" x="453.352939" xlink:href="#m268926e788" y="258.782796"/>
      </g>
     </g>
    </g>
    <g id="xtick_19">
     <g id="line2d_37">
      <path clip-path="url(#p66cc3167b4)" d="M 479.399116 284.791492 
L 479.399116 2.834646 
" style="fill:none;stroke:#000000;stroke-linecap:square;stroke-opacity:0.05;stroke-width:0.5;"/>
     </g>
     <g id="line2d_38">
      <g>
       <use style="stroke:#000000;stroke-width:0.5;" x="479.399116" xlink:href="#m268926e788" y="258.782796"/>
      </g>
     </g>
    </g>
    <g id="xtick_20">
     <g id="line2d_39">
      <path clip-path="url(#p66cc3167b4)" d="M 505.445293 284.791492 
L 505.445293 2.834646 
" style="fill:none;stroke:#000000;stroke-linecap:square;stroke-opacity:0.05;stroke-width:0.5;"/>
     </g>
     <g id="line2d_40">
      <g>
       <use style="stroke:#000000;stroke-width:0.5;" x="505.445293" xlink:href="#m268926e788" y="258.782796"/>
      </g>
     </g>
    </g>
    <g id="xtick_21">
     <g id="line2d_41">
      <path clip-path="url(#p66cc3167b4)" d="M 531.491471 284.791492 
L 531.491471 2.834646 
" style="fill:none;stroke:#000000;stroke-linecap:square;stroke-opacity:0.05;stroke-width:0.5;"/>
     </g>
     <g id="line2d_42">
      <g>
       <use style="stroke:#000000;stroke-width:0.5;" x="531.491471" xlink:href="#m268926e788" y="258.782796"/>
      </g>
     </g>
    </g>
    <g id="text_6">
     <!-- Time (s) -->
     <g transform="translate(522.536136 282.383577)scale(0.11 -0.11)">
      <defs>
       <path d="M 0.484375 72.90625 
L 67.671875 72.90625 
L 67.671875 58.6875 
L 43.5 58.6875 
L 43.5 0 
L 24.703125 0 
L 24.703125 58.6875 
L 0.484375 58.6875 
z
" id="DejaVuSans-Bold-84"/>
       <path d="M 8.40625 54.6875 
L 25.875 54.6875 
L 25.875 0 
L 8.40625 0 
z
M 8.40625 75.984375 
L 25.875 75.984375 
L 25.875 61.71875 
L 8.40625 61.71875 
z
" id="DejaVuSans-Bold-105"/>
       <path d="M 59.078125 45.609375 
Q 62.40625 50.6875 66.96875 53.34375 
Q 71.53125 56 77 56 
Q 86.421875 56 91.359375 50.1875 
Q 96.296875 44.390625 96.296875 33.296875 
L 96.296875 0 
L 78.71875 0 
L 78.71875 28.515625 
Q 78.765625 29.15625 78.78125 29.828125 
Q 78.8125 30.515625 78.8125 31.78125 
Q 78.8125 37.59375 77.09375 40.203125 
Q 75.390625 42.828125 71.578125 42.828125 
Q 66.609375 42.828125 63.890625 38.71875 
Q 61.1875 34.625 61.078125 26.859375 
L 61.078125 0 
L 43.5 0 
L 43.5 28.515625 
Q 43.5 37.59375 41.9375 40.203125 
Q 40.375 42.828125 36.375 42.828125 
Q 31.34375 42.828125 28.609375 38.703125 
Q 25.875 34.578125 25.875 26.90625 
L 25.875 0 
L 8.296875 0 
L 8.296875 54.6875 
L 25.875 54.6875 
L 25.875 46.6875 
Q 29.109375 51.3125 33.28125 53.65625 
Q 37.453125 56 42.484375 56 
Q 48.140625 56 52.484375 53.265625 
Q 56.84375 50.53125 59.078125 45.609375 
z
" id="DejaVuSans-Bold-109"/>
       <path d="M 62.984375 27.484375 
L 62.984375 22.515625 
L 22.125 22.515625 
Q 22.75 16.359375 26.5625 13.28125 
Q 30.375 10.203125 37.203125 10.203125 
Q 42.71875 10.203125 48.5 11.84375 
Q 54.296875 13.484375 60.40625 16.796875 
L 60.40625 3.328125 
Q 54.203125 0.984375 48 -0.21875 
Q 41.796875 -1.421875 35.59375 -1.421875 
Q 20.75 -1.421875 12.515625 6.125 
Q 4.296875 13.671875 4.296875 27.296875 
Q 4.296875 40.671875 12.375 48.328125 
Q 20.453125 56 34.625 56 
Q 47.515625 56 55.25 48.234375 
Q 62.984375 40.484375 62.984375 27.484375 
z
M 45.015625 33.296875 
Q 45.015625 38.28125 42.109375 41.328125 
Q 39.203125 44.390625 34.515625 44.390625 
Q 29.4375 44.390625 26.265625 41.53125 
Q 23.09375 38.671875 22.3125 33.296875 
z
" id="DejaVuSans-Bold-101"/>
       <path id="DejaVuSans-Bold-32"/>
       <path d="M 37.703125 -13.1875 
L 23.1875 -13.1875 
Q 15.71875 -1.125 12.15625 9.734375 
Q 8.59375 20.609375 8.59375 31.296875 
Q 8.59375 42 12.171875 52.953125 
Q 15.765625 63.921875 23.1875 75.875 
L 37.703125 75.875 
Q 31.453125 64.3125 28.328125 53.25 
Q 25.203125 42.1875 25.203125 31.390625 
Q 25.203125 20.609375 28.296875 9.515625 
Q 31.390625 -1.5625 37.703125 -13.1875 
z
" id="DejaVuSans-Bold-40"/>
       <path d="M 51.125 52.984375 
L 51.125 39.703125 
Q 45.515625 42.046875 40.28125 43.21875 
Q 35.0625 44.390625 30.421875 44.390625 
Q 25.4375 44.390625 23.015625 43.140625 
Q 20.609375 41.890625 20.609375 39.3125 
Q 20.609375 37.203125 22.4375 36.078125 
Q 24.265625 34.96875 29 34.421875 
L 32.078125 33.984375 
Q 45.515625 32.28125 50.140625 28.375 
Q 54.78125 24.46875 54.78125 16.109375 
Q 54.78125 7.375 48.328125 2.96875 
Q 41.890625 -1.421875 29.109375 -1.421875 
Q 23.6875 -1.421875 17.890625 -0.5625 
Q 12.109375 0.296875 6 2 
L 6 15.28125 
Q 11.234375 12.75 16.71875 11.46875 
Q 22.21875 10.203125 27.875 10.203125 
Q 33.015625 10.203125 35.59375 11.609375 
Q 38.1875 13.03125 38.1875 15.828125 
Q 38.1875 18.171875 36.40625 19.3125 
Q 34.625 20.453125 29.296875 21.09375 
L 26.21875 21.484375 
Q 14.546875 22.953125 9.859375 26.90625 
Q 5.171875 30.859375 5.171875 38.921875 
Q 5.171875 47.609375 11.125 51.796875 
Q 17.09375 56 29.390625 56 
Q 34.234375 56 39.546875 55.265625 
Q 44.875 54.546875 51.125 52.984375 
z
" id="DejaVuSans-Bold-115"/>
       <path d="M 8.015625 -13.1875 
Q 14.265625 -1.5625 17.390625 9.515625 
Q 20.515625 20.609375 20.515625 31.390625 
Q 20.515625 42.1875 17.390625 53.25 
Q 14.265625 64.3125 8.015625 75.875 
L 22.515625 75.875 
Q 29.9375 63.921875 33.515625 52.953125 
Q 37.109375 42 37.109375 31.296875 
Q 37.109375 20.609375 33.546875 9.734375 
Q 29.984375 -1.125 22.515625 -13.1875 
z
" id="DejaVuSans-Bold-41"/>
      </defs>
      <use xlink:href="#DejaVuSans-Bold-84"/>
      <use x="68.212891" xlink:href="#DejaVuSans-Bold-105"/>
      <use x="102.490234" xlink:href="#DejaVuSans-Bold-109"/>
      <use x="206.689453" xlink:href="#DejaVuSans-Bold-101"/>
      <use x="274.511719" xlink:href="#DejaVuSans-Bold-32"/>
      <use x="309.326172" xlink:href="#DejaVuSans-Bold-40"/>
      <use x="355.029297" xlink:href="#DejaVuSans-Bold-115"/>
      <use x="414.550781" xlink:href="#DejaVuSans-Bold-41"/>
     </g>
    </g>
   </g>
   <g id="matplotlib.axis_2">
    <g id="ytick_1">
     <g id="line2d_43">
      <path clip-path="url(#p66cc3167b4)" d="M 20.986397 258.782796 
L 573.165354 258.782796 
" style="fill:none;stroke:#000000;stroke-linecap:square;stroke-opacity:0.1;stroke-width:0.5;"/>
     </g>
     <g id="line2d_44">
      <defs>
       <path d="M 0 0 
L 2.5 0 
" id="m4435832b7c" style="stroke:#000000;stroke-width:0.5;"/>
      </defs>
      <g>
       <use style="stroke:#000000;stroke-width:0.5;" x="36.614103" xlink:href="#m4435832b7c" y="258.782796"/>
      </g>
     </g>
     <g id="text_7">
      <!-- $\mathregular{}$ -->
      <g transform="translate(33.114103 261.822171)scale(0.08 -0.08)"/>
     </g>
    </g>
    <g id="ytick_2">
     <g id="line2d_45">
      <path clip-path="url(#p66cc3167b4)" d="M 20.986397 205.152174 
L 573.165354 205.152174 
" style="fill:none;stroke:#000000;stroke-linecap:square;stroke-opacity:0.1;stroke-width:0.5;"/>
     </g>
     <g id="line2d_46">
      <g>
       <use style="stroke:#000000;stroke-width:0.5;" x="36.614103" xlink:href="#m4435832b7c" y="205.152174"/>
      </g>
     </g>
     <g id="text_8">
      <!-- $\mathregular{25}$ -->
      <g transform="translate(22.874103 208.191549)scale(0.08 -0.08)">
       <defs>
        <path d="M 10.796875 72.90625 
L 49.515625 72.90625 
L 49.515625 64.59375 
L 19.828125 64.59375 
L 19.828125 46.734375 
Q 21.96875 47.46875 24.109375 47.828125 
Q 26.265625 48.1875 28.421875 48.1875 
Q 40.625 48.1875 47.75 41.5 
Q 54.890625 34.8125 54.890625 23.390625 
Q 54.890625 11.625 47.5625 5.09375 
Q 40.234375 -1.421875 26.90625 -1.421875 
Q 22.3125 -1.421875 17.546875 -0.640625 
Q 12.796875 0.140625 7.71875 1.703125 
L 7.71875 11.625 
Q 12.109375 9.234375 16.796875 8.0625 
Q 21.484375 6.890625 26.703125 6.890625 
Q 35.15625 6.890625 40.078125 11.328125 
Q 45.015625 15.765625 45.015625 23.390625 
Q 45.015625 31 40.078125 35.4375 
Q 35.15625 39.890625 26.703125 39.890625 
Q 22.75 39.890625 18.8125 39.015625 
Q 14.890625 38.140625 10.796875 36.28125 
z
" id="DejaVuSans-53"/>
       </defs>
       <use transform="translate(0 0.78125)" xlink:href="#DejaVuSans-50"/>
       <use transform="translate(63.623047 0.78125)" xlink:href="#DejaVuSans-53"/>
      </g>
     </g>
    </g>
    <g id="ytick_3">
     <g id="line2d_47">
      <path clip-path="url(#p66cc3167b4)" d="M 20.986397 151.521552 
L 573.165354 151.521552 
" style="fill:none;stroke:#000000;stroke-linecap:square;stroke-opacity:0.1;stroke-width:0.5;"/>
     </g>
     <g id="line2d_48">
      <g>
       <use style="stroke:#000000;stroke-width:0.5;" x="36.614103" xlink:href="#m4435832b7c" y="151.521552"/>
      </g>
     </g>
     <g id="text_9">
      <!-- $\mathregular{50}$ -->
      <g transform="translate(22.874103 154.560927)scale(0.08 -0.08)">
       <use transform="translate(0 0.78125)" xlink:href="#DejaVuSans-53"/>
       <use transform="translate(63.623047 0.78125)" xlink:href="#DejaVuSans-48"/>
      </g>
     </g>
    </g>
    <g id="ytick_4">
     <g id="line2d_49">
      <path clip-path="url(#p66cc3167b4)" d="M 20.986397 97.89093 
L 573.165354 97.89093 
" style="fill:none;stroke:#000000;stroke-linecap:square;stroke-opacity:0.1;stroke-width:0.5;"/>
     </g>
     <g id="line2d_50">
      <g>
       <use style="stroke:#000000;stroke-width:0.5;" x="36.614103" xlink:href="#m4435832b7c" y="97.89093"/>
      </g>
     </g>
     <g id="text_10">
      <!-- $\mathregular{75}$ -->
      <g transform="translate(22.874103 100.930305)scale(0.08 -0.08)">
       <defs>
        <path d="M 8.203125 72.90625 
L 55.078125 72.90625 
L 55.078125 68.703125 
L 28.609375 0 
L 18.3125 0 
L 43.21875 64.59375 
L 8.203125 64.59375 
z
" id="DejaVuSans-55"/>
       </defs>
       <use transform="translate(0 0.09375)" xlink:href="#DejaVuSans-55"/>
       <use transform="translate(63.623047 0.09375)" xlink:href="#DejaVuSans-53"/>
      </g>
     </g>
    </g>
    <g id="ytick_5">
     <g id="line2d_51">
      <path clip-path="url(#p66cc3167b4)" d="M 20.986397 44.260307 
L 573.165354 44.260307 
" style="fill:none;stroke:#000000;stroke-linecap:square;stroke-opacity:0.1;stroke-width:0.5;"/>
     </g>
     <g id="line2d_52">
      <g>
       <use style="stroke:#000000;stroke-width:0.5;" x="36.614103" xlink:href="#m4435832b7c" y="44.260307"/>
      </g>
     </g>
     <g id="text_11">
      <!-- $\mathregular{100}$ -->
      <g transform="translate(17.834103 47.299682)scale(0.08 -0.08)">
       <use transform="translate(0 0.78125)" xlink:href="#DejaVuSans-49"/>
       <use transform="translate(63.623047 0.78125)" xlink:href="#DejaVuSans-48"/>
       <use transform="translate(127.246094 0.78125)" xlink:href="#DejaVuSans-48"/>
      </g>
     </g>
    </g>
    <g id="ytick_6">
     <g id="line2d_53">
      <path clip-path="url(#p66cc3167b4)" d="M 20.986397 280.235045 
L 573.165354 280.235045 
" style="fill:none;stroke:#000000;stroke-linecap:square;stroke-opacity:0.05;stroke-width:0.5;"/>
     </g>
     <g id="line2d_54">
      <defs>
       <path d="M 0 0 
L 2 0 
" id="me9b5c4a2ba" style="stroke:#000000;stroke-width:0.5;"/>
      </defs>
      <g>
       <use style="stroke:#000000;stroke-width:0.5;" x="36.614103" xlink:href="#me9b5c4a2ba" y="280.235045"/>
      </g>
     </g>
    </g>
    <g id="ytick_7">
     <g id="line2d_55">
      <path clip-path="url(#p66cc3167b4)" d="M 20.986397 269.508921 
L 573.165354 269.508921 
" style="fill:none;stroke:#000000;stroke-linecap:square;stroke-opacity:0.05;stroke-width:0.5;"/>
     </g>
     <g id="line2d_56">
      <g>
       <use style="stroke:#000000;stroke-width:0.5;" x="36.614103" xlink:href="#me9b5c4a2ba" y="269.508921"/>
      </g>
     </g>
    </g>
    <g id="ytick_8">
     <g id="line2d_57">
      <path clip-path="url(#p66cc3167b4)" d="M 20.986397 248.056672 
L 573.165354 248.056672 
" style="fill:none;stroke:#000000;stroke-linecap:square;stroke-opacity:0.05;stroke-width:0.5;"/>
     </g>
     <g id="line2d_58">
      <g>
       <use style="stroke:#000000;stroke-width:0.5;" x="36.614103" xlink:href="#me9b5c4a2ba" y="248.056672"/>
      </g>
     </g>
    </g>
    <g id="ytick_9">
     <g id="line2d_59">
      <path clip-path="url(#p66cc3167b4)" d="M 20.986397 237.330547 
L 573.165354 237.330547 
" style="fill:none;stroke:#000000;stroke-linecap:square;stroke-opacity:0.05;stroke-width:0.5;"/>
     </g>
     <g id="line2d_60">
      <g>
       <use style="stroke:#000000;stroke-width:0.5;" x="36.614103" xlink:href="#me9b5c4a2ba" y="237.330547"/>
      </g>
     </g>
    </g>
    <g id="ytick_10">
     <g id="line2d_61">
      <path clip-path="url(#p66cc3167b4)" d="M 20.986397 226.604423 
L 573.165354 226.604423 
" style="fill:none;stroke:#000000;stroke-linecap:square;stroke-opacity:0.05;stroke-width:0.5;"/>
     </g>
     <g id="line2d_62">
      <g>
       <use style="stroke:#000000;stroke-width:0.5;" x="36.614103" xlink:href="#me9b5c4a2ba" y="226.604423"/>
      </g>
     </g>
    </g>
    <g id="ytick_11">
     <g id="line2d_63">
      <path clip-path="url(#p66cc3167b4)" d="M 20.986397 215.878298 
L 573.165354 215.878298 
" style="fill:none;stroke:#000000;stroke-linecap:square;stroke-opacity:0.05;stroke-width:0.5;"/>
     </g>
     <g id="line2d_64">
      <g>
       <use style="stroke:#000000;stroke-width:0.5;" x="36.614103" xlink:href="#me9b5c4a2ba" y="215.878298"/>
      </g>
     </g>
    </g>
    <g id="ytick_12">
     <g id="line2d_65">
      <path clip-path="url(#p66cc3167b4)" d="M 20.986397 194.42605 
L 573.165354 194.42605 
" style="fill:none;stroke:#000000;stroke-linecap:square;stroke-opacity:0.05;stroke-width:0.5;"/>
     </g>
     <g id="line2d_66">
      <g>
       <use style="stroke:#000000;stroke-width:0.5;" x="36.614103" xlink:href="#me9b5c4a2ba" y="194.42605"/>
      </g>
     </g>
    </g>
    <g id="ytick_13">
     <g id="line2d_67">
      <path clip-path="url(#p66cc3167b4)" d="M 20.986397 183.699925 
L 573.165354 183.699925 
" style="fill:none;stroke:#000000;stroke-linecap:square;stroke-opacity:0.05;stroke-width:0.5;"/>
     </g>
     <g id="line2d_68">
      <g>
       <use style="stroke:#000000;stroke-width:0.5;" x="36.614103" xlink:href="#me9b5c4a2ba" y="183.699925"/>
      </g>
     </g>
    </g>
    <g id="ytick_14">
     <g id="line2d_69">
      <path clip-path="url(#p66cc3167b4)" d="M 20.986397 172.973801 
L 573.165354 172.973801 
" style="fill:none;stroke:#000000;stroke-linecap:square;stroke-opacity:0.05;stroke-width:0.5;"/>
     </g>
     <g id="line2d_70">
      <g>
       <use style="stroke:#000000;stroke-width:0.5;" x="36.614103" xlink:href="#me9b5c4a2ba" y="172.973801"/>
      </g>
     </g>
    </g>
    <g id="ytick_15">
     <g id="line2d_71">
      <path clip-path="url(#p66cc3167b4)" d="M 20.986397 162.247676 
L 573.165354 162.247676 
" style="fill:none;stroke:#000000;stroke-linecap:square;stroke-opacity:0.05;stroke-width:0.5;"/>
     </g>
     <g id="line2d_72">
      <g>
       <use style="stroke:#000000;stroke-width:0.5;" x="36.614103" xlink:href="#me9b5c4a2ba" y="162.247676"/>
      </g>
     </g>
    </g>
    <g id="ytick_16">
     <g id="line2d_73">
      <path clip-path="url(#p66cc3167b4)" d="M 20.986397 140.795427 
L 573.165354 140.795427 
" style="fill:none;stroke:#000000;stroke-linecap:square;stroke-opacity:0.05;stroke-width:0.5;"/>
     </g>
     <g id="line2d_74">
      <g>
       <use style="stroke:#000000;stroke-width:0.5;" x="36.614103" xlink:href="#me9b5c4a2ba" y="140.795427"/>
      </g>
     </g>
    </g>
    <g id="ytick_17">
     <g id="line2d_75">
      <path clip-path="url(#p66cc3167b4)" d="M 20.986397 130.069303 
L 573.165354 130.069303 
" style="fill:none;stroke:#000000;stroke-linecap:square;stroke-opacity:0.05;stroke-width:0.5;"/>
     </g>
     <g id="line2d_76">
      <g>
       <use style="stroke:#000000;stroke-width:0.5;" x="36.614103" xlink:href="#me9b5c4a2ba" y="130.069303"/>
      </g>
     </g>
    </g>
    <g id="ytick_18">
     <g id="line2d_77">
      <path clip-path="url(#p66cc3167b4)" d="M 20.986397 119.343179 
L 573.165354 119.343179 
" style="fill:none;stroke:#000000;stroke-linecap:square;stroke-opacity:0.05;stroke-width:0.5;"/>
     </g>
     <g id="line2d_78">
      <g>
       <use style="stroke:#000000;stroke-width:0.5;" x="36.614103" xlink:href="#me9b5c4a2ba" y="119.343179"/>
      </g>
     </g>
    </g>
    <g id="ytick_19">
     <g id="line2d_79">
      <path clip-path="url(#p66cc3167b4)" d="M 20.986397 108.617054 
L 573.165354 108.617054 
" style="fill:none;stroke:#000000;stroke-linecap:square;stroke-opacity:0.05;stroke-width:0.5;"/>
     </g>
     <g id="line2d_80">
      <g>
       <use style="stroke:#000000;stroke-width:0.5;" x="36.614103" xlink:href="#me9b5c4a2ba" y="108.617054"/>
      </g>
     </g>
    </g>
    <g id="ytick_20">
     <g id="line2d_81">
      <path clip-path="url(#p66cc3167b4)" d="M 20.986397 87.164805 
L 573.165354 87.164805 
" style="fill:none;stroke:#000000;stroke-linecap:square;stroke-opacity:0.05;stroke-width:0.5;"/>
     </g>
     <g id="line2d_82">
      <g>
       <use style="stroke:#000000;stroke-width:0.5;" x="36.614103" xlink:href="#me9b5c4a2ba" y="87.164805"/>
      </g>
     </g>
    </g>
    <g id="ytick_21">
     <g id="line2d_83">
      <path clip-path="url(#p66cc3167b4)" d="M 20.986397 76.438681 
L 573.165354 76.438681 
" style="fill:none;stroke:#000000;stroke-linecap:square;stroke-opacity:0.05;stroke-width:0.5;"/>
     </g>
     <g id="line2d_84">
      <g>
       <use style="stroke:#000000;stroke-width:0.5;" x="36.614103" xlink:href="#me9b5c4a2ba" y="76.438681"/>
      </g>
     </g>
    </g>
    <g id="ytick_22">
     <g id="line2d_85">
      <path clip-path="url(#p66cc3167b4)" d="M 20.986397 65.712556 
L 573.165354 65.712556 
" style="fill:none;stroke:#000000;stroke-linecap:square;stroke-opacity:0.05;stroke-width:0.5;"/>
     </g>
     <g id="line2d_86">
      <g>
       <use style="stroke:#000000;stroke-width:0.5;" x="36.614103" xlink:href="#me9b5c4a2ba" y="65.712556"/>
      </g>
     </g>
    </g>
    <g id="ytick_23">
     <g id="line2d_87">
      <path clip-path="url(#p66cc3167b4)" d="M 20.986397 54.986432 
L 573.165354 54.986432 
" style="fill:none;stroke:#000000;stroke-linecap:square;stroke-opacity:0.05;stroke-width:0.5;"/>
     </g>
     <g id="line2d_88">
      <g>
       <use style="stroke:#000000;stroke-width:0.5;" x="36.614103" xlink:href="#me9b5c4a2ba" y="54.986432"/>
      </g>
     </g>
    </g>
    <g id="ytick_24">
     <g id="line2d_89">
      <path clip-path="url(#p66cc3167b4)" d="M 20.986397 33.534183 
L 573.165354 33.534183 
" style="fill:none;stroke:#000000;stroke-linecap:square;stroke-opacity:0.05;stroke-width:0.5;"/>
     </g>
     <g id="line2d_90">
      <g>
       <use style="stroke:#000000;stroke-width:0.5;" x="36.614103" xlink:href="#me9b5c4a2ba" y="33.534183"/>
      </g>
     </g>
    </g>
    <g id="ytick_25">
     <g id="line2d_91">
      <path clip-path="url(#p66cc3167b4)" d="M 20.986397 22.808059 
L 573.165354 22.808059 
" style="fill:none;stroke:#000000;stroke-linecap:square;stroke-opacity:0.05;stroke-width:0.5;"/>
     </g>
     <g id="line2d_92">
      <g>
       <use style="stroke:#000000;stroke-width:0.5;" x="36.614103" xlink:href="#me9b5c4a2ba" y="22.808059"/>
      </g>
     </g>
    </g>
    <g id="ytick_26">
     <g id="line2d_93">
      <path clip-path="url(#p66cc3167b4)" d="M 20.986397 12.081934 
L 573.165354 12.081934 
" style="fill:none;stroke:#000000;stroke-linecap:square;stroke-opacity:0.05;stroke-width:0.5;"/>
     </g>
     <g id="line2d_94">
      <g>
       <use style="stroke:#000000;stroke-width:0.5;" x="36.614103" xlink:href="#me9b5c4a2ba" y="12.081934"/>
      </g>
     </g>
    </g>
    <g id="text_12">
     <!-- Response -->
     <g transform="translate(11.546447 62.581833)rotate(-90)scale(0.11 -0.11)">
      <defs>
       <path d="M 35.890625 40.578125 
Q 41.796875 40.578125 44.359375 42.765625 
Q 46.921875 44.96875 46.921875 50 
Q 46.921875 54.984375 44.359375 57.125 
Q 41.796875 59.28125 35.890625 59.28125 
L 27.984375 59.28125 
L 27.984375 40.578125 
z
M 27.984375 27.59375 
L 27.984375 0 
L 9.1875 0 
L 9.1875 72.90625 
L 37.890625 72.90625 
Q 52.296875 72.90625 59 68.0625 
Q 65.71875 63.234375 65.71875 52.78125 
Q 65.71875 45.5625 62.21875 40.921875 
Q 58.734375 36.28125 51.703125 34.078125 
Q 55.5625 33.203125 58.609375 30.09375 
Q 61.671875 27 64.796875 20.703125 
L 75 0 
L 54.984375 0 
L 46.09375 18.109375 
Q 43.40625 23.578125 40.640625 25.578125 
Q 37.890625 27.59375 33.296875 27.59375 
z
" id="DejaVuSans-Bold-82"/>
       <path d="M 25.875 7.90625 
L 25.875 -20.796875 
L 8.40625 -20.796875 
L 8.40625 54.6875 
L 25.875 54.6875 
L 25.875 46.6875 
Q 29.5 51.46875 33.890625 53.734375 
Q 38.28125 56 44 56 
Q 54.109375 56 60.59375 47.96875 
Q 67.09375 39.9375 67.09375 27.296875 
Q 67.09375 14.65625 60.59375 6.609375 
Q 54.109375 -1.421875 44 -1.421875 
Q 38.28125 -1.421875 33.890625 0.84375 
Q 29.5 3.125 25.875 7.90625 
z
M 37.5 43.3125 
Q 31.890625 43.3125 28.875 39.1875 
Q 25.875 35.0625 25.875 27.296875 
Q 25.875 19.53125 28.875 15.40625 
Q 31.890625 11.28125 37.5 11.28125 
Q 43.109375 11.28125 46.0625 15.375 
Q 49.03125 19.484375 49.03125 27.296875 
Q 49.03125 35.109375 46.0625 39.203125 
Q 43.109375 43.3125 37.5 43.3125 
z
" id="DejaVuSans-Bold-112"/>
       <path d="M 34.421875 43.5 
Q 28.609375 43.5 25.5625 39.328125 
Q 22.515625 35.15625 22.515625 27.296875 
Q 22.515625 19.4375 25.5625 15.25 
Q 28.609375 11.078125 34.421875 11.078125 
Q 40.140625 11.078125 43.15625 15.25 
Q 46.1875 19.4375 46.1875 27.296875 
Q 46.1875 35.15625 43.15625 39.328125 
Q 40.140625 43.5 34.421875 43.5 
z
M 34.421875 56 
Q 48.53125 56 56.46875 48.375 
Q 64.40625 40.765625 64.40625 27.296875 
Q 64.40625 13.8125 56.46875 6.1875 
Q 48.53125 -1.421875 34.421875 -1.421875 
Q 20.265625 -1.421875 12.28125 6.1875 
Q 4.296875 13.8125 4.296875 27.296875 
Q 4.296875 40.765625 12.28125 48.375 
Q 20.265625 56 34.421875 56 
z
" id="DejaVuSans-Bold-111"/>
       <path d="M 63.375 33.296875 
L 63.375 0 
L 45.796875 0 
L 45.796875 5.421875 
L 45.796875 25.484375 
Q 45.796875 32.5625 45.484375 35.25 
Q 45.171875 37.9375 44.390625 39.203125 
Q 43.359375 40.921875 41.59375 41.875 
Q 39.84375 42.828125 37.59375 42.828125 
Q 32.125 42.828125 29 38.59375 
Q 25.875 34.375 25.875 26.90625 
L 25.875 0 
L 8.40625 0 
L 8.40625 54.6875 
L 25.875 54.6875 
L 25.875 46.6875 
Q 29.828125 51.46875 34.265625 53.734375 
Q 38.71875 56 44.09375 56 
Q 53.5625 56 58.46875 50.1875 
Q 63.375 44.390625 63.375 33.296875 
z
" id="DejaVuSans-Bold-110"/>
      </defs>
      <use xlink:href="#DejaVuSans-Bold-82"/>
      <use x="77.001953" xlink:href="#DejaVuSans-Bold-101"/>
      <use x="144.824219" xlink:href="#DejaVuSans-Bold-115"/>
      <use x="204.345703" xlink:href="#DejaVuSans-Bold-112"/>
      <use x="275.927734" xlink:href="#DejaVuSans-Bold-111"/>
      <use x="344.628906" xlink:href="#DejaVuSans-Bold-110"/>
      <use x="415.820312" xlink:href="#DejaVuSans-Bold-115"/>
      <use x="475.341797" xlink:href="#DejaVuSans-Bold-101"/>
     </g>
    </g>
   </g>
   <g id="line2d_95">
    <path clip-path="url(#p66cc3167b4)" d="M 36.614103 248.056672 
L 75.553138 248.056672 
L 75.683369 258.782796 
L 557.537648 258.782796 
L 557.537648 258.782796 
" style="fill:none;stroke:#009afa;stroke-width:3;"/>
   </g>
   <g id="line2d_96">
    <path clip-path="url(#p66cc3167b4)" d="M 36.614103 258.782796 
L 37.525719 258.694572 
L 38.567566 258.357149 
L 39.869875 257.657654 
L 42.474493 255.891806 
L 44.94888 254.370359 
L 47.94419 252.552283 
L 49.116268 251.569568 
L 50.158115 250.391764 
L 51.069731 249.020491 
L 52.111578 246.986082 
L 53.544118 243.561186 
L 57.451045 233.57023 
L 60.185893 224.76409 
L 61.748664 219.383581 
L 65.395129 205.282359 
L 69.302055 188.239936 
L 72.818289 171.53546 
L 75.162445 159.65194 
L 79.069372 140.189879 
L 81.67399 128.346508 
L 85.059993 114.308834 
L 88.315765 102.064276 
L 92.352922 88.501851 
L 96.780772 75.392909 
L 98.864467 69.681236 
L 100.427237 65.544873 
L 102.120239 61.792252 
L 103.81324 57.884998 
L 106.027165 52.66682 
L 107.329474 50.221503 
L 110.064323 45.279579 
L 113.320095 38.840043 
L 114.622404 36.998352 
L 117.878176 32.691551 
L 119.310716 30.224202 
L 121.264179 26.853999 
L 122.436257 25.302288 
L 123.608335 24.145944 
L 125.040875 23.073468 
L 127.905954 21.017932 
L 129.078032 19.858736 
L 130.25011 18.38043 
L 132.073343 15.619437 
L 133.505882 13.594893 
L 134.547729 12.467305 
L 135.589576 11.668162 
L 136.631424 11.158086 
L 137.673271 10.886398 
L 138.845349 10.820292 
L 140.017427 10.987866 
L 141.189505 11.400052 
L 142.231352 12.001449 
L 143.273199 12.857628 
L 144.445277 14.139785 
L 146.138278 16.405623 
L 147.701049 18.393296 
L 148.742896 19.39448 
L 149.654512 20.004275 
L 150.566128 20.37223 
L 151.477745 20.515709 
L 152.389361 20.447967 
L 153.300977 20.173117 
L 154.212593 19.68767 
L 155.25444 18.87103 
L 156.426518 17.645462 
L 160.072983 13.514378 
L 161.11483 12.825259 
L 162.026446 12.484161 
L 162.938063 12.380334 
L 163.849679 12.505322 
L 164.761295 12.854297 
L 165.803142 13.521344 
L 166.97522 14.582133 
L 168.928683 16.754934 
L 170.361223 18.195619 
L 171.40307 18.94908 
L 172.314686 19.357838 
L 173.226303 19.527399 
L 174.137919 19.462534 
L 175.049535 19.1698 
L 176.091382 18.568503 
L 177.26346 17.593227 
L 179.477385 15.3319 
L 180.779694 14.177596 
L 181.821541 13.5326 
L 182.733157 13.210896 
L 183.644774 13.122187 
L 184.55639 13.262773 
L 185.468006 13.624039 
L 186.509853 14.285155 
L 187.812162 15.401903 
L 190.677241 17.970605 
L 191.719088 18.570308 
L 192.630705 18.864047 
L 193.542321 18.932737 
L 194.453937 18.779081 
L 195.365553 18.41342 
L 196.4074 17.76357 
L 197.83994 16.581162 
L 200.184096 14.619638 
L 201.225943 14.021531 
L 202.26779 13.686563 
L 203.179406 13.624263 
L 204.091023 13.775966 
L 205.13287 14.196304 
L 206.304948 14.938012 
L 208.258411 16.516471 
L 209.821182 17.666655 
L 210.863029 18.1956 
L 211.904876 18.47164 
L 212.816492 18.492223 
L 213.728108 18.309305 
L 214.769955 17.869659 
L 216.072264 17.041349 
L 219.718729 14.498764 
L 220.760576 14.120612 
L 221.802423 13.993613 
L 222.84427 14.122832 
L 223.886117 14.492477 
L 225.058195 15.146955 
L 229.486045 17.905947 
L 230.527893 18.147661 
L 231.56974 18.145782 
L 232.611587 17.905447 
L 233.783665 17.384203 
L 235.346435 16.410117 
L 237.690591 14.948323 
L 238.862669 14.483319 
L 239.904516 14.300049 
L 240.946363 14.348566 
L 241.988211 14.619787 
L 243.160289 15.151348 
L 245.113752 16.337404 
L 246.936984 17.35457 
L 248.109062 17.763973 
L 249.150909 17.907206 
L 250.192756 17.8307 
L 251.364834 17.497466 
L 252.667143 16.881742 
L 256.57407 14.834237 
L 257.746148 14.568944 
L 258.787995 14.551528 
L 259.960073 14.775167 
L 261.262382 15.281663 
L 263.346076 16.395418 
L 265.169308 17.264255 
L 266.341386 17.594447 
L 267.513464 17.685356 
L 268.685542 17.529033 
L 269.987851 17.098929 
L 271.811084 16.212009 
L 274.025009 15.174599 
L 275.327317 14.820809 
L 276.499395 14.739954 
L 277.671473 14.892713 
L 278.973782 15.303163 
L 280.927246 16.203895 
L 283.01094 17.107209 
L 284.313249 17.430138 
L 285.485327 17.495339 
L 286.657405 17.340216 
L 287.959713 16.943424 
L 290.043408 16.031387 
L 291.996871 15.253591 
L 293.29918 14.964456 
L 294.471258 14.918663 
L 295.643336 15.080194 
L 297.075875 15.515526 
L 301.894418 17.249252 
L 303.196727 17.33737 
L 304.499036 17.18282 
L 305.931576 16.774666 
L 310.880349 15.125352 
L 312.182658 15.066017 
L 313.484967 15.234504 
L 315.047738 15.682343 
L 319.345357 17.083835 
L 320.647666 17.201255 
L 321.949975 17.101099 
L 323.382514 16.769187 
L 325.987132 15.873055 
L 327.810365 15.362687 
L 329.242904 15.19247 
L 330.545213 15.25265 
L 331.977753 15.535858 
L 334.191678 16.237821 
L 336.405603 16.875007 
L 337.838143 17.067843 
L 339.270683 17.028599 
L 340.833453 16.739335 
L 343.30784 15.992689 
L 345.391534 15.457935 
L 346.824074 15.304783 
L 348.256614 15.372019 
L 349.819384 15.670832 
L 355.289082 16.957586 
L 356.721621 16.939727 
L 358.284392 16.697379 
L 360.758779 16.041149 
L 362.972704 15.533864 
L 364.535475 15.399663 
L 366.098245 15.498505 
L 367.921478 15.859441 
L 372.219097 16.818461 
L 373.781867 16.877159 
L 375.344638 16.719105 
L 377.428332 16.267722 
L 380.553874 15.596354 
L 382.246875 15.4859 
L 383.939877 15.617349 
L 386.023571 16.029366 
L 389.409574 16.711152 
L 391.102575 16.800684 
L 392.795577 16.662732 
L 395.009502 16.236218 
L 398.135043 15.649499 
L 399.828045 15.563138 
L 401.521046 15.691539 
L 403.865202 16.119971 
L 406.860513 16.646828 
L 408.683745 16.727255 
L 410.506977 16.575039 
L 413.241826 16.077569 
L 415.846444 15.684394 
L 417.669676 15.639831 
L 419.623139 15.829938 
L 425.874222 16.66708 
L 427.827685 16.545145 
L 430.562534 16.110066 
L 433.297382 15.737854 
L 435.250846 15.703257 
L 437.33454 15.903297 
L 442.934468 16.607429 
L 444.887931 16.539065 
L 447.492549 16.195601 
L 450.878552 15.776041 
L 452.962246 15.766618 
L 455.306402 16.003314 
L 459.994714 16.547847 
L 462.078408 16.514637 
L 464.683026 16.225137 
L 468.459722 15.811345 
L 470.673647 15.825499 
L 473.278265 16.090455 
L 477.185191 16.49637 
L 479.399116 16.481506 
L 482.133965 16.214548 
L 485.910661 15.849075 
L 488.254816 15.87191 
L 491.250127 16.163215 
L 494.766361 16.465356 
L 497.110517 16.430099 
L 500.366289 16.119003 
L 503.622061 15.874872 
L 506.096448 15.929285 
L 510.263836 16.319106 
L 512.998685 16.443235 
L 515.603303 16.327042 
L 522.114847 15.903226 
L 524.849696 16.053398 
L 530.319393 16.412322 
L 533.054241 16.305639 
L 539.565786 15.93265 
L 542.561096 16.08943 
L 547.640101 16.384656 
L 550.50518 16.286731 
L 557.016724 15.958838 
L 557.537648 15.970025 
L 557.537648 15.970025 
" style="fill:none;stroke:#e36f47;stroke-width:3;"/>
   </g>
   <g id="patch_3">
    <path d="M 36.614103 284.791492 
L 36.614103 2.834646 
" style="fill:none;stroke:#000000;stroke-linecap:square;stroke-linejoin:miter;"/>
   </g>
   <g id="patch_4">
    <path d="M 20.986397 258.782796 
L 573.165354 258.782796 
" style="fill:none;stroke:#000000;stroke-linecap:square;stroke-linejoin:miter;"/>
   </g>
   <g id="line2d_97">
    <path clip-path="url(#p66cc3167b4)" d="M 36.614103 258.782796 
L 38.176874 253.999851 
L 39.08849 251.851909 
L 39.869875 250.588106 
L 40.52103 249.975907 
L 41.041953 249.758154 
L 41.562877 249.747529 
L 42.214031 249.956063 
L 43.386109 250.645687 
L 44.558187 251.27177 
L 45.339572 251.437933 
L 45.990727 251.337521 
L 46.641881 250.963476 
L 47.293036 250.258873 
L 47.94419 249.157 
L 48.595344 247.578631 
L 49.246499 245.436639 
L 50.027884 242.022046 
L 50.9395 236.92567 
L 52.37204 228.73471 
L 52.892964 226.970221 
L 53.283656 226.372544 
L 53.544118 226.303514 
L 53.80458 226.445947 
L 54.455734 227.250038 
L 54.846427 227.629922 
L 55.106889 227.685431 
L 55.367351 227.518707 
L 55.627812 227.094702 
L 56.018505 225.948643 
L 56.539429 223.562428 
L 57.841737 216.891635 
L 58.23243 216.054788 
L 58.492892 215.953781 
L 58.753354 216.151533 
L 59.795201 217.390692 
L 60.055662 217.179171 
L 60.316124 216.610464 
L 60.706817 215.117717 
L 62.009126 209.036844 
L 62.269588 208.668115 
L 62.530049 208.714052 
L 62.920742 209.303901 
L 63.441665 210.09023 
L 63.702127 210.084515 
L 63.962589 209.671798 
L 64.353282 208.294014 
L 65.52536 203.147139 
L 65.785821 202.920918 
L 66.046283 203.130509 
L 66.827669 204.430691 
L 67.08813 204.353038 
L 67.348592 203.807934 
L 67.739285 202.218576 
L 68.52067 198.691436 
L 68.781132 198.242956 
L 68.911363 198.216493 
L 69.171824 198.496586 
L 69.822979 199.715407 
L 70.083441 199.721064 
L 70.343902 199.222269 
L 70.734595 197.648967 
L 71.38575 194.740955 
L 71.646211 194.25171 
L 71.776442 194.218582 
L 72.036904 194.514442 
L 72.688058 195.769487 
L 72.818289 195.806807 
L 72.94852 195.711971 
L 73.208982 195.112335 
L 73.729906 192.790228 
L 74.120598 191.211401 
L 74.38106 190.769117 
L 74.511291 190.770086 
L 74.771753 191.138611 
L 75.422907 192.364981 
L 75.553138 192.3403 
L 75.683369 192.170724 
L 75.943831 192.262749 
L 76.204292 191.952814 
L 76.594985 191.435639 
L 76.725216 191.420094 
L 76.985678 191.798472 
L 77.37637 193.385661 
L 78.157756 197.17648 
L 78.418217 197.645942 
L 78.678679 197.606929 
L 79.590295 196.647725 
L 79.850757 197.171611 
L 80.24145 198.846697 
L 81.022835 202.534554 
L 81.283297 203.033303 
L 81.543759 203.053379 
L 81.80422 202.711641 
L 82.325144 201.821707 
L 82.585606 201.754583 
L 82.846068 202.156783 
L 83.23676 203.620907 
L 84.148376 207.871883 
L 84.408838 208.418805 
L 84.6693 208.523009 
L 84.929762 208.254115 
L 85.841378 206.831278 
L 86.10184 207.045705 
L 86.362301 207.708669 
L 86.883225 210.036063 
L 87.534379 213.008832 
L 87.925072 213.896568 
L 88.185534 213.994347 
L 88.445996 213.745548 
L 88.966919 212.674369 
L 89.357612 211.993328 
L 89.618074 211.886748 
L 89.878535 212.169621 
L 90.138997 212.854629 
L 90.659921 215.108742 
L 91.441306 218.543952 
L 91.831999 219.389248 
L 92.09246 219.516859 
L 92.352922 219.324013 
L 92.743615 218.59439 
L 93.525 216.982081 
L 93.785462 216.854161 
L 94.045924 217.075494 
L 94.306386 217.659487 
L 94.827309 219.693064 
L 95.869156 224.137078 
L 96.259849 224.939881 
L 96.520311 225.099398 
L 96.780772 224.972563 
L 97.171465 224.341239 
L 98.343543 221.81816 
L 98.604005 221.726571 
L 98.864467 221.950232 
L 99.255159 222.876889 
L 99.776083 224.947496 
L 100.81793 229.356367 
L 101.208623 230.338254 
L 101.599315 230.765281 
L 101.859777 230.740172 
L 102.120239 230.487909 
L 102.510931 229.7595 
L 103.943471 226.530341 
L 104.203933 226.439967 
L 104.464395 226.626838 
L 104.855087 227.427234 
L 105.376011 229.279895 
L 106.938782 235.472501 
L 107.329474 236.274238 
L 107.720167 236.629734 
L 107.980629 236.620262 
L 108.24109 236.424522 
L 108.631783 235.819472 
L 109.282937 234.206548 
L 110.324785 231.495608 
L 110.715477 230.989858 
L 110.975939 230.924405 
L 111.236401 231.1004 
L 111.627093 231.813362 
L 112.148017 233.469917 
L 114.361942 241.715689 
L 114.882866 242.587726 
L 115.273558 242.861927 
L 115.664251 242.817202 
L 116.054944 242.470062 
L 116.575867 241.583643 
L 117.227022 239.938754 
L 118.789792 235.665507 
L 119.180485 235.142079 
L 119.440947 235.025661 
L 119.701408 235.114044 
L 119.96187 235.410565 
L 120.352563 236.223815 
L 120.873486 237.871718 
L 122.175795 243.15448 
L 123.087411 246.411048 
L 123.868797 248.424849 
L 124.519951 249.508819 
L 125.040875 249.999914 
L 125.561798 250.172364 
L 125.952491 250.100394 
L 126.473414 249.744197 
L 126.994338 249.098359 
L 127.645492 247.899534 
L 128.426878 245.941603 
L 130.901265 239.014383 
L 131.291957 238.572128 
L 131.552419 238.48395 
L 131.812881 238.572436 
L 132.203573 239.03679 
L 132.724497 240.221255 
L 133.375651 242.38397 
L 136.501193 253.806827 
L 137.673271 256.856402 
L 141.97089 267.238237 
L 144.9662 276.05688 
L 145.487124 276.705567 
L 145.877816 276.806022 
L 146.138278 276.67587 
L 146.528971 276.188315 
L 147.049894 275.042797 
L 147.701049 272.999817 
L 149.133589 267.48823 
L 150.956821 260.824464 
L 155.384671 246.255011 
L 156.296287 243.821062 
L 156.817211 242.911286 
L 157.207904 242.547452 
L 157.598596 242.493473 
L 157.989289 242.761222 
L 158.379982 243.339988 
L 158.900905 244.538576 
L 159.68229 247.010476 
L 161.505523 253.915111 
L 163.97991 262.860325 
L 166.193835 270.242244 
L 166.97522 272.243833 
L 167.626375 273.320669 
L 168.017067 273.626459 
L 168.40776 273.645386 
L 168.798452 273.370348 
L 169.189145 272.812448 
L 169.710069 271.678221 
L 170.491454 269.344021 
L 171.923994 264.133363 
L 175.049535 252.786385 
L 176.482075 248.250725 
L 177.26346 246.377703 
L 177.784384 245.543432 
L 178.175076 245.192175 
L 178.565769 245.10197 
L 178.956462 245.282115 
L 179.347154 245.727006 
L 179.868078 246.695962 
L 180.519232 248.399086 
L 181.561079 251.835083 
L 185.988929 267.264779 
L 186.900546 269.627713 
L 187.5517 270.795407 
L 188.072624 271.309998 
L 188.463316 271.416908 
L 188.854009 271.274148 
L 189.244702 270.885622 
L 189.765625 270.014424 
L 190.41678 268.451696 
L 191.458627 265.22785 
L 196.016708 250.111975 
L 196.798093 248.367856 
L 197.449247 247.429871 
L 197.970171 247.09722 
L 198.360864 247.114037 
L 198.751556 247.361914 
L 199.27248 248.034981 
L 199.923634 249.357029 
L 200.835251 251.865275 
L 202.398021 257.0079 
L 204.742177 264.635812 
L 205.784024 267.36959 
L 206.565409 268.834534 
L 207.086333 269.426182 
L 207.477026 269.63517 
L 207.867718 269.630851 
L 208.258411 269.411617 
L 208.779335 268.799154 
L 209.430489 267.579019 
L 210.211874 265.602606 
L 211.514183 261.613322 
L 214.249032 253.086087 
L 215.290879 250.56724 
L 215.942033 249.447669 
L 216.462957 248.884064 
L 216.98388 248.657245 
L 217.374573 248.719982 
L 217.765266 248.981743 
L 218.286189 249.623871 
L 218.937344 250.839029 
L 219.84896 253.116319 
L 221.411731 257.799139 
L 223.495425 263.944944 
L 224.537272 266.359568 
L 225.318657 267.602744 
L 225.839581 268.077651 
L 226.360504 268.232373 
L 226.751197 268.130303 
L 227.27212 267.708751 
L 227.793044 266.984864 
L 228.574429 265.425672 
L 229.616276 262.737893 
L 233.392972 252.389555 
L 234.174357 250.989166 
L 234.825512 250.245473 
L 235.346435 249.975451 
L 235.737128 249.975168 
L 236.258052 250.245657 
L 236.778975 250.810882 
L 237.43013 251.882458 
L 238.341746 253.906238 
L 239.774285 257.754606 
L 241.85798 263.306842 
L 242.899827 265.44895 
L 243.550981 266.384767 
L 244.071905 266.851713 
L 244.592828 267.039887 
L 245.113752 266.937733 
L 245.634675 266.550199 
L 246.28583 265.697983 
L 247.067215 264.229744 
L 248.239293 261.427355 
L 251.234603 253.907955 
L 252.14622 252.271837 
L 252.797374 251.486857 
L 253.318298 251.135634 
L 253.839221 251.051476 
L 254.360145 251.239521 
L 254.881068 251.689971 
L 255.532223 252.58502 
L 256.313608 254.053651 
L 257.485686 256.771801 
L 260.220535 263.272074 
L 261.132151 264.836126 
L 261.783305 265.592274 
L 262.304229 265.937694 
L 262.825152 266.032948 
L 263.346076 265.872838 
L 263.866999 265.465556 
L 264.518154 264.641455 
L 265.299539 263.273747 
L 266.471617 260.717692 
L 269.206466 254.567105 
L 270.118082 253.095064 
L 270.769236 252.38755 
L 271.29016 252.066849 
L 271.811084 251.981492 
L 272.332007 252.135749 
L 272.852931 252.521819 
L 273.504085 253.300366 
L 274.28547 254.592125 
L 275.457548 257.009379 
L 278.192397 262.80906 
L 279.104013 264.175365 
L 279.755168 264.820566 
L 280.276091 265.103448 
L 280.797015 265.164275 
L 281.317938 265.000288 
L 281.838862 264.619665 
L 282.490016 263.867971 
L 283.401632 262.399076 
L 284.703941 259.7864 
L 286.917866 255.321414 
L 287.829483 253.942482 
L 288.610868 253.151069 
L 289.262022 252.824025 
L 289.782946 252.797606 
L 290.303869 252.981917 
L 290.955024 253.494042 
L 291.736409 254.470471 
L 292.778256 256.22934 
L 296.554952 263.133862 
L 297.336337 263.956003 
L 297.987492 264.336178 
L 298.508415 264.421484 
L 299.029339 264.307961 
L 299.680493 263.895873 
L 300.331648 263.212152 
L 301.243264 261.888384 
L 302.675804 259.298001 
L 304.629267 255.789704 
L 305.540883 254.546826 
L 306.322268 253.828818 
L 306.973423 253.524866 
L 307.494346 253.48959 
L 308.01527 253.640794 
L 308.666424 254.080256 
L 309.44781 254.932274 
L 310.489657 256.484972 
L 314.266352 262.638043 
L 315.047738 263.364441 
L 315.698892 263.697425 
L 316.350047 263.760096 
L 317.001201 263.549363 
L 317.652355 263.080538 
L 318.433741 262.222968 
L 319.475588 260.709885 
L 322.991822 255.263893 
L 323.773207 254.540189 
L 324.424362 254.189576 
L 325.075516 254.091708 
L 325.72667 254.251821 
L 326.377825 254.658154 
L 327.15921 255.431238 
L 328.201057 256.827939 
L 331.847522 262.142855 
L 332.628907 262.807562 
L 333.280062 263.120978 
L 333.931216 263.195377 
L 334.582371 263.027195 
L 335.233525 262.628545 
L 336.01491 261.884041 
L 337.056758 260.552272 
L 340.572991 255.689174 
L 341.354377 255.037975 
L 342.135762 254.682272 
L 342.786917 254.633624 
L 343.438071 254.81294 
L 344.089225 255.207574 
L 344.870611 255.928314 
L 345.912458 257.201399 
L 349.298461 261.639694 
L 350.210077 262.352471 
L 350.991462 262.660024 
L 351.642617 262.681787 
L 352.293771 262.489517 
L 353.075157 261.995823 
L 353.986773 261.116681 
L 355.289082 259.493837 
L 357.633238 256.524706 
L 358.544854 255.702354 
L 359.326239 255.258677 
L 359.977394 255.101731 
L 360.628548 255.147772 
L 361.279702 255.3927 
L 362.061088 255.925477 
L 363.102935 256.959426 
L 364.795936 259.049345 
L 366.358707 260.869991 
L 367.400554 261.746248 
L 368.181939 262.134923 
L 368.963325 262.257332 
L 369.614479 262.149061 
L 370.395864 261.778496 
L 371.307481 261.059507 
L 372.479559 259.814677 
L 375.344638 256.606468 
L 376.256254 255.93096 
L 377.03764 255.595347 
L 377.819025 255.513047 
L 378.60041 255.689081 
L 379.381796 256.106169 
L 380.293412 256.846735 
L 381.725952 258.359664 
L 383.939877 260.701052 
L 384.981724 261.456996 
L 385.763109 261.780328 
L 386.544494 261.865268 
L 387.32588 261.706581 
L 388.107265 261.319863 
L 389.018881 260.627333 
L 390.451421 259.204171 
L 392.665346 256.990177 
L 393.707193 256.271802 
L 394.488578 255.962144 
L 395.269964 255.876958 
L 396.051349 256.021506 
L 396.832734 256.381565 
L 397.874581 257.139541 
L 399.437352 258.632953 
L 401.390815 260.462372 
L 402.432662 261.14345 
L 403.344279 261.467519 
L 404.125664 261.514887 
L 404.907049 261.346568 
L 405.818665 260.899914 
L 406.860513 260.126377 
L 408.813976 258.316753 
L 410.376747 257.018967 
L 411.418594 256.446518 
L 412.33021 256.215042 
L 413.111595 256.23695 
L 413.89298 256.459118 
L 414.804597 256.94354 
L 415.976675 257.832704 
L 419.362678 260.604478 
L 420.404525 261.072671 
L 421.316141 261.218109 
L 422.097526 261.134018 
L 423.009142 260.804609 
L 424.05099 260.173564 
L 425.61376 258.922081 
L 427.697454 257.298155 
L 428.739301 256.755686 
L 429.650918 256.515273 
L 430.562534 256.519751 
L 431.47415 256.765962 
L 432.515997 257.30372 
L 433.948537 258.341861 
L 436.422924 260.184942 
L 437.464771 260.695666 
L 438.376387 260.921319 
L 439.288003 260.915975 
L 440.199619 260.68277 
L 441.241467 260.174636 
L 442.674006 259.194529 
L 445.148393 257.456766 
L 446.320471 256.933631 
L 447.232087 256.752916 
L 448.143704 256.79118 
L 449.05532 257.041748 
L 450.227398 257.625293 
L 451.920399 258.770736 
L 453.873863 260.038328 
L 455.04594 260.529447 
L 456.087788 260.704931 
L 456.999404 260.637065 
L 458.041251 260.319578 
L 459.213329 259.716999 
L 463.641179 257.169865 
L 464.683026 256.976206 
L 465.594642 257.01502 
L 466.636489 257.288737 
L 467.808567 257.836358 
L 470.022492 259.194986 
L 471.585263 260.028631 
L 472.757341 260.402611 
L 473.799188 260.493058 
L 474.841035 260.344389 
L 476.013113 259.922789 
L 477.575884 259.080464 
L 480.180502 257.654942 
L 481.35258 257.278082 
L 482.394427 257.168083 
L 483.436274 257.28418 
L 484.608352 257.659628 
L 486.171122 258.438812 
L 488.905971 259.853523 
L 490.078049 260.205494 
L 491.119896 260.305591 
L 492.161743 260.192503 
L 493.333821 259.835031 
L 494.896592 259.097571 
L 497.63144 257.765808 
L 498.803518 257.437403 
L 499.975596 257.349621 
L 501.147674 257.514481 
L 502.449983 257.952285 
L 504.533677 258.952319 
L 506.35691 259.749131 
L 507.659219 260.0758 
L 508.831297 260.127638 
L 510.003374 259.942876 
L 511.305683 259.505602 
L 516.254457 257.579165 
L 517.426535 257.509273 
L 518.598613 257.663766 
L 519.900922 258.059913 
L 522.245078 259.066626 
L 524.06831 259.730874 
L 525.370619 259.965791 
L 526.542697 259.956038 
L 527.845006 259.705617 
L 529.407777 259.157106 
L 532.79378 257.882509 
L 534.096088 257.665116 
L 535.268166 257.678412 
L 536.570475 257.918608 
L 538.263477 258.489143 
L 541.389018 259.606148 
L 542.691327 259.82878 
L 543.993636 259.822223 
L 545.295945 259.591786 
L 546.988946 259.05071 
L 550.114487 258.00023 
L 551.547027 257.785166 
L 552.849336 257.817791 
L 554.281876 258.091394 
L 556.235339 258.722137 
L 557.537648 259.169846 
L 557.537648 259.169846 
" style="fill:none;stroke:#3ea44e;stroke-width:3;"/>
   </g>
   <g id="legend_1">
    <g id="patch_5">
     <path d="M 24.986397 52.079646 
L 67.088897 52.079646 
L 67.088897 6.834646 
L 24.986397 6.834646 
z
" style="fill:none;opacity:0;"/>
    </g>
    <g id="line2d_98">
     <path d="M 31.386397 16.513396 
L 47.386397 16.513396 
" style="fill:none;stroke:#009afa;stroke-linejoin:miter;"/>
    </g>
    <g id="line2d_99"/>
    <g id="text_13">
     <!-- M -->
     <g transform="translate(53.786397 19.313396)scale(0.08 -0.08)">
      <defs>
       <path d="M 9.8125 72.90625 
L 24.515625 72.90625 
L 43.109375 23.296875 
L 61.8125 72.90625 
L 76.515625 72.90625 
L 76.515625 0 
L 66.890625 0 
L 66.890625 64.015625 
L 48.09375 14.015625 
L 38.1875 14.015625 
L 19.390625 64.015625 
L 19.390625 0 
L 9.8125 0 
z
" id="DejaVuSans-77"/>
      </defs>
      <use xlink:href="#DejaVuSans-77"/>
     </g>
    </g>
    <g id="line2d_100">
     <path d="M 31.386397 28.255896 
L 47.386397 28.255896 
" style="fill:none;stroke:#e36f47;stroke-linejoin:miter;"/>
    </g>
    <g id="line2d_101"/>
    <g id="text_14">
     <!-- $$ -->
     <g transform="translate(53.786397 31.055896)scale(0.08 -0.08)">
      <defs>
       <path d="M 45.515625 34.671875 
L 14.453125 34.671875 
Q 12.359375 20.0625 14.5 13.875 
Q 17.1875 6.25 24.46875 6.25 
Q 31.78125 6.25 37.359375 13.921875 
Q 42.234375 20.65625 45.515625 34.671875 
z
M 47.015625 42.96875 
Q 48.34375 56.84375 46.625 61.71875 
Q 43.953125 69.4375 36.765625 69.4375 
Q 29.296875 69.4375 23.828125 61.8125 
Q 19.53125 55.671875 16.15625 42.96875 
z
M 38.1875 76.765625 
Q 49.90625 76.765625 54.59375 66.40625 
Q 59.28125 56.109375 55.71875 37.84375 
Q 52.203125 19.625 43.453125 9.28125 
Q 34.765625 -1.125 23.046875 -1.125 
Q 11.28125 -1.125 6.640625 9.28125 
Q 2 19.625 5.515625 37.84375 
Q 9.078125 56.109375 17.71875 66.40625 
Q 26.421875 76.765625 38.1875 76.765625 
z
" id="DejaVuSans-Oblique-952"/>
      </defs>
      <use transform="translate(0 0.234375)" xlink:href="#DejaVuSans-Oblique-952"/>
     </g>
    </g>
    <g id="line2d_102">
     <path d="M 31.386397 41.215896 
L 47.386397 41.215896 
" style="fill:none;stroke:#3ea44e;stroke-linejoin:miter;"/>
    </g>
    <g id="line2d_103"/>
    <g id="text_15">
     <!-- $\dot{}$ -->
     <g transform="translate(53.786397 44.015896)scale(0.08 -0.08)">
      <defs>
       <path d="M -29.59375 75.984375 
L -20.609375 75.984375 
L -20.609375 64.59375 
L -29.59375 64.59375 
z
M -25 56 
z
" id="DejaVuSans-775"/>
      </defs>
      <use transform="translate(62.88916 34.015625)" xlink:href="#DejaVuSans-775"/>
      <use transform="translate(0 0.75)" xlink:href="#DejaVuSans-Oblique-952"/>
     </g>
    </g>
   </g>
  </g>
 </g>
 <defs>
  <clipPath id="p66cc3167b4">
   <rect height="281.956847" width="552.178958" x="20.986397" y="2.834646"/>
  </clipPath>
 </defs>
</svg>
