<?xml version="1.0" encoding="utf-8" standalone="no"?>
<!DOCTYPE svg PUBLIC "-//W3C//DTD SVG 1.1//EN"
  "http://www.w3.org/Graphics/SVG/1.1/DTD/svg11.dtd">
<!-- Created with matplotlib (https://matplotlib.org/) -->
<svg height="288pt" version="1.1" viewBox="0 0 576 288" width="576pt" xmlns="http://www.w3.org/2000/svg" xmlns:xlink="http://www.w3.org/1999/xlink">
 <metadata>
  <rdf:RDF xmlns:cc="http://creativecommons.org/ns#" xmlns:dc="http://purl.org/dc/elements/1.1/" xmlns:rdf="http://www.w3.org/1999/02/22-rdf-syntax-ns#">
   <cc:Work>
    <dc:type rdf:resource="http://purl.org/dc/dcmitype/StillImage"/>
    <dc:date>2020-11-21T10:05:13.680759</dc:date>
    <dc:format>image/svg+xml</dc:format>
    <dc:creator>
     <cc:Agent>
      <dc:title>Matplotlib v3.3.2, https://matplotlib.org/</dc:title>
     </cc:Agent>
    </dc:creator>
   </cc:Work>
  </rdf:RDF>
 </metadata>
 <defs>
  <style type="text/css">*{stroke-linecap:butt;stroke-linejoin:round;}</style>
 </defs>
 <g id="figure_1">
  <g id="patch_1">
   <path d="M 0 288 
L 576 288 
L 576 0 
L 0 0 
z
" style="fill:none;"/>
  </g>
  <g id="axes_1">
   <g id="patch_2">
    <path d="M 26.07634 266.376298 
L 573.165354 266.376298 
L 573.165354 2.834646 
L 26.07634 2.834646 
z
" style="fill:none;"/>
   </g>
   <g id="matplotlib.axis_1">
    <g id="xtick_1">
     <g id="line2d_1">
      <path clip-path="url(#pc74b15182e)" d="M 41.559992 266.376298 
L 41.559992 2.834646 
" style="fill:none;stroke:#000000;stroke-linecap:square;stroke-opacity:0.1;stroke-width:0.5;"/>
     </g>
     <g id="line2d_2">
      <defs>
       <path d="M 0 0 
L 0 -2.5 
" id="m28cb0b628a" style="stroke:#000000;stroke-width:0.5;"/>
      </defs>
      <g>
       <use style="stroke:#000000;stroke-width:0.5;" x="41.559992" xlink:href="#m28cb0b628a" y="258.917572"/>
      </g>
     </g>
     <g id="text_1">
      <!-- $\mathregular{}$ -->
      <g transform="translate(41.559992 268.496322)scale(0.08 -0.08)"/>
     </g>
    </g>
    <g id="xtick_2">
     <g id="line2d_3">
      <path clip-path="url(#pc74b15182e)" d="M 170.59042 266.376298 
L 170.59042 2.834646 
" style="fill:none;stroke:#000000;stroke-linecap:square;stroke-opacity:0.1;stroke-width:0.5;"/>
     </g>
     <g id="line2d_4">
      <g>
       <use style="stroke:#000000;stroke-width:0.5;" x="170.59042" xlink:href="#m28cb0b628a" y="258.917572"/>
      </g>
     </g>
     <g id="text_2">
      <!-- $\mathregular{10}$ -->
      <g transform="translate(165.47042 268.496322)scale(0.08 -0.08)">
       <defs>
        <path d="M 12.40625 8.296875 
L 28.515625 8.296875 
L 28.515625 63.921875 
L 10.984375 60.40625 
L 10.984375 69.390625 
L 28.421875 72.90625 
L 38.28125 72.90625 
L 38.28125 8.296875 
L 54.390625 8.296875 
L 54.390625 0 
L 12.40625 0 
z
" id="DejaVuSans-49"/>
        <path d="M 31.78125 66.40625 
Q 24.171875 66.40625 20.328125 58.90625 
Q 16.5 51.421875 16.5 36.375 
Q 16.5 21.390625 20.328125 13.890625 
Q 24.171875 6.390625 31.78125 6.390625 
Q 39.453125 6.390625 43.28125 13.890625 
Q 47.125 21.390625 47.125 36.375 
Q 47.125 51.421875 43.28125 58.90625 
Q 39.453125 66.40625 31.78125 66.40625 
z
M 31.78125 74.21875 
Q 44.046875 74.21875 50.515625 64.515625 
Q 56.984375 54.828125 56.984375 36.375 
Q 56.984375 17.96875 50.515625 8.265625 
Q 44.046875 -1.421875 31.78125 -1.421875 
Q 19.53125 -1.421875 13.0625 8.265625 
Q 6.59375 17.96875 6.59375 36.375 
Q 6.59375 54.828125 13.0625 64.515625 
Q 19.53125 74.21875 31.78125 74.21875 
z
" id="DejaVuSans-48"/>
       </defs>
       <use transform="translate(0 0.78125)" xlink:href="#DejaVuSans-49"/>
       <use transform="translate(63.623047 0.78125)" xlink:href="#DejaVuSans-48"/>
      </g>
     </g>
    </g>
    <g id="xtick_3">
     <g id="line2d_5">
      <path clip-path="url(#pc74b15182e)" d="M 299.620847 266.376298 
L 299.620847 2.834646 
" style="fill:none;stroke:#000000;stroke-linecap:square;stroke-opacity:0.1;stroke-width:0.5;"/>
     </g>
     <g id="line2d_6">
      <g>
       <use style="stroke:#000000;stroke-width:0.5;" x="299.620847" xlink:href="#m28cb0b628a" y="258.917572"/>
      </g>
     </g>
     <g id="text_3">
      <!-- $\mathregular{20}$ -->
      <g transform="translate(294.500847 268.496322)scale(0.08 -0.08)">
       <defs>
        <path d="M 19.1875 8.296875 
L 53.609375 8.296875 
L 53.609375 0 
L 7.328125 0 
L 7.328125 8.296875 
Q 12.9375 14.109375 22.625 23.890625 
Q 32.328125 33.6875 34.8125 36.53125 
Q 39.546875 41.84375 41.421875 45.53125 
Q 43.3125 49.21875 43.3125 52.78125 
Q 43.3125 58.59375 39.234375 62.25 
Q 35.15625 65.921875 28.609375 65.921875 
Q 23.96875 65.921875 18.8125 64.3125 
Q 13.671875 62.703125 7.8125 59.421875 
L 7.8125 69.390625 
Q 13.765625 71.78125 18.9375 73 
Q 24.125 74.21875 28.421875 74.21875 
Q 39.75 74.21875 46.484375 68.546875 
Q 53.21875 62.890625 53.21875 53.421875 
Q 53.21875 48.921875 51.53125 44.890625 
Q 49.859375 40.875 45.40625 35.40625 
Q 44.1875 33.984375 37.640625 27.21875 
Q 31.109375 20.453125 19.1875 8.296875 
z
" id="DejaVuSans-50"/>
       </defs>
       <use transform="translate(0 0.78125)" xlink:href="#DejaVuSans-50"/>
       <use transform="translate(63.623047 0.78125)" xlink:href="#DejaVuSans-48"/>
      </g>
     </g>
    </g>
    <g id="xtick_4">
     <g id="line2d_7">
      <path clip-path="url(#pc74b15182e)" d="M 428.651275 266.376298 
L 428.651275 2.834646 
" style="fill:none;stroke:#000000;stroke-linecap:square;stroke-opacity:0.1;stroke-width:0.5;"/>
     </g>
     <g id="line2d_8">
      <g>
       <use style="stroke:#000000;stroke-width:0.5;" x="428.651275" xlink:href="#m28cb0b628a" y="258.917572"/>
      </g>
     </g>
     <g id="text_4">
      <!-- $\mathregular{30}$ -->
      <g transform="translate(423.531275 268.496322)scale(0.08 -0.08)">
       <defs>
        <path d="M 40.578125 39.3125 
Q 47.65625 37.796875 51.625 33 
Q 55.609375 28.21875 55.609375 21.1875 
Q 55.609375 10.40625 48.1875 4.484375 
Q 40.765625 -1.421875 27.09375 -1.421875 
Q 22.515625 -1.421875 17.65625 -0.515625 
Q 12.796875 0.390625 7.625 2.203125 
L 7.625 11.71875 
Q 11.71875 9.328125 16.59375 8.109375 
Q 21.484375 6.890625 26.8125 6.890625 
Q 36.078125 6.890625 40.9375 10.546875 
Q 45.796875 14.203125 45.796875 21.1875 
Q 45.796875 27.640625 41.28125 31.265625 
Q 36.765625 34.90625 28.71875 34.90625 
L 20.21875 34.90625 
L 20.21875 43.015625 
L 29.109375 43.015625 
Q 36.375 43.015625 40.234375 45.921875 
Q 44.09375 48.828125 44.09375 54.296875 
Q 44.09375 59.90625 40.109375 62.90625 
Q 36.140625 65.921875 28.71875 65.921875 
Q 24.65625 65.921875 20.015625 65.03125 
Q 15.375 64.15625 9.8125 62.3125 
L 9.8125 71.09375 
Q 15.4375 72.65625 20.34375 73.4375 
Q 25.25 74.21875 29.59375 74.21875 
Q 40.828125 74.21875 47.359375 69.109375 
Q 53.90625 64.015625 53.90625 55.328125 
Q 53.90625 49.265625 50.4375 45.09375 
Q 46.96875 40.921875 40.578125 39.3125 
z
" id="DejaVuSans-51"/>
       </defs>
       <use transform="translate(0 0.78125)" xlink:href="#DejaVuSans-51"/>
       <use transform="translate(63.623047 0.78125)" xlink:href="#DejaVuSans-48"/>
      </g>
     </g>
    </g>
    <g id="xtick_5">
     <g id="line2d_9">
      <path clip-path="url(#pc74b15182e)" d="M 557.681703 266.376298 
L 557.681703 2.834646 
" style="fill:none;stroke:#000000;stroke-linecap:square;stroke-opacity:0.1;stroke-width:0.5;"/>
     </g>
     <g id="line2d_10">
      <g>
       <use style="stroke:#000000;stroke-width:0.5;" x="557.681703" xlink:href="#m28cb0b628a" y="258.917572"/>
      </g>
     </g>
     <g id="text_5">
      <!-- $\mathregular{40}$ -->
      <g transform="translate(552.561703 268.496322)scale(0.08 -0.08)">
       <defs>
        <path d="M 37.796875 64.3125 
L 12.890625 25.390625 
L 37.796875 25.390625 
z
M 35.203125 72.90625 
L 47.609375 72.90625 
L 47.609375 25.390625 
L 58.015625 25.390625 
L 58.015625 17.1875 
L 47.609375 17.1875 
L 47.609375 0 
L 37.796875 0 
L 37.796875 17.1875 
L 4.890625 17.1875 
L 4.890625 26.703125 
z
" id="DejaVuSans-52"/>
       </defs>
       <use transform="translate(0 0.78125)" xlink:href="#DejaVuSans-52"/>
       <use transform="translate(63.623047 0.78125)" xlink:href="#DejaVuSans-48"/>
      </g>
     </g>
    </g>
    <g id="xtick_6">
     <g id="line2d_11">
      <path clip-path="url(#pc74b15182e)" d="M 67.366077 266.376298 
L 67.366077 2.834646 
" style="fill:none;stroke:#000000;stroke-linecap:square;stroke-opacity:0.05;stroke-width:0.5;"/>
     </g>
     <g id="line2d_12">
      <defs>
       <path d="M 0 0 
L 0 -2 
" id="m05a03248a6" style="stroke:#000000;stroke-width:0.5;"/>
      </defs>
      <g>
       <use style="stroke:#000000;stroke-width:0.5;" x="67.366077" xlink:href="#m05a03248a6" y="258.917572"/>
      </g>
     </g>
    </g>
    <g id="xtick_7">
     <g id="line2d_13">
      <path clip-path="url(#pc74b15182e)" d="M 93.172163 266.376298 
L 93.172163 2.834646 
" style="fill:none;stroke:#000000;stroke-linecap:square;stroke-opacity:0.05;stroke-width:0.5;"/>
     </g>
     <g id="line2d_14">
      <g>
       <use style="stroke:#000000;stroke-width:0.5;" x="93.172163" xlink:href="#m05a03248a6" y="258.917572"/>
      </g>
     </g>
    </g>
    <g id="xtick_8">
     <g id="line2d_15">
      <path clip-path="url(#pc74b15182e)" d="M 118.978248 266.376298 
L 118.978248 2.834646 
" style="fill:none;stroke:#000000;stroke-linecap:square;stroke-opacity:0.05;stroke-width:0.5;"/>
     </g>
     <g id="line2d_16">
      <g>
       <use style="stroke:#000000;stroke-width:0.5;" x="118.978248" xlink:href="#m05a03248a6" y="258.917572"/>
      </g>
     </g>
    </g>
    <g id="xtick_9">
     <g id="line2d_17">
      <path clip-path="url(#pc74b15182e)" d="M 144.784334 266.376298 
L 144.784334 2.834646 
" style="fill:none;stroke:#000000;stroke-linecap:square;stroke-opacity:0.05;stroke-width:0.5;"/>
     </g>
     <g id="line2d_18">
      <g>
       <use style="stroke:#000000;stroke-width:0.5;" x="144.784334" xlink:href="#m05a03248a6" y="258.917572"/>
      </g>
     </g>
    </g>
    <g id="xtick_10">
     <g id="line2d_19">
      <path clip-path="url(#pc74b15182e)" d="M 196.396505 266.376298 
L 196.396505 2.834646 
" style="fill:none;stroke:#000000;stroke-linecap:square;stroke-opacity:0.05;stroke-width:0.5;"/>
     </g>
     <g id="line2d_20">
      <g>
       <use style="stroke:#000000;stroke-width:0.5;" x="196.396505" xlink:href="#m05a03248a6" y="258.917572"/>
      </g>
     </g>
    </g>
    <g id="xtick_11">
     <g id="line2d_21">
      <path clip-path="url(#pc74b15182e)" d="M 222.202591 266.376298 
L 222.202591 2.834646 
" style="fill:none;stroke:#000000;stroke-linecap:square;stroke-opacity:0.05;stroke-width:0.5;"/>
     </g>
     <g id="line2d_22">
      <g>
       <use style="stroke:#000000;stroke-width:0.5;" x="222.202591" xlink:href="#m05a03248a6" y="258.917572"/>
      </g>
     </g>
    </g>
    <g id="xtick_12">
     <g id="line2d_23">
      <path clip-path="url(#pc74b15182e)" d="M 248.008676 266.376298 
L 248.008676 2.834646 
" style="fill:none;stroke:#000000;stroke-linecap:square;stroke-opacity:0.05;stroke-width:0.5;"/>
     </g>
     <g id="line2d_24">
      <g>
       <use style="stroke:#000000;stroke-width:0.5;" x="248.008676" xlink:href="#m05a03248a6" y="258.917572"/>
      </g>
     </g>
    </g>
    <g id="xtick_13">
     <g id="line2d_25">
      <path clip-path="url(#pc74b15182e)" d="M 273.814762 266.376298 
L 273.814762 2.834646 
" style="fill:none;stroke:#000000;stroke-linecap:square;stroke-opacity:0.05;stroke-width:0.5;"/>
     </g>
     <g id="line2d_26">
      <g>
       <use style="stroke:#000000;stroke-width:0.5;" x="273.814762" xlink:href="#m05a03248a6" y="258.917572"/>
      </g>
     </g>
    </g>
    <g id="xtick_14">
     <g id="line2d_27">
      <path clip-path="url(#pc74b15182e)" d="M 325.426933 266.376298 
L 325.426933 2.834646 
" style="fill:none;stroke:#000000;stroke-linecap:square;stroke-opacity:0.05;stroke-width:0.5;"/>
     </g>
     <g id="line2d_28">
      <g>
       <use style="stroke:#000000;stroke-width:0.5;" x="325.426933" xlink:href="#m05a03248a6" y="258.917572"/>
      </g>
     </g>
    </g>
    <g id="xtick_15">
     <g id="line2d_29">
      <path clip-path="url(#pc74b15182e)" d="M 351.233018 266.376298 
L 351.233018 2.834646 
" style="fill:none;stroke:#000000;stroke-linecap:square;stroke-opacity:0.05;stroke-width:0.5;"/>
     </g>
     <g id="line2d_30">
      <g>
       <use style="stroke:#000000;stroke-width:0.5;" x="351.233018" xlink:href="#m05a03248a6" y="258.917572"/>
      </g>
     </g>
    </g>
    <g id="xtick_16">
     <g id="line2d_31">
      <path clip-path="url(#pc74b15182e)" d="M 377.039104 266.376298 
L 377.039104 2.834646 
" style="fill:none;stroke:#000000;stroke-linecap:square;stroke-opacity:0.05;stroke-width:0.5;"/>
     </g>
     <g id="line2d_32">
      <g>
       <use style="stroke:#000000;stroke-width:0.5;" x="377.039104" xlink:href="#m05a03248a6" y="258.917572"/>
      </g>
     </g>
    </g>
    <g id="xtick_17">
     <g id="line2d_33">
      <path clip-path="url(#pc74b15182e)" d="M 402.84519 266.376298 
L 402.84519 2.834646 
" style="fill:none;stroke:#000000;stroke-linecap:square;stroke-opacity:0.05;stroke-width:0.5;"/>
     </g>
     <g id="line2d_34">
      <g>
       <use style="stroke:#000000;stroke-width:0.5;" x="402.84519" xlink:href="#m05a03248a6" y="258.917572"/>
      </g>
     </g>
    </g>
    <g id="xtick_18">
     <g id="line2d_35">
      <path clip-path="url(#pc74b15182e)" d="M 454.457361 266.376298 
L 454.457361 2.834646 
" style="fill:none;stroke:#000000;stroke-linecap:square;stroke-opacity:0.05;stroke-width:0.5;"/>
     </g>
     <g id="line2d_36">
      <g>
       <use style="stroke:#000000;stroke-width:0.5;" x="454.457361" xlink:href="#m05a03248a6" y="258.917572"/>
      </g>
     </g>
    </g>
    <g id="xtick_19">
     <g id="line2d_37">
      <path clip-path="url(#pc74b15182e)" d="M 480.263446 266.376298 
L 480.263446 2.834646 
" style="fill:none;stroke:#000000;stroke-linecap:square;stroke-opacity:0.05;stroke-width:0.5;"/>
     </g>
     <g id="line2d_38">
      <g>
       <use style="stroke:#000000;stroke-width:0.5;" x="480.263446" xlink:href="#m05a03248a6" y="258.917572"/>
      </g>
     </g>
    </g>
    <g id="xtick_20">
     <g id="line2d_39">
      <path clip-path="url(#pc74b15182e)" d="M 506.069532 266.376298 
L 506.069532 2.834646 
" style="fill:none;stroke:#000000;stroke-linecap:square;stroke-opacity:0.05;stroke-width:0.5;"/>
     </g>
     <g id="line2d_40">
      <g>
       <use style="stroke:#000000;stroke-width:0.5;" x="506.069532" xlink:href="#m05a03248a6" y="258.917572"/>
      </g>
     </g>
    </g>
    <g id="xtick_21">
     <g id="line2d_41">
      <path clip-path="url(#pc74b15182e)" d="M 531.875617 266.376298 
L 531.875617 2.834646 
" style="fill:none;stroke:#000000;stroke-linecap:square;stroke-opacity:0.05;stroke-width:0.5;"/>
     </g>
     <g id="line2d_42">
      <g>
       <use style="stroke:#000000;stroke-width:0.5;" x="531.875617" xlink:href="#m05a03248a6" y="258.917572"/>
      </g>
     </g>
    </g>
    <g id="text_6">
     <!-- Time (s) -->
     <g transform="translate(522.536136 282.518353)scale(0.11 -0.11)">
      <defs>
       <path d="M 0.484375 72.90625 
L 67.671875 72.90625 
L 67.671875 58.6875 
L 43.5 58.6875 
L 43.5 0 
L 24.703125 0 
L 24.703125 58.6875 
L 0.484375 58.6875 
z
" id="DejaVuSans-Bold-84"/>
       <path d="M 8.40625 54.6875 
L 25.875 54.6875 
L 25.875 0 
L 8.40625 0 
z
M 8.40625 75.984375 
L 25.875 75.984375 
L 25.875 61.71875 
L 8.40625 61.71875 
z
" id="DejaVuSans-Bold-105"/>
       <path d="M 59.078125 45.609375 
Q 62.40625 50.6875 66.96875 53.34375 
Q 71.53125 56 77 56 
Q 86.421875 56 91.359375 50.1875 
Q 96.296875 44.390625 96.296875 33.296875 
L 96.296875 0 
L 78.71875 0 
L 78.71875 28.515625 
Q 78.765625 29.15625 78.78125 29.828125 
Q 78.8125 30.515625 78.8125 31.78125 
Q 78.8125 37.59375 77.09375 40.203125 
Q 75.390625 42.828125 71.578125 42.828125 
Q 66.609375 42.828125 63.890625 38.71875 
Q 61.1875 34.625 61.078125 26.859375 
L 61.078125 0 
L 43.5 0 
L 43.5 28.515625 
Q 43.5 37.59375 41.9375 40.203125 
Q 40.375 42.828125 36.375 42.828125 
Q 31.34375 42.828125 28.609375 38.703125 
Q 25.875 34.578125 25.875 26.90625 
L 25.875 0 
L 8.296875 0 
L 8.296875 54.6875 
L 25.875 54.6875 
L 25.875 46.6875 
Q 29.109375 51.3125 33.28125 53.65625 
Q 37.453125 56 42.484375 56 
Q 48.140625 56 52.484375 53.265625 
Q 56.84375 50.53125 59.078125 45.609375 
z
" id="DejaVuSans-Bold-109"/>
       <path d="M 62.984375 27.484375 
L 62.984375 22.515625 
L 22.125 22.515625 
Q 22.75 16.359375 26.5625 13.28125 
Q 30.375 10.203125 37.203125 10.203125 
Q 42.71875 10.203125 48.5 11.84375 
Q 54.296875 13.484375 60.40625 16.796875 
L 60.40625 3.328125 
Q 54.203125 0.984375 48 -0.21875 
Q 41.796875 -1.421875 35.59375 -1.421875 
Q 20.75 -1.421875 12.515625 6.125 
Q 4.296875 13.671875 4.296875 27.296875 
Q 4.296875 40.671875 12.375 48.328125 
Q 20.453125 56 34.625 56 
Q 47.515625 56 55.25 48.234375 
Q 62.984375 40.484375 62.984375 27.484375 
z
M 45.015625 33.296875 
Q 45.015625 38.28125 42.109375 41.328125 
Q 39.203125 44.390625 34.515625 44.390625 
Q 29.4375 44.390625 26.265625 41.53125 
Q 23.09375 38.671875 22.3125 33.296875 
z
" id="DejaVuSans-Bold-101"/>
       <path id="DejaVuSans-Bold-32"/>
       <path d="M 37.703125 -13.1875 
L 23.1875 -13.1875 
Q 15.71875 -1.125 12.15625 9.734375 
Q 8.59375 20.609375 8.59375 31.296875 
Q 8.59375 42 12.171875 52.953125 
Q 15.765625 63.921875 23.1875 75.875 
L 37.703125 75.875 
Q 31.453125 64.3125 28.328125 53.25 
Q 25.203125 42.1875 25.203125 31.390625 
Q 25.203125 20.609375 28.296875 9.515625 
Q 31.390625 -1.5625 37.703125 -13.1875 
z
" id="DejaVuSans-Bold-40"/>
       <path d="M 51.125 52.984375 
L 51.125 39.703125 
Q 45.515625 42.046875 40.28125 43.21875 
Q 35.0625 44.390625 30.421875 44.390625 
Q 25.4375 44.390625 23.015625 43.140625 
Q 20.609375 41.890625 20.609375 39.3125 
Q 20.609375 37.203125 22.4375 36.078125 
Q 24.265625 34.96875 29 34.421875 
L 32.078125 33.984375 
Q 45.515625 32.28125 50.140625 28.375 
Q 54.78125 24.46875 54.78125 16.109375 
Q 54.78125 7.375 48.328125 2.96875 
Q 41.890625 -1.421875 29.109375 -1.421875 
Q 23.6875 -1.421875 17.890625 -0.5625 
Q 12.109375 0.296875 6 2 
L 6 15.28125 
Q 11.234375 12.75 16.71875 11.46875 
Q 22.21875 10.203125 27.875 10.203125 
Q 33.015625 10.203125 35.59375 11.609375 
Q 38.1875 13.03125 38.1875 15.828125 
Q 38.1875 18.171875 36.40625 19.3125 
Q 34.625 20.453125 29.296875 21.09375 
L 26.21875 21.484375 
Q 14.546875 22.953125 9.859375 26.90625 
Q 5.171875 30.859375 5.171875 38.921875 
Q 5.171875 47.609375 11.125 51.796875 
Q 17.09375 56 29.390625 56 
Q 34.234375 56 39.546875 55.265625 
Q 44.875 54.546875 51.125 52.984375 
z
" id="DejaVuSans-Bold-115"/>
       <path d="M 8.015625 -13.1875 
Q 14.265625 -1.5625 17.390625 9.515625 
Q 20.515625 20.609375 20.515625 31.390625 
Q 20.515625 42.1875 17.390625 53.25 
Q 14.265625 64.3125 8.015625 75.875 
L 22.515625 75.875 
Q 29.9375 63.921875 33.515625 52.953125 
Q 37.109375 42 37.109375 31.296875 
Q 37.109375 20.609375 33.546875 9.734375 
Q 29.984375 -1.125 22.515625 -13.1875 
z
" id="DejaVuSans-Bold-41"/>
      </defs>
      <use xlink:href="#DejaVuSans-Bold-84"/>
      <use x="68.212891" xlink:href="#DejaVuSans-Bold-105"/>
      <use x="102.490234" xlink:href="#DejaVuSans-Bold-109"/>
      <use x="206.689453" xlink:href="#DejaVuSans-Bold-101"/>
      <use x="274.511719" xlink:href="#DejaVuSans-Bold-32"/>
      <use x="309.326172" xlink:href="#DejaVuSans-Bold-40"/>
      <use x="355.029297" xlink:href="#DejaVuSans-Bold-115"/>
      <use x="414.550781" xlink:href="#DejaVuSans-Bold-41"/>
     </g>
    </g>
   </g>
   <g id="matplotlib.axis_2">
    <g id="ytick_1">
     <g id="line2d_43">
      <path clip-path="url(#pc74b15182e)" d="M 26.07634 258.917572 
L 573.165354 258.917572 
" style="fill:none;stroke:#000000;stroke-linecap:square;stroke-opacity:0.1;stroke-width:0.5;"/>
     </g>
     <g id="line2d_44">
      <defs>
       <path d="M 0 0 
L 2.5 0 
" id="m7274dcb4d9" style="stroke:#000000;stroke-width:0.5;"/>
      </defs>
      <g>
       <use style="stroke:#000000;stroke-width:0.5;" x="41.559992" xlink:href="#m7274dcb4d9" y="258.917572"/>
      </g>
     </g>
     <g id="text_7">
      <!-- $\mathregular{}$ -->
      <g transform="translate(38.059992 261.956947)scale(0.08 -0.08)"/>
     </g>
    </g>
    <g id="ytick_2">
     <g id="line2d_45">
      <path clip-path="url(#pc74b15182e)" d="M 26.07634 197.208006 
L 573.165354 197.208006 
" style="fill:none;stroke:#000000;stroke-linecap:square;stroke-opacity:0.1;stroke-width:0.5;"/>
     </g>
     <g id="line2d_46">
      <g>
       <use style="stroke:#000000;stroke-width:0.5;" x="41.559992" xlink:href="#m7274dcb4d9" y="197.208006"/>
      </g>
     </g>
     <g id="text_8">
      <!-- $\mathregular{500}$ -->
      <g transform="translate(22.779992 200.247381)scale(0.08 -0.08)">
       <defs>
        <path d="M 10.796875 72.90625 
L 49.515625 72.90625 
L 49.515625 64.59375 
L 19.828125 64.59375 
L 19.828125 46.734375 
Q 21.96875 47.46875 24.109375 47.828125 
Q 26.265625 48.1875 28.421875 48.1875 
Q 40.625 48.1875 47.75 41.5 
Q 54.890625 34.8125 54.890625 23.390625 
Q 54.890625 11.625 47.5625 5.09375 
Q 40.234375 -1.421875 26.90625 -1.421875 
Q 22.3125 -1.421875 17.546875 -0.640625 
Q 12.796875 0.140625 7.71875 1.703125 
L 7.71875 11.625 
Q 12.109375 9.234375 16.796875 8.0625 
Q 21.484375 6.890625 26.703125 6.890625 
Q 35.15625 6.890625 40.078125 11.328125 
Q 45.015625 15.765625 45.015625 23.390625 
Q 45.015625 31 40.078125 35.4375 
Q 35.15625 39.890625 26.703125 39.890625 
Q 22.75 39.890625 18.8125 39.015625 
Q 14.890625 38.140625 10.796875 36.28125 
z
" id="DejaVuSans-53"/>
       </defs>
       <use transform="translate(0 0.78125)" xlink:href="#DejaVuSans-53"/>
       <use transform="translate(63.623047 0.78125)" xlink:href="#DejaVuSans-48"/>
       <use transform="translate(127.246094 0.78125)" xlink:href="#DejaVuSans-48"/>
      </g>
     </g>
    </g>
    <g id="ytick_3">
     <g id="line2d_47">
      <path clip-path="url(#pc74b15182e)" d="M 26.07634 135.498441 
L 573.165354 135.498441 
" style="fill:none;stroke:#000000;stroke-linecap:square;stroke-opacity:0.1;stroke-width:0.5;"/>
     </g>
     <g id="line2d_48">
      <g>
       <use style="stroke:#000000;stroke-width:0.5;" x="41.559992" xlink:href="#m7274dcb4d9" y="135.498441"/>
      </g>
     </g>
     <g id="text_9">
      <!-- $\mathregular{1000}$ -->
      <g transform="translate(17.659992 138.537816)scale(0.08 -0.08)">
       <use transform="translate(0 0.78125)" xlink:href="#DejaVuSans-49"/>
       <use transform="translate(63.623047 0.78125)" xlink:href="#DejaVuSans-48"/>
       <use transform="translate(127.246094 0.78125)" xlink:href="#DejaVuSans-48"/>
       <use transform="translate(190.869141 0.78125)" xlink:href="#DejaVuSans-48"/>
      </g>
     </g>
    </g>
    <g id="ytick_4">
     <g id="line2d_49">
      <path clip-path="url(#pc74b15182e)" d="M 26.07634 73.788876 
L 573.165354 73.788876 
" style="fill:none;stroke:#000000;stroke-linecap:square;stroke-opacity:0.1;stroke-width:0.5;"/>
     </g>
     <g id="line2d_50">
      <g>
       <use style="stroke:#000000;stroke-width:0.5;" x="41.559992" xlink:href="#m7274dcb4d9" y="73.788876"/>
      </g>
     </g>
     <g id="text_10">
      <!-- $\mathregular{1500}$ -->
      <g transform="translate(17.659992 76.828251)scale(0.08 -0.08)">
       <use transform="translate(0 0.78125)" xlink:href="#DejaVuSans-49"/>
       <use transform="translate(63.623047 0.78125)" xlink:href="#DejaVuSans-53"/>
       <use transform="translate(127.246094 0.78125)" xlink:href="#DejaVuSans-48"/>
       <use transform="translate(190.869141 0.78125)" xlink:href="#DejaVuSans-48"/>
      </g>
     </g>
    </g>
    <g id="ytick_5">
     <g id="line2d_51">
      <path clip-path="url(#pc74b15182e)" d="M 26.07634 12.079311 
L 573.165354 12.079311 
" style="fill:none;stroke:#000000;stroke-linecap:square;stroke-opacity:0.1;stroke-width:0.5;"/>
     </g>
     <g id="line2d_52">
      <g>
       <use style="stroke:#000000;stroke-width:0.5;" x="41.559992" xlink:href="#m7274dcb4d9" y="12.079311"/>
      </g>
     </g>
     <g id="text_11">
      <!-- $\mathregular{2000}$ -->
      <g transform="translate(17.659992 15.118686)scale(0.08 -0.08)">
       <use transform="translate(0 0.78125)" xlink:href="#DejaVuSans-50"/>
       <use transform="translate(63.623047 0.78125)" xlink:href="#DejaVuSans-48"/>
       <use transform="translate(127.246094 0.78125)" xlink:href="#DejaVuSans-48"/>
       <use transform="translate(190.869141 0.78125)" xlink:href="#DejaVuSans-48"/>
      </g>
     </g>
    </g>
    <g id="ytick_6">
     <g id="line2d_53">
      <path clip-path="url(#pc74b15182e)" d="M 26.07634 246.575659 
L 573.165354 246.575659 
" style="fill:none;stroke:#000000;stroke-linecap:square;stroke-opacity:0.05;stroke-width:0.5;"/>
     </g>
     <g id="line2d_54">
      <defs>
       <path d="M 0 0 
L 2 0 
" id="m28fd648002" style="stroke:#000000;stroke-width:0.5;"/>
      </defs>
      <g>
       <use style="stroke:#000000;stroke-width:0.5;" x="41.559992" xlink:href="#m28fd648002" y="246.575659"/>
      </g>
     </g>
    </g>
    <g id="ytick_7">
     <g id="line2d_55">
      <path clip-path="url(#pc74b15182e)" d="M 26.07634 234.233746 
L 573.165354 234.233746 
" style="fill:none;stroke:#000000;stroke-linecap:square;stroke-opacity:0.05;stroke-width:0.5;"/>
     </g>
     <g id="line2d_56">
      <g>
       <use style="stroke:#000000;stroke-width:0.5;" x="41.559992" xlink:href="#m28fd648002" y="234.233746"/>
      </g>
     </g>
    </g>
    <g id="ytick_8">
     <g id="line2d_57">
      <path clip-path="url(#pc74b15182e)" d="M 26.07634 221.891833 
L 573.165354 221.891833 
" style="fill:none;stroke:#000000;stroke-linecap:square;stroke-opacity:0.05;stroke-width:0.5;"/>
     </g>
     <g id="line2d_58">
      <g>
       <use style="stroke:#000000;stroke-width:0.5;" x="41.559992" xlink:href="#m28fd648002" y="221.891833"/>
      </g>
     </g>
    </g>
    <g id="ytick_9">
     <g id="line2d_59">
      <path clip-path="url(#pc74b15182e)" d="M 26.07634 209.549919 
L 573.165354 209.549919 
" style="fill:none;stroke:#000000;stroke-linecap:square;stroke-opacity:0.05;stroke-width:0.5;"/>
     </g>
     <g id="line2d_60">
      <g>
       <use style="stroke:#000000;stroke-width:0.5;" x="41.559992" xlink:href="#m28fd648002" y="209.549919"/>
      </g>
     </g>
    </g>
    <g id="ytick_10">
     <g id="line2d_61">
      <path clip-path="url(#pc74b15182e)" d="M 26.07634 184.866093 
L 573.165354 184.866093 
" style="fill:none;stroke:#000000;stroke-linecap:square;stroke-opacity:0.05;stroke-width:0.5;"/>
     </g>
     <g id="line2d_62">
      <g>
       <use style="stroke:#000000;stroke-width:0.5;" x="41.559992" xlink:href="#m28fd648002" y="184.866093"/>
      </g>
     </g>
    </g>
    <g id="ytick_11">
     <g id="line2d_63">
      <path clip-path="url(#pc74b15182e)" d="M 26.07634 172.52418 
L 573.165354 172.52418 
" style="fill:none;stroke:#000000;stroke-linecap:square;stroke-opacity:0.05;stroke-width:0.5;"/>
     </g>
     <g id="line2d_64">
      <g>
       <use style="stroke:#000000;stroke-width:0.5;" x="41.559992" xlink:href="#m28fd648002" y="172.52418"/>
      </g>
     </g>
    </g>
    <g id="ytick_12">
     <g id="line2d_65">
      <path clip-path="url(#pc74b15182e)" d="M 26.07634 160.182267 
L 573.165354 160.182267 
" style="fill:none;stroke:#000000;stroke-linecap:square;stroke-opacity:0.05;stroke-width:0.5;"/>
     </g>
     <g id="line2d_66">
      <g>
       <use style="stroke:#000000;stroke-width:0.5;" x="41.559992" xlink:href="#m28fd648002" y="160.182267"/>
      </g>
     </g>
    </g>
    <g id="ytick_13">
     <g id="line2d_67">
      <path clip-path="url(#pc74b15182e)" d="M 26.07634 147.840354 
L 573.165354 147.840354 
" style="fill:none;stroke:#000000;stroke-linecap:square;stroke-opacity:0.05;stroke-width:0.5;"/>
     </g>
     <g id="line2d_68">
      <g>
       <use style="stroke:#000000;stroke-width:0.5;" x="41.559992" xlink:href="#m28fd648002" y="147.840354"/>
      </g>
     </g>
    </g>
    <g id="ytick_14">
     <g id="line2d_69">
      <path clip-path="url(#pc74b15182e)" d="M 26.07634 123.156528 
L 573.165354 123.156528 
" style="fill:none;stroke:#000000;stroke-linecap:square;stroke-opacity:0.05;stroke-width:0.5;"/>
     </g>
     <g id="line2d_70">
      <g>
       <use style="stroke:#000000;stroke-width:0.5;" x="41.559992" xlink:href="#m28fd648002" y="123.156528"/>
      </g>
     </g>
    </g>
    <g id="ytick_15">
     <g id="line2d_71">
      <path clip-path="url(#pc74b15182e)" d="M 26.07634 110.814615 
L 573.165354 110.814615 
" style="fill:none;stroke:#000000;stroke-linecap:square;stroke-opacity:0.05;stroke-width:0.5;"/>
     </g>
     <g id="line2d_72">
      <g>
       <use style="stroke:#000000;stroke-width:0.5;" x="41.559992" xlink:href="#m28fd648002" y="110.814615"/>
      </g>
     </g>
    </g>
    <g id="ytick_16">
     <g id="line2d_73">
      <path clip-path="url(#pc74b15182e)" d="M 26.07634 98.472702 
L 573.165354 98.472702 
" style="fill:none;stroke:#000000;stroke-linecap:square;stroke-opacity:0.05;stroke-width:0.5;"/>
     </g>
     <g id="line2d_74">
      <g>
       <use style="stroke:#000000;stroke-width:0.5;" x="41.559992" xlink:href="#m28fd648002" y="98.472702"/>
      </g>
     </g>
    </g>
    <g id="ytick_17">
     <g id="line2d_75">
      <path clip-path="url(#pc74b15182e)" d="M 26.07634 86.130789 
L 573.165354 86.130789 
" style="fill:none;stroke:#000000;stroke-linecap:square;stroke-opacity:0.05;stroke-width:0.5;"/>
     </g>
     <g id="line2d_76">
      <g>
       <use style="stroke:#000000;stroke-width:0.5;" x="41.559992" xlink:href="#m28fd648002" y="86.130789"/>
      </g>
     </g>
    </g>
    <g id="ytick_18">
     <g id="line2d_77">
      <path clip-path="url(#pc74b15182e)" d="M 26.07634 61.446963 
L 573.165354 61.446963 
" style="fill:none;stroke:#000000;stroke-linecap:square;stroke-opacity:0.05;stroke-width:0.5;"/>
     </g>
     <g id="line2d_78">
      <g>
       <use style="stroke:#000000;stroke-width:0.5;" x="41.559992" xlink:href="#m28fd648002" y="61.446963"/>
      </g>
     </g>
    </g>
    <g id="ytick_19">
     <g id="line2d_79">
      <path clip-path="url(#pc74b15182e)" d="M 26.07634 49.10505 
L 573.165354 49.10505 
" style="fill:none;stroke:#000000;stroke-linecap:square;stroke-opacity:0.05;stroke-width:0.5;"/>
     </g>
     <g id="line2d_80">
      <g>
       <use style="stroke:#000000;stroke-width:0.5;" x="41.559992" xlink:href="#m28fd648002" y="49.10505"/>
      </g>
     </g>
    </g>
    <g id="ytick_20">
     <g id="line2d_81">
      <path clip-path="url(#pc74b15182e)" d="M 26.07634 36.763137 
L 573.165354 36.763137 
" style="fill:none;stroke:#000000;stroke-linecap:square;stroke-opacity:0.05;stroke-width:0.5;"/>
     </g>
     <g id="line2d_82">
      <g>
       <use style="stroke:#000000;stroke-width:0.5;" x="41.559992" xlink:href="#m28fd648002" y="36.763137"/>
      </g>
     </g>
    </g>
    <g id="ytick_21">
     <g id="line2d_83">
      <path clip-path="url(#pc74b15182e)" d="M 26.07634 24.421224 
L 573.165354 24.421224 
" style="fill:none;stroke:#000000;stroke-linecap:square;stroke-opacity:0.05;stroke-width:0.5;"/>
     </g>
     <g id="line2d_84">
      <g>
       <use style="stroke:#000000;stroke-width:0.5;" x="41.559992" xlink:href="#m28fd648002" y="24.421224"/>
      </g>
     </g>
    </g>
    <g id="text_12">
     <!-- Response -->
     <g transform="translate(11.372336 62.581833)rotate(-90)scale(0.11 -0.11)">
      <defs>
       <path d="M 35.890625 40.578125 
Q 41.796875 40.578125 44.359375 42.765625 
Q 46.921875 44.96875 46.921875 50 
Q 46.921875 54.984375 44.359375 57.125 
Q 41.796875 59.28125 35.890625 59.28125 
L 27.984375 59.28125 
L 27.984375 40.578125 
z
M 27.984375 27.59375 
L 27.984375 0 
L 9.1875 0 
L 9.1875 72.90625 
L 37.890625 72.90625 
Q 52.296875 72.90625 59 68.0625 
Q 65.71875 63.234375 65.71875 52.78125 
Q 65.71875 45.5625 62.21875 40.921875 
Q 58.734375 36.28125 51.703125 34.078125 
Q 55.5625 33.203125 58.609375 30.09375 
Q 61.671875 27 64.796875 20.703125 
L 75 0 
L 54.984375 0 
L 46.09375 18.109375 
Q 43.40625 23.578125 40.640625 25.578125 
Q 37.890625 27.59375 33.296875 27.59375 
z
" id="DejaVuSans-Bold-82"/>
       <path d="M 25.875 7.90625 
L 25.875 -20.796875 
L 8.40625 -20.796875 
L 8.40625 54.6875 
L 25.875 54.6875 
L 25.875 46.6875 
Q 29.5 51.46875 33.890625 53.734375 
Q 38.28125 56 44 56 
Q 54.109375 56 60.59375 47.96875 
Q 67.09375 39.9375 67.09375 27.296875 
Q 67.09375 14.65625 60.59375 6.609375 
Q 54.109375 -1.421875 44 -1.421875 
Q 38.28125 -1.421875 33.890625 0.84375 
Q 29.5 3.125 25.875 7.90625 
z
M 37.5 43.3125 
Q 31.890625 43.3125 28.875 39.1875 
Q 25.875 35.0625 25.875 27.296875 
Q 25.875 19.53125 28.875 15.40625 
Q 31.890625 11.28125 37.5 11.28125 
Q 43.109375 11.28125 46.0625 15.375 
Q 49.03125 19.484375 49.03125 27.296875 
Q 49.03125 35.109375 46.0625 39.203125 
Q 43.109375 43.3125 37.5 43.3125 
z
" id="DejaVuSans-Bold-112"/>
       <path d="M 34.421875 43.5 
Q 28.609375 43.5 25.5625 39.328125 
Q 22.515625 35.15625 22.515625 27.296875 
Q 22.515625 19.4375 25.5625 15.25 
Q 28.609375 11.078125 34.421875 11.078125 
Q 40.140625 11.078125 43.15625 15.25 
Q 46.1875 19.4375 46.1875 27.296875 
Q 46.1875 35.15625 43.15625 39.328125 
Q 40.140625 43.5 34.421875 43.5 
z
M 34.421875 56 
Q 48.53125 56 56.46875 48.375 
Q 64.40625 40.765625 64.40625 27.296875 
Q 64.40625 13.8125 56.46875 6.1875 
Q 48.53125 -1.421875 34.421875 -1.421875 
Q 20.265625 -1.421875 12.28125 6.1875 
Q 4.296875 13.8125 4.296875 27.296875 
Q 4.296875 40.765625 12.28125 48.375 
Q 20.265625 56 34.421875 56 
z
" id="DejaVuSans-Bold-111"/>
       <path d="M 63.375 33.296875 
L 63.375 0 
L 45.796875 0 
L 45.796875 5.421875 
L 45.796875 25.484375 
Q 45.796875 32.5625 45.484375 35.25 
Q 45.171875 37.9375 44.390625 39.203125 
Q 43.359375 40.921875 41.59375 41.875 
Q 39.84375 42.828125 37.59375 42.828125 
Q 32.125 42.828125 29 38.59375 
Q 25.875 34.375 25.875 26.90625 
L 25.875 0 
L 8.40625 0 
L 8.40625 54.6875 
L 25.875 54.6875 
L 25.875 46.6875 
Q 29.828125 51.46875 34.265625 53.734375 
Q 38.71875 56 44.09375 56 
Q 53.5625 56 58.46875 50.1875 
Q 63.375 44.390625 63.375 33.296875 
z
" id="DejaVuSans-Bold-110"/>
      </defs>
      <use xlink:href="#DejaVuSans-Bold-82"/>
      <use x="77.001953" xlink:href="#DejaVuSans-Bold-101"/>
      <use x="144.824219" xlink:href="#DejaVuSans-Bold-115"/>
      <use x="204.345703" xlink:href="#DejaVuSans-Bold-112"/>
      <use x="275.927734" xlink:href="#DejaVuSans-Bold-111"/>
      <use x="344.628906" xlink:href="#DejaVuSans-Bold-110"/>
      <use x="415.820312" xlink:href="#DejaVuSans-Bold-115"/>
      <use x="475.341797" xlink:href="#DejaVuSans-Bold-101"/>
     </g>
    </g>
   </g>
   <g id="line2d_85">
    <path clip-path="url(#pc74b15182e)" d="M 41.559992 258.300476 
L 80.14009 258.300476 
L 80.26912 258.917572 
L 557.681703 258.917572 
L 557.681703 258.917572 
" style="fill:none;stroke:#009afa;stroke-width:3;"/>
   </g>
   <g id="line2d_86">
    <path clip-path="url(#pc74b15182e)" d="M 41.559992 258.917572 
L 45.817996 258.808907 
L 54.721095 258.322625 
L 58.204917 257.802889 
L 61.559708 257.154037 
L 65.559651 256.166666 
L 69.043473 255.112269 
L 73.301477 253.577792 
L 77.559481 251.774488 
L 82.204577 249.532249 
L 120.784674 230.406918 
L 189.557892 196.185908 
L 376.910074 102.145667 
L 448.2639 66.021272 
L 508.263049 35.511731 
L 547.101208 15.699641 
L 557.681703 10.293372 
L 557.681703 10.293372 
" style="fill:none;stroke:#e36f47;stroke-width:3;"/>
   </g>
   <g id="patch_3">
    <path d="M 41.559992 266.376298 
L 41.559992 2.834646 
" style="fill:none;stroke:#000000;stroke-linecap:square;stroke-linejoin:miter;"/>
   </g>
   <g id="patch_4">
    <path d="M 26.07634 258.917572 
L 573.165354 258.917572 
" style="fill:none;stroke:#000000;stroke-linecap:square;stroke-linejoin:miter;"/>
   </g>
   <g id="line2d_87">
    <path clip-path="url(#pc74b15182e)" d="M 41.559992 258.917572 
L 44.656722 258.434129 
L 46.721209 258.356072 
L 51.366304 258.294792 
L 52.914669 258.017834 
L 54.463035 257.497735 
L 56.14043 256.933618 
L 57.172674 256.865526 
L 58.592008 256.799511 
L 59.624252 256.470392 
L 60.785526 256.107711 
L 61.946799 256.083068 
L 62.720982 255.959656 
L 64.527408 255.467386 
L 65.688682 255.384242 
L 67.366077 254.951649 
L 68.26929 254.885256 
L 69.946686 254.49925 
L 70.720868 254.397719 
L 71.882142 254.082738 
L 72.785355 254.006659 
L 73.946629 253.702814 
L 74.720812 253.637132 
L 75.882086 253.349866 
L 76.527238 253.292919 
L 77.688512 253.018463 
L 78.333664 252.936099 
L 79.236877 252.701761 
L 80.011059 252.607389 
L 80.527181 252.476655 
L 83.494881 252.488664 
L 84.011003 252.516856 
L 84.656155 252.565425 
L 85.430337 252.489172 
L 86.33355 252.544617 
L 86.978702 252.485992 
L 87.881915 252.547397 
L 88.527067 252.483037 
L 89.43028 252.550044 
L 90.204463 252.500172 
L 90.978646 252.552545 
L 91.752828 252.496348 
L 92.527011 252.554889 
L 93.301193 252.492686 
L 94.075376 252.557067 
L 94.849558 252.489197 
L 95.623741 252.559069 
L 96.397924 252.485888 
L 97.172106 252.560889 
L 98.075319 252.505742 
L 98.720471 252.562521 
L 99.623684 252.501802 
L 100.268836 252.563961 
L 101.172049 252.497977 
L 101.817202 252.565204 
L 102.720415 252.494278 
L 103.494597 252.547244 
L 104.26878 252.490714 
L 105.042962 252.549341 
L 105.817145 252.487293 
L 106.591327 252.551293 
L 107.36551 252.484022 
L 108.139693 252.553093 
L 108.913875 252.480907 
L 109.688058 252.554736 
L 110.591271 252.501203 
L 111.236423 252.556219 
L 112.139636 252.497513 
L 112.784788 252.557539 
L 113.688001 252.493922 
L 114.333153 252.558693 
L 115.236366 252.490437 
L 116.010549 252.539955 
L 116.784731 252.487064 
L 117.558914 252.541875 
L 118.333096 252.483811 
L 119.107279 252.543675 
L 119.881461 252.480682 
L 120.655644 252.54535 
L 121.429827 252.477681 
L 122.204009 252.546895 
L 122.978192 252.474812 
L 123.752374 252.548309 
L 124.655587 252.495447 
L 125.300739 252.549588 
L 126.203952 252.492056 
L 126.849105 252.550732 
L 127.752318 252.488749 
L 128.39747 252.55174 
L 129.300683 252.48553 
L 129.945835 252.552611 
L 130.849048 252.482406 
L 131.62323 252.534031 
L 132.397413 252.479379 
L 133.171596 252.53562 
L 133.945778 252.476454 
L 134.719961 252.537106 
L 135.494143 252.473632 
L 136.268326 252.538489 
L 137.042508 252.470917 
L 137.816691 252.539765 
L 138.590873 252.468309 
L 139.365056 252.540934 
L 140.139239 252.46581 
L 141.042452 252.518853 
L 141.687604 252.463421 
L 142.590817 252.520497 
L 143.235969 252.461142 
L 144.139182 252.52207 
L 144.784334 252.458972 
L 145.687547 252.523569 
L 146.332699 252.456911 
L 147.235912 252.524991 
L 148.010095 252.474814 
L 148.784277 252.526334 
L 149.55846 252.472127 
L 150.332642 252.527597 
L 151.106825 252.469523 
L 151.881008 252.528778 
L 152.65519 252.467001 
L 153.429373 252.529877 
L 154.203555 252.464562 
L 154.977738 252.530893 
L 155.75192 252.462207 
L 156.526103 252.531826 
L 157.300286 252.459937 
L 158.074468 252.532676 
L 158.848651 252.457749 
L 159.622833 252.533444 
L 160.526046 252.478734 
L 161.171198 252.534131 
L 162.074411 252.476136 
L 162.719563 252.534737 
L 163.622776 252.473597 
L 164.267929 252.535264 
L 165.171142 252.471119 
L 165.816294 252.535712 
L 166.719507 252.468701 
L 167.364659 252.536085 
L 168.267872 252.466345 
L 169.042054 252.516788 
L 169.816237 252.464051 
L 170.59042 252.517674 
L 171.364602 252.46182 
L 172.138785 252.518498 
L 172.912967 252.459651 
L 173.68715 252.519261 
L 174.461332 252.457544 
L 175.235515 252.519962 
L 176.009698 252.455498 
L 176.78388 252.520602 
L 177.558063 252.453513 
L 178.332245 252.521183 
L 179.106428 252.451589 
L 179.88061 252.521705 
L 180.654793 252.449724 
L 181.428976 252.522169 
L 182.203158 252.447916 
L 182.977341 252.522576 
L 183.880554 252.469548 
L 184.525706 252.522927 
L 185.428919 252.467446 
L 186.074071 252.523224 
L 186.977284 252.465389 
L 187.622436 252.523468 
L 188.525649 252.46338 
L 189.170801 252.523661 
L 190.074014 252.461416 
L 190.719166 252.523804 
L 191.622379 252.459499 
L 192.267531 252.5239 
L 193.170744 252.457627 
L 193.815897 252.523948 
L 194.71911 252.455801 
L 195.493292 252.503855 
L 196.267475 252.454021 
L 197.041657 252.504244 
L 197.81584 252.452284 
L 198.590022 252.50459 
L 199.364205 252.450592 
L 200.138388 252.504892 
L 200.91257 252.448943 
L 201.686753 252.505152 
L 202.460935 252.447337 
L 203.235118 252.505371 
L 204.0093 252.445772 
L 204.783483 252.505548 
L 205.557666 252.444248 
L 206.331848 252.505686 
L 207.106031 252.442764 
L 207.880213 252.505784 
L 208.654396 252.44132 
L 209.428578 252.505844 
L 210.202761 252.439914 
L 210.976943 252.505867 
L 211.751126 252.438545 
L 212.525309 252.505853 
L 213.299491 252.437212 
L 214.073674 252.505804 
L 214.847856 252.435915 
L 215.622039 252.505721 
L 216.396221 252.434653 
L 217.170404 252.505604 
L 217.944587 252.433424 
L 218.718769 252.505454 
L 219.492952 252.432228 
L 220.267134 252.505272 
L 221.041317 252.431064 
L 221.815499 252.505059 
L 222.589682 252.429931 
L 223.363865 252.504817 
L 224.267078 252.452322 
L 224.91223 252.504545 
L 225.815443 252.451095 
L 226.460595 252.504244 
L 227.363808 252.449903 
L 228.00896 252.503916 
L 228.912173 252.448747 
L 229.557325 252.503561 
L 230.460538 252.447625 
L 231.10569 252.50318 
L 232.008903 252.446538 
L 232.654055 252.502773 
L 233.557268 252.445485 
L 234.20242 252.50234 
L 235.105633 252.444466 
L 235.750786 252.501884 
L 236.653999 252.443481 
L 237.299151 252.501403 
L 238.202364 252.44253 
L 238.847516 252.500899 
L 239.750729 252.441612 
L 240.395881 252.500372 
L 241.299094 252.440727 
L 241.944246 252.499822 
L 242.847459 252.439875 
L 243.492611 252.49925 
L 244.395824 252.439056 
L 245.040976 252.498656 
L 245.944189 252.43827 
L 246.589342 252.49804 
L 247.492555 252.437517 
L 248.137707 252.497402 
L 249.04092 252.436796 
L 249.686072 252.496743 
L 250.589285 252.436108 
L 251.234437 252.496062 
L 252.13765 252.435452 
L 252.782802 252.495359 
L 253.686015 252.434829 
L 254.331167 252.494635 
L 255.23438 252.434239 
L 255.879532 252.49389 
L 256.782745 252.433681 
L 257.427897 252.493122 
L 258.33111 252.433156 
L 258.976263 252.492333 
L 259.879476 252.432663 
L 260.524628 252.491521 
L 261.427841 252.432204 
L 262.072993 252.490687 
L 262.976206 252.431778 
L 263.621358 252.48983 
L 264.524571 252.431385 
L 265.169723 252.488949 
L 266.072936 252.431025 
L 266.718088 252.488045 
L 267.621301 252.430699 
L 268.266453 252.487116 
L 269.169666 252.430406 
L 269.814819 252.486163 
L 270.718032 252.430148 
L 271.363184 252.485184 
L 272.266397 252.429924 
L 272.911549 252.484179 
L 273.814762 252.429734 
L 274.459914 252.483147 
L 275.363127 252.429579 
L 276.008279 252.482089 
L 276.911492 252.429459 
L 277.556644 252.481001 
L 278.459857 252.429374 
L 279.105009 252.479886 
L 279.879192 252.405493 
L 280.653374 252.47874 
L 281.427557 252.405309 
L 282.20174 252.477564 
L 282.975922 252.405156 
L 283.750105 252.476356 
L 284.524287 252.405035 
L 285.29847 252.475117 
L 286.072652 252.404947 
L 286.846835 252.473844 
L 287.621018 252.404893 
L 288.3952 252.472538 
L 289.169383 252.404874 
L 289.943565 252.471196 
L 290.717748 252.404891 
L 291.49193 252.469819 
L 292.266113 252.404944 
L 293.040296 252.468405 
L 293.814478 252.405035 
L 294.588661 252.466954 
L 295.362843 252.405165 
L 296.137026 252.465464 
L 296.911208 252.405334 
L 297.685391 252.463935 
L 298.459574 252.405542 
L 299.233756 252.462367 
L 300.007939 252.405792 
L 300.782121 252.460757 
L 301.556304 252.406083 
L 302.330486 252.459106 
L 303.104669 252.406417 
L 303.878851 252.457413 
L 304.653034 252.406793 
L 305.427217 252.455677 
L 306.201399 252.407213 
L 306.846551 252.474372 
L 307.749764 252.407677 
L 308.394916 252.472979 
L 309.298129 252.408185 
L 309.943282 252.47154 
L 310.846495 252.408738 
L 311.491647 252.470054 
L 312.39486 252.409336 
L 313.040012 252.468519 
L 313.943225 252.409979 
L 314.588377 252.466935 
L 315.49159 252.410666 
L 316.136742 252.4653 
L 317.039955 252.411399 
L 317.685107 252.463612 
L 318.58832 252.412177 
L 319.233472 252.46187 
L 320.007655 252.38889 
L 320.781838 252.460072 
L 321.55602 252.389381 
L 322.330203 252.458219 
L 323.104385 252.389929 
L 323.878568 252.456308 
L 324.65275 252.390535 
L 325.426933 252.45434 
L 326.201116 252.391201 
L 326.975298 252.452312 
L 327.749481 252.391926 
L 328.523663 252.450225 
L 329.297846 252.392712 
L 330.072028 252.448078 
L 330.846211 252.393558 
L 331.620393 252.445872 
L 332.394576 252.394464 
L 333.168759 252.443605 
L 333.942941 252.395431 
L 334.588093 252.46194 
L 335.491306 252.396457 
L 336.136458 252.460179 
L 337.039671 252.397543 
L 337.684824 252.458343 
L 338.588037 252.398687 
L 339.233189 252.45643 
L 340.136402 252.399888 
L 340.781554 252.454439 
L 341.684767 252.401145 
L 342.329919 252.45237 
L 343.104102 252.378488 
L 343.878284 252.450221 
L 344.652467 252.379348 
L 345.426649 252.447991 
L 346.200832 252.38029 
L 346.975014 252.445682 
L 347.749197 252.381313 
L 348.52338 252.443292 
L 349.297562 252.382417 
L 350.071745 252.440822 
L 350.845927 252.383601 
L 351.62011 252.438273 
L 352.394292 252.384864 
L 353.168475 252.435646 
L 353.942657 252.386206 
L 354.58781 252.453455 
L 355.491023 252.387624 
L 356.136175 252.45145 
L 357.039388 252.389116 
L 357.68454 252.449342 
L 358.587753 252.390679 
L 359.232905 252.44713 
L 360.136118 252.392311 
L 360.78127 252.444813 
L 361.555453 252.370163 
L 362.329635 252.442391 
L 363.103818 252.371313 
L 363.878 252.439865 
L 364.652183 252.372568 
L 365.426366 252.437235 
L 366.200548 252.373927 
L 366.974731 252.434504 
L 367.748913 252.375388 
L 368.523096 252.431673 
L 369.297278 252.376948 
L 370.071461 252.428744 
L 370.845644 252.378605 
L 371.619826 252.425721 
L 372.264978 252.359346 
L 373.168191 252.422607 
L 373.813343 252.360301 
L 374.716556 252.419407 
L 375.361708 252.36139 
L 376.264921 252.416124 
L 376.910074 252.362612 
L 377.684256 252.436526 
L 378.458439 252.363966 
L 379.232621 252.433787 
L 380.006804 252.36545 
L 380.780986 252.430922 
L 381.555169 252.367061 
L 382.329352 252.427932 
L 383.103534 252.368794 
L 383.877717 252.424822 
L 384.651899 252.370647 
L 385.426082 252.421596 
L 386.200264 252.372614 
L 386.845417 252.439011 
L 387.74863 252.374688 
L 388.393782 252.436557 
L 389.296995 252.376863 
L 389.942147 252.433944 
L 390.84536 252.379132 
L 391.490512 252.431172 
L 392.264695 252.357452 
L 393.038877 252.428246 
L 393.81306 252.359139 
L 394.587242 252.425169 
L 395.361425 252.360975 
L 396.135607 252.421946 
L 396.90979 252.362957 
L 397.683973 252.418582 
L 398.458155 252.365076 
L 399.232338 252.415084 
L 400.00652 252.367326 
L 400.651672 252.432506 
L 401.554885 252.369698 
L 402.200037 252.429825 
L 403.10325 252.372181 
L 403.748403 252.426958 
L 404.651616 252.374765 
L 405.296768 252.423908 
L 406.07095 252.352937 
L 406.845133 252.420681 
L 407.619315 252.354939 
L 408.393498 252.417284 
L 409.167681 252.357108 
L 409.941863 252.413725 
L 410.716046 252.359437 
L 411.490228 252.410011 
L 412.264411 252.361915 
L 412.909563 252.427193 
L 413.812776 252.36453 
L 414.457928 252.424347 
L 415.361141 252.367271 
L 416.006293 252.421287 
L 416.909506 252.370121 
L 417.554658 252.418021 
L 418.328841 252.348356 
L 419.103024 252.414555 
L 419.877206 252.35061 
L 420.651389 252.410899 
L 421.425571 252.353051 
L 422.199754 252.407064 
L 422.973936 252.355666 
L 423.748119 252.403062 
L 424.393271 252.337244 
L 425.296484 252.398907 
L 425.941636 252.338944 
L 426.844849 252.394614 
L 427.490001 252.340886 
L 428.264184 252.414122 
L 429.038366 252.343061 
L 429.812549 252.410527 
L 430.586732 252.34546 
L 431.360914 252.406718 
L 432.135097 252.348068 
L 432.909279 252.402707 
L 433.683462 252.350871 
L 434.457644 252.39851 
L 435.102797 252.332653 
L 436.00601 252.394145 
L 436.651162 252.334502 
L 437.554375 252.389629 
L 438.199527 252.33662 
L 438.973709 252.409054 
L 439.747892 252.338997 
L 440.522075 252.40525 
L 441.296257 252.341617 
L 442.07044 252.401213 
L 442.844622 252.344464 
L 443.618805 252.396959 
L 444.392987 252.347519 
L 445.03814 252.41344 
L 445.941353 252.350762 
L 446.586505 252.410175 
L 447.489718 252.354169 
L 448.13487 252.406618 
L 448.909052 252.333531 
L 449.683235 252.402781 
L 450.457417 252.336201 
L 451.2316 252.398681 
L 452.005783 252.339128 
L 452.779965 252.394336 
L 453.554148 252.34229 
L 454.32833 252.389767 
L 454.973482 252.324343 
L 455.876695 252.385 
L 456.521848 252.326496 
L 457.425061 252.380061 
L 458.070213 252.328968 
L 458.844395 252.399394 
L 459.618578 252.331744 
L 460.39276 252.395177 
L 461.166943 252.334802 
L 461.941126 252.390693 
L 462.715308 252.338116 
L 463.489491 252.385964 
L 464.134643 252.320369 
L 465.037856 252.381021 
L 465.683008 252.322645 
L 466.586221 252.375893 
L 467.231373 252.325268 
L 468.005556 252.395126 
L 468.779738 252.328217 
L 469.553921 252.390728 
L 470.328103 252.331466 
L 471.102286 252.386045 
L 471.876469 252.334988 
L 472.521621 252.401854 
L 473.424834 252.338751 
L 474.069986 252.398255 
L 474.973199 252.342719 
L 475.618351 252.394282 
L 476.392533 252.322441 
L 477.166716 252.389959 
L 477.940899 252.325637 
L 478.715081 252.385311 
L 479.489264 252.329145 
L 480.263446 252.380369 
L 481.037629 252.332932 
L 481.682781 252.396634 
L 482.585994 252.336959 
L 483.231146 252.392745 
L 484.134359 252.341185 
L 484.779511 252.388468 
L 485.553694 252.320553 
L 486.327876 252.38383 
L 487.102059 252.32407 
L 487.876242 252.378863 
L 488.650424 252.3279 
L 489.295576 252.394446 
L 490.198789 252.332002 
L 490.843941 252.390597 
L 491.747154 252.336331 
L 492.392307 252.386325 
L 493.166489 252.316151 
L 493.940672 252.381659 
L 494.714854 252.319713 
L 495.489037 252.376634 
L 496.263219 252.323618 
L 497.037402 252.371289 
L 497.682554 252.306345 
L 498.585767 252.365668 
L 499.230919 252.309143 
L 500.134132 252.359822 
L 500.779284 252.312386 
L 501.553467 252.378837 
L 502.327649 252.316039 
L 503.101832 252.373711 
L 503.876015 252.320057 
L 504.650197 252.368243 
L 505.295349 252.30298 
L 506.198562 252.362483 
L 506.843714 252.305873 
L 507.746927 252.356483 
L 508.39208 252.309237 
L 509.166262 252.375384 
L 509.940445 252.313031 
L 510.714627 252.370108 
L 511.48881 252.31721 
L 512.262992 252.364475 
L 512.908145 252.300102 
L 513.811358 252.35854 
L 514.45651 252.303158 
L 515.230692 252.376353 
L 516.004875 252.306705 
L 516.779057 252.371293 
L 517.55324 252.310698 
L 518.327423 252.365815 
L 519.101605 252.315084 
L 519.746757 252.380997 
L 520.64997 252.319805 
L 521.295122 252.376682 
L 522.198335 252.324793 
L 522.843487 252.371847 
L 523.61767 252.304818 
L 524.391853 252.366537 
L 525.166035 252.309066 
L 525.940218 252.360807 
L 526.7144 252.313707 
L 527.359552 252.376442 
L 528.262765 252.318673 
L 528.907918 252.371828 
L 529.6821 252.29952 
L 530.456283 252.366687 
L 531.230465 252.303626 
L 532.004648 252.361071 
L 532.77883 252.30818 
L 533.553013 252.355041 
L 534.198165 252.291331 
L 535.101378 252.348667 
L 535.74653 252.294746 
L 536.520713 252.366313 
L 537.294895 252.29872 
L 538.069078 252.360804 
L 538.843261 252.303193 
L 539.617443 252.354832 
L 540.391626 252.308096 
L 541.036778 252.370316 
L 541.939991 252.31335 
L 542.585143 252.365467 
L 543.359326 252.294303 
L 544.133508 252.360046 
L 544.907691 252.298711 
L 545.681873 252.354118 
L 546.456056 252.303593 
L 547.101208 252.368939 
L 548.004421 252.30887 
L 548.649573 252.364194 
L 549.552786 252.314452 
L 550.197938 252.358836 
L 550.972121 252.294699 
L 551.746303 252.35293 
L 552.520486 252.29958 
L 553.294668 252.34655 
L 553.939821 252.283045 
L 554.843034 252.339782 
L 555.488186 252.286774 
L 556.262368 252.357206 
L 557.036551 252.291129 
L 557.681703 252.369086 
L 557.681703 252.369086 
" style="fill:none;stroke:#3ea44e;stroke-width:3;"/>
   </g>
   <g id="legend_1">
    <g id="patch_5">
     <path d="M 30.07634 52.079646 
L 72.17884 52.079646 
L 72.17884 6.834646 
L 30.07634 6.834646 
z
" style="fill:none;opacity:0;"/>
    </g>
    <g id="line2d_88">
     <path d="M 36.47634 16.513396 
L 52.47634 16.513396 
" style="fill:none;stroke:#009afa;stroke-linejoin:miter;"/>
    </g>
    <g id="line2d_89"/>
    <g id="text_13">
     <!-- M -->
     <g transform="translate(58.87634 19.313396)scale(0.08 -0.08)">
      <defs>
       <path d="M 9.8125 72.90625 
L 24.515625 72.90625 
L 43.109375 23.296875 
L 61.8125 72.90625 
L 76.515625 72.90625 
L 76.515625 0 
L 66.890625 0 
L 66.890625 64.015625 
L 48.09375 14.015625 
L 38.1875 14.015625 
L 19.390625 64.015625 
L 19.390625 0 
L 9.8125 0 
z
" id="DejaVuSans-77"/>
      </defs>
      <use xlink:href="#DejaVuSans-77"/>
     </g>
    </g>
    <g id="line2d_90">
     <path d="M 36.47634 28.255896 
L 52.47634 28.255896 
" style="fill:none;stroke:#e36f47;stroke-linejoin:miter;"/>
    </g>
    <g id="line2d_91"/>
    <g id="text_14">
     <!-- $$ -->
     <g transform="translate(58.87634 31.055896)scale(0.08 -0.08)">
      <defs>
       <path d="M 45.515625 34.671875 
L 14.453125 34.671875 
Q 12.359375 20.0625 14.5 13.875 
Q 17.1875 6.25 24.46875 6.25 
Q 31.78125 6.25 37.359375 13.921875 
Q 42.234375 20.65625 45.515625 34.671875 
z
M 47.015625 42.96875 
Q 48.34375 56.84375 46.625 61.71875 
Q 43.953125 69.4375 36.765625 69.4375 
Q 29.296875 69.4375 23.828125 61.8125 
Q 19.53125 55.671875 16.15625 42.96875 
z
M 38.1875 76.765625 
Q 49.90625 76.765625 54.59375 66.40625 
Q 59.28125 56.109375 55.71875 37.84375 
Q 52.203125 19.625 43.453125 9.28125 
Q 34.765625 -1.125 23.046875 -1.125 
Q 11.28125 -1.125 6.640625 9.28125 
Q 2 19.625 5.515625 37.84375 
Q 9.078125 56.109375 17.71875 66.40625 
Q 26.421875 76.765625 38.1875 76.765625 
z
" id="DejaVuSans-Oblique-952"/>
      </defs>
      <use transform="translate(0 0.234375)" xlink:href="#DejaVuSans-Oblique-952"/>
     </g>
    </g>
    <g id="line2d_92">
     <path d="M 36.47634 41.215896 
L 52.47634 41.215896 
" style="fill:none;stroke:#3ea44e;stroke-linejoin:miter;"/>
    </g>
    <g id="line2d_93"/>
    <g id="text_15">
     <!-- $\dot{}$ -->
     <g transform="translate(58.87634 44.015896)scale(0.08 -0.08)">
      <defs>
       <path d="M -29.59375 75.984375 
L -20.609375 75.984375 
L -20.609375 64.59375 
L -29.59375 64.59375 
z
M -25 56 
z
" id="DejaVuSans-775"/>
      </defs>
      <use transform="translate(62.88916 34.015625)" xlink:href="#DejaVuSans-775"/>
      <use transform="translate(0 0.75)" xlink:href="#DejaVuSans-Oblique-952"/>
     </g>
    </g>
   </g>
  </g>
 </g>
 <defs>
  <clipPath id="pc74b15182e">
   <rect height="263.541652" width="547.089014" x="26.07634" y="2.834646"/>
  </clipPath>
 </defs>
</svg>
