<?xml version="1.0" encoding="utf-8" standalone="no"?>
<!DOCTYPE svg PUBLIC "-//W3C//DTD SVG 1.1//EN"
  "http://www.w3.org/Graphics/SVG/1.1/DTD/svg11.dtd">
<!-- Created with matplotlib (https://matplotlib.org/) -->
<svg height="288pt" version="1.1" viewBox="0 0 576 288" width="576pt" xmlns="http://www.w3.org/2000/svg" xmlns:xlink="http://www.w3.org/1999/xlink">
 <metadata>
  <rdf:RDF xmlns:cc="http://creativecommons.org/ns#" xmlns:dc="http://purl.org/dc/elements/1.1/" xmlns:rdf="http://www.w3.org/1999/02/22-rdf-syntax-ns#">
   <cc:Work>
    <dc:type rdf:resource="http://purl.org/dc/dcmitype/StillImage"/>
    <dc:date>2020-11-19T23:22:57.514190</dc:date>
    <dc:format>image/svg+xml</dc:format>
    <dc:creator>
     <cc:Agent>
      <dc:title>Matplotlib v3.3.1, https://matplotlib.org/</dc:title>
     </cc:Agent>
    </dc:creator>
   </cc:Work>
  </rdf:RDF>
 </metadata>
 <defs>
  <style type="text/css">*{stroke-linecap:butt;stroke-linejoin:round;}</style>
 </defs>
 <g id="figure_1">
  <g id="patch_1">
   <path d="M 0 288 
L 576 288 
L 576 0 
L 0 0 
z
" style="fill:none;"/>
  </g>
  <g id="axes_1">
   <g id="patch_2">
    <path d="M 22.599706 285.165354 
L 573.165354 285.165354 
L 573.165354 2.834646 
L 22.599706 2.834646 
z
" style="fill:none;"/>
   </g>
   <g id="matplotlib.axis_1">
    <g id="xtick_1">
     <g id="line2d_1">
      <path clip-path="url(#p46a71d08d1)" d="M 38.181753 285.165354 
L 38.181753 2.834646 
" style="fill:none;stroke:#000000;stroke-linecap:square;stroke-opacity:0.1;stroke-width:0.5;"/>
     </g>
     <g id="line2d_2">
      <defs>
       <path d="M 0 0 
L 0 -2.5 
" id="m809e479894" style="stroke:#000000;stroke-width:0.5;"/>
      </defs>
      <g>
       <use style="stroke:#000000;stroke-width:0.5;" x="38.181753" xlink:href="#m809e479894" y="139.091151"/>
      </g>
     </g>
     <g id="text_1">
      <!-- $\mathregular{}$ -->
      <g transform="translate(38.181753 148.669901)scale(0.08 -0.08)"/>
     </g>
    </g>
    <g id="xtick_2">
     <g id="line2d_3">
      <path clip-path="url(#p46a71d08d1)" d="M 168.032141 285.165354 
L 168.032141 2.834646 
" style="fill:none;stroke:#000000;stroke-linecap:square;stroke-opacity:0.1;stroke-width:0.5;"/>
     </g>
     <g id="line2d_4">
      <g>
       <use style="stroke:#000000;stroke-width:0.5;" x="168.032141" xlink:href="#m809e479894" y="139.091151"/>
      </g>
     </g>
     <g id="text_2">
      <!-- $\mathregular{5}$ -->
      <g transform="translate(165.472141 148.669901)scale(0.08 -0.08)">
       <defs>
        <path d="M 10.796875 72.90625 
L 49.515625 72.90625 
L 49.515625 64.59375 
L 19.828125 64.59375 
L 19.828125 46.734375 
Q 21.96875 47.46875 24.109375 47.828125 
Q 26.265625 48.1875 28.421875 48.1875 
Q 40.625 48.1875 47.75 41.5 
Q 54.890625 34.8125 54.890625 23.390625 
Q 54.890625 11.625 47.5625 5.09375 
Q 40.234375 -1.421875 26.90625 -1.421875 
Q 22.3125 -1.421875 17.546875 -0.640625 
Q 12.796875 0.140625 7.71875 1.703125 
L 7.71875 11.625 
Q 12.109375 9.234375 16.796875 8.0625 
Q 21.484375 6.890625 26.703125 6.890625 
Q 35.15625 6.890625 40.078125 11.328125 
Q 45.015625 15.765625 45.015625 23.390625 
Q 45.015625 31 40.078125 35.4375 
Q 35.15625 39.890625 26.703125 39.890625 
Q 22.75 39.890625 18.8125 39.015625 
Q 14.890625 38.140625 10.796875 36.28125 
z
" id="DejaVuSans-53"/>
       </defs>
       <use transform="translate(0 0.09375)" xlink:href="#DejaVuSans-53"/>
      </g>
     </g>
    </g>
    <g id="xtick_3">
     <g id="line2d_5">
      <path clip-path="url(#p46a71d08d1)" d="M 297.88253 285.165354 
L 297.88253 2.834646 
" style="fill:none;stroke:#000000;stroke-linecap:square;stroke-opacity:0.1;stroke-width:0.5;"/>
     </g>
     <g id="line2d_6">
      <g>
       <use style="stroke:#000000;stroke-width:0.5;" x="297.88253" xlink:href="#m809e479894" y="139.091151"/>
      </g>
     </g>
     <g id="text_3">
      <!-- $\mathregular{10}$ -->
      <g transform="translate(292.76253 148.669901)scale(0.08 -0.08)">
       <defs>
        <path d="M 12.40625 8.296875 
L 28.515625 8.296875 
L 28.515625 63.921875 
L 10.984375 60.40625 
L 10.984375 69.390625 
L 28.421875 72.90625 
L 38.28125 72.90625 
L 38.28125 8.296875 
L 54.390625 8.296875 
L 54.390625 0 
L 12.40625 0 
z
" id="DejaVuSans-49"/>
        <path d="M 31.78125 66.40625 
Q 24.171875 66.40625 20.328125 58.90625 
Q 16.5 51.421875 16.5 36.375 
Q 16.5 21.390625 20.328125 13.890625 
Q 24.171875 6.390625 31.78125 6.390625 
Q 39.453125 6.390625 43.28125 13.890625 
Q 47.125 21.390625 47.125 36.375 
Q 47.125 51.421875 43.28125 58.90625 
Q 39.453125 66.40625 31.78125 66.40625 
z
M 31.78125 74.21875 
Q 44.046875 74.21875 50.515625 64.515625 
Q 56.984375 54.828125 56.984375 36.375 
Q 56.984375 17.96875 50.515625 8.265625 
Q 44.046875 -1.421875 31.78125 -1.421875 
Q 19.53125 -1.421875 13.0625 8.265625 
Q 6.59375 17.96875 6.59375 36.375 
Q 6.59375 54.828125 13.0625 64.515625 
Q 19.53125 74.21875 31.78125 74.21875 
z
" id="DejaVuSans-48"/>
       </defs>
       <use transform="translate(0 0.78125)" xlink:href="#DejaVuSans-49"/>
       <use transform="translate(63.623047 0.78125)" xlink:href="#DejaVuSans-48"/>
      </g>
     </g>
    </g>
    <g id="xtick_4">
     <g id="line2d_7">
      <path clip-path="url(#p46a71d08d1)" d="M 427.732919 285.165354 
L 427.732919 2.834646 
" style="fill:none;stroke:#000000;stroke-linecap:square;stroke-opacity:0.1;stroke-width:0.5;"/>
     </g>
     <g id="line2d_8">
      <g>
       <use style="stroke:#000000;stroke-width:0.5;" x="427.732919" xlink:href="#m809e479894" y="139.091151"/>
      </g>
     </g>
     <g id="text_4">
      <!-- $\mathregular{15}$ -->
      <g transform="translate(422.612919 148.669901)scale(0.08 -0.08)">
       <use transform="translate(0 0.09375)" xlink:href="#DejaVuSans-49"/>
       <use transform="translate(63.623047 0.09375)" xlink:href="#DejaVuSans-53"/>
      </g>
     </g>
    </g>
    <g id="xtick_5">
     <g id="line2d_9">
      <path clip-path="url(#p46a71d08d1)" d="M 557.583308 285.165354 
L 557.583308 2.834646 
" style="fill:none;stroke:#000000;stroke-linecap:square;stroke-opacity:0.1;stroke-width:0.5;"/>
     </g>
     <g id="line2d_10">
      <g>
       <use style="stroke:#000000;stroke-width:0.5;" x="557.583308" xlink:href="#m809e479894" y="139.091151"/>
      </g>
     </g>
     <g id="text_5">
      <!-- $\mathregular{20}$ -->
      <g transform="translate(552.463308 148.669901)scale(0.08 -0.08)">
       <defs>
        <path d="M 19.1875 8.296875 
L 53.609375 8.296875 
L 53.609375 0 
L 7.328125 0 
L 7.328125 8.296875 
Q 12.9375 14.109375 22.625 23.890625 
Q 32.328125 33.6875 34.8125 36.53125 
Q 39.546875 41.84375 41.421875 45.53125 
Q 43.3125 49.21875 43.3125 52.78125 
Q 43.3125 58.59375 39.234375 62.25 
Q 35.15625 65.921875 28.609375 65.921875 
Q 23.96875 65.921875 18.8125 64.3125 
Q 13.671875 62.703125 7.8125 59.421875 
L 7.8125 69.390625 
Q 13.765625 71.78125 18.9375 73 
Q 24.125 74.21875 28.421875 74.21875 
Q 39.75 74.21875 46.484375 68.546875 
Q 53.21875 62.890625 53.21875 53.421875 
Q 53.21875 48.921875 51.53125 44.890625 
Q 49.859375 40.875 45.40625 35.40625 
Q 44.1875 33.984375 37.640625 27.21875 
Q 31.109375 20.453125 19.1875 8.296875 
z
" id="DejaVuSans-50"/>
       </defs>
       <use transform="translate(0 0.78125)" xlink:href="#DejaVuSans-50"/>
       <use transform="translate(63.623047 0.78125)" xlink:href="#DejaVuSans-48"/>
      </g>
     </g>
    </g>
    <g id="xtick_6">
     <g id="line2d_11">
      <path clip-path="url(#p46a71d08d1)" d="M 64.15183 285.165354 
L 64.15183 2.834646 
" style="fill:none;stroke:#000000;stroke-linecap:square;stroke-opacity:0.05;stroke-width:0.5;"/>
     </g>
     <g id="line2d_12">
      <defs>
       <path d="M 0 0 
L 0 -2 
" id="mddb6c382a4" style="stroke:#000000;stroke-width:0.5;"/>
      </defs>
      <g>
       <use style="stroke:#000000;stroke-width:0.5;" x="64.15183" xlink:href="#mddb6c382a4" y="139.091151"/>
      </g>
     </g>
    </g>
    <g id="xtick_7">
     <g id="line2d_13">
      <path clip-path="url(#p46a71d08d1)" d="M 90.121908 285.165354 
L 90.121908 2.834646 
" style="fill:none;stroke:#000000;stroke-linecap:square;stroke-opacity:0.05;stroke-width:0.5;"/>
     </g>
     <g id="line2d_14">
      <g>
       <use style="stroke:#000000;stroke-width:0.5;" x="90.121908" xlink:href="#mddb6c382a4" y="139.091151"/>
      </g>
     </g>
    </g>
    <g id="xtick_8">
     <g id="line2d_15">
      <path clip-path="url(#p46a71d08d1)" d="M 116.091986 285.165354 
L 116.091986 2.834646 
" style="fill:none;stroke:#000000;stroke-linecap:square;stroke-opacity:0.05;stroke-width:0.5;"/>
     </g>
     <g id="line2d_16">
      <g>
       <use style="stroke:#000000;stroke-width:0.5;" x="116.091986" xlink:href="#mddb6c382a4" y="139.091151"/>
      </g>
     </g>
    </g>
    <g id="xtick_9">
     <g id="line2d_17">
      <path clip-path="url(#p46a71d08d1)" d="M 142.062064 285.165354 
L 142.062064 2.834646 
" style="fill:none;stroke:#000000;stroke-linecap:square;stroke-opacity:0.05;stroke-width:0.5;"/>
     </g>
     <g id="line2d_18">
      <g>
       <use style="stroke:#000000;stroke-width:0.5;" x="142.062064" xlink:href="#mddb6c382a4" y="139.091151"/>
      </g>
     </g>
    </g>
    <g id="xtick_10">
     <g id="line2d_19">
      <path clip-path="url(#p46a71d08d1)" d="M 194.002219 285.165354 
L 194.002219 2.834646 
" style="fill:none;stroke:#000000;stroke-linecap:square;stroke-opacity:0.05;stroke-width:0.5;"/>
     </g>
     <g id="line2d_20">
      <g>
       <use style="stroke:#000000;stroke-width:0.5;" x="194.002219" xlink:href="#mddb6c382a4" y="139.091151"/>
      </g>
     </g>
    </g>
    <g id="xtick_11">
     <g id="line2d_21">
      <path clip-path="url(#p46a71d08d1)" d="M 219.972297 285.165354 
L 219.972297 2.834646 
" style="fill:none;stroke:#000000;stroke-linecap:square;stroke-opacity:0.05;stroke-width:0.5;"/>
     </g>
     <g id="line2d_22">
      <g>
       <use style="stroke:#000000;stroke-width:0.5;" x="219.972297" xlink:href="#mddb6c382a4" y="139.091151"/>
      </g>
     </g>
    </g>
    <g id="xtick_12">
     <g id="line2d_23">
      <path clip-path="url(#p46a71d08d1)" d="M 245.942375 285.165354 
L 245.942375 2.834646 
" style="fill:none;stroke:#000000;stroke-linecap:square;stroke-opacity:0.05;stroke-width:0.5;"/>
     </g>
     <g id="line2d_24">
      <g>
       <use style="stroke:#000000;stroke-width:0.5;" x="245.942375" xlink:href="#mddb6c382a4" y="139.091151"/>
      </g>
     </g>
    </g>
    <g id="xtick_13">
     <g id="line2d_25">
      <path clip-path="url(#p46a71d08d1)" d="M 271.912452 285.165354 
L 271.912452 2.834646 
" style="fill:none;stroke:#000000;stroke-linecap:square;stroke-opacity:0.05;stroke-width:0.5;"/>
     </g>
     <g id="line2d_26">
      <g>
       <use style="stroke:#000000;stroke-width:0.5;" x="271.912452" xlink:href="#mddb6c382a4" y="139.091151"/>
      </g>
     </g>
    </g>
    <g id="xtick_14">
     <g id="line2d_27">
      <path clip-path="url(#p46a71d08d1)" d="M 323.852608 285.165354 
L 323.852608 2.834646 
" style="fill:none;stroke:#000000;stroke-linecap:square;stroke-opacity:0.05;stroke-width:0.5;"/>
     </g>
     <g id="line2d_28">
      <g>
       <use style="stroke:#000000;stroke-width:0.5;" x="323.852608" xlink:href="#mddb6c382a4" y="139.091151"/>
      </g>
     </g>
    </g>
    <g id="xtick_15">
     <g id="line2d_29">
      <path clip-path="url(#p46a71d08d1)" d="M 349.822686 285.165354 
L 349.822686 2.834646 
" style="fill:none;stroke:#000000;stroke-linecap:square;stroke-opacity:0.05;stroke-width:0.5;"/>
     </g>
     <g id="line2d_30">
      <g>
       <use style="stroke:#000000;stroke-width:0.5;" x="349.822686" xlink:href="#mddb6c382a4" y="139.091151"/>
      </g>
     </g>
    </g>
    <g id="xtick_16">
     <g id="line2d_31">
      <path clip-path="url(#p46a71d08d1)" d="M 375.792763 285.165354 
L 375.792763 2.834646 
" style="fill:none;stroke:#000000;stroke-linecap:square;stroke-opacity:0.05;stroke-width:0.5;"/>
     </g>
     <g id="line2d_32">
      <g>
       <use style="stroke:#000000;stroke-width:0.5;" x="375.792763" xlink:href="#mddb6c382a4" y="139.091151"/>
      </g>
     </g>
    </g>
    <g id="xtick_17">
     <g id="line2d_33">
      <path clip-path="url(#p46a71d08d1)" d="M 401.762841 285.165354 
L 401.762841 2.834646 
" style="fill:none;stroke:#000000;stroke-linecap:square;stroke-opacity:0.05;stroke-width:0.5;"/>
     </g>
     <g id="line2d_34">
      <g>
       <use style="stroke:#000000;stroke-width:0.5;" x="401.762841" xlink:href="#mddb6c382a4" y="139.091151"/>
      </g>
     </g>
    </g>
    <g id="xtick_18">
     <g id="line2d_35">
      <path clip-path="url(#p46a71d08d1)" d="M 453.702997 285.165354 
L 453.702997 2.834646 
" style="fill:none;stroke:#000000;stroke-linecap:square;stroke-opacity:0.05;stroke-width:0.5;"/>
     </g>
     <g id="line2d_36">
      <g>
       <use style="stroke:#000000;stroke-width:0.5;" x="453.702997" xlink:href="#mddb6c382a4" y="139.091151"/>
      </g>
     </g>
    </g>
    <g id="xtick_19">
     <g id="line2d_37">
      <path clip-path="url(#p46a71d08d1)" d="M 479.673074 285.165354 
L 479.673074 2.834646 
" style="fill:none;stroke:#000000;stroke-linecap:square;stroke-opacity:0.05;stroke-width:0.5;"/>
     </g>
     <g id="line2d_38">
      <g>
       <use style="stroke:#000000;stroke-width:0.5;" x="479.673074" xlink:href="#mddb6c382a4" y="139.091151"/>
      </g>
     </g>
    </g>
    <g id="xtick_20">
     <g id="line2d_39">
      <path clip-path="url(#p46a71d08d1)" d="M 505.643152 285.165354 
L 505.643152 2.834646 
" style="fill:none;stroke:#000000;stroke-linecap:square;stroke-opacity:0.05;stroke-width:0.5;"/>
     </g>
     <g id="line2d_40">
      <g>
       <use style="stroke:#000000;stroke-width:0.5;" x="505.643152" xlink:href="#mddb6c382a4" y="139.091151"/>
      </g>
     </g>
    </g>
    <g id="xtick_21">
     <g id="line2d_41">
      <path clip-path="url(#p46a71d08d1)" d="M 531.61323 285.165354 
L 531.61323 2.834646 
" style="fill:none;stroke:#000000;stroke-linecap:square;stroke-opacity:0.05;stroke-width:0.5;"/>
     </g>
     <g id="line2d_42">
      <g>
       <use style="stroke:#000000;stroke-width:0.5;" x="531.61323" xlink:href="#mddb6c382a4" y="139.091151"/>
      </g>
     </g>
    </g>
    <g id="text_6">
     <!-- Time (s) -->
     <g transform="translate(275.520733 162.691932)scale(0.11 -0.11)">
      <defs>
       <path d="M -0.296875 72.90625 
L 61.375 72.90625 
L 61.375 64.59375 
L 35.5 64.59375 
L 35.5 0 
L 25.59375 0 
L 25.59375 64.59375 
L -0.296875 64.59375 
z
" id="DejaVuSans-84"/>
       <path d="M 9.421875 54.6875 
L 18.40625 54.6875 
L 18.40625 0 
L 9.421875 0 
z
M 9.421875 75.984375 
L 18.40625 75.984375 
L 18.40625 64.59375 
L 9.421875 64.59375 
z
" id="DejaVuSans-105"/>
       <path d="M 52 44.1875 
Q 55.375 50.25 60.0625 53.125 
Q 64.75 56 71.09375 56 
Q 79.640625 56 84.28125 50.015625 
Q 88.921875 44.046875 88.921875 33.015625 
L 88.921875 0 
L 79.890625 0 
L 79.890625 32.71875 
Q 79.890625 40.578125 77.09375 44.375 
Q 74.3125 48.1875 68.609375 48.1875 
Q 61.625 48.1875 57.5625 43.546875 
Q 53.515625 38.921875 53.515625 30.90625 
L 53.515625 0 
L 44.484375 0 
L 44.484375 32.71875 
Q 44.484375 40.625 41.703125 44.40625 
Q 38.921875 48.1875 33.109375 48.1875 
Q 26.21875 48.1875 22.15625 43.53125 
Q 18.109375 38.875 18.109375 30.90625 
L 18.109375 0 
L 9.078125 0 
L 9.078125 54.6875 
L 18.109375 54.6875 
L 18.109375 46.1875 
Q 21.1875 51.21875 25.484375 53.609375 
Q 29.78125 56 35.6875 56 
Q 41.65625 56 45.828125 52.96875 
Q 50 49.953125 52 44.1875 
z
" id="DejaVuSans-109"/>
       <path d="M 56.203125 29.59375 
L 56.203125 25.203125 
L 14.890625 25.203125 
Q 15.484375 15.921875 20.484375 11.0625 
Q 25.484375 6.203125 34.421875 6.203125 
Q 39.59375 6.203125 44.453125 7.46875 
Q 49.3125 8.734375 54.109375 11.28125 
L 54.109375 2.78125 
Q 49.265625 0.734375 44.1875 -0.34375 
Q 39.109375 -1.421875 33.890625 -1.421875 
Q 20.796875 -1.421875 13.15625 6.1875 
Q 5.515625 13.8125 5.515625 26.8125 
Q 5.515625 40.234375 12.765625 48.109375 
Q 20.015625 56 32.328125 56 
Q 43.359375 56 49.78125 48.890625 
Q 56.203125 41.796875 56.203125 29.59375 
z
M 47.21875 32.234375 
Q 47.125 39.59375 43.09375 43.984375 
Q 39.0625 48.390625 32.421875 48.390625 
Q 24.90625 48.390625 20.390625 44.140625 
Q 15.875 39.890625 15.1875 32.171875 
z
" id="DejaVuSans-101"/>
       <path id="DejaVuSans-32"/>
       <path d="M 31 75.875 
Q 24.46875 64.65625 21.28125 53.65625 
Q 18.109375 42.671875 18.109375 31.390625 
Q 18.109375 20.125 21.3125 9.0625 
Q 24.515625 -2 31 -13.1875 
L 23.1875 -13.1875 
Q 15.875 -1.703125 12.234375 9.375 
Q 8.59375 20.453125 8.59375 31.390625 
Q 8.59375 42.28125 12.203125 53.3125 
Q 15.828125 64.359375 23.1875 75.875 
z
" id="DejaVuSans-40"/>
       <path d="M 44.28125 53.078125 
L 44.28125 44.578125 
Q 40.484375 46.53125 36.375 47.5 
Q 32.28125 48.484375 27.875 48.484375 
Q 21.1875 48.484375 17.84375 46.4375 
Q 14.5 44.390625 14.5 40.28125 
Q 14.5 37.15625 16.890625 35.375 
Q 19.28125 33.59375 26.515625 31.984375 
L 29.59375 31.296875 
Q 39.15625 29.25 43.1875 25.515625 
Q 47.21875 21.78125 47.21875 15.09375 
Q 47.21875 7.46875 41.1875 3.015625 
Q 35.15625 -1.421875 24.609375 -1.421875 
Q 20.21875 -1.421875 15.453125 -0.5625 
Q 10.6875 0.296875 5.421875 2 
L 5.421875 11.28125 
Q 10.40625 8.6875 15.234375 7.390625 
Q 20.0625 6.109375 24.8125 6.109375 
Q 31.15625 6.109375 34.5625 8.28125 
Q 37.984375 10.453125 37.984375 14.40625 
Q 37.984375 18.0625 35.515625 20.015625 
Q 33.0625 21.96875 24.703125 23.78125 
L 21.578125 24.515625 
Q 13.234375 26.265625 9.515625 29.90625 
Q 5.8125 33.546875 5.8125 39.890625 
Q 5.8125 47.609375 11.28125 51.796875 
Q 16.75 56 26.8125 56 
Q 31.78125 56 36.171875 55.265625 
Q 40.578125 54.546875 44.28125 53.078125 
z
" id="DejaVuSans-115"/>
       <path d="M 8.015625 75.875 
L 15.828125 75.875 
Q 23.140625 64.359375 26.78125 53.3125 
Q 30.421875 42.28125 30.421875 31.390625 
Q 30.421875 20.453125 26.78125 9.375 
Q 23.140625 -1.703125 15.828125 -13.1875 
L 8.015625 -13.1875 
Q 14.5 -2 17.703125 9.0625 
Q 20.90625 20.125 20.90625 31.390625 
Q 20.90625 42.671875 17.703125 53.65625 
Q 14.5 64.65625 8.015625 75.875 
z
" id="DejaVuSans-41"/>
      </defs>
      <use xlink:href="#DejaVuSans-84"/>
      <use x="57.958984" xlink:href="#DejaVuSans-105"/>
      <use x="85.742188" xlink:href="#DejaVuSans-109"/>
      <use x="183.154297" xlink:href="#DejaVuSans-101"/>
      <use x="244.677734" xlink:href="#DejaVuSans-32"/>
      <use x="276.464844" xlink:href="#DejaVuSans-40"/>
      <use x="315.478516" xlink:href="#DejaVuSans-115"/>
      <use x="367.578125" xlink:href="#DejaVuSans-41"/>
     </g>
    </g>
   </g>
   <g id="matplotlib.axis_2">
    <g id="ytick_1">
     <g id="line2d_43">
      <path clip-path="url(#p46a71d08d1)" d="M 22.599706 263.71661 
L 573.165354 263.71661 
" style="fill:none;stroke:#000000;stroke-linecap:square;stroke-opacity:0.1;stroke-width:0.5;"/>
     </g>
     <g id="line2d_44">
      <defs>
       <path d="M 0 0 
L 2.5 0 
" id="mfe8457d882" style="stroke:#000000;stroke-width:0.5;"/>
      </defs>
      <g>
       <use style="stroke:#000000;stroke-width:0.5;" x="38.181753" xlink:href="#mfe8457d882" y="263.71661"/>
      </g>
     </g>
     <g id="text_7">
      <!-- $\mathregular{-40}$ -->
      <g transform="translate(17.721753 266.755985)scale(0.08 -0.08)">
       <defs>
        <path d="M 10.59375 35.5 
L 73.1875 35.5 
L 73.1875 27.203125 
L 10.59375 27.203125 
z
" id="DejaVuSans-8722"/>
        <path d="M 37.796875 64.3125 
L 12.890625 25.390625 
L 37.796875 25.390625 
z
M 35.203125 72.90625 
L 47.609375 72.90625 
L 47.609375 25.390625 
L 58.015625 25.390625 
L 58.015625 17.1875 
L 47.609375 17.1875 
L 47.609375 0 
L 37.796875 0 
L 37.796875 17.1875 
L 4.890625 17.1875 
L 4.890625 26.703125 
z
" id="DejaVuSans-52"/>
       </defs>
       <use transform="translate(0 0.78125)" xlink:href="#DejaVuSans-8722"/>
       <use transform="translate(83.789062 0.78125)" xlink:href="#DejaVuSans-52"/>
       <use transform="translate(147.412109 0.78125)" xlink:href="#DejaVuSans-48"/>
      </g>
     </g>
    </g>
    <g id="ytick_2">
     <g id="line2d_45">
      <path clip-path="url(#p46a71d08d1)" d="M 22.599706 201.403881 
L 573.165354 201.403881 
" style="fill:none;stroke:#000000;stroke-linecap:square;stroke-opacity:0.1;stroke-width:0.5;"/>
     </g>
     <g id="line2d_46">
      <g>
       <use style="stroke:#000000;stroke-width:0.5;" x="38.181753" xlink:href="#mfe8457d882" y="201.403881"/>
      </g>
     </g>
     <g id="text_8">
      <!-- $\mathregular{-20}$ -->
      <g transform="translate(17.721753 204.443256)scale(0.08 -0.08)">
       <use transform="translate(0 0.78125)" xlink:href="#DejaVuSans-8722"/>
       <use transform="translate(83.789062 0.78125)" xlink:href="#DejaVuSans-50"/>
       <use transform="translate(147.412109 0.78125)" xlink:href="#DejaVuSans-48"/>
      </g>
     </g>
    </g>
    <g id="ytick_3">
     <g id="line2d_47">
      <path clip-path="url(#p46a71d08d1)" d="M 22.599706 139.091151 
L 573.165354 139.091151 
" style="fill:none;stroke:#000000;stroke-linecap:square;stroke-opacity:0.1;stroke-width:0.5;"/>
     </g>
     <g id="line2d_48">
      <g>
       <use style="stroke:#000000;stroke-width:0.5;" x="38.181753" xlink:href="#mfe8457d882" y="139.091151"/>
      </g>
     </g>
     <g id="text_9">
      <!-- $\mathregular{}$ -->
      <g transform="translate(34.681753 142.130526)scale(0.08 -0.08)"/>
     </g>
    </g>
    <g id="ytick_4">
     <g id="line2d_49">
      <path clip-path="url(#p46a71d08d1)" d="M 22.599706 76.778422 
L 573.165354 76.778422 
" style="fill:none;stroke:#000000;stroke-linecap:square;stroke-opacity:0.1;stroke-width:0.5;"/>
     </g>
     <g id="line2d_50">
      <g>
       <use style="stroke:#000000;stroke-width:0.5;" x="38.181753" xlink:href="#mfe8457d882" y="76.778422"/>
      </g>
     </g>
     <g id="text_10">
      <!-- $\mathregular{20}$ -->
      <g transform="translate(24.441753 79.817797)scale(0.08 -0.08)">
       <use transform="translate(0 0.78125)" xlink:href="#DejaVuSans-50"/>
       <use transform="translate(63.623047 0.78125)" xlink:href="#DejaVuSans-48"/>
      </g>
     </g>
    </g>
    <g id="ytick_5">
     <g id="line2d_51">
      <path clip-path="url(#p46a71d08d1)" d="M 22.599706 14.465692 
L 573.165354 14.465692 
" style="fill:none;stroke:#000000;stroke-linecap:square;stroke-opacity:0.1;stroke-width:0.5;"/>
     </g>
     <g id="line2d_52">
      <g>
       <use style="stroke:#000000;stroke-width:0.5;" x="38.181753" xlink:href="#mfe8457d882" y="14.465692"/>
      </g>
     </g>
     <g id="text_11">
      <!-- $\mathregular{40}$ -->
      <g transform="translate(24.441753 17.505067)scale(0.08 -0.08)">
       <use transform="translate(0 0.78125)" xlink:href="#DejaVuSans-52"/>
       <use transform="translate(63.623047 0.78125)" xlink:href="#DejaVuSans-48"/>
      </g>
     </g>
    </g>
    <g id="ytick_6">
     <g id="line2d_53">
      <path clip-path="url(#p46a71d08d1)" d="M 22.599706 279.294793 
L 573.165354 279.294793 
" style="fill:none;stroke:#000000;stroke-linecap:square;stroke-opacity:0.05;stroke-width:0.5;"/>
     </g>
     <g id="line2d_54">
      <defs>
       <path d="M 0 0 
L 2 0 
" id="m62f54497a4" style="stroke:#000000;stroke-width:0.5;"/>
      </defs>
      <g>
       <use style="stroke:#000000;stroke-width:0.5;" x="38.181753" xlink:href="#m62f54497a4" y="279.294793"/>
      </g>
     </g>
    </g>
    <g id="ytick_7">
     <g id="line2d_55">
      <path clip-path="url(#p46a71d08d1)" d="M 22.599706 248.138428 
L 573.165354 248.138428 
" style="fill:none;stroke:#000000;stroke-linecap:square;stroke-opacity:0.05;stroke-width:0.5;"/>
     </g>
     <g id="line2d_56">
      <g>
       <use style="stroke:#000000;stroke-width:0.5;" x="38.181753" xlink:href="#m62f54497a4" y="248.138428"/>
      </g>
     </g>
    </g>
    <g id="ytick_8">
     <g id="line2d_57">
      <path clip-path="url(#p46a71d08d1)" d="M 22.599706 232.560245 
L 573.165354 232.560245 
" style="fill:none;stroke:#000000;stroke-linecap:square;stroke-opacity:0.05;stroke-width:0.5;"/>
     </g>
     <g id="line2d_58">
      <g>
       <use style="stroke:#000000;stroke-width:0.5;" x="38.181753" xlink:href="#m62f54497a4" y="232.560245"/>
      </g>
     </g>
    </g>
    <g id="ytick_9">
     <g id="line2d_59">
      <path clip-path="url(#p46a71d08d1)" d="M 22.599706 216.982063 
L 573.165354 216.982063 
" style="fill:none;stroke:#000000;stroke-linecap:square;stroke-opacity:0.05;stroke-width:0.5;"/>
     </g>
     <g id="line2d_60">
      <g>
       <use style="stroke:#000000;stroke-width:0.5;" x="38.181753" xlink:href="#m62f54497a4" y="216.982063"/>
      </g>
     </g>
    </g>
    <g id="ytick_10">
     <g id="line2d_61">
      <path clip-path="url(#p46a71d08d1)" d="M 22.599706 185.825698 
L 573.165354 185.825698 
" style="fill:none;stroke:#000000;stroke-linecap:square;stroke-opacity:0.05;stroke-width:0.5;"/>
     </g>
     <g id="line2d_62">
      <g>
       <use style="stroke:#000000;stroke-width:0.5;" x="38.181753" xlink:href="#m62f54497a4" y="185.825698"/>
      </g>
     </g>
    </g>
    <g id="ytick_11">
     <g id="line2d_63">
      <path clip-path="url(#p46a71d08d1)" d="M 22.599706 170.247516 
L 573.165354 170.247516 
" style="fill:none;stroke:#000000;stroke-linecap:square;stroke-opacity:0.05;stroke-width:0.5;"/>
     </g>
     <g id="line2d_64">
      <g>
       <use style="stroke:#000000;stroke-width:0.5;" x="38.181753" xlink:href="#m62f54497a4" y="170.247516"/>
      </g>
     </g>
    </g>
    <g id="ytick_12">
     <g id="line2d_65">
      <path clip-path="url(#p46a71d08d1)" d="M 22.599706 154.669334 
L 573.165354 154.669334 
" style="fill:none;stroke:#000000;stroke-linecap:square;stroke-opacity:0.05;stroke-width:0.5;"/>
     </g>
     <g id="line2d_66">
      <g>
       <use style="stroke:#000000;stroke-width:0.5;" x="38.181753" xlink:href="#m62f54497a4" y="154.669334"/>
      </g>
     </g>
    </g>
    <g id="ytick_13">
     <g id="line2d_67">
      <path clip-path="url(#p46a71d08d1)" d="M 22.599706 123.512969 
L 573.165354 123.512969 
" style="fill:none;stroke:#000000;stroke-linecap:square;stroke-opacity:0.05;stroke-width:0.5;"/>
     </g>
     <g id="line2d_68">
      <g>
       <use style="stroke:#000000;stroke-width:0.5;" x="38.181753" xlink:href="#m62f54497a4" y="123.512969"/>
      </g>
     </g>
    </g>
    <g id="ytick_14">
     <g id="line2d_69">
      <path clip-path="url(#p46a71d08d1)" d="M 22.599706 107.934786 
L 573.165354 107.934786 
" style="fill:none;stroke:#000000;stroke-linecap:square;stroke-opacity:0.05;stroke-width:0.5;"/>
     </g>
     <g id="line2d_70">
      <g>
       <use style="stroke:#000000;stroke-width:0.5;" x="38.181753" xlink:href="#m62f54497a4" y="107.934786"/>
      </g>
     </g>
    </g>
    <g id="ytick_15">
     <g id="line2d_71">
      <path clip-path="url(#p46a71d08d1)" d="M 22.599706 92.356604 
L 573.165354 92.356604 
" style="fill:none;stroke:#000000;stroke-linecap:square;stroke-opacity:0.05;stroke-width:0.5;"/>
     </g>
     <g id="line2d_72">
      <g>
       <use style="stroke:#000000;stroke-width:0.5;" x="38.181753" xlink:href="#m62f54497a4" y="92.356604"/>
      </g>
     </g>
    </g>
    <g id="ytick_16">
     <g id="line2d_73">
      <path clip-path="url(#p46a71d08d1)" d="M 22.599706 61.200239 
L 573.165354 61.200239 
" style="fill:none;stroke:#000000;stroke-linecap:square;stroke-opacity:0.05;stroke-width:0.5;"/>
     </g>
     <g id="line2d_74">
      <g>
       <use style="stroke:#000000;stroke-width:0.5;" x="38.181753" xlink:href="#m62f54497a4" y="61.200239"/>
      </g>
     </g>
    </g>
    <g id="ytick_17">
     <g id="line2d_75">
      <path clip-path="url(#p46a71d08d1)" d="M 22.599706 45.622057 
L 573.165354 45.622057 
" style="fill:none;stroke:#000000;stroke-linecap:square;stroke-opacity:0.05;stroke-width:0.5;"/>
     </g>
     <g id="line2d_76">
      <g>
       <use style="stroke:#000000;stroke-width:0.5;" x="38.181753" xlink:href="#m62f54497a4" y="45.622057"/>
      </g>
     </g>
    </g>
    <g id="ytick_18">
     <g id="line2d_77">
      <path clip-path="url(#p46a71d08d1)" d="M 22.599706 30.043875 
L 573.165354 30.043875 
" style="fill:none;stroke:#000000;stroke-linecap:square;stroke-opacity:0.05;stroke-width:0.5;"/>
     </g>
     <g id="line2d_78">
      <g>
       <use style="stroke:#000000;stroke-width:0.5;" x="38.181753" xlink:href="#m62f54497a4" y="30.043875"/>
      </g>
     </g>
    </g>
    <g id="text_12">
     <!-- Response -->
     <g transform="translate(11.434096 170.415469)rotate(-90)scale(0.11 -0.11)">
      <defs>
       <path d="M 44.390625 34.1875 
Q 47.5625 33.109375 50.5625 29.59375 
Q 53.5625 26.078125 56.59375 19.921875 
L 66.609375 0 
L 56 0 
L 46.6875 18.703125 
Q 43.0625 26.03125 39.671875 28.421875 
Q 36.28125 30.8125 30.421875 30.8125 
L 19.671875 30.8125 
L 19.671875 0 
L 9.8125 0 
L 9.8125 72.90625 
L 32.078125 72.90625 
Q 44.578125 72.90625 50.734375 67.671875 
Q 56.890625 62.453125 56.890625 51.90625 
Q 56.890625 45.015625 53.6875 40.46875 
Q 50.484375 35.9375 44.390625 34.1875 
z
M 19.671875 64.796875 
L 19.671875 38.921875 
L 32.078125 38.921875 
Q 39.203125 38.921875 42.84375 42.21875 
Q 46.484375 45.515625 46.484375 51.90625 
Q 46.484375 58.296875 42.84375 61.546875 
Q 39.203125 64.796875 32.078125 64.796875 
z
" id="DejaVuSans-82"/>
       <path d="M 18.109375 8.203125 
L 18.109375 -20.796875 
L 9.078125 -20.796875 
L 9.078125 54.6875 
L 18.109375 54.6875 
L 18.109375 46.390625 
Q 20.953125 51.265625 25.265625 53.625 
Q 29.59375 56 35.59375 56 
Q 45.5625 56 51.78125 48.09375 
Q 58.015625 40.1875 58.015625 27.296875 
Q 58.015625 14.40625 51.78125 6.484375 
Q 45.5625 -1.421875 35.59375 -1.421875 
Q 29.59375 -1.421875 25.265625 0.953125 
Q 20.953125 3.328125 18.109375 8.203125 
z
M 48.6875 27.296875 
Q 48.6875 37.203125 44.609375 42.84375 
Q 40.53125 48.484375 33.40625 48.484375 
Q 26.265625 48.484375 22.1875 42.84375 
Q 18.109375 37.203125 18.109375 27.296875 
Q 18.109375 17.390625 22.1875 11.75 
Q 26.265625 6.109375 33.40625 6.109375 
Q 40.53125 6.109375 44.609375 11.75 
Q 48.6875 17.390625 48.6875 27.296875 
z
" id="DejaVuSans-112"/>
       <path d="M 30.609375 48.390625 
Q 23.390625 48.390625 19.1875 42.75 
Q 14.984375 37.109375 14.984375 27.296875 
Q 14.984375 17.484375 19.15625 11.84375 
Q 23.34375 6.203125 30.609375 6.203125 
Q 37.796875 6.203125 41.984375 11.859375 
Q 46.1875 17.53125 46.1875 27.296875 
Q 46.1875 37.015625 41.984375 42.703125 
Q 37.796875 48.390625 30.609375 48.390625 
z
M 30.609375 56 
Q 42.328125 56 49.015625 48.375 
Q 55.71875 40.765625 55.71875 27.296875 
Q 55.71875 13.875 49.015625 6.21875 
Q 42.328125 -1.421875 30.609375 -1.421875 
Q 18.84375 -1.421875 12.171875 6.21875 
Q 5.515625 13.875 5.515625 27.296875 
Q 5.515625 40.765625 12.171875 48.375 
Q 18.84375 56 30.609375 56 
z
" id="DejaVuSans-111"/>
       <path d="M 54.890625 33.015625 
L 54.890625 0 
L 45.90625 0 
L 45.90625 32.71875 
Q 45.90625 40.484375 42.875 44.328125 
Q 39.84375 48.1875 33.796875 48.1875 
Q 26.515625 48.1875 22.3125 43.546875 
Q 18.109375 38.921875 18.109375 30.90625 
L 18.109375 0 
L 9.078125 0 
L 9.078125 54.6875 
L 18.109375 54.6875 
L 18.109375 46.1875 
Q 21.34375 51.125 25.703125 53.5625 
Q 30.078125 56 35.796875 56 
Q 45.21875 56 50.046875 50.171875 
Q 54.890625 44.34375 54.890625 33.015625 
z
" id="DejaVuSans-110"/>
      </defs>
      <use xlink:href="#DejaVuSans-82"/>
      <use x="64.982422" xlink:href="#DejaVuSans-101"/>
      <use x="126.505859" xlink:href="#DejaVuSans-115"/>
      <use x="178.605469" xlink:href="#DejaVuSans-112"/>
      <use x="242.082031" xlink:href="#DejaVuSans-111"/>
      <use x="303.263672" xlink:href="#DejaVuSans-110"/>
      <use x="366.642578" xlink:href="#DejaVuSans-115"/>
      <use x="418.742188" xlink:href="#DejaVuSans-101"/>
     </g>
    </g>
   </g>
   <g id="line2d_79">
    <path clip-path="url(#p46a71d08d1)" d="M 38.181753 123.512969 
L 115.832285 123.512969 
L 116.091986 139.091151 
L 557.583308 139.091151 
L 557.583308 139.091151 
" style="fill:none;stroke:#009afa;stroke-width:3;"/>
   </g>
   <g id="line2d_80">
    <path clip-path="url(#p46a71d08d1)" d="M 38.181753 139.091151 
L 39.739957 138.998885 
L 41.298162 138.691006 
L 43.116067 138.089048 
L 45.193674 137.157957 
L 51.686193 134.043233 
L 53.504098 133.530918 
L 55.062303 133.322884 
L 56.620508 133.349426 
L 58.178712 133.611563 
L 59.736917 134.091579 
L 61.554823 134.879019 
L 64.15183 136.268388 
L 67.787641 138.208144 
L 69.605547 138.941577 
L 71.163751 139.354722 
L 72.721956 139.530681 
L 74.280161 139.452284 
L 75.838365 139.122373 
L 77.39657 138.563848 
L 79.214475 137.679419 
L 82.071184 136.003524 
L 85.187593 134.234935 
L 87.005499 133.451328 
L 88.563703 133.013127 
L 90.121908 132.831082 
L 91.420412 132.888617 
L 92.978617 133.207151 
L 94.536821 133.776503 
L 96.354727 134.700773 
L 98.951735 136.318655 
L 102.327845 138.41649 
L 104.14575 139.292454 
L 105.703955 139.799833 
L 107.002459 140.016596 
L 108.300962 140.030454 
L 109.599466 139.838387 
L 111.157671 139.348607 
L 112.715876 138.610073 
L 114.793482 137.336684 
L 118.169592 135.169024 
L 119.468096 134.633185 
L 120.7666 134.338004 
L 122.065104 134.302485 
L 123.363608 134.531479 
L 124.662111 135.015257 
L 125.960615 135.729889 
L 127.51882 136.839312 
L 129.856127 138.836081 
L 133.491938 141.975299 
L 135.050143 143.043717 
L 136.348646 143.707751 
L 137.64715 144.123777 
L 138.945654 144.266022 
L 139.984457 144.174841 
L 141.282961 143.807284 
L 142.581465 143.174747 
L 144.13967 142.112009 
L 145.957575 140.557229 
L 151.930693 135.15693 
L 153.229197 134.353879 
L 154.527701 133.803967 
L 155.566504 133.56914 
L 156.605307 133.52784 
L 157.64411 133.683249 
L 158.682913 134.031608 
L 159.981417 134.721573 
L 161.279921 135.66093 
L 163.097827 137.299059 
L 169.330645 143.35946 
L 170.629149 144.215783 
L 171.927653 144.798129 
L 172.966456 145.042499 
L 174.005259 145.078218 
L 175.044062 144.902168 
L 176.082865 144.518704 
L 177.381369 143.766264 
L 178.679873 142.746836 
L 180.238078 141.247237 
L 183.094786 138.095289 
L 185.432093 135.617197 
L 186.990298 134.256952 
L 188.288802 133.399478 
L 189.327605 132.931455 
L 190.366408 132.677478 
L 191.405211 132.648444 
L 192.444014 132.847379 
L 193.482818 133.269261 
L 194.781321 134.089655 
L 196.079825 135.195846 
L 197.63803 136.817867 
L 200.494739 140.215181 
L 202.832046 142.876108 
L 204.39025 144.331237 
L 205.688754 145.244338 
L 206.727557 145.739042 
L 207.76636 146.002644 
L 208.805163 146.023752 
L 209.843967 145.799467 
L 210.88277 145.335553 
L 211.921573 144.646318 
L 213.220077 143.502777 
L 214.778281 141.797954 
L 217.115588 138.840956 
L 219.972297 135.260895 
L 221.530502 133.644254 
L 222.829005 132.60696 
L 223.867809 132.024783 
L 224.906612 131.687756 
L 225.945415 131.609996 
L 226.984218 131.796558 
L 228.023021 132.243182 
L 229.061824 132.936355 
L 230.360328 134.114671 
L 231.918533 135.902719 
L 233.996139 138.691333 
L 237.372249 143.267802 
L 238.930454 144.997923 
L 240.228957 146.103305 
L 241.267761 146.719611 
L 242.306564 147.07116 
L 243.345367 147.143145 
L 244.38417 146.930534 
L 245.422973 146.438332 
L 246.461776 145.681492 
L 247.76028 144.401402 
L 249.318485 142.465916 
L 251.396091 139.456784 
L 254.772201 134.537758 
L 256.330406 132.686376 
L 257.62891 131.50864 
L 258.667713 130.856436 
L 259.706516 130.490147 
L 260.485618 130.412789 
L 261.26472 130.507873 
L 262.303524 130.90111 
L 263.342327 131.587964 
L 264.38113 132.546711 
L 265.679634 134.078579 
L 267.237838 136.296963 
L 270.094547 140.879405 
L 272.172153 144.054229 
L 273.730358 146.035172 
L 275.028862 147.289778 
L 276.067665 147.979714 
L 277.106468 148.360907 
L 277.88557 148.433994 
L 278.664673 148.321367 
L 279.443775 148.024035 
L 280.482578 147.348914 
L 281.521381 146.375274 
L 282.819885 144.78788 
L 284.37809 142.452477 
L 286.715397 138.452988 
L 289.312404 134.079647 
L 290.870609 131.881101 
L 292.169113 130.458404 
L 293.207916 129.649522 
L 294.246719 129.167918 
L 295.025822 129.033954 
L 295.804924 129.099535 
L 296.584026 129.364683 
L 297.363129 129.825441 
L 298.401932 130.729896 
L 299.440735 131.938572 
L 300.739239 133.815171 
L 302.297443 136.469784 
L 307.75116 146.184195 
L 309.049664 147.877226 
L 310.088467 148.899146 
L 311.12727 149.582702 
L 311.906372 149.856473 
L 312.685474 149.917515 
L 313.464577 149.763196 
L 314.243679 149.39516 
L 315.022781 148.819319 
L 316.061585 147.746307 
L 317.100388 146.357165 
L 318.398892 144.247844 
L 320.216797 140.8049 
L 324.372009 132.672053 
L 325.670513 130.609335 
L 326.709316 129.275572 
L 327.74812 128.277673 
L 328.527222 127.773194 
L 329.306324 127.490922 
L 330.085427 127.437961 
L 330.864529 127.616893 
L 331.643631 128.025695 
L 332.422734 128.657748 
L 333.461537 129.827936 
L 334.50034 131.336657 
L 335.798844 133.620738 
L 337.616749 137.338436 
L 341.771962 146.08227 
L 343.070465 148.289118 
L 344.109269 149.711148 
L 345.148072 150.769602 
L 345.927174 151.299835 
L 346.706276 151.590279 
L 347.485379 151.633552 
L 348.264481 151.427146 
L 349.043583 150.973514 
L 349.822686 150.280051 
L 350.861489 149.004164 
L 351.900292 147.365787 
L 353.198796 144.892691 
L 355.016701 140.878587 
L 359.171914 131.478458 
L 360.470418 129.117653 
L 361.509221 127.60176 
L 362.548024 126.479406 
L 363.327126 125.922476 
L 364.106228 125.624289 
L 364.885331 125.592508 
L 365.664433 125.829541 
L 366.443535 126.332451 
L 367.222638 127.092985 
L 368.261441 128.483822 
L 369.300244 130.262767 
L 370.598748 132.940278 
L 372.416653 137.274129 
L 376.312165 146.817981 
L 377.610669 149.440732 
L 378.649472 151.153975 
L 379.688275 152.455117 
L 380.467377 153.130021 
L 381.24648 153.529623 
L 382.025582 153.644129 
L 382.804684 153.46936 
L 383.583787 153.006874 
L 384.362889 152.263975 
L 385.401692 150.860395 
L 386.440495 149.027435 
L 387.738999 146.226857 
L 389.556905 141.62887 
L 393.971818 130.069505 
L 395.270322 127.368672 
L 396.309125 125.646912 
L 397.347928 124.386113 
L 398.12703 123.772997 
L 398.906133 123.46109 
L 399.685235 123.45861 
L 400.464337 123.767666 
L 401.24344 124.384171 
L 402.022542 125.297884 
L 403.061345 126.949606 
L 404.100148 129.0461 
L 405.398652 132.183693 
L 407.216557 137.23446 
L 411.112069 148.265514 
L 412.410573 151.269137 
L 413.449376 153.218188 
L 414.488179 154.684109 
L 415.267282 155.431993 
L 416.046384 155.859184 
L 416.825486 155.955035 
L 417.604589 155.715431 
L 418.383691 155.142916 
L 419.162793 154.246683 
L 419.941896 153.042443 
L 420.980699 150.996456 
L 422.279203 147.829901 
L 423.837407 143.362473 
L 429.031423 127.739366 
L 430.329927 124.783306 
L 431.36873 122.957803 
L 432.147832 121.950014 
L 432.926934 121.277139 
L 433.706037 120.954816 
L 434.225438 120.939299 
L 434.74484 121.084467 
L 435.523942 121.601859 
L 436.303045 122.47125 
L 437.082147 123.677656 
L 438.12095 125.771825 
L 439.159753 128.356417 
L 440.717958 132.957885 
L 443.055265 140.765746 
L 445.392572 148.432104 
L 446.950776 152.780997 
L 447.98958 155.126241 
L 449.028383 156.924283 
L 449.807485 157.871697 
L 450.586587 158.451122 
L 451.105989 158.62575 
L 451.62539 158.628152 
L 452.144792 158.457544 
L 452.923894 157.879287 
L 453.702997 156.92274 
L 454.482099 155.60445 
L 455.520902 153.326273 
L 456.819406 149.751684 
L 458.377611 144.650619 
L 464.091028 124.944513 
L 465.129831 122.307799 
L 466.168634 120.242205 
L 466.947736 119.115691 
L 467.726839 118.379789 
L 468.24624 118.115046 
L 468.765642 118.034894 
L 469.285043 118.140863 
L 469.804445 118.432837 
L 470.583547 119.215256 
L 471.36265 120.399003 
L 472.141752 121.963154 
L 473.180555 124.589876 
L 474.479059 128.616278 
L 476.037264 134.250393 
L 480.971578 152.842773 
L 482.270082 156.616421 
L 483.308885 158.976343 
L 484.087988 160.301772 
L 484.86709 161.213297 
L 485.386492 161.580356 
L 485.905893 161.749876 
L 486.425295 161.719481 
L 486.944696 161.488554 
L 487.464098 161.058253 
L 488.2432 160.045856 
L 489.022302 158.609101 
L 490.061106 156.079109 
L 491.099909 152.924865 
L 492.398413 148.267879 
L 494.476019 139.76964 
L 497.592428 126.945283 
L 498.890932 122.416958 
L 499.929735 119.411266 
L 500.968538 117.076026 
L 501.747641 115.818879 
L 502.526743 115.017179 
L 503.046144 114.745505 
L 503.565546 114.688232 
L 504.084947 114.846819 
L 504.604349 115.220817 
L 505.383451 116.180033 
L 506.162554 117.602242 
L 506.941656 119.462182 
L 507.980459 122.562776 
L 509.278963 127.286264 
L 510.837168 133.860582 
L 515.511782 154.378149 
L 516.810286 158.878439 
L 517.849089 161.737178 
L 518.628191 163.376336 
L 519.407293 164.542401 
L 519.926695 165.043522 
L 520.446096 165.317027 
L 520.965498 165.359488 
L 521.4849 165.169503 
L 522.004301 164.747727 
L 522.523703 164.096866 
L 523.302805 162.701982 
L 524.081907 160.82726 
L 525.12071 157.641602 
L 526.419214 152.710514 
L 527.977419 145.752851 
L 533.171435 121.416056 
L 534.469938 116.810081 
L 535.508742 113.965175 
L 536.287844 112.394227 
L 537.066946 111.34489 
L 537.586348 110.947593 
L 538.105749 110.797777 
L 538.625151 110.897863 
L 539.144552 111.248073 
L 539.663954 111.846414 
L 540.443056 113.199386 
L 541.222159 115.077376 
L 542.260962 118.337947 
L 543.299765 122.362638 
L 544.598269 128.258876 
L 546.675875 138.928761 
L 549.532584 153.632611 
L 550.831087 159.376817 
L 551.869891 163.224095 
L 552.908694 166.25065 
L 553.687796 167.911915 
L 554.466898 169.009841 
L 554.9863 169.415699 
L 555.505701 169.5548 
L 556.025103 169.424731 
L 556.544505 169.02545 
L 557.063906 168.359302 
L 557.583308 167.431003 
L 557.583308 167.431003 
" style="fill:none;stroke:#e36f47;stroke-width:3;"/>
   </g>
   <g id="patch_3">
    <path d="M 38.181753 285.165354 
L 38.181753 2.834646 
" style="fill:none;stroke:#000000;stroke-linecap:square;stroke-linejoin:miter;"/>
   </g>
   <g id="patch_4">
    <path d="M 22.599706 139.091151 
L 573.165354 139.091151 
" style="fill:none;stroke:#000000;stroke-linecap:square;stroke-linejoin:miter;"/>
   </g>
   <g id="line2d_81">
    <path clip-path="url(#p46a71d08d1)" d="M 38.181753 139.091151 
L 41.038461 132.533674 
L 42.596666 129.520219 
L 43.635469 127.898912 
L 44.674272 126.659683 
L 45.453374 126.00999 
L 46.232477 125.616679 
L 47.011579 125.489294 
L 47.790681 125.632143 
L 48.569784 126.044177 
L 49.348886 126.718975 
L 50.387689 128.00649 
L 51.426492 129.698103 
L 52.724996 132.293807 
L 54.283201 135.9292 
L 59.217516 147.944781 
L 60.516019 150.388269 
L 61.554823 151.918375 
L 62.593626 153.007676 
L 63.372728 153.509188 
L 64.15183 153.726689 
L 64.930933 153.653955 
L 65.710035 153.290504 
L 66.489137 152.641646 
L 67.26824 151.718412 
L 68.307043 150.09004 
L 69.345846 148.05758 
L 70.64435 145.054204 
L 72.721956 139.568415 
L 75.838365 131.279822 
L 77.39657 127.825821 
L 78.435373 125.980601 
L 79.474176 124.583424 
L 80.253279 123.862371 
L 81.032381 123.440027 
L 81.811483 123.326796 
L 82.590586 123.526991 
L 83.369688 124.038708 
L 84.14879 124.85382 
L 84.927893 125.958101 
L 85.966696 127.844782 
L 87.2652 130.778111 
L 88.823404 134.932377 
L 94.277121 150.167344 
L 95.575624 152.82988 
L 96.614428 154.440135 
L 97.39353 155.303073 
L 98.172632 155.848652 
L 98.951735 156.063888 
L 99.471136 156.020378 
L 100.250238 155.673917 
L 101.029341 154.994661 
L 101.808443 153.993933 
L 102.847246 152.191233 
L 103.886049 149.908465 
L 105.184553 146.498075 
L 107.002459 141.017523 
L 110.638269 129.794958 
L 111.936773 126.435457 
L 112.975576 124.216963 
L 114.01438 122.505673 
L 114.793482 121.594956 
L 115.572584 121.026874 
L 116.091986 120.845509 
L 117.130789 123.426435 
L 118.429293 127.453072 
L 119.987497 133.172223 
L 125.441214 154.257913 
L 126.739718 157.968167 
L 127.778521 160.222757 
L 128.557623 161.439355 
L 129.336725 162.218652 
L 129.856127 162.485768 
L 130.375529 162.546884 
L 130.89493 162.400546 
L 131.414332 162.047131 
L 132.193434 161.134078 
L 132.972536 159.775642 
L 133.751639 157.995931 
L 134.790442 155.025288 
L 136.088946 150.494871 
L 137.64715 144.183349 
L 142.321764 124.454081 
L 143.620268 120.11832 
L 144.659071 117.360462 
L 145.438174 115.776444 
L 146.217276 114.646543 
L 146.736678 114.158557 
L 147.256079 113.889212 
L 147.775481 113.841864 
L 148.294882 114.017914 
L 148.814284 114.416793 
L 149.593386 115.426811 
L 150.372488 116.915173 
L 151.151591 118.855399 
L 152.190394 122.082383 
L 153.488898 126.988801 
L 155.047102 133.806091 
L 159.721716 155.019407 
L 161.02022 159.65586 
L 162.059023 162.593962 
L 162.838126 164.273315 
L 163.617228 165.461968 
L 164.13663 165.968068 
L 164.656031 166.238388 
L 165.175433 166.26949 
L 165.694834 166.060037 
L 166.214236 165.610819 
L 166.733637 164.924751 
L 167.51274 163.463123 
L 168.291842 161.506043 
L 169.330645 158.188988 
L 170.629149 153.065339 
L 172.187354 145.848874 
L 177.381369 120.687886 
L 178.679873 115.945044 
L 179.718676 113.0237 
L 180.497779 111.416744 
L 181.276881 110.35064 
L 181.796283 109.953099 
L 182.315684 109.811845 
L 182.835086 109.929262 
L 183.354487 110.305459 
L 183.873889 110.938249 
L 184.652991 112.358157 
L 185.432093 114.320294 
L 186.470897 117.717086 
L 187.5097 121.9012 
L 188.808204 128.020991 
L 190.88581 139.075687 
L 193.742518 154.275092 
L 195.041022 160.199203 
L 196.079825 164.159511 
L 197.118628 167.266964 
L 197.897731 168.965874 
L 198.676833 170.080691 
L 199.196235 170.486028 
L 199.715636 170.615127 
L 200.235038 170.46562 
L 200.754439 170.037598 
L 201.273841 169.333618 
L 202.052943 167.771851 
L 202.832046 165.628095 
L 203.870849 161.933202 
L 204.909652 157.396336 
L 206.208156 150.777214 
L 208.285762 138.85334 
L 211.14247 122.516748 
L 212.440974 116.172263 
L 213.479777 111.94342 
L 214.518581 108.638709 
L 215.297683 106.843314 
L 216.076785 105.678665 
L 216.596187 105.266709 
L 217.115588 105.152478 
L 217.63499 105.338302 
L 218.154391 105.823865 
L 218.673793 106.606196 
L 219.452895 108.323138 
L 220.231998 110.6647 
L 221.270801 114.683212 
L 222.309604 119.60204 
L 223.867809 128.297015 
L 226.464816 144.583831 
L 228.542423 157.178977 
L 229.840926 163.973049 
L 230.87973 168.488033 
L 231.918533 172.001753 
L 232.697635 173.898312 
L 233.476737 175.11379 
L 233.996139 175.530963 
L 234.51554 175.627272 
L 235.034942 175.400442 
L 235.554343 174.851052 
L 236.073745 173.982537 
L 236.852847 172.095906 
L 237.63195 169.538947 
L 238.670753 165.16916 
L 239.709556 159.836777 
L 241.267761 150.436045 
L 243.864768 132.884039 
L 245.942375 119.356352 
L 247.240878 112.081506 
L 248.279682 107.26167 
L 249.318485 103.526563 
L 250.097587 101.52402 
L 250.616989 100.595371 
L 251.13639 100.003527 
L 251.655792 99.755221 
L 252.175193 99.854176 
L 252.694595 100.301052 
L 253.213996 101.093434 
L 253.733398 102.225836 
L 254.5125 104.542517 
L 255.291603 107.563157 
L 256.330406 112.587829 
L 257.62891 120.228473 
L 259.187114 130.846035 
L 263.861728 163.890905 
L 265.160232 171.114954 
L 266.199035 175.693526 
L 266.978138 178.311073 
L 267.75724 180.164391 
L 268.276641 180.953973 
L 268.796043 181.376315 
L 269.315445 181.42605 
L 269.834846 181.101087 
L 270.354248 180.402642 
L 270.873649 179.335248 
L 271.652752 177.060363 
L 272.431854 174.013627 
L 273.470657 168.848862 
L 274.769161 160.870089 
L 276.327366 149.630999 
L 281.521381 110.436569 
L 282.819885 103.046502 
L 283.858688 98.493788 
L 284.63779 95.988829 
L 285.416893 94.326222 
L 285.936294 93.705626 
L 286.455696 93.484216 
L 286.975097 93.665721 
L 287.494499 94.250319 
L 288.013901 95.234619 
L 288.793003 97.444352 
L 289.572105 100.498797 
L 290.610908 105.787541 
L 291.649711 112.303004 
L 292.948215 121.833683 
L 295.025822 139.051733 
L 297.88253 162.728789 
L 299.181034 171.95852 
L 300.219837 178.129411 
L 301.25864 182.972206 
L 302.037743 185.620548 
L 302.816845 187.359191 
L 303.336246 187.992038 
L 303.855648 188.19462 
L 304.37505 187.963239 
L 304.894451 187.29802 
L 305.413853 186.202933 
L 306.192955 183.772381 
L 306.972057 180.435173 
L 308.01086 174.682251 
L 309.049664 167.617456 
L 310.348167 157.309106 
L 312.425774 138.737234 
L 315.282482 113.288645 
L 316.580986 103.403934 
L 317.619789 96.814582 
L 318.658592 91.664324 
L 319.437695 88.865528 
L 319.957096 87.542377 
L 320.476498 86.66988 
L 320.995899 86.257762 
L 321.2556 86.226283 
L 321.515301 86.311712 
L 322.034702 86.833317 
L 322.554104 87.82003 
L 323.073506 89.265172 
L 323.852608 92.267789 
L 324.63171 96.223559 
L 325.670513 102.852673 
L 326.969017 112.996349 
L 328.527222 127.168871 
L 333.461537 173.812528 
L 334.760041 183.248461 
L 335.798844 189.136006 
L 336.577946 192.432561 
L 337.357048 194.687969 
L 337.87645 195.586668 
L 338.395851 195.989023 
L 338.655552 196.002099 
L 338.915253 195.889272 
L 339.434655 195.286073 
L 339.954056 194.182538 
L 340.473458 192.586224 
L 341.25256 189.295121 
L 342.031662 184.98157 
L 343.070465 177.77934 
L 344.368969 166.792681 
L 345.927174 151.483299 
L 350.601788 103.609312 
L 351.900292 93.083608 
L 352.939095 86.386431 
L 353.718197 82.538268 
L 354.4973 79.791586 
L 355.016701 78.603976 
L 355.536103 77.94678 
L 355.795804 77.819824 
L 356.055504 77.828168 
L 356.315205 77.972092 
L 356.834607 78.666306 
L 357.354008 79.89872 
L 357.87341 81.660803 
L 358.652512 85.266786 
L 359.431614 89.969466 
L 360.470418 97.793278 
L 361.768921 109.691864 
L 363.327126 126.228144 
L 368.00174 177.703514 
L 369.300244 188.959292 
L 370.339047 196.094278 
L 371.118149 200.174149 
L 371.897252 203.063796 
L 372.416653 204.295642 
L 372.936055 204.955494 
L 373.195756 205.068105 
L 373.455456 205.034972 
L 373.715157 204.855848 
L 374.234559 204.060236 
L 374.75396 202.685732 
L 375.273362 200.741943 
L 376.052464 196.792354 
L 376.831566 191.666518 
L 377.87037 183.16863 
L 379.168873 170.283615 
L 380.727078 152.423358 
L 385.401692 97.079167 
L 386.700196 85.044002 
L 387.738999 77.443936 
L 388.518101 73.119737 
L 389.297204 70.081562 
L 389.816605 68.805775 
L 390.336007 68.146785 
L 390.595708 68.05148 
L 390.855408 68.11316 
L 391.115109 68.332035 
L 391.634511 69.240478 
L 392.153912 70.771544 
L 392.673314 72.914434 
L 393.452416 77.238888 
L 394.231519 82.824812 
L 395.270322 92.053621 
L 396.568826 106.005568 
L 398.386731 128.684047 
L 402.282243 178.941236 
L 403.580747 192.848313 
L 404.61955 201.977485 
L 405.398652 207.431565 
L 406.177754 211.559926 
L 406.697156 213.529549 
L 407.216557 214.848671 
L 407.735959 215.502727 
L 407.99566 215.577393 
L 408.255361 215.482978 
L 408.515061 215.219314 
L 409.034463 214.185456 
L 409.553864 212.481981 
L 410.073266 210.121007 
L 410.852368 205.387678 
L 411.631471 199.301586 
L 412.670274 189.280302 
L 413.968778 174.174442 
L 415.786683 149.688632 
L 419.682195 95.650518 
L 420.980699 80.764917 
L 422.019502 71.024791 
L 422.798604 65.228319 
L 423.577706 60.86535 
L 424.097108 58.801952 
L 424.61651 57.440456 
L 425.135911 56.796029 
L 425.395612 56.745741 
L 425.655313 56.877554 
L 425.915013 57.191579 
L 426.434415 58.364698 
L 426.953817 60.257929 
L 427.732919 64.416559 
L 428.512021 70.091101 
L 429.550824 79.833009 
L 430.589627 91.7606 
L 431.888131 109.12301 
L 433.965738 140.321917 
L 436.822446 182.928352 
L 438.12095 199.420167 
L 439.159753 210.382512 
L 440.198556 218.916773 
L 440.977659 223.525744 
L 441.49706 225.68556 
L 442.016462 227.088063 
L 442.535863 227.717477 
L 442.795564 227.739195 
L 443.055265 227.564802 
L 443.314966 227.194251 
L 443.834367 225.86665 
L 444.353769 223.76468 
L 445.132871 219.194864 
L 445.911973 212.998197 
L 446.950776 202.40457 
L 447.98958 189.474042 
L 449.547784 166.673076 
L 452.144792 124.090206 
L 454.222398 91.261461 
L 455.520902 73.602488 
L 456.559705 61.899832 
L 457.598508 52.827687 
L 458.377611 47.960973 
L 458.897012 45.702247 
L 459.416414 44.260567 
L 459.676115 43.851525 
L 459.935815 43.652322 
L 460.195516 43.663864 
L 460.455217 43.886591 
L 460.974618 44.965032 
L 461.49402 46.881834 
L 462.013422 49.623736 
L 462.792524 55.236552 
L 463.571626 62.557912 
L 464.610429 74.740205 
L 465.908933 93.269574 
L 467.467138 119.023935 
L 472.141752 199.209254 
L 473.440256 216.746858 
L 474.479059 227.865608 
L 475.258161 234.224747 
L 476.037264 238.730206 
L 476.556665 240.652035 
L 477.076067 241.682953 
L 477.335767 241.859924 
L 477.595468 241.809882 
L 477.855169 241.532436 
L 478.374571 240.296274 
L 478.893972 238.15836 
L 479.413374 235.133633 
L 480.192476 228.985894 
L 480.971578 221.005676 
L 482.010381 207.77372 
L 483.308885 187.708134 
L 484.86709 159.891668 
L 489.541704 73.679501 
L 490.840208 54.927449 
L 491.879011 43.083855 
L 492.658113 36.343804 
L 493.437216 31.60664 
L 493.956617 29.616128 
L 494.476019 28.58631 
L 494.73572 28.436176 
L 494.99542 28.530564 
L 495.255121 28.869807 
L 495.774523 30.281484 
L 496.293924 32.663035 
L 496.813326 35.997668 
L 497.592428 42.728997 
L 498.37153 51.425583 
L 499.410334 65.795726 
L 500.708837 87.522908 
L 502.526743 122.843919 
L 506.422254 201.131407 
L 507.720758 222.799055 
L 508.759561 237.024476 
L 509.538664 245.524591 
L 510.317766 251.960068 
L 510.837168 255.031502 
L 511.356569 257.089773 
L 511.875971 258.112164 
L 512.135672 258.230282 
L 512.395372 258.085032 
L 512.655073 257.676153 
L 513.174475 256.069378 
L 513.693876 253.419522 
L 514.213278 249.745431 
L 514.99238 242.377559 
L 515.771482 232.902196 
L 516.810286 217.298008 
L 518.108789 193.773764 
L 519.926695 155.637784 
L 523.822207 71.46039 
L 525.12071 48.268076 
L 526.159514 33.090553 
L 526.938616 24.056736 
L 527.717718 17.255423 
L 528.23712 14.037649 
L 528.756521 11.913096 
L 529.275923 10.905422 
L 529.535624 10.825137 
L 529.795324 11.0285 
L 530.055025 11.515687 
L 530.574427 13.339107 
L 531.093828 16.284269 
L 531.872931 22.756397 
L 532.652033 31.590105 
L 533.690836 46.758279 
L 534.729639 65.331967 
L 536.028143 92.371555 
L 538.105749 140.965114 
L 540.962458 207.336141 
L 542.260962 233.030483 
L 543.299765 250.112019 
L 544.338568 263.41243 
L 545.11767 270.597356 
L 545.637072 273.965612 
L 546.156473 276.15434 
L 546.416174 276.79828 
L 546.675875 277.138929 
L 546.935576 277.174863 
L 547.195277 276.905326 
L 547.454977 276.330241 
L 547.974379 274.266485 
L 548.49378 270.996469 
L 549.272883 263.884266 
L 550.051985 254.237651 
L 551.090788 237.743241 
L 552.129591 217.607687 
L 553.687796 182.097828 
L 556.284804 115.771045 
L 557.583308 83.057127 
L 557.583308 83.057127 
" style="fill:none;stroke:#3ea44e;stroke-width:3;"/>
   </g>
   <g id="legend_1">
    <g id="patch_5">
     <path d="M 26.599706 52.079646 
L 68.702206 52.079646 
L 68.702206 6.834646 
L 26.599706 6.834646 
z
" style="fill:none;opacity:0;"/>
    </g>
    <g id="line2d_82">
     <path d="M 32.999706 16.513396 
L 48.999706 16.513396 
" style="fill:none;stroke:#009afa;stroke-linejoin:miter;"/>
    </g>
    <g id="line2d_83"/>
    <g id="text_13">
     <!-- M -->
     <g transform="translate(55.399706 19.313396)scale(0.08 -0.08)">
      <defs>
       <path d="M 9.8125 72.90625 
L 24.515625 72.90625 
L 43.109375 23.296875 
L 61.8125 72.90625 
L 76.515625 72.90625 
L 76.515625 0 
L 66.890625 0 
L 66.890625 64.015625 
L 48.09375 14.015625 
L 38.1875 14.015625 
L 19.390625 64.015625 
L 19.390625 0 
L 9.8125 0 
z
" id="DejaVuSans-77"/>
      </defs>
      <use xlink:href="#DejaVuSans-77"/>
     </g>
    </g>
    <g id="line2d_84">
     <path d="M 32.999706 28.255896 
L 48.999706 28.255896 
" style="fill:none;stroke:#e36f47;stroke-linejoin:miter;"/>
    </g>
    <g id="line2d_85"/>
    <g id="text_14">
     <!-- $$ -->
     <g transform="translate(55.399706 31.055896)scale(0.08 -0.08)">
      <defs>
       <path d="M 45.515625 34.671875 
L 14.453125 34.671875 
Q 12.359375 20.0625 14.5 13.875 
Q 17.1875 6.25 24.46875 6.25 
Q 31.78125 6.25 37.359375 13.921875 
Q 42.234375 20.65625 45.515625 34.671875 
z
M 47.015625 42.96875 
Q 48.34375 56.84375 46.625 61.71875 
Q 43.953125 69.4375 36.765625 69.4375 
Q 29.296875 69.4375 23.828125 61.8125 
Q 19.53125 55.671875 16.15625 42.96875 
z
M 38.1875 76.765625 
Q 49.90625 76.765625 54.59375 66.40625 
Q 59.28125 56.109375 55.71875 37.84375 
Q 52.203125 19.625 43.453125 9.28125 
Q 34.765625 -1.125 23.046875 -1.125 
Q 11.28125 -1.125 6.640625 9.28125 
Q 2 19.625 5.515625 37.84375 
Q 9.078125 56.109375 17.71875 66.40625 
Q 26.421875 76.765625 38.1875 76.765625 
z
" id="DejaVuSans-Oblique-952"/>
      </defs>
      <use transform="translate(0 0.234375)" xlink:href="#DejaVuSans-Oblique-952"/>
     </g>
    </g>
    <g id="line2d_86">
     <path d="M 32.999706 41.215896 
L 48.999706 41.215896 
" style="fill:none;stroke:#3ea44e;stroke-linejoin:miter;"/>
    </g>
    <g id="line2d_87"/>
    <g id="text_15">
     <!-- $\dot{}$ -->
     <g transform="translate(55.399706 44.015896)scale(0.08 -0.08)">
      <defs>
       <path d="M -29.59375 75.984375 
L -20.609375 75.984375 
L -20.609375 64.59375 
L -29.59375 64.59375 
z
M -25 56 
z
" id="DejaVuSans-775"/>
      </defs>
      <use transform="translate(62.88916 34.015625)" xlink:href="#DejaVuSans-775"/>
      <use transform="translate(0 0.75)" xlink:href="#DejaVuSans-Oblique-952"/>
     </g>
    </g>
   </g>
  </g>
 </g>
 <defs>
  <clipPath id="p46a71d08d1">
   <rect height="282.330709" width="550.565648" x="22.599706" y="2.834646"/>
  </clipPath>
 </defs>
</svg>
