<?xml version="1.0" encoding="utf-8" standalone="no"?>
<!DOCTYPE svg PUBLIC "-//W3C//DTD SVG 1.1//EN"
  "http://www.w3.org/Graphics/SVG/1.1/DTD/svg11.dtd">
<!-- Created with matplotlib (https://matplotlib.org/) -->
<svg height="288pt" version="1.1" viewBox="0 0 576 288" width="576pt" xmlns="http://www.w3.org/2000/svg" xmlns:xlink="http://www.w3.org/1999/xlink">
 <metadata>
  <rdf:RDF xmlns:cc="http://creativecommons.org/ns#" xmlns:dc="http://purl.org/dc/elements/1.1/" xmlns:rdf="http://www.w3.org/1999/02/22-rdf-syntax-ns#">
   <cc:Work>
    <dc:type rdf:resource="http://purl.org/dc/dcmitype/StillImage"/>
    <dc:date>2020-11-21T12:08:09.597957</dc:date>
    <dc:format>image/svg+xml</dc:format>
    <dc:creator>
     <cc:Agent>
      <dc:title>Matplotlib v3.3.1, https://matplotlib.org/</dc:title>
     </cc:Agent>
    </dc:creator>
   </cc:Work>
  </rdf:RDF>
 </metadata>
 <defs>
  <style type="text/css">*{stroke-linecap:butt;stroke-linejoin:round;}</style>
 </defs>
 <g id="figure_1">
  <g id="patch_1">
   <path d="M 0 288 
L 576 288 
L 576 0 
L 0 0 
z
" style="fill:none;"/>
  </g>
  <g id="axes_1">
   <g id="patch_2">
    <path d="M 17.532262 285.165354 
L 573.165354 285.165354 
L 573.165354 2.834646 
L 17.532262 2.834646 
z
" style="fill:none;"/>
   </g>
   <g id="matplotlib.axis_1">
    <g id="xtick_1">
     <g id="line2d_1">
      <path clip-path="url(#p6521f45e4a)" d="M 33.257727 285.165354 
L 33.257727 2.834646 
" style="fill:none;stroke:#000000;stroke-linecap:square;stroke-opacity:0.1;stroke-width:0.5;"/>
     </g>
     <g id="line2d_2">
      <defs>
       <path d="M 0 0 
L 0 -2.5 
" id="me394f8b797" style="stroke:#000000;stroke-width:0.5;"/>
      </defs>
      <g>
       <use style="stroke:#000000;stroke-width:0.5;" x="33.257727" xlink:href="#me394f8b797" y="143.366023"/>
      </g>
     </g>
     <g id="text_1">
      <!-- $\mathregular{}$ -->
      <g transform="translate(33.257727 152.944773)scale(0.08 -0.08)"/>
     </g>
    </g>
    <g id="xtick_2">
     <g id="line2d_3">
      <path clip-path="url(#p6521f45e4a)" d="M 164.303268 285.165354 
L 164.303268 2.834646 
" style="fill:none;stroke:#000000;stroke-linecap:square;stroke-opacity:0.1;stroke-width:0.5;"/>
     </g>
     <g id="line2d_4">
      <g>
       <use style="stroke:#000000;stroke-width:0.5;" x="164.303268" xlink:href="#me394f8b797" y="143.366023"/>
      </g>
     </g>
     <g id="text_2">
      <!-- $\mathregular{10}$ -->
      <g transform="translate(159.183268 152.944773)scale(0.08 -0.08)">
       <defs>
        <path d="M 12.40625 8.296875 
L 28.515625 8.296875 
L 28.515625 63.921875 
L 10.984375 60.40625 
L 10.984375 69.390625 
L 28.421875 72.90625 
L 38.28125 72.90625 
L 38.28125 8.296875 
L 54.390625 8.296875 
L 54.390625 0 
L 12.40625 0 
z
" id="DejaVuSans-49"/>
        <path d="M 31.78125 66.40625 
Q 24.171875 66.40625 20.328125 58.90625 
Q 16.5 51.421875 16.5 36.375 
Q 16.5 21.390625 20.328125 13.890625 
Q 24.171875 6.390625 31.78125 6.390625 
Q 39.453125 6.390625 43.28125 13.890625 
Q 47.125 21.390625 47.125 36.375 
Q 47.125 51.421875 43.28125 58.90625 
Q 39.453125 66.40625 31.78125 66.40625 
z
M 31.78125 74.21875 
Q 44.046875 74.21875 50.515625 64.515625 
Q 56.984375 54.828125 56.984375 36.375 
Q 56.984375 17.96875 50.515625 8.265625 
Q 44.046875 -1.421875 31.78125 -1.421875 
Q 19.53125 -1.421875 13.0625 8.265625 
Q 6.59375 17.96875 6.59375 36.375 
Q 6.59375 54.828125 13.0625 64.515625 
Q 19.53125 74.21875 31.78125 74.21875 
z
" id="DejaVuSans-48"/>
       </defs>
       <use transform="translate(0 0.78125)" xlink:href="#DejaVuSans-49"/>
       <use transform="translate(63.623047 0.78125)" xlink:href="#DejaVuSans-48"/>
      </g>
     </g>
    </g>
    <g id="xtick_3">
     <g id="line2d_5">
      <path clip-path="url(#p6521f45e4a)" d="M 295.348808 285.165354 
L 295.348808 2.834646 
" style="fill:none;stroke:#000000;stroke-linecap:square;stroke-opacity:0.1;stroke-width:0.5;"/>
     </g>
     <g id="line2d_6">
      <g>
       <use style="stroke:#000000;stroke-width:0.5;" x="295.348808" xlink:href="#me394f8b797" y="143.366023"/>
      </g>
     </g>
     <g id="text_3">
      <!-- $\mathregular{20}$ -->
      <g transform="translate(290.228808 152.944773)scale(0.08 -0.08)">
       <defs>
        <path d="M 19.1875 8.296875 
L 53.609375 8.296875 
L 53.609375 0 
L 7.328125 0 
L 7.328125 8.296875 
Q 12.9375 14.109375 22.625 23.890625 
Q 32.328125 33.6875 34.8125 36.53125 
Q 39.546875 41.84375 41.421875 45.53125 
Q 43.3125 49.21875 43.3125 52.78125 
Q 43.3125 58.59375 39.234375 62.25 
Q 35.15625 65.921875 28.609375 65.921875 
Q 23.96875 65.921875 18.8125 64.3125 
Q 13.671875 62.703125 7.8125 59.421875 
L 7.8125 69.390625 
Q 13.765625 71.78125 18.9375 73 
Q 24.125 74.21875 28.421875 74.21875 
Q 39.75 74.21875 46.484375 68.546875 
Q 53.21875 62.890625 53.21875 53.421875 
Q 53.21875 48.921875 51.53125 44.890625 
Q 49.859375 40.875 45.40625 35.40625 
Q 44.1875 33.984375 37.640625 27.21875 
Q 31.109375 20.453125 19.1875 8.296875 
z
" id="DejaVuSans-50"/>
       </defs>
       <use transform="translate(0 0.78125)" xlink:href="#DejaVuSans-50"/>
       <use transform="translate(63.623047 0.78125)" xlink:href="#DejaVuSans-48"/>
      </g>
     </g>
    </g>
    <g id="xtick_4">
     <g id="line2d_7">
      <path clip-path="url(#p6521f45e4a)" d="M 426.394349 285.165354 
L 426.394349 2.834646 
" style="fill:none;stroke:#000000;stroke-linecap:square;stroke-opacity:0.1;stroke-width:0.5;"/>
     </g>
     <g id="line2d_8">
      <g>
       <use style="stroke:#000000;stroke-width:0.5;" x="426.394349" xlink:href="#me394f8b797" y="143.366023"/>
      </g>
     </g>
     <g id="text_4">
      <!-- $\mathregular{30}$ -->
      <g transform="translate(421.274349 152.944773)scale(0.08 -0.08)">
       <defs>
        <path d="M 40.578125 39.3125 
Q 47.65625 37.796875 51.625 33 
Q 55.609375 28.21875 55.609375 21.1875 
Q 55.609375 10.40625 48.1875 4.484375 
Q 40.765625 -1.421875 27.09375 -1.421875 
Q 22.515625 -1.421875 17.65625 -0.515625 
Q 12.796875 0.390625 7.625 2.203125 
L 7.625 11.71875 
Q 11.71875 9.328125 16.59375 8.109375 
Q 21.484375 6.890625 26.8125 6.890625 
Q 36.078125 6.890625 40.9375 10.546875 
Q 45.796875 14.203125 45.796875 21.1875 
Q 45.796875 27.640625 41.28125 31.265625 
Q 36.765625 34.90625 28.71875 34.90625 
L 20.21875 34.90625 
L 20.21875 43.015625 
L 29.109375 43.015625 
Q 36.375 43.015625 40.234375 45.921875 
Q 44.09375 48.828125 44.09375 54.296875 
Q 44.09375 59.90625 40.109375 62.90625 
Q 36.140625 65.921875 28.71875 65.921875 
Q 24.65625 65.921875 20.015625 65.03125 
Q 15.375 64.15625 9.8125 62.3125 
L 9.8125 71.09375 
Q 15.4375 72.65625 20.34375 73.4375 
Q 25.25 74.21875 29.59375 74.21875 
Q 40.828125 74.21875 47.359375 69.109375 
Q 53.90625 64.015625 53.90625 55.328125 
Q 53.90625 49.265625 50.4375 45.09375 
Q 46.96875 40.921875 40.578125 39.3125 
z
" id="DejaVuSans-51"/>
       </defs>
       <use transform="translate(0 0.78125)" xlink:href="#DejaVuSans-51"/>
       <use transform="translate(63.623047 0.78125)" xlink:href="#DejaVuSans-48"/>
      </g>
     </g>
    </g>
    <g id="xtick_5">
     <g id="line2d_9">
      <path clip-path="url(#p6521f45e4a)" d="M 557.439889 285.165354 
L 557.439889 2.834646 
" style="fill:none;stroke:#000000;stroke-linecap:square;stroke-opacity:0.1;stroke-width:0.5;"/>
     </g>
     <g id="line2d_10">
      <g>
       <use style="stroke:#000000;stroke-width:0.5;" x="557.439889" xlink:href="#me394f8b797" y="143.366023"/>
      </g>
     </g>
     <g id="text_5">
      <!-- $\mathregular{40}$ -->
      <g transform="translate(552.319889 152.944773)scale(0.08 -0.08)">
       <defs>
        <path d="M 37.796875 64.3125 
L 12.890625 25.390625 
L 37.796875 25.390625 
z
M 35.203125 72.90625 
L 47.609375 72.90625 
L 47.609375 25.390625 
L 58.015625 25.390625 
L 58.015625 17.1875 
L 47.609375 17.1875 
L 47.609375 0 
L 37.796875 0 
L 37.796875 17.1875 
L 4.890625 17.1875 
L 4.890625 26.703125 
z
" id="DejaVuSans-52"/>
       </defs>
       <use transform="translate(0 0.78125)" xlink:href="#DejaVuSans-52"/>
       <use transform="translate(63.623047 0.78125)" xlink:href="#DejaVuSans-48"/>
      </g>
     </g>
    </g>
    <g id="xtick_6">
     <g id="line2d_11">
      <path clip-path="url(#p6521f45e4a)" d="M 59.466835 285.165354 
L 59.466835 2.834646 
" style="fill:none;stroke:#000000;stroke-linecap:square;stroke-opacity:0.05;stroke-width:0.5;"/>
     </g>
     <g id="line2d_12">
      <defs>
       <path d="M 0 0 
L 0 -2 
" id="m2473d1f51c" style="stroke:#000000;stroke-width:0.5;"/>
      </defs>
      <g>
       <use style="stroke:#000000;stroke-width:0.5;" x="59.466835" xlink:href="#m2473d1f51c" y="143.366023"/>
      </g>
     </g>
    </g>
    <g id="xtick_7">
     <g id="line2d_13">
      <path clip-path="url(#p6521f45e4a)" d="M 85.675943 285.165354 
L 85.675943 2.834646 
" style="fill:none;stroke:#000000;stroke-linecap:square;stroke-opacity:0.05;stroke-width:0.5;"/>
     </g>
     <g id="line2d_14">
      <g>
       <use style="stroke:#000000;stroke-width:0.5;" x="85.675943" xlink:href="#m2473d1f51c" y="143.366023"/>
      </g>
     </g>
    </g>
    <g id="xtick_8">
     <g id="line2d_15">
      <path clip-path="url(#p6521f45e4a)" d="M 111.885051 285.165354 
L 111.885051 2.834646 
" style="fill:none;stroke:#000000;stroke-linecap:square;stroke-opacity:0.05;stroke-width:0.5;"/>
     </g>
     <g id="line2d_16">
      <g>
       <use style="stroke:#000000;stroke-width:0.5;" x="111.885051" xlink:href="#m2473d1f51c" y="143.366023"/>
      </g>
     </g>
    </g>
    <g id="xtick_9">
     <g id="line2d_17">
      <path clip-path="url(#p6521f45e4a)" d="M 138.094159 285.165354 
L 138.094159 2.834646 
" style="fill:none;stroke:#000000;stroke-linecap:square;stroke-opacity:0.05;stroke-width:0.5;"/>
     </g>
     <g id="line2d_18">
      <g>
       <use style="stroke:#000000;stroke-width:0.5;" x="138.094159" xlink:href="#m2473d1f51c" y="143.366023"/>
      </g>
     </g>
    </g>
    <g id="xtick_10">
     <g id="line2d_19">
      <path clip-path="url(#p6521f45e4a)" d="M 190.512376 285.165354 
L 190.512376 2.834646 
" style="fill:none;stroke:#000000;stroke-linecap:square;stroke-opacity:0.05;stroke-width:0.5;"/>
     </g>
     <g id="line2d_20">
      <g>
       <use style="stroke:#000000;stroke-width:0.5;" x="190.512376" xlink:href="#m2473d1f51c" y="143.366023"/>
      </g>
     </g>
    </g>
    <g id="xtick_11">
     <g id="line2d_21">
      <path clip-path="url(#p6521f45e4a)" d="M 216.721484 285.165354 
L 216.721484 2.834646 
" style="fill:none;stroke:#000000;stroke-linecap:square;stroke-opacity:0.05;stroke-width:0.5;"/>
     </g>
     <g id="line2d_22">
      <g>
       <use style="stroke:#000000;stroke-width:0.5;" x="216.721484" xlink:href="#m2473d1f51c" y="143.366023"/>
      </g>
     </g>
    </g>
    <g id="xtick_12">
     <g id="line2d_23">
      <path clip-path="url(#p6521f45e4a)" d="M 242.930592 285.165354 
L 242.930592 2.834646 
" style="fill:none;stroke:#000000;stroke-linecap:square;stroke-opacity:0.05;stroke-width:0.5;"/>
     </g>
     <g id="line2d_24">
      <g>
       <use style="stroke:#000000;stroke-width:0.5;" x="242.930592" xlink:href="#m2473d1f51c" y="143.366023"/>
      </g>
     </g>
    </g>
    <g id="xtick_13">
     <g id="line2d_25">
      <path clip-path="url(#p6521f45e4a)" d="M 269.1397 285.165354 
L 269.1397 2.834646 
" style="fill:none;stroke:#000000;stroke-linecap:square;stroke-opacity:0.05;stroke-width:0.5;"/>
     </g>
     <g id="line2d_26">
      <g>
       <use style="stroke:#000000;stroke-width:0.5;" x="269.1397" xlink:href="#m2473d1f51c" y="143.366023"/>
      </g>
     </g>
    </g>
    <g id="xtick_14">
     <g id="line2d_27">
      <path clip-path="url(#p6521f45e4a)" d="M 321.557916 285.165354 
L 321.557916 2.834646 
" style="fill:none;stroke:#000000;stroke-linecap:square;stroke-opacity:0.05;stroke-width:0.5;"/>
     </g>
     <g id="line2d_28">
      <g>
       <use style="stroke:#000000;stroke-width:0.5;" x="321.557916" xlink:href="#m2473d1f51c" y="143.366023"/>
      </g>
     </g>
    </g>
    <g id="xtick_15">
     <g id="line2d_29">
      <path clip-path="url(#p6521f45e4a)" d="M 347.767024 285.165354 
L 347.767024 2.834646 
" style="fill:none;stroke:#000000;stroke-linecap:square;stroke-opacity:0.05;stroke-width:0.5;"/>
     </g>
     <g id="line2d_30">
      <g>
       <use style="stroke:#000000;stroke-width:0.5;" x="347.767024" xlink:href="#m2473d1f51c" y="143.366023"/>
      </g>
     </g>
    </g>
    <g id="xtick_16">
     <g id="line2d_31">
      <path clip-path="url(#p6521f45e4a)" d="M 373.976133 285.165354 
L 373.976133 2.834646 
" style="fill:none;stroke:#000000;stroke-linecap:square;stroke-opacity:0.05;stroke-width:0.5;"/>
     </g>
     <g id="line2d_32">
      <g>
       <use style="stroke:#000000;stroke-width:0.5;" x="373.976133" xlink:href="#m2473d1f51c" y="143.366023"/>
      </g>
     </g>
    </g>
    <g id="xtick_17">
     <g id="line2d_33">
      <path clip-path="url(#p6521f45e4a)" d="M 400.185241 285.165354 
L 400.185241 2.834646 
" style="fill:none;stroke:#000000;stroke-linecap:square;stroke-opacity:0.05;stroke-width:0.5;"/>
     </g>
     <g id="line2d_34">
      <g>
       <use style="stroke:#000000;stroke-width:0.5;" x="400.185241" xlink:href="#m2473d1f51c" y="143.366023"/>
      </g>
     </g>
    </g>
    <g id="xtick_18">
     <g id="line2d_35">
      <path clip-path="url(#p6521f45e4a)" d="M 452.603457 285.165354 
L 452.603457 2.834646 
" style="fill:none;stroke:#000000;stroke-linecap:square;stroke-opacity:0.05;stroke-width:0.5;"/>
     </g>
     <g id="line2d_36">
      <g>
       <use style="stroke:#000000;stroke-width:0.5;" x="452.603457" xlink:href="#m2473d1f51c" y="143.366023"/>
      </g>
     </g>
    </g>
    <g id="xtick_19">
     <g id="line2d_37">
      <path clip-path="url(#p6521f45e4a)" d="M 478.812565 285.165354 
L 478.812565 2.834646 
" style="fill:none;stroke:#000000;stroke-linecap:square;stroke-opacity:0.05;stroke-width:0.5;"/>
     </g>
     <g id="line2d_38">
      <g>
       <use style="stroke:#000000;stroke-width:0.5;" x="478.812565" xlink:href="#m2473d1f51c" y="143.366023"/>
      </g>
     </g>
    </g>
    <g id="xtick_20">
     <g id="line2d_39">
      <path clip-path="url(#p6521f45e4a)" d="M 505.021673 285.165354 
L 505.021673 2.834646 
" style="fill:none;stroke:#000000;stroke-linecap:square;stroke-opacity:0.05;stroke-width:0.5;"/>
     </g>
     <g id="line2d_40">
      <g>
       <use style="stroke:#000000;stroke-width:0.5;" x="505.021673" xlink:href="#m2473d1f51c" y="143.366023"/>
      </g>
     </g>
    </g>
    <g id="xtick_21">
     <g id="line2d_41">
      <path clip-path="url(#p6521f45e4a)" d="M 531.230781 285.165354 
L 531.230781 2.834646 
" style="fill:none;stroke:#000000;stroke-linecap:square;stroke-opacity:0.05;stroke-width:0.5;"/>
     </g>
     <g id="line2d_42">
      <g>
       <use style="stroke:#000000;stroke-width:0.5;" x="531.230781" xlink:href="#m2473d1f51c" y="143.366023"/>
      </g>
     </g>
    </g>
    <g id="text_6">
     <!-- Time (s) -->
     <g transform="translate(522.536136 166.966804)scale(0.11 -0.11)">
      <defs>
       <path d="M 0.484375 72.90625 
L 67.671875 72.90625 
L 67.671875 58.6875 
L 43.5 58.6875 
L 43.5 0 
L 24.703125 0 
L 24.703125 58.6875 
L 0.484375 58.6875 
z
" id="DejaVuSans-Bold-84"/>
       <path d="M 8.40625 54.6875 
L 25.875 54.6875 
L 25.875 0 
L 8.40625 0 
z
M 8.40625 75.984375 
L 25.875 75.984375 
L 25.875 61.71875 
L 8.40625 61.71875 
z
" id="DejaVuSans-Bold-105"/>
       <path d="M 59.078125 45.609375 
Q 62.40625 50.6875 66.96875 53.34375 
Q 71.53125 56 77 56 
Q 86.421875 56 91.359375 50.1875 
Q 96.296875 44.390625 96.296875 33.296875 
L 96.296875 0 
L 78.71875 0 
L 78.71875 28.515625 
Q 78.765625 29.15625 78.78125 29.828125 
Q 78.8125 30.515625 78.8125 31.78125 
Q 78.8125 37.59375 77.09375 40.203125 
Q 75.390625 42.828125 71.578125 42.828125 
Q 66.609375 42.828125 63.890625 38.71875 
Q 61.1875 34.625 61.078125 26.859375 
L 61.078125 0 
L 43.5 0 
L 43.5 28.515625 
Q 43.5 37.59375 41.9375 40.203125 
Q 40.375 42.828125 36.375 42.828125 
Q 31.34375 42.828125 28.609375 38.703125 
Q 25.875 34.578125 25.875 26.90625 
L 25.875 0 
L 8.296875 0 
L 8.296875 54.6875 
L 25.875 54.6875 
L 25.875 46.6875 
Q 29.109375 51.3125 33.28125 53.65625 
Q 37.453125 56 42.484375 56 
Q 48.140625 56 52.484375 53.265625 
Q 56.84375 50.53125 59.078125 45.609375 
z
" id="DejaVuSans-Bold-109"/>
       <path d="M 62.984375 27.484375 
L 62.984375 22.515625 
L 22.125 22.515625 
Q 22.75 16.359375 26.5625 13.28125 
Q 30.375 10.203125 37.203125 10.203125 
Q 42.71875 10.203125 48.5 11.84375 
Q 54.296875 13.484375 60.40625 16.796875 
L 60.40625 3.328125 
Q 54.203125 0.984375 48 -0.21875 
Q 41.796875 -1.421875 35.59375 -1.421875 
Q 20.75 -1.421875 12.515625 6.125 
Q 4.296875 13.671875 4.296875 27.296875 
Q 4.296875 40.671875 12.375 48.328125 
Q 20.453125 56 34.625 56 
Q 47.515625 56 55.25 48.234375 
Q 62.984375 40.484375 62.984375 27.484375 
z
M 45.015625 33.296875 
Q 45.015625 38.28125 42.109375 41.328125 
Q 39.203125 44.390625 34.515625 44.390625 
Q 29.4375 44.390625 26.265625 41.53125 
Q 23.09375 38.671875 22.3125 33.296875 
z
" id="DejaVuSans-Bold-101"/>
       <path id="DejaVuSans-Bold-32"/>
       <path d="M 37.703125 -13.1875 
L 23.1875 -13.1875 
Q 15.71875 -1.125 12.15625 9.734375 
Q 8.59375 20.609375 8.59375 31.296875 
Q 8.59375 42 12.171875 52.953125 
Q 15.765625 63.921875 23.1875 75.875 
L 37.703125 75.875 
Q 31.453125 64.3125 28.328125 53.25 
Q 25.203125 42.1875 25.203125 31.390625 
Q 25.203125 20.609375 28.296875 9.515625 
Q 31.390625 -1.5625 37.703125 -13.1875 
z
" id="DejaVuSans-Bold-40"/>
       <path d="M 51.125 52.984375 
L 51.125 39.703125 
Q 45.515625 42.046875 40.28125 43.21875 
Q 35.0625 44.390625 30.421875 44.390625 
Q 25.4375 44.390625 23.015625 43.140625 
Q 20.609375 41.890625 20.609375 39.3125 
Q 20.609375 37.203125 22.4375 36.078125 
Q 24.265625 34.96875 29 34.421875 
L 32.078125 33.984375 
Q 45.515625 32.28125 50.140625 28.375 
Q 54.78125 24.46875 54.78125 16.109375 
Q 54.78125 7.375 48.328125 2.96875 
Q 41.890625 -1.421875 29.109375 -1.421875 
Q 23.6875 -1.421875 17.890625 -0.5625 
Q 12.109375 0.296875 6 2 
L 6 15.28125 
Q 11.234375 12.75 16.71875 11.46875 
Q 22.21875 10.203125 27.875 10.203125 
Q 33.015625 10.203125 35.59375 11.609375 
Q 38.1875 13.03125 38.1875 15.828125 
Q 38.1875 18.171875 36.40625 19.3125 
Q 34.625 20.453125 29.296875 21.09375 
L 26.21875 21.484375 
Q 14.546875 22.953125 9.859375 26.90625 
Q 5.171875 30.859375 5.171875 38.921875 
Q 5.171875 47.609375 11.125 51.796875 
Q 17.09375 56 29.390625 56 
Q 34.234375 56 39.546875 55.265625 
Q 44.875 54.546875 51.125 52.984375 
z
" id="DejaVuSans-Bold-115"/>
       <path d="M 8.015625 -13.1875 
Q 14.265625 -1.5625 17.390625 9.515625 
Q 20.515625 20.609375 20.515625 31.390625 
Q 20.515625 42.1875 17.390625 53.25 
Q 14.265625 64.3125 8.015625 75.875 
L 22.515625 75.875 
Q 29.9375 63.921875 33.515625 52.953125 
Q 37.109375 42 37.109375 31.296875 
Q 37.109375 20.609375 33.546875 9.734375 
Q 29.984375 -1.125 22.515625 -13.1875 
z
" id="DejaVuSans-Bold-41"/>
      </defs>
      <use xlink:href="#DejaVuSans-Bold-84"/>
      <use x="68.212891" xlink:href="#DejaVuSans-Bold-105"/>
      <use x="102.490234" xlink:href="#DejaVuSans-Bold-109"/>
      <use x="206.689453" xlink:href="#DejaVuSans-Bold-101"/>
      <use x="274.511719" xlink:href="#DejaVuSans-Bold-32"/>
      <use x="309.326172" xlink:href="#DejaVuSans-Bold-40"/>
      <use x="355.029297" xlink:href="#DejaVuSans-Bold-115"/>
      <use x="414.550781" xlink:href="#DejaVuSans-Bold-41"/>
     </g>
    </g>
   </g>
   <g id="matplotlib.axis_2">
    <g id="ytick_1">
     <g id="line2d_43">
      <path clip-path="url(#p6521f45e4a)" d="M 17.532262 249.398731 
L 573.165354 249.398731 
" style="fill:none;stroke:#000000;stroke-linecap:square;stroke-opacity:0.1;stroke-width:0.5;"/>
     </g>
     <g id="line2d_44">
      <defs>
       <path d="M 0 0 
L 2.5 0 
" id="m31d4378ba0" style="stroke:#000000;stroke-width:0.5;"/>
      </defs>
      <g>
       <use style="stroke:#000000;stroke-width:0.5;" x="33.257727" xlink:href="#m31d4378ba0" y="249.398731"/>
      </g>
     </g>
     <g id="text_7">
      <!-- $\mathregular{-4}$ -->
      <g transform="translate(17.917727 252.438106)scale(0.08 -0.08)">
       <defs>
        <path d="M 10.59375 35.5 
L 73.1875 35.5 
L 73.1875 27.203125 
L 10.59375 27.203125 
z
" id="DejaVuSans-8722"/>
       </defs>
       <use transform="translate(0 0.09375)" xlink:href="#DejaVuSans-8722"/>
       <use transform="translate(83.789062 0.09375)" xlink:href="#DejaVuSans-52"/>
      </g>
     </g>
    </g>
    <g id="ytick_2">
     <g id="line2d_45">
      <path clip-path="url(#p6521f45e4a)" d="M 17.532262 196.382377 
L 573.165354 196.382377 
" style="fill:none;stroke:#000000;stroke-linecap:square;stroke-opacity:0.1;stroke-width:0.5;"/>
     </g>
     <g id="line2d_46">
      <g>
       <use style="stroke:#000000;stroke-width:0.5;" x="33.257727" xlink:href="#m31d4378ba0" y="196.382377"/>
      </g>
     </g>
     <g id="text_8">
      <!-- $\mathregular{-2}$ -->
      <g transform="translate(17.917727 199.421752)scale(0.08 -0.08)">
       <use transform="translate(0 0.78125)" xlink:href="#DejaVuSans-8722"/>
       <use transform="translate(83.789062 0.78125)" xlink:href="#DejaVuSans-50"/>
      </g>
     </g>
    </g>
    <g id="ytick_3">
     <g id="line2d_47">
      <path clip-path="url(#p6521f45e4a)" d="M 17.532262 143.366023 
L 573.165354 143.366023 
" style="fill:none;stroke:#000000;stroke-linecap:square;stroke-opacity:0.1;stroke-width:0.5;"/>
     </g>
     <g id="line2d_48">
      <g>
       <use style="stroke:#000000;stroke-width:0.5;" x="33.257727" xlink:href="#m31d4378ba0" y="143.366023"/>
      </g>
     </g>
     <g id="text_9">
      <!-- $\mathregular{}$ -->
      <g transform="translate(29.757727 146.405398)scale(0.08 -0.08)"/>
     </g>
    </g>
    <g id="ytick_4">
     <g id="line2d_49">
      <path clip-path="url(#p6521f45e4a)" d="M 17.532262 90.349669 
L 573.165354 90.349669 
" style="fill:none;stroke:#000000;stroke-linecap:square;stroke-opacity:0.1;stroke-width:0.5;"/>
     </g>
     <g id="line2d_50">
      <g>
       <use style="stroke:#000000;stroke-width:0.5;" x="33.257727" xlink:href="#m31d4378ba0" y="90.349669"/>
      </g>
     </g>
     <g id="text_10">
      <!-- $\mathregular{2}$ -->
      <g transform="translate(24.637727 93.389044)scale(0.08 -0.08)">
       <use transform="translate(0 0.78125)" xlink:href="#DejaVuSans-50"/>
      </g>
     </g>
    </g>
    <g id="ytick_5">
     <g id="line2d_51">
      <path clip-path="url(#p6521f45e4a)" d="M 17.532262 37.333315 
L 573.165354 37.333315 
" style="fill:none;stroke:#000000;stroke-linecap:square;stroke-opacity:0.1;stroke-width:0.5;"/>
     </g>
     <g id="line2d_52">
      <g>
       <use style="stroke:#000000;stroke-width:0.5;" x="33.257727" xlink:href="#m31d4378ba0" y="37.333315"/>
      </g>
     </g>
     <g id="text_11">
      <!-- $\mathregular{4}$ -->
      <g transform="translate(24.637727 40.37269)scale(0.08 -0.08)">
       <use transform="translate(0 0.09375)" xlink:href="#DejaVuSans-52"/>
      </g>
     </g>
    </g>
    <g id="ytick_6">
     <g id="line2d_53">
      <path clip-path="url(#p6521f45e4a)" d="M 17.532262 275.906908 
L 573.165354 275.906908 
" style="fill:none;stroke:#000000;stroke-linecap:square;stroke-opacity:0.05;stroke-width:0.5;"/>
     </g>
     <g id="line2d_54">
      <defs>
       <path d="M 0 0 
L 2 0 
" id="mad32921568" style="stroke:#000000;stroke-width:0.5;"/>
      </defs>
      <g>
       <use style="stroke:#000000;stroke-width:0.5;" x="33.257727" xlink:href="#mad32921568" y="275.906908"/>
      </g>
     </g>
    </g>
    <g id="ytick_7">
     <g id="line2d_55">
      <path clip-path="url(#p6521f45e4a)" d="M 17.532262 262.65282 
L 573.165354 262.65282 
" style="fill:none;stroke:#000000;stroke-linecap:square;stroke-opacity:0.05;stroke-width:0.5;"/>
     </g>
     <g id="line2d_56">
      <g>
       <use style="stroke:#000000;stroke-width:0.5;" x="33.257727" xlink:href="#mad32921568" y="262.65282"/>
      </g>
     </g>
    </g>
    <g id="ytick_8">
     <g id="line2d_57">
      <path clip-path="url(#p6521f45e4a)" d="M 17.532262 236.144643 
L 573.165354 236.144643 
" style="fill:none;stroke:#000000;stroke-linecap:square;stroke-opacity:0.05;stroke-width:0.5;"/>
     </g>
     <g id="line2d_58">
      <g>
       <use style="stroke:#000000;stroke-width:0.5;" x="33.257727" xlink:href="#mad32921568" y="236.144643"/>
      </g>
     </g>
    </g>
    <g id="ytick_9">
     <g id="line2d_59">
      <path clip-path="url(#p6521f45e4a)" d="M 17.532262 222.890554 
L 573.165354 222.890554 
" style="fill:none;stroke:#000000;stroke-linecap:square;stroke-opacity:0.05;stroke-width:0.5;"/>
     </g>
     <g id="line2d_60">
      <g>
       <use style="stroke:#000000;stroke-width:0.5;" x="33.257727" xlink:href="#mad32921568" y="222.890554"/>
      </g>
     </g>
    </g>
    <g id="ytick_10">
     <g id="line2d_61">
      <path clip-path="url(#p6521f45e4a)" d="M 17.532262 209.636466 
L 573.165354 209.636466 
" style="fill:none;stroke:#000000;stroke-linecap:square;stroke-opacity:0.05;stroke-width:0.5;"/>
     </g>
     <g id="line2d_62">
      <g>
       <use style="stroke:#000000;stroke-width:0.5;" x="33.257727" xlink:href="#mad32921568" y="209.636466"/>
      </g>
     </g>
    </g>
    <g id="ytick_11">
     <g id="line2d_63">
      <path clip-path="url(#p6521f45e4a)" d="M 17.532262 183.128288 
L 573.165354 183.128288 
" style="fill:none;stroke:#000000;stroke-linecap:square;stroke-opacity:0.05;stroke-width:0.5;"/>
     </g>
     <g id="line2d_64">
      <g>
       <use style="stroke:#000000;stroke-width:0.5;" x="33.257727" xlink:href="#mad32921568" y="183.128288"/>
      </g>
     </g>
    </g>
    <g id="ytick_12">
     <g id="line2d_65">
      <path clip-path="url(#p6521f45e4a)" d="M 17.532262 169.8742 
L 573.165354 169.8742 
" style="fill:none;stroke:#000000;stroke-linecap:square;stroke-opacity:0.05;stroke-width:0.5;"/>
     </g>
     <g id="line2d_66">
      <g>
       <use style="stroke:#000000;stroke-width:0.5;" x="33.257727" xlink:href="#mad32921568" y="169.8742"/>
      </g>
     </g>
    </g>
    <g id="ytick_13">
     <g id="line2d_67">
      <path clip-path="url(#p6521f45e4a)" d="M 17.532262 156.620111 
L 573.165354 156.620111 
" style="fill:none;stroke:#000000;stroke-linecap:square;stroke-opacity:0.05;stroke-width:0.5;"/>
     </g>
     <g id="line2d_68">
      <g>
       <use style="stroke:#000000;stroke-width:0.5;" x="33.257727" xlink:href="#mad32921568" y="156.620111"/>
      </g>
     </g>
    </g>
    <g id="ytick_14">
     <g id="line2d_69">
      <path clip-path="url(#p6521f45e4a)" d="M 17.532262 130.111934 
L 573.165354 130.111934 
" style="fill:none;stroke:#000000;stroke-linecap:square;stroke-opacity:0.05;stroke-width:0.5;"/>
     </g>
     <g id="line2d_70">
      <g>
       <use style="stroke:#000000;stroke-width:0.5;" x="33.257727" xlink:href="#mad32921568" y="130.111934"/>
      </g>
     </g>
    </g>
    <g id="ytick_15">
     <g id="line2d_71">
      <path clip-path="url(#p6521f45e4a)" d="M 17.532262 116.857846 
L 573.165354 116.857846 
" style="fill:none;stroke:#000000;stroke-linecap:square;stroke-opacity:0.05;stroke-width:0.5;"/>
     </g>
     <g id="line2d_72">
      <g>
       <use style="stroke:#000000;stroke-width:0.5;" x="33.257727" xlink:href="#mad32921568" y="116.857846"/>
      </g>
     </g>
    </g>
    <g id="ytick_16">
     <g id="line2d_73">
      <path clip-path="url(#p6521f45e4a)" d="M 17.532262 103.603757 
L 573.165354 103.603757 
" style="fill:none;stroke:#000000;stroke-linecap:square;stroke-opacity:0.05;stroke-width:0.5;"/>
     </g>
     <g id="line2d_74">
      <g>
       <use style="stroke:#000000;stroke-width:0.5;" x="33.257727" xlink:href="#mad32921568" y="103.603757"/>
      </g>
     </g>
    </g>
    <g id="ytick_17">
     <g id="line2d_75">
      <path clip-path="url(#p6521f45e4a)" d="M 17.532262 77.09558 
L 573.165354 77.09558 
" style="fill:none;stroke:#000000;stroke-linecap:square;stroke-opacity:0.05;stroke-width:0.5;"/>
     </g>
     <g id="line2d_76">
      <g>
       <use style="stroke:#000000;stroke-width:0.5;" x="33.257727" xlink:href="#mad32921568" y="77.09558"/>
      </g>
     </g>
    </g>
    <g id="ytick_18">
     <g id="line2d_77">
      <path clip-path="url(#p6521f45e4a)" d="M 17.532262 63.841492 
L 573.165354 63.841492 
" style="fill:none;stroke:#000000;stroke-linecap:square;stroke-opacity:0.05;stroke-width:0.5;"/>
     </g>
     <g id="line2d_78">
      <g>
       <use style="stroke:#000000;stroke-width:0.5;" x="33.257727" xlink:href="#mad32921568" y="63.841492"/>
      </g>
     </g>
    </g>
    <g id="ytick_19">
     <g id="line2d_79">
      <path clip-path="url(#p6521f45e4a)" d="M 17.532262 50.587403 
L 573.165354 50.587403 
" style="fill:none;stroke:#000000;stroke-linecap:square;stroke-opacity:0.05;stroke-width:0.5;"/>
     </g>
     <g id="line2d_80">
      <g>
       <use style="stroke:#000000;stroke-width:0.5;" x="33.257727" xlink:href="#mad32921568" y="50.587403"/>
      </g>
     </g>
    </g>
    <g id="ytick_20">
     <g id="line2d_81">
      <path clip-path="url(#p6521f45e4a)" d="M 17.532262 24.079226 
L 573.165354 24.079226 
" style="fill:none;stroke:#000000;stroke-linecap:square;stroke-opacity:0.05;stroke-width:0.5;"/>
     </g>
     <g id="line2d_82">
      <g>
       <use style="stroke:#000000;stroke-width:0.5;" x="33.257727" xlink:href="#mad32921568" y="24.079226"/>
      </g>
     </g>
    </g>
    <g id="ytick_21">
     <g id="line2d_83">
      <path clip-path="url(#p6521f45e4a)" d="M 17.532262 10.825137 
L 573.165354 10.825137 
" style="fill:none;stroke:#000000;stroke-linecap:square;stroke-opacity:0.05;stroke-width:0.5;"/>
     </g>
     <g id="line2d_84">
      <g>
       <use style="stroke:#000000;stroke-width:0.5;" x="33.257727" xlink:href="#mad32921568" y="10.825137"/>
      </g>
     </g>
    </g>
    <g id="text_12">
     <!-- Response -->
     <g transform="translate(11.630071 62.581833)rotate(-90)scale(0.11 -0.11)">
      <defs>
       <path d="M 35.890625 40.578125 
Q 41.796875 40.578125 44.359375 42.765625 
Q 46.921875 44.96875 46.921875 50 
Q 46.921875 54.984375 44.359375 57.125 
Q 41.796875 59.28125 35.890625 59.28125 
L 27.984375 59.28125 
L 27.984375 40.578125 
z
M 27.984375 27.59375 
L 27.984375 0 
L 9.1875 0 
L 9.1875 72.90625 
L 37.890625 72.90625 
Q 52.296875 72.90625 59 68.0625 
Q 65.71875 63.234375 65.71875 52.78125 
Q 65.71875 45.5625 62.21875 40.921875 
Q 58.734375 36.28125 51.703125 34.078125 
Q 55.5625 33.203125 58.609375 30.09375 
Q 61.671875 27 64.796875 20.703125 
L 75 0 
L 54.984375 0 
L 46.09375 18.109375 
Q 43.40625 23.578125 40.640625 25.578125 
Q 37.890625 27.59375 33.296875 27.59375 
z
" id="DejaVuSans-Bold-82"/>
       <path d="M 25.875 7.90625 
L 25.875 -20.796875 
L 8.40625 -20.796875 
L 8.40625 54.6875 
L 25.875 54.6875 
L 25.875 46.6875 
Q 29.5 51.46875 33.890625 53.734375 
Q 38.28125 56 44 56 
Q 54.109375 56 60.59375 47.96875 
Q 67.09375 39.9375 67.09375 27.296875 
Q 67.09375 14.65625 60.59375 6.609375 
Q 54.109375 -1.421875 44 -1.421875 
Q 38.28125 -1.421875 33.890625 0.84375 
Q 29.5 3.125 25.875 7.90625 
z
M 37.5 43.3125 
Q 31.890625 43.3125 28.875 39.1875 
Q 25.875 35.0625 25.875 27.296875 
Q 25.875 19.53125 28.875 15.40625 
Q 31.890625 11.28125 37.5 11.28125 
Q 43.109375 11.28125 46.0625 15.375 
Q 49.03125 19.484375 49.03125 27.296875 
Q 49.03125 35.109375 46.0625 39.203125 
Q 43.109375 43.3125 37.5 43.3125 
z
" id="DejaVuSans-Bold-112"/>
       <path d="M 34.421875 43.5 
Q 28.609375 43.5 25.5625 39.328125 
Q 22.515625 35.15625 22.515625 27.296875 
Q 22.515625 19.4375 25.5625 15.25 
Q 28.609375 11.078125 34.421875 11.078125 
Q 40.140625 11.078125 43.15625 15.25 
Q 46.1875 19.4375 46.1875 27.296875 
Q 46.1875 35.15625 43.15625 39.328125 
Q 40.140625 43.5 34.421875 43.5 
z
M 34.421875 56 
Q 48.53125 56 56.46875 48.375 
Q 64.40625 40.765625 64.40625 27.296875 
Q 64.40625 13.8125 56.46875 6.1875 
Q 48.53125 -1.421875 34.421875 -1.421875 
Q 20.265625 -1.421875 12.28125 6.1875 
Q 4.296875 13.8125 4.296875 27.296875 
Q 4.296875 40.765625 12.28125 48.375 
Q 20.265625 56 34.421875 56 
z
" id="DejaVuSans-Bold-111"/>
       <path d="M 63.375 33.296875 
L 63.375 0 
L 45.796875 0 
L 45.796875 5.421875 
L 45.796875 25.484375 
Q 45.796875 32.5625 45.484375 35.25 
Q 45.171875 37.9375 44.390625 39.203125 
Q 43.359375 40.921875 41.59375 41.875 
Q 39.84375 42.828125 37.59375 42.828125 
Q 32.125 42.828125 29 38.59375 
Q 25.875 34.375 25.875 26.90625 
L 25.875 0 
L 8.40625 0 
L 8.40625 54.6875 
L 25.875 54.6875 
L 25.875 46.6875 
Q 29.828125 51.46875 34.265625 53.734375 
Q 38.71875 56 44.09375 56 
Q 53.5625 56 58.46875 50.1875 
Q 63.375 44.390625 63.375 33.296875 
z
" id="DejaVuSans-Bold-110"/>
      </defs>
      <use xlink:href="#DejaVuSans-Bold-82"/>
      <use x="77.001953" xlink:href="#DejaVuSans-Bold-101"/>
      <use x="144.824219" xlink:href="#DejaVuSans-Bold-115"/>
      <use x="204.345703" xlink:href="#DejaVuSans-Bold-112"/>
      <use x="275.927734" xlink:href="#DejaVuSans-Bold-111"/>
      <use x="344.628906" xlink:href="#DejaVuSans-Bold-110"/>
      <use x="415.820312" xlink:href="#DejaVuSans-Bold-115"/>
      <use x="475.341797" xlink:href="#DejaVuSans-Bold-101"/>
     </g>
    </g>
   </g>
   <g id="line2d_85">
    <path clip-path="url(#p6521f45e4a)" d="M 33.257727 10.825137 
L 72.440344 10.825137 
L 72.571389 143.366023 
L 557.439889 143.366023 
L 557.439889 143.366023 
" style="fill:none;stroke:#009afa;stroke-width:3;"/>
   </g>
   <g id="line2d_86">
    <path clip-path="url(#p6521f45e4a)" d="M 33.257727 143.366023 
L 33.519818 143.313573 
L 33.781909 143.052269 
L 34.175046 142.275852 
L 34.699228 140.553017 
L 35.354456 137.392033 
L 36.140729 132.370533 
L 37.320139 123.207187 
L 39.416867 106.82815 
L 40.334186 101.545156 
L 40.989414 98.973151 
L 41.513596 97.745004 
L 41.906733 97.334968 
L 42.168824 97.309044 
L 42.430915 97.480785 
L 42.824051 98.10372 
L 43.348234 99.591223 
L 44.003461 102.420903 
L 44.789735 107.015071 
L 45.969144 115.547543 
L 48.196919 131.966803 
L 48.983192 136.296565 
L 49.63842 138.879795 
L 50.162602 140.175265 
L 50.555738 140.668181 
L 50.817829 140.763835 
L 51.07992 140.672655 
L 51.473057 140.189204 
L 51.866194 139.300811 
L 52.390376 137.521613 
L 53.045604 134.440628 
L 53.962922 128.8576 
L 55.666514 116.595287 
L 56.97697 107.872325 
L 57.763243 103.833229 
L 58.418471 101.442306 
L 58.942653 100.26049 
L 59.33579 99.826796 
L 59.597881 99.757603 
L 59.859972 99.864584 
L 60.253108 100.35155 
L 60.646245 101.21932 
L 61.170427 102.934467 
L 61.825655 105.880473 
L 62.742974 111.187063 
L 64.708657 124.535164 
L 65.888067 131.659167 
L 66.67434 135.239287 
L 67.329567 137.265139 
L 67.85375 138.180728 
L 68.246886 138.435948 
L 68.508977 138.398205 
L 68.902114 138.032036 
L 69.295251 137.303134 
L 69.819433 135.796286 
L 70.47466 133.137134 
L 71.391979 128.252632 
L 73.619753 115.506478 
L 74.01289 114.52108 
L 74.406027 114.11343 
L 74.668118 114.165618 
L 74.930209 114.475713 
L 75.323345 115.415854 
L 75.847528 117.519507 
L 76.502755 121.395926 
L 77.289029 127.570434 
L 78.468438 138.862608 
L 80.565167 159.1028 
L 81.482486 165.653451 
L 82.137714 168.854333 
L 82.661896 170.393088 
L 83.055032 170.916882 
L 83.317123 170.960734 
L 83.579215 170.760537 
L 83.972351 170.008964 
L 84.365488 168.732429 
L 84.88967 166.263727 
L 85.544898 162.081665 
L 86.462216 154.626328 
L 90.000446 123.697936 
L 90.655674 120.23747 
L 91.179856 118.398441 
L 91.572993 117.602516 
L 91.835084 117.357947 
L 92.097175 117.344103 
L 92.359266 117.560303 
L 92.752402 118.309451 
L 93.276585 120.071517 
L 93.931812 123.399702 
L 94.718085 128.780619 
L 95.897495 138.740984 
L 98.12527 157.827071 
L 98.911543 162.835302 
L 99.56677 165.809478 
L 100.090953 167.288389 
L 100.484089 167.839394 
L 100.74618 167.93535 
L 101.008271 167.813816 
L 101.401408 167.228248 
L 101.794545 166.17205 
L 102.318727 164.073459 
L 102.973955 160.457026 
L 103.891273 153.927056 
L 105.725911 138.540988 
L 106.905321 129.511436 
L 107.691594 124.840108 
L 108.346822 122.088138 
L 108.871004 120.739986 
L 109.26414 120.256669 
L 109.526232 120.190651 
L 109.788323 120.329698 
L 110.181459 120.918026 
L 110.574596 121.948895 
L 111.098778 123.971224 
L 111.754006 127.42858 
L 112.671325 133.634546 
L 116.3406 160.356694 
L 116.995827 163.1138 
L 117.52001 164.5267 
L 117.913146 165.092358 
L 118.175237 165.228416 
L 118.437328 165.170769 
L 118.699419 164.920601 
L 119.092556 164.191136 
L 119.616738 162.585434 
L 120.271966 159.651726 
L 121.058239 155.003453 
L 122.237649 146.53951 
L 124.334378 131.451998 
L 125.251696 126.602032 
L 125.906924 124.249511 
L 126.431106 123.133794 
L 126.824243 122.768727 
L 127.086334 122.753583 
L 127.348425 122.920675 
L 127.741562 123.507951 
L 128.265744 124.89592 
L 128.920972 127.523493 
L 129.707245 131.777405 
L 130.886655 139.660085 
L 133.114429 154.785546 
L 133.900702 158.760846 
L 134.55593 161.125172 
L 135.080112 162.304098 
L 135.473249 162.74639 
L 135.73534 162.826337 
L 135.997431 162.734005 
L 136.390567 162.275994 
L 136.783704 161.444996 
L 137.307886 159.789682 
L 137.963114 156.932684 
L 138.880433 151.768057 
L 140.71507 139.583891 
L 141.89448 132.424626 
L 142.680753 128.716567 
L 143.335981 126.528678 
L 143.860163 125.453724 
L 144.2533 125.065369 
L 144.515391 125.009358 
L 144.777482 125.115788 
L 145.170619 125.576325 
L 145.563755 126.387598 
L 146.087937 127.982938 
L 146.743165 130.714427 
L 147.660484 135.622968 
L 149.757213 148.733219 
L 150.805577 154.490391 
L 151.59185 157.775264 
L 152.247078 159.626953 
L 152.77126 160.457013 
L 153.164397 160.681372 
L 153.426488 160.639216 
L 153.819624 160.290655 
L 154.212761 159.607944 
L 154.736943 158.205224 
L 155.392171 155.738684 
L 156.30949 151.219478 
L 157.882036 141.964758 
L 159.323537 133.958648 
L 160.240856 130.108805 
L 160.896084 128.238114 
L 161.420266 127.348009 
L 161.813402 127.053912 
L 162.206539 127.085164 
L 162.599676 127.439442 
L 162.992812 128.108029 
L 163.516994 129.461769 
L 164.172222 131.821606 
L 165.089541 136.118494 
L 166.793133 145.602876 
L 168.103588 152.383605 
L 169.020907 155.973827 
L 169.676135 157.702222 
L 170.200317 158.510389 
L 170.593454 158.763491 
L 170.98659 158.709615 
L 171.379727 158.351435 
L 171.903909 157.416382 
L 172.428091 155.993064 
L 173.214364 153.06381 
L 174.262729 148.066916 
L 177.145731 133.651851 
L 177.932004 131.001513 
L 178.587231 129.552143 
L 179.111414 128.945483 
L 179.50455 128.826209 
L 179.897687 128.996188 
L 180.290824 129.450535 
L 180.815006 130.479741 
L 181.470233 132.388164 
L 182.256507 135.439642 
L 183.435916 141.03781 
L 185.532645 151.11146 
L 186.449964 154.387393 
L 187.105192 155.996342 
L 187.629374 156.777007 
L 188.02251 157.049716 
L 188.415647 157.049366 
L 188.808784 156.77739 
L 189.20192 156.240606 
L 189.726102 155.134499 
L 190.38133 153.18621 
L 191.298649 149.612228 
L 192.871195 142.284638 
L 194.312696 135.938019 
L 195.230015 132.88209 
L 195.885243 131.394574 
L 196.409425 130.684497 
L 196.802562 130.447642 
L 197.195698 130.468466 
L 197.588835 130.745211 
L 198.113017 131.499785 
L 198.637199 132.666969 
L 199.423472 135.091675 
L 200.471837 139.257896 
L 203.354839 151.398179 
L 204.141112 153.659538 
L 204.79634 154.911676 
L 205.320522 155.451179 
L 205.713658 155.574372 
L 206.106795 155.454574 
L 206.499932 155.095432 
L 207.024114 154.259407 
L 207.679342 152.688167 
L 208.465615 150.155338 
L 209.645025 145.478032 
L 211.741753 136.992632 
L 212.659072 134.206023 
L 213.3143 132.823206 
L 213.838482 132.139879 
L 214.231619 131.889293 
L 214.624755 131.867842 
L 215.017892 132.074752 
L 215.542074 132.696063 
L 216.066256 133.688786 
L 216.721484 135.393673 
L 217.638803 138.46432 
L 219.604486 146.187207 
L 220.783896 150.30846 
L 221.570169 152.379315 
L 222.225397 153.550927 
L 222.749579 154.080243 
L 223.142715 154.227586 
L 223.535852 154.158547 
L 223.928989 153.875626 
L 224.453171 153.177924 
L 225.108398 151.831061 
L 225.894672 149.625698 
L 227.074082 145.502363 
L 229.301856 137.501003 
L 230.219174 135.075289 
L 230.874402 133.892485 
L 231.398584 133.326057 
L 231.791721 133.135355 
L 232.184858 133.148737 
L 232.577994 133.364873 
L 233.102176 133.958638 
L 233.757404 135.157052 
L 234.543677 137.168212 
L 235.592042 140.543002 
L 238.212952 149.357391 
L 238.999226 151.251219 
L 239.654453 152.344281 
L 240.178636 152.858873 
L 240.702818 153.0356 
L 241.095954 152.943636 
L 241.620137 152.527047 
L 242.144319 151.790758 
L 242.799546 150.464686 
L 243.716865 147.994159 
L 245.158366 143.294902 
L 246.730913 138.334579 
L 247.648231 136.122871 
L 248.303459 135.023556 
L 248.827641 134.47878 
L 249.351823 134.250754 
L 249.74496 134.291535 
L 250.269142 134.624973 
L 250.793324 135.263901 
L 251.448552 136.453697 
L 252.234825 138.361051 
L 253.414235 141.867601 
L 255.510964 148.194017 
L 256.428283 150.257888 
L 257.08351 151.274954 
L 257.607692 151.771413 
L 258.131875 151.968427 
L 258.525011 151.916351 
L 259.049193 151.58413 
L 259.573376 150.964827 
L 260.228603 149.824138 
L 261.145922 147.666788 
L 262.587423 143.508379 
L 264.291015 138.735175 
L 265.208334 136.809727 
L 265.863562 135.869234 
L 266.387744 135.417419 
L 266.911926 135.248653 
L 267.436108 135.366909 
L 267.96029 135.766026 
L 268.615518 136.634602 
L 269.401791 138.148669 
L 270.450155 140.756343 
L 273.333157 148.379764 
L 274.119431 149.805662 
L 274.774658 150.598273 
L 275.29884 150.942803 
L 275.823023 151.018125 
L 276.347205 150.823459 
L 276.871387 150.367539 
L 277.526615 149.458297 
L 278.312888 147.942234 
L 279.492298 145.067866 
L 281.851118 139.11072 
L 282.768436 137.436146 
L 283.423664 136.633228 
L 283.947846 136.26069 
L 284.472028 136.140955 
L 284.99621 136.276479 
L 285.520393 136.660712 
L 286.17562 137.466719 
L 286.961894 138.846654 
L 288.010258 141.194656 
L 290.89326 147.943999 
L 291.679533 149.179104 
L 292.334761 149.851455 
L 292.858943 150.129816 
L 293.383125 150.168058 
L 293.907307 149.966504 
L 294.431489 149.533922 
L 295.086717 148.694686 
L 295.87299 147.316612 
L 297.0524 144.734349 
L 299.41122 139.461694 
L 300.328539 138.006819 
L 300.983766 137.322923 
L 301.507949 137.017832 
L 302.032131 136.938412 
L 302.556313 137.085889 
L 303.080495 137.453489 
L 303.735723 138.199794 
L 304.521996 139.45614 
L 305.701406 141.855246 
L 308.191271 147.103869 
L 309.10859 148.459403 
L 309.763818 149.089995 
L 310.419045 149.400956 
L 310.943228 149.40937 
L 311.46741 149.204913 
L 312.122637 148.663904 
L 312.908911 147.641062 
L 313.826229 146.042855 
L 315.660867 142.248778 
L 316.971322 139.788788 
L 317.888641 138.526166 
L 318.543869 137.945104 
L 319.199097 137.666609 
L 319.723279 137.670751 
L 320.247461 137.87542 
L 320.902689 138.399494 
L 321.688962 139.37837 
L 322.737326 141.138971 
L 326.14451 147.347628 
L 326.930783 148.211147 
L 327.586011 148.634033 
L 328.110193 148.761984 
L 328.634376 148.699029 
L 329.289603 148.357907 
L 329.944831 147.745781 
L 330.731104 146.705036 
L 331.910514 144.703047 
L 334.531425 140.09285 
L 335.448744 138.998329 
L 336.103971 138.505992 
L 336.759199 138.284668 
L 337.283381 138.309839 
L 337.938609 138.59059 
L 338.593837 139.130991 
L 339.38011 140.076386 
L 340.428474 141.708512 
L 343.442522 146.665448 
L 344.228795 147.514107 
L 344.884023 147.966794 
L 345.53925 148.163042 
L 346.194478 148.09431 
L 346.849706 147.766671 
L 347.635979 147.061167 
L 348.553298 145.884764 
L 349.994799 143.580476 
L 351.829436 140.712497 
L 352.746755 139.657232 
L 353.533028 139.075536 
L 354.188256 138.852696 
L 354.843484 138.879498 
L 355.498711 139.152301 
L 356.284985 139.779404 
L 357.202303 140.855041 
L 358.512759 142.799176 
L 360.609487 145.908591 
L 361.526806 146.892428 
L 362.313079 147.428885 
L 362.968307 147.627986 
L 363.623535 147.591448 
L 364.278763 147.323322 
L 365.065036 146.720267 
L 365.982355 145.695286 
L 367.423856 143.659096 
L 369.258493 141.086758 
L 370.175812 140.12385 
L 370.962085 139.580926 
L 371.617313 139.359683 
L 372.272541 139.360242 
L 372.927768 139.580647 
L 373.714041 140.114803 
L 374.63136 141.050474 
L 375.941816 142.765617 
L 378.16959 145.697843 
L 379.086909 146.552321 
L 379.873182 147.007683 
L 380.52841 147.165028 
L 381.183637 147.112504 
L 381.838865 146.854818 
L 382.625138 146.297941 
L 383.542457 145.367861 
L 384.983958 143.54384 
L 386.818596 141.270653 
L 387.86696 140.338111 
L 388.653233 139.919016 
L 389.308461 139.779965 
L 389.963689 139.838937 
L 390.749962 140.163361 
L 391.536235 140.736782 
L 392.584599 141.803779 
L 396.38492 146.060661 
L 397.171193 146.527902 
L 397.957467 146.741109 
L 398.612694 146.713877 
L 399.398967 146.439962 
L 400.185241 145.926668 
L 401.233605 144.946382 
L 403.199288 142.684192 
L 404.640789 141.208682 
L 405.558108 140.557803 
L 406.344381 140.243511 
L 407.130654 140.178556 
L 407.916928 140.365458 
L 408.703201 140.786864 
L 409.62052 141.526442 
L 411.062021 143.029271 
L 413.158749 145.207742 
L 414.207114 145.961674 
L 414.993387 146.286892 
L 415.77966 146.378548 
L 416.565933 146.231855 
L 417.352207 145.860857 
L 418.269525 145.187508 
L 419.579981 143.924881 
L 421.9388 141.603095 
L 422.987165 140.901145 
L 423.904484 140.574214 
L 424.690757 140.534385 
L 425.47703 140.718111 
L 426.394349 141.191665 
L 427.442713 142.006172 
L 429.408396 143.902566 
L 430.849897 145.150347 
L 431.898262 145.765762 
L 432.81558 146.025011 
L 433.601854 146.018555 
L 434.388127 145.803141 
L 435.305446 145.314118 
L 436.484855 144.398373 
L 440.023085 141.412792 
L 440.940404 140.995278 
L 441.857723 140.836287 
L 442.643996 140.917075 
L 443.561315 141.252727 
L 444.609679 141.904592 
L 446.182225 143.209589 
L 448.147909 144.820632 
L 449.196273 145.419272 
L 450.113592 145.70369 
L 451.03091 145.734738 
L 451.948229 145.512173 
L 452.996594 144.982878 
L 454.307049 144.027347 
L 457.190051 141.811526 
L 458.238415 141.318305 
L 459.155734 141.124803 
L 460.073053 141.173257 
L 460.990372 141.455547 
L 462.038736 142.021128 
L 463.611282 143.172992 
L 465.708011 144.698556 
L 466.756375 145.217396 
L 467.673694 145.455663 
L 468.591013 145.467636 
L 469.508332 145.254784 
L 470.556696 144.769922 
L 471.998197 143.814431 
L 474.619108 142.019082 
L 475.667472 141.564821 
L 476.584791 141.376883 
L 477.50211 141.403884 
L 478.419428 141.640325 
L 479.467793 142.130401 
L 481.040339 143.146402 
L 483.268113 144.585108 
L 484.447523 145.074506 
L 485.495888 145.25294 
L 486.413206 145.191505 
L 487.461571 144.884733 
L 488.640981 144.295603 
L 493.096529 141.782868 
L 494.144893 141.59125 
L 495.193258 141.649208 
L 496.241622 141.945218 
L 497.552077 142.57958 
L 501.614489 144.789697 
L 502.662853 145.020461 
L 503.711218 145.017846 
L 504.759582 144.785455 
L 505.938992 144.294672 
L 507.904675 143.188478 
L 509.739313 142.24691 
L 510.918723 141.88117 
L 511.967087 141.778619 
L 513.015451 141.898342 
L 514.194861 142.273011 
L 515.767408 143.04475 
L 518.519364 144.43376 
L 519.698774 144.772697 
L 520.747138 144.863196 
L 521.795502 144.744142 
L 522.974912 144.385027 
L 524.547459 143.652993 
L 527.299415 142.347562 
L 528.478825 142.033604 
L 529.658235 141.958217 
L 530.837645 142.130901 
L 532.1481 142.570864 
L 534.375874 143.623991 
L 536.210512 144.379512 
L 537.389922 144.64679 
L 538.569332 144.685284 
L 539.748741 144.491811 
L 541.190242 143.997955 
L 545.645791 142.238452 
L 546.825201 142.109278 
L 548.004611 142.202523 
L 549.315066 142.541639 
L 551.149704 143.280407 
L 553.508523 144.209912 
L 554.818979 144.497407 
L 555.998389 144.543935 
L 557.177798 144.38316 
L 557.439889 144.321783 
L 557.439889 144.321783 
" style="fill:none;stroke:#e36f47;stroke-width:3;"/>
   </g>
   <g id="patch_3">
    <path d="M 33.257727 285.165354 
L 33.257727 2.834646 
" style="fill:none;stroke:#000000;stroke-linecap:square;stroke-linejoin:miter;"/>
   </g>
   <g id="patch_4">
    <path d="M 17.532262 143.366023 
L 573.165354 143.366023 
" style="fill:none;stroke:#000000;stroke-linecap:square;stroke-linejoin:miter;"/>
   </g>
   <g id="line2d_87">
    <path clip-path="url(#p6521f45e4a)" d="M 33.257727 143.366023 
L 34.830273 84.26639 
L 35.747592 57.790889 
L 36.40282 44.556843 
L 36.927002 37.934329 
L 37.320139 35.427749 
L 37.58223 34.953729 
L 37.713275 35.076944 
L 37.975366 36.04037 
L 38.368503 39.251852 
L 38.76164 44.513325 
L 39.285822 54.512958 
L 39.941049 71.260331 
L 40.858368 100.855632 
L 44.265552 218.565777 
L 44.92078 232.751508 
L 45.444962 240.505499 
L 45.838099 244.049832 
L 46.10019 245.294118 
L 46.362281 245.633173 
L 46.493327 245.462976 
L 46.755418 244.446987 
L 47.148554 241.260442 
L 47.672736 234.032936 
L 48.327964 220.622612 
L 49.114237 199.17176 
L 50.293647 159.806006 
L 52.390376 88.940964 
L 53.307695 65.884664 
L 53.962922 54.554939 
L 54.487105 49.052668 
L 54.880241 47.125704 
L 55.142332 46.907848 
L 55.273378 47.119271 
L 55.535469 48.178621 
L 55.928605 51.332317 
L 56.452788 58.335869 
L 57.108015 71.191063 
L 57.894289 91.61797 
L 59.073698 128.90142 
L 61.170427 195.561792 
L 62.087746 217.069995 
L 62.742974 227.54495 
L 63.267156 232.550118 
L 63.660292 234.22441 
L 63.791338 234.379896 
L 63.922383 234.333718 
L 64.184475 233.638625 
L 64.446566 232.14808 
L 64.839702 228.457548 
L 65.363884 220.958265 
L 66.019112 207.85753 
L 66.936431 183.966368 
L 68.508977 135.262646 
L 69.950478 93.328111 
L 70.736752 75.70091 
L 71.391979 65.180909 
L 71.916161 59.902265 
L 72.309298 57.891048 
L 72.571389 57.498196 
L 73.619753 104.17906 
L 76.240664 226.178778 
L 77.026937 252.411613 
L 77.682165 267.563209 
L 78.206347 274.706424 
L 78.599484 277.001855 
L 78.73053 277.174863 
L 78.861575 277.051479 
L 79.123666 275.919349 
L 79.385757 273.619591 
L 79.778894 268.03677 
L 80.303076 256.817073 
L 80.958304 237.347122 
L 81.875623 202.011362 
L 83.579215 124.277872 
L 84.88967 68.891777 
L 85.675943 43.204532 
L 86.331171 27.968302 
L 86.855353 20.408864 
L 87.24849 17.608124 
L 87.510581 17.135417 
L 87.641626 17.318434 
L 87.903717 18.51875 
L 88.296854 22.373196 
L 88.821036 31.195056 
L 89.476264 47.63786 
L 90.262537 74.011697 
L 91.441947 122.519966 
L 93.538676 210.085644 
L 94.455994 238.671338 
L 95.111222 252.768178 
L 95.635404 259.65789 
L 96.028541 262.112536 
L 96.290632 262.432578 
L 96.421678 262.197124 
L 96.683769 260.940167 
L 97.076905 257.12159 
L 97.601087 248.570082 
L 98.256315 232.805432 
L 99.042588 207.688305 
L 100.221998 161.743268 
L 102.318727 79.368713 
L 103.236046 52.699717 
L 103.891273 39.663657 
L 104.415455 33.39279 
L 104.808592 31.254245 
L 104.939638 31.038198 
L 105.070683 31.071085 
L 105.332774 31.881084 
L 105.594865 33.673621 
L 105.988002 38.160216 
L 106.512184 47.331332 
L 107.167412 63.409158 
L 108.084731 92.803617 
L 109.657277 152.873807 
L 111.098778 204.727386 
L 111.885051 226.581769 
L 112.540279 239.665426 
L 113.064461 246.267661 
L 113.457598 248.817708 
L 113.719689 249.348112 
L 113.850734 249.261113 
L 114.112825 248.385722 
L 114.374917 246.585165 
L 114.768053 242.193687 
L 115.292235 233.344772 
L 115.947463 217.964213 
L 116.864782 190.017611 
L 118.568374 128.465203 
L 119.878829 84.554953 
L 120.665103 64.165469 
L 121.32033 52.053232 
L 121.844512 46.026948 
L 122.237649 43.778463 
L 122.49974 43.383789 
L 122.630786 43.518634 
L 122.892877 44.449269 
L 123.286013 47.472776 
L 123.67915 52.384062 
L 124.203332 61.67837 
L 124.85856 77.200123 
L 125.775879 104.568887 
L 129.183063 213.009903 
L 129.83829 226.009419 
L 130.362473 233.085987 
L 130.755609 236.295949 
L 131.0177 237.403569 
L 131.279791 237.676177 
L 131.410837 237.499218 
L 131.672928 236.522554 
L 132.066065 233.525709 
L 132.590247 226.787211 
L 133.245474 214.339086 
L 134.031748 194.480789 
L 135.211158 158.117496 
L 137.307886 92.83669 
L 138.225205 71.668031 
L 138.880433 61.302846 
L 139.404615 56.301226 
L 139.797751 54.580483 
L 139.928797 54.400342 
L 140.059843 54.417378 
L 140.321934 55.041016 
L 140.584025 56.443141 
L 140.977161 59.971112 
L 141.501343 67.203261 
L 142.156571 79.903216 
L 143.07389 103.149912 
L 144.646436 150.711962 
L 146.087937 191.817824 
L 146.874211 209.163969 
L 147.529438 219.563863 
L 148.053621 224.825634 
L 148.446757 226.870676 
L 148.708848 227.307795 
L 148.839894 227.247386 
L 149.101985 226.570917 
L 149.364076 225.161399 
L 149.757213 221.707223 
L 150.281395 214.728291 
L 150.936622 202.578349 
L 151.853941 180.475889 
L 153.557533 131.736524 
L 154.867989 96.924546 
L 155.654262 80.740354 
L 156.30949 71.111748 
L 156.833672 66.307893 
L 157.226808 64.503098 
L 157.488899 64.174445 
L 157.619945 64.273238 
L 157.882036 64.994442 
L 158.275173 67.365906 
L 158.668309 71.233658 
L 159.192491 78.567988 
L 159.847719 90.833142 
L 160.765038 112.482506 
L 164.172222 198.417762 
L 164.82745 208.745519 
L 165.351632 214.378693 
L 165.744769 216.943363 
L 166.00686 217.835736 
L 166.268951 218.066797 
L 166.399996 217.934189 
L 166.662087 217.175603 
L 167.055224 214.823873 
L 167.579406 209.514176 
L 168.234634 199.684994 
L 169.020907 183.984601 
L 170.200317 155.20495 
L 172.297046 103.470979 
L 173.214364 86.668396 
L 173.869592 78.427024 
L 174.393774 74.43796 
L 174.786911 73.053737 
L 175.049002 72.910267 
L 175.311093 73.39002 
L 175.573184 74.486585 
L 175.966321 77.260594 
L 176.490503 82.963575 
L 177.145731 92.995211 
L 178.063049 111.3798 
L 179.635596 149.038043 
L 181.077097 181.6237 
L 181.86337 195.391469 
L 182.518598 203.657962 
L 183.04278 207.851248 
L 183.435916 209.491039 
L 183.698008 209.850733 
L 183.829053 209.809617 
L 184.091144 209.287197 
L 184.353235 208.183954 
L 184.746372 205.467171 
L 185.270554 199.96318 
L 185.925782 190.365391 
L 186.843101 172.88508 
L 188.546693 134.291715 
L 189.857148 106.692983 
L 190.643421 93.846867 
L 191.298649 86.192754 
L 191.822831 82.363531 
L 192.215968 80.915133 
L 192.478059 80.642111 
L 192.609104 80.714013 
L 192.871195 81.272641 
L 193.264332 83.132491 
L 193.657469 86.178319 
L 194.181651 91.965881 
L 194.836879 101.657599 
L 195.754197 118.782666 
L 199.161381 186.882659 
L 199.816609 195.087665 
L 200.340791 199.571721 
L 200.733928 201.620658 
L 200.996019 202.339406 
L 201.25811 202.534412 
L 201.520201 202.205777 
L 201.782292 201.358233 
L 202.175429 199.135529 
L 202.699611 194.479646 
L 203.354839 186.200935 
L 204.141112 173.309232 
L 205.451567 147.473917 
L 207.286205 111.867671 
L 208.203524 98.530773 
L 208.858751 91.978174 
L 209.382934 88.796842 
L 209.77607 87.683595 
L 210.038161 87.558646 
L 210.300252 87.927386 
L 210.562343 88.784836 
L 210.95548 90.965883 
L 211.479662 95.462913 
L 212.13489 103.386758 
L 213.052209 117.92606 
L 214.624755 147.742615 
L 216.066256 173.573953 
L 216.983575 186.015298 
L 217.638803 192.073479 
L 218.162985 194.967315 
L 218.556121 195.934465 
L 218.818212 195.996674 
L 219.080304 195.59349 
L 219.342395 194.730098 
L 219.735531 192.593407 
L 220.259713 188.252742 
L 220.914941 180.671106 
L 221.83226 166.846438 
L 223.404806 138.667094 
L 224.846307 114.407147 
L 225.632581 104.210703 
L 226.287808 98.126289 
L 226.81199 95.074096 
L 227.205127 93.911918 
L 227.467218 93.685602 
L 227.729309 93.899175 
L 227.9914 94.549216 
L 228.384537 96.325729 
L 228.908719 100.122943 
L 229.563947 106.951674 
L 230.35022 117.663543 
L 231.660675 139.271757 
L 233.495313 169.284165 
L 234.412632 180.628808 
L 235.067859 186.26033 
L 235.592042 189.044821 
L 235.985178 190.067473 
L 236.247269 190.231427 
L 236.50936 189.98059 
L 236.771452 189.318623 
L 237.164588 187.571711 
L 237.68877 183.90094 
L 238.343998 177.362215 
L 239.130271 167.16819 
L 240.440727 146.717643 
L 242.275364 118.497491 
L 243.192683 107.911544 
L 243.847911 102.701762 
L 244.372093 100.164737 
L 244.76523 99.269628 
L 245.027321 99.161701 
L 245.289412 99.44485 
L 245.551503 100.11521 
L 245.944639 101.829943 
L 246.468822 105.375944 
L 247.124049 111.634798 
L 248.041368 123.133004 
L 249.613915 146.740656 
L 251.055415 167.217595 
L 251.972734 177.093179 
L 252.627962 181.910345 
L 253.152144 184.218732 
L 253.545281 184.997383 
L 253.807372 185.055108 
L 254.069463 184.744162 
L 254.4626 183.596188 
L 254.855736 181.655603 
L 255.379918 177.911081 
L 256.035146 171.576927 
L 256.952465 160.297499 
L 260.490694 113.59368 
L 261.145922 108.382417 
L 261.670104 105.619025 
L 262.063241 104.428362 
L 262.325332 104.066885 
L 262.587423 104.054013 
L 262.849514 104.388646 
L 263.242651 105.53222 
L 263.635787 107.420857 
L 264.15997 111.024497 
L 264.815197 117.075714 
L 265.732516 127.790862 
L 269.1397 170.556221 
L 269.794928 175.734757 
L 270.31911 178.575743 
L 270.712247 179.883185 
L 271.105383 180.458895 
L 271.367474 180.431821 
L 271.629565 180.077236 
L 272.022702 178.941404 
L 272.546884 176.344201 
L 273.202112 171.5056 
L 273.988385 163.74679 
L 275.167795 149.479592 
L 277.264524 123.732154 
L 278.181842 115.329805 
L 278.83707 111.187736 
L 279.361252 109.164631 
L 279.754389 108.445079 
L 280.01648 108.352497 
L 280.278571 108.569706 
L 280.540662 109.093705 
L 280.933799 110.44174 
L 281.457981 113.237766 
L 282.113209 118.181421 
L 283.030527 127.274555 
L 284.603074 145.966136 
L 286.044575 162.198466 
L 286.961894 170.03735 
L 287.617121 173.867649 
L 288.141303 175.708929 
L 288.53444 176.335652 
L 288.796531 176.388068 
L 289.058622 176.148435 
L 289.451759 175.248952 
L 289.844895 173.721261 
L 290.369078 170.766908 
L 291.024305 165.762202 
L 291.941624 156.840432 
L 295.479854 119.829192 
L 296.135081 115.68824 
L 296.659264 113.487619 
L 297.0524 112.535235 
L 297.314491 112.242622 
L 297.576582 112.226113 
L 297.838673 112.484893 
L 298.23181 113.381468 
L 298.624947 114.868583 
L 299.149129 117.712074 
L 299.804357 122.493494 
L 300.721675 130.96922 
L 304.128859 164.858433 
L 304.784087 168.972414 
L 305.308269 171.233669 
L 305.701406 172.277957 
L 306.094543 172.742859 
L 306.356634 172.727369 
L 306.618725 172.452423 
L 307.011861 171.561434 
L 307.536043 169.515196 
L 308.191271 165.694804 
L 308.977544 159.560721 
L 310.156954 148.269217 
L 312.253683 127.865192 
L 313.171002 121.196083 
L 313.826229 117.902967 
L 314.350412 116.289757 
L 314.743548 115.711458 
L 315.005639 115.632506 
L 315.26773 115.798953 
L 315.660867 116.503069 
L 316.054004 117.736763 
L 316.578186 120.156934 
L 317.233413 124.294381 
L 318.150732 131.721037 
L 321.820007 163.698762 
L 322.475235 166.998034 
L 322.999417 168.688731 
L 323.392554 169.365571 
L 323.654645 169.528341 
L 323.916736 169.459308 
L 324.178827 169.159889 
L 324.571964 168.286881 
L 325.096146 166.365281 
L 325.751374 162.854473 
L 326.537647 157.291884 
L 327.717057 147.163177 
L 329.813785 129.108335 
L 330.731104 123.304589 
L 331.386332 120.489474 
L 331.910514 119.154406 
L 332.303651 118.717605 
L 332.565742 118.699528 
L 332.827833 118.89953 
L 333.220969 119.602378 
L 333.745152 121.263418 
L 334.400379 124.407879 
L 335.186653 129.498541 
L 336.366062 138.931665 
L 338.593837 157.031924 
L 339.38011 161.788997 
L 340.035338 164.618247 
L 340.55952 166.028962 
L 340.952656 166.55818 
L 341.214747 166.653808 
L 341.476838 166.543272 
L 341.869975 165.995117 
L 342.263112 165.000616 
L 342.787294 163.019659 
L 343.442522 159.600662 
L 344.35984 153.42017 
L 346.194478 138.839585 
L 347.373888 130.272311 
L 348.160161 125.835035 
L 348.815389 123.21692 
L 349.339571 121.930621 
L 349.732708 121.465945 
L 349.994799 121.398958 
L 350.25689 121.526362 
L 350.650026 122.077537 
L 351.043163 123.04843 
L 351.567345 124.957613 
L 352.222573 128.22641 
L 353.139892 134.100443 
L 355.23662 149.78924 
L 356.284985 156.678659 
L 357.071258 160.609515 
L 357.726486 162.825309 
L 358.250668 163.818551 
L 358.643804 164.08698 
L 358.905895 164.036494 
L 359.299032 163.61932 
L 359.692169 162.802279 
L 360.216351 161.123603 
L 360.871579 158.171867 
L 361.788897 152.763745 
L 363.361444 141.688762 
L 364.802945 132.108077 
L 365.720264 127.501136 
L 366.375491 125.262597 
L 366.899673 124.197495 
L 367.29281 123.845609 
L 367.554901 123.82733 
L 367.816992 123.981807 
L 368.210129 124.532726 
L 368.734311 125.841071 
L 369.389539 128.323558 
L 370.175812 132.347974 
L 371.355222 139.813354 
L 373.582996 154.15749 
L 374.369269 157.933398 
L 375.024497 160.182476 
L 375.548679 161.306988 
L 375.941816 161.731717 
L 376.203907 161.811197 
L 376.465998 161.727372 
L 376.859134 161.298695 
L 377.252271 160.516277 
L 377.776453 158.953785 
L 378.431681 156.252793 
L 379.349 151.364605 
L 381.183637 139.818351 
L 382.363047 133.025651 
L 383.14932 129.503412 
L 383.804548 127.42198 
L 384.32873 126.396394 
L 384.721867 126.023093 
L 385.115004 125.996017 
L 385.50814 126.313894 
L 385.901277 126.968611 
L 386.425459 128.33912 
L 387.080687 130.775111 
L 387.998005 135.272343 
L 389.570552 144.549465 
L 391.012053 152.63511 
L 391.929372 156.555281 
L 392.584599 158.480611 
L 393.108782 159.41476 
L 393.501918 159.74106 
L 393.895055 159.740595 
L 394.288191 159.415082 
L 394.681328 158.77268 
L 395.20551 157.448969 
L 395.860738 155.11743 
L 396.778057 150.840454 
L 398.350603 142.071638 
L 399.792104 134.476819 
L 400.709423 130.81992 
L 401.364651 129.039901 
L 401.888833 128.190222 
L 402.281969 127.906825 
L 402.675106 127.931788 
L 403.068243 128.263006 
L 403.461379 128.892303 
L 403.985561 130.169952 
L 404.640789 132.400768 
L 405.558108 136.46749 
L 407.2617 145.454592 
L 408.572155 151.887533 
L 409.489474 155.297988 
L 410.144702 156.942779 
L 410.668884 157.714471 
L 411.062021 157.958753 
L 411.455157 157.912079 
L 411.848294 157.576896 
L 412.372476 156.696098 
L 412.896658 155.352021 
L 413.682931 152.581785 
L 414.731296 147.850754 
L 417.614298 134.180782 
L 418.400571 131.662171 
L 419.055799 130.282052 
L 419.579981 129.701607 
L 419.973117 129.584406 
L 420.366254 129.741397 
L 420.759391 130.16803 
L 421.283573 131.138502 
L 421.9388 132.941801 
L 422.725074 135.828875 
L 423.904484 141.130947 
L 426.001212 150.684163 
L 426.918531 153.795741 
L 427.573759 155.326522 
L 428.097941 156.071487 
L 428.491077 156.333863 
L 428.884214 156.337444 
L 429.277351 156.083511 
L 429.670487 155.578449 
L 430.19467 154.534671 
L 430.849897 152.693039 
L 431.767216 149.310646 
L 433.339762 142.367813 
L 434.781263 136.347265 
L 435.698582 133.444517 
L 436.35381 132.029128 
L 436.877992 131.351339 
L 437.271129 131.123163 
L 437.664265 131.139212 
L 438.057402 131.397891 
L 438.581584 132.10848 
L 439.105766 133.21055 
L 439.89204 135.503487 
L 440.940404 139.447896 
L 443.823406 150.960323 
L 444.609679 153.109141 
L 445.264907 154.301266 
L 445.789089 154.817174 
L 446.182225 154.937422 
L 446.575362 154.827339 
L 446.968499 154.490312 
L 447.492681 153.702158 
L 448.147909 152.217606 
L 448.934182 149.821357 
L 450.113592 145.391587 
L 452.341366 136.917427 
L 453.258685 134.393138 
L 453.913912 133.18505 
L 454.438095 132.62653 
L 454.831231 132.457946 
L 455.224368 132.506778 
L 455.617504 132.770922 
L 456.141687 133.446439 
L 456.796914 134.771196 
L 457.583187 136.959761 
L 458.762597 141.080012 
L 461.121417 149.543644 
L 461.90769 151.613509 
L 462.562918 152.83057 
L 463.0871 153.424636 
L 463.611282 153.660361 
L 464.004419 153.598015 
L 464.397556 153.332879 
L 464.921738 152.675403 
L 465.576965 151.403075 
L 466.363239 149.316834 
L 467.542649 145.411955 
L 469.770423 137.824217 
L 470.687742 135.520115 
L 471.342969 134.394685 
L 471.867151 133.854042 
L 472.391334 133.652118 
L 472.78447 133.726278 
L 473.177607 133.991409 
L 473.701789 134.630635 
L 474.357017 135.852065 
L 475.14329 137.840295 
L 476.3227 141.540511 
L 478.550474 148.679397 
L 479.467793 150.828429 
L 480.12302 151.868577 
L 480.647203 152.359887 
L 481.171385 152.531064 
L 481.564521 152.446643 
L 482.088704 152.055333 
L 482.612886 151.360759 
L 483.268113 150.10748 
L 484.185432 147.769599 
L 485.626933 143.317588 
L 487.19948 138.612678 
L 488.116798 136.512066 
L 488.772026 135.466295 
L 489.296208 134.946612 
L 489.82039 134.727029 
L 490.213527 134.763085 
L 490.737709 135.075752 
L 491.261891 135.678179 
L 491.917119 136.802403 
L 492.703392 138.606966 
L 493.882802 141.928013 
L 495.979531 147.927531 
L 496.89685 149.887821 
L 497.552077 150.855439 
L 498.07626 151.329149 
L 498.600442 151.519145 
L 499.124624 151.420713 
L 499.648806 151.039325 
L 500.304034 150.189044 
L 501.090307 148.69002 
L 502.138671 146.088994 
L 505.152719 138.133301 
L 505.938992 136.75838 
L 506.59422 136.018166 
L 507.118402 135.719947 
L 507.642584 135.693055 
L 508.166766 135.936548 
L 508.690948 136.439971 
L 509.346176 137.404204 
L 510.132449 138.975944 
L 511.311859 141.904234 
L 513.539633 147.561564 
L 514.456952 149.267458 
L 515.11218 150.094589 
L 515.636362 150.486578 
L 516.160544 150.625092 
L 516.684726 150.50702 
L 517.208908 150.138304 
L 517.864136 149.348172 
L 518.650409 147.981048 
L 519.698774 145.638119 
L 522.581776 138.835454 
L 523.368049 137.574186 
L 524.023277 136.878869 
L 524.547459 136.582286 
L 525.071641 136.526652 
L 525.595823 136.712249 
L 526.120005 137.130862 
L 526.775233 137.956153 
L 527.561506 139.323581 
L 528.740916 141.903736 
L 531.099736 147.218926 
L 532.017055 148.701937 
L 532.672282 149.407436 
L 533.32751 149.775231 
L 533.851692 149.81407 
L 534.375874 149.625575 
L 534.900056 149.217966 
L 535.555284 148.425198 
L 536.341557 147.121583 
L 537.520967 144.676156 
L 539.879787 139.675852 
L 540.797106 138.293656 
L 541.452333 137.642663 
L 542.107561 137.311444 
L 542.631743 137.287677 
L 543.155926 137.478119 
L 543.811153 138.004225 
L 544.597426 139.014039 
L 545.514745 140.604925 
L 547.218337 144.137763 
L 548.659838 146.899078 
L 549.577157 148.186962 
L 550.232385 148.787288 
L 550.887612 149.08486 
L 551.411795 149.095141 
L 551.935977 148.903603 
L 552.591204 148.39344 
L 553.377478 147.426636 
L 554.294796 145.914025 
L 556.129434 142.318674 
L 557.439889 139.984562 
L 557.439889 139.984562 
" style="fill:none;stroke:#3ea44e;stroke-width:3;"/>
   </g>
   <g id="legend_1">
    <g id="patch_5">
     <path d="M 527.062854 52.079646 
L 569.165354 52.079646 
L 569.165354 6.834646 
L 527.062854 6.834646 
z
" style="fill:none;opacity:0;"/>
    </g>
    <g id="line2d_88">
     <path d="M 533.462854 16.513396 
L 549.462854 16.513396 
" style="fill:none;stroke:#009afa;stroke-linejoin:miter;"/>
    </g>
    <g id="line2d_89"/>
    <g id="text_13">
     <!-- M -->
     <g transform="translate(555.862854 19.313396)scale(0.08 -0.08)">
      <defs>
       <path d="M 9.8125 72.90625 
L 24.515625 72.90625 
L 43.109375 23.296875 
L 61.8125 72.90625 
L 76.515625 72.90625 
L 76.515625 0 
L 66.890625 0 
L 66.890625 64.015625 
L 48.09375 14.015625 
L 38.1875 14.015625 
L 19.390625 64.015625 
L 19.390625 0 
L 9.8125 0 
z
" id="DejaVuSans-77"/>
      </defs>
      <use xlink:href="#DejaVuSans-77"/>
     </g>
    </g>
    <g id="line2d_90">
     <path d="M 533.462854 28.255896 
L 549.462854 28.255896 
" style="fill:none;stroke:#e36f47;stroke-linejoin:miter;"/>
    </g>
    <g id="line2d_91"/>
    <g id="text_14">
     <!-- $$ -->
     <g transform="translate(555.862854 31.055896)scale(0.08 -0.08)">
      <defs>
       <path d="M 45.515625 34.671875 
L 14.453125 34.671875 
Q 12.359375 20.0625 14.5 13.875 
Q 17.1875 6.25 24.46875 6.25 
Q 31.78125 6.25 37.359375 13.921875 
Q 42.234375 20.65625 45.515625 34.671875 
z
M 47.015625 42.96875 
Q 48.34375 56.84375 46.625 61.71875 
Q 43.953125 69.4375 36.765625 69.4375 
Q 29.296875 69.4375 23.828125 61.8125 
Q 19.53125 55.671875 16.15625 42.96875 
z
M 38.1875 76.765625 
Q 49.90625 76.765625 54.59375 66.40625 
Q 59.28125 56.109375 55.71875 37.84375 
Q 52.203125 19.625 43.453125 9.28125 
Q 34.765625 -1.125 23.046875 -1.125 
Q 11.28125 -1.125 6.640625 9.28125 
Q 2 19.625 5.515625 37.84375 
Q 9.078125 56.109375 17.71875 66.40625 
Q 26.421875 76.765625 38.1875 76.765625 
z
" id="DejaVuSans-Oblique-952"/>
      </defs>
      <use transform="translate(0 0.234375)" xlink:href="#DejaVuSans-Oblique-952"/>
     </g>
    </g>
    <g id="line2d_92">
     <path d="M 533.462854 41.215896 
L 549.462854 41.215896 
" style="fill:none;stroke:#3ea44e;stroke-linejoin:miter;"/>
    </g>
    <g id="line2d_93"/>
    <g id="text_15">
     <!-- $\dot{}$ -->
     <g transform="translate(555.862854 44.015896)scale(0.08 -0.08)">
      <defs>
       <path d="M -29.59375 75.984375 
L -20.609375 75.984375 
L -20.609375 64.59375 
L -29.59375 64.59375 
z
M -25 56 
z
" id="DejaVuSans-775"/>
      </defs>
      <use transform="translate(62.88916 34.015625)" xlink:href="#DejaVuSans-775"/>
      <use transform="translate(0 0.75)" xlink:href="#DejaVuSans-Oblique-952"/>
     </g>
    </g>
   </g>
  </g>
 </g>
 <defs>
  <clipPath id="p6521f45e4a">
   <rect height="282.330709" width="555.633092" x="17.532262" y="2.834646"/>
  </clipPath>
 </defs>
</svg>
